<?xml version="1.0" encoding="UTF-8"?>
<svg xmlns="http://www.w3.org/2000/svg" id="Layer_1" data-name="Layer 1" viewBox="0 0 150 150" width="512" height="512"><path d="M103.006,140H47a4.908,4.908,0,0,1-4.727-5.062V97.666A4.908,4.908,0,0,1,47,92.6h56.011a4.909,4.909,0,0,1,4.727,5.062v37.272A4.909,4.909,0,0,1,103.006,140ZM47,94.6a2.912,2.912,0,0,0-2.727,3.062v37.272A2.912,2.912,0,0,0,47,138h56.011a2.912,2.912,0,0,0,2.727-3.062V97.666a2.912,2.912,0,0,0-2.727-3.062Z"/><path d="M101.462,134.729H94.579a1,1,0,1,1,0-2h5.883v-5.16a1,1,0,0,1,2,0v6.16A1,1,0,0,1,101.462,134.729Z"/><path d="M98.119,94.6a1,1,0,0,1-1-1V77.074a22.119,22.119,0,0,0-44.238,0V93.6a1,1,0,1,1-2,0V77.074a24.119,24.119,0,0,1,48.238,0V93.6A1,1,0,0,1,98.119,94.6Z"/><path d="M90.853,94.6a1,1,0,0,1-1-1V77.156a14.853,14.853,0,1,0-29.706,0V93.6a1,1,0,0,1-2,0V77.156a16.853,16.853,0,1,1,33.706,0V93.6A1,1,0,0,1,90.853,94.6Z"/><path d="M78.092,121.759H71.908a1,1,0,0,1-.994-1.105l.672-6.365a5.38,5.38,0,1,1,6.829,0l.672,6.365a1,1,0,0,1-1,1.105Zm-5.073-2h3.962l-.616-5.833a1,1,0,0,1,.456-.947,3.381,3.381,0,1,0-3.641,0,1,1,0,0,1,.456.947Z"/><path d="M123.41,81.74H98.12a1,1,0,0,1,0-2h25.29c7.909,0,14.59-6.928,14.59-15.13v-.1a13.039,13.039,0,0,0-8.422-12.614.921.921,0,0,1-.123-.048,13.565,13.565,0,0,0-1.481-.586,1,1,0,0,1-.585-1.382,12.615,12.615,0,0,0,1.221-5.507,13.034,13.034,0,0,0-13.03-13.01,12.742,12.742,0,0,0-5.139,1.066,1,1,0,0,1-1.4-.859A20.022,20.022,0,0,0,71.686,22.8a1,1,0,0,1-.863.5,1.017,1.017,0,0,1-.866-.494A21.929,21.929,0,0,0,29.13,33.95a21.517,21.517,0,0,0,.994,6.5,1,1,0,0,1-.862,1.3A19.039,19.039,0,0,0,31.03,79.74H51.88a1,1,0,1,1,0,2H31.03A21.04,21.04,0,0,1,27.885,39.9a23.615,23.615,0,0,1-.755-5.948A23.93,23.93,0,0,1,70.817,20.428a22.021,22.021,0,0,1,40.1,9.675,14.77,14.77,0,0,1,4.66-.743,15.036,15.036,0,0,1,15.03,15.01,14.725,14.725,0,0,1-.983,5.368c.218.089.428.18.631.275A15.09,15.09,0,0,1,140,64.513C140,73.9,132.4,81.74,123.41,81.74Z"/><path d="M36.461,72.964H31.035A12.275,12.275,0,0,1,18.78,60.7a1,1,0,0,1,2,0A10.273,10.273,0,0,0,31.035,70.964h5.426a1,1,0,0,1,0,2Z"/></svg>
