<svg id="Layer_1" enable-background="new 0 0 512 512" height="512" viewBox="0 0 512 512" width="512" xmlns="http://www.w3.org/2000/svg"><g clip-rule="evenodd" fill-rule="evenodd"><path d="m459.406 197.194-192.8-192.8c-5.857-5.858-15.355-5.858-21.213 0l-192.8 192.8c-2.813 2.813-4.394 6.628-4.394 10.606v289.2c0 8.284 6.716 15 15 15h385.6c8.284 0 15-6.716 15-15v-289.2c.001-3.978-1.579-7.793-4.393-10.606zm-25.606 284.806h-355.6v-267.987l177.8-177.799 177.8 177.8z"/><path d="m256 305.254c-21.183 0-41.088 8.241-56.052 23.204-5.857 5.858-5.857 15.355 0 21.213 5.857 5.857 15.355 5.858 21.213 0 9.296-9.297 21.669-14.417 34.838-14.417s25.542 5.12 34.838 14.417c5.871 5.87 15.367 5.846 21.213 0 5.858-5.858 5.858-15.355 0-21.213-14.961-14.963-34.867-23.204-56.05-23.204z"/><path d="m154.504 283.016c-5.858 5.858-5.857 15.355 0 21.213 5.858 5.857 15.356 5.857 21.213 0 21.427-21.428 49.939-33.229 80.283-33.229s58.856 11.801 80.282 33.229c5.871 5.871 15.368 5.845 21.213 0 5.858-5.858 5.858-15.355 0-21.213-27.092-27.095-63.137-42.016-101.495-42.016s-74.403 14.921-101.496 42.016z"/><circle cx="256" cy="384.509" r="15"/></g></svg>