<svg id="Layer_1" enable-background="new 0 0 512 512" height="512" viewBox="0 0 512 512" width="512" xmlns="http://www.w3.org/2000/svg"><g><path d="m384.533 56.233c-8.284 0-15 6.716-15 15s6.716 15 15 15c22.736 0 41.233 18.497 41.233 41.233 0 8.284 6.716 15 15 15s15-6.716 15-15c.001-39.278-31.954-71.233-71.233-71.233z"/><path d="m384.533 0c-8.284 0-15 6.716-15 15s6.716 15 15 15c53.743 0 97.467 43.724 97.467 97.467 0 8.284 6.716 15 15 15s15-6.716 15-15c0-70.286-57.181-127.467-127.467-127.467z"/><circle cx="384.533" cy="127.467" r="15"/><path d="m336.333 208.867h-33.2v-49.267c0-70.519-57.085-127.467-127.467-127.467-70.518 0-127.466 57.085-127.466 127.467v49.267h-33.2c-8.284 0-15 6.716-15 15v273.133c0 8.284 6.716 15 15 15h321.333c8.284 0 15-6.716 15-15v-273.133c0-8.284-6.715-15-15-15zm-258.133-49.267c0-53.914 43.645-97.467 97.466-97.467 53.911 0 97.467 43.644 97.467 97.467v49.267h-194.933zm243.133 322.4h-291.333v-243.133h291.333z"/><path d="m160.667 381.005v35.661c0 8.284 6.716 15 15 15s15-6.716 15-15v-35.661c18.655-6.281 32.133-23.927 32.133-44.672 0-25.989-21.144-47.133-47.133-47.133s-47.133 21.144-47.133 47.133c-.001 20.746 13.477 38.391 32.133 44.672zm15-61.805c9.447 0 17.133 7.686 17.133 17.133s-7.686 17.133-17.133 17.133-17.133-7.686-17.133-17.133 7.685-17.133 17.133-17.133z"/></g></svg>