<svg id="_x31__px" height="512" viewBox="0 0 24 24" width="512" xmlns="http://www.w3.org/2000/svg"><path d="m3.459 24.001c-.542 0-1.05-.12-1.51-.36-1.153-.604-1.838-1.895-1.929-3.635-.153-2.888.643-5.716 2.433-8.646 1.345-2.196 2.824-2.78 5.274-2.081 1.148.332 2.485.692 3.762.651.647-.009 1.298-.082 1.994-.22.27-.055.534.122.588.393s-.122.534-.393.588c-.756.151-1.466.229-2.17.24-1.405.037-2.838-.339-4.056-.69-2.024-.576-3.031-.178-4.146 1.641-1.681 2.751-2.429 5.392-2.287 8.072.071 1.374.566 2.368 1.394 2.802.866.453 2.031.275 3.284-.5 1.168-.721 2.28-1.486 3.307-2.205 1.43-1.006 3.563-1.006 4.994 0 1.026.718 2.137 1.483 3.305 2.204 1.252.775 2.42.954 3.284.5.828-.434 1.323-1.428 1.394-2.801.092-1.703-.179-3.377-.829-5.119-.096-.259.035-.547.294-.644.258-.094.547.035.644.294.688 1.848.988 3.706.891 5.521-.09 1.739-.775 3.03-1.929 3.634-1.191.624-2.709.434-4.274-.536-1.189-.734-2.314-1.508-3.354-2.236-1.101-.773-2.747-.773-3.846 0-1.04.728-2.166 1.502-3.355 2.236-.961.596-1.904.897-2.764.897z"/><path d="m7.5 17h-4c-.276 0-.5-.224-.5-.5s.224-.5.5-.5h4c.276 0 .5.224.5.5s-.224.5-.5.5z"/><path d="m5.5 19c-.276 0-.5-.224-.5-.5v-4c0-.276.224-.5.5-.5s.5.224.5.5v4c0 .276-.224.5-.5.5z"/><path d="m17.5 19c-1.378 0-2.5-1.122-2.5-2.5s1.122-2.5 2.5-2.5 2.5 1.122 2.5 2.5-1.122 2.5-2.5 2.5zm0-4c-.827 0-1.5.673-1.5 1.5s.673 1.5 1.5 1.5 1.5-.673 1.5-1.5-.673-1.5-1.5-1.5z"/><path d="m19.5 13c-.076 0-.153-.018-.224-.053-.169-.085-.276-.258-.276-.447v-4.484l-2.175 1.864c-.208.18-.524.157-.705-.054-.18-.209-.156-.525.054-.705l2.826-2.422v-.398l-2.825-2.422c-.21-.18-.234-.495-.054-.705s.496-.234.705-.054l2.174 1.864v-4.484c0-.189.107-.362.276-.447.17-.084.373-.067.523.047l4 3c.122.091.195.232.2.384.005.151-.059.297-.174.396l-3.057 2.62 3.057 2.621c.115.098.18.244.175.395-.005.152-.078.293-.2.384l-4 3c-.088.066-.194.1-.3.1zm.5-5.841v4.341l2.701-2.026zm0-1.318 2.701-2.315-2.701-2.026z"/></svg>