<svg id="Layer_1" height="512" viewBox="0 0 150 150" width="512" xmlns="http://www.w3.org/2000/svg" data-name="Layer 1"><path d="m115.466 50.542h-70.585a1 1 0 0 1 -.585-.189l-33.312-24.008a1 1 0 0 1 -.416-.811v-14.534a1 1 0 0 1 1-1h93.67a11.241 11.241 0 0 1 11.228 11.228v28.314a1 1 0 0 1 -1 1zm-70.262-2h69.262v-27.314a9.239 9.239 0 0 0 -9.228-9.228h-92.67v13.022z"/><path d="m109.466 22.228a1 1 0 0 1 -1-1 3.232 3.232 0 0 0 -3.228-3.228h-14.425a1 1 0 0 1 0-2h14.425a5.234 5.234 0 0 1 5.228 5.228 1 1 0 0 1 -1 1z"/><path d="m105.754 64.432h-84.8a1 1 0 0 1 -1-1v-8.238h-8.39a1 1 0 0 1 -1-1v-21.894a1 1 0 0 1 1-1h9.39a1 1 0 0 1 1 1v30.132h82.8v-12.89a1 1 0 1 1 2 0v13.89a1 1 0 0 1 -1 1zm-93.186-11.238h7.39v-19.894h-7.39z"/><path d="m86.327 90.089a1 1 0 0 1 -.613-.209 10.571 10.571 0 0 0 -13 0 1 1 0 0 1 -1.613-.791v-25.659a1 1 0 0 1 1-1h14.226a1 1 0 0 1 1 1v25.659a1 1 0 0 1 -1 1zm-13.222-25.659v22.8a12.736 12.736 0 0 1 12.222 0v-22.8z"/><path d="m128.186 106.355h-39.793a1 1 0 0 1 -.792-1.609 10.547 10.547 0 0 0 2.212-6.485 10.682 10.682 0 0 0 -2.222-6.5 1 1 0 0 1 .791-1.611h39.8a1 1 0 0 1 1 1v14.21a1 1 0 0 1 -.996.995zm-37.942-2h36.942v-12.21h-36.954a12.7 12.7 0 0 1 1.581 6.116 12.5 12.5 0 0 1 -1.569 6.094z"/><path d="m79.221 110.853a12.6 12.6 0 0 1 0-25.206 12.489 12.489 0 0 1 7.718 2.653 12.278 12.278 0 0 1 2.235 2.234 12.7 12.7 0 0 1 2.639 7.728 12.583 12.583 0 0 1 -12.592 12.592zm0-23.206a10.613 10.613 0 1 0 10.592 10.614 10.682 10.682 0 0 0 -2.222-6.5 10.282 10.282 0 0 0 -1.873-1.873 10.513 10.513 0 0 0 -6.497-2.241z"/><path d="m138.432 140h-10.251a1 1 0 0 1 -1-1v-80.533a1 1 0 0 1 1-1h10.251a1 1 0 0 1 1 1v80.533a1 1 0 0 1 -1 1zm-9.251-2h8.251v-78.533h-8.251z"/></svg>