<svg id="Layer_1" enable-background="new 0 0 512 512" height="512" viewBox="0 0 512 512" width="512" xmlns="http://www.w3.org/2000/svg"><g><path d="m384.533 56.233c-8.284 0-15 6.716-15 15s6.716 15 15 15c22.736 0 41.233 18.497 41.233 41.233 0 8.284 6.716 15 15 15s15-6.716 15-15c.001-39.278-31.954-71.233-71.233-71.233z"/><path d="m384.533 0c-8.284 0-15 6.716-15 15s6.716 15 15 15c53.743 0 97.467 43.724 97.467 97.467 0 8.284 6.716 15 15 15s15-6.716 15-15c0-70.286-57.182-127.467-127.467-127.467z"/><circle cx="384.533" cy="127.467" r="15"/><path d="m202.34 20.46c-5.857-5.858-15.355-5.858-21.213 0l-176.733 176.733c-2.813 2.813-4.394 6.628-4.394 10.607v289.2c0 8.284 6.716 15 15 15h353.467c8.284 0 15-6.716 15-15v-289.2c0-3.979-1.58-7.793-4.394-10.606zm86.86 461.54h-194.933v-34.267h194.933zm0-64.267h-194.933v-34.267h194.933zm0-64.266h-194.933v-34.267h194.933zm0-64.267h-194.933v-34.267h194.933zm64.267 192.8h-34.267v-242.067c0-8.284-6.716-15-15-15h-224.933c-8.284 0-15 6.716-15 15v242.067h-34.267v-267.987l161.733-161.733 161.733 161.733v267.987z"/></g></svg>