<svg id="Layer_1" height="512" viewBox="0 0 150 150" width="512" xmlns="http://www.w3.org/2000/svg" data-name="Layer 1"><path d="m111.74 140h-73.48a10.768 10.768 0 0 1 -10.755-10.756v-89.8a1 1 0 0 1 1-1h92.995a1 1 0 0 1 1 1v89.8a10.768 10.768 0 0 1 -10.76 10.756zm-82.235-99.556v88.8a8.765 8.765 0 0 0 8.755 8.756h73.48a8.766 8.766 0 0 0 8.756-8.756v-88.8z"/><path d="m128.163 40.444h-106.326a1 1 0 0 1 -1-1v-14.769a1 1 0 0 1 1-1h106.326a1 1 0 0 1 1 1v14.769a1 1 0 0 1 -1 1zm-105.326-2h104.326v-12.769h-104.326z"/><path d="m101 125.778a1 1 0 0 1 -1-1v-71.111a1 1 0 1 1 2 0v71.111a1 1 0 0 1 -1 1z"/><path d="m75 125.778a1 1 0 0 1 -1-1v-71.111a1 1 0 0 1 2 0v71.111a1 1 0 0 1 -1 1z"/><path d="m49 125.778a1 1 0 0 1 -1-1v-71.111a1 1 0 0 1 2 0v71.111a1 1 0 0 1 -1 1z"/><path d="m95.513 25.675h-41.025a1 1 0 0 1 -1-1 14.691 14.691 0 0 1 14.674-14.675h13.676a14.691 14.691 0 0 1 14.675 14.675 1 1 0 0 1 -1 1zm-39.986-2h38.947a12.693 12.693 0 0 0 -12.636-11.675h-13.676a12.691 12.691 0 0 0 -12.635 11.675z"/></svg>