<svg id="Layer_1" enable-background="new 0 0 512 512" height="512" viewBox="0 0 512 512" width="512" xmlns="http://www.w3.org/2000/svg"><g><path d="m384.533 56.233c-8.284 0-15 6.716-15 15s6.716 15 15 15c22.736 0 41.233 18.497 41.233 41.233 0 8.284 6.716 15 15 15s15-6.716 15-15c.001-39.278-31.954-71.233-71.233-71.233z"/><path d="m384.533 0c-8.284 0-15 6.716-15 15s6.716 15 15 15c53.743 0 97.467 43.724 97.467 97.467 0 8.284 6.716 15 15 15s15-6.716 15-15c0-70.286-57.182-127.467-127.467-127.467z"/><circle cx="384.533" cy="127.467" r="15"/><path d="m256 48.2h-176.733c-43.708 0-79.267 35.559-79.267 79.267v176.733c0 43.708 35.559 79.267 79.267 79.267h33.2c0 23.539-18.775 34.267-33.2 34.267-43.708-.001-79.267 35.558-79.267 79.266 0 8.284 6.716 15 15 15h305.267c8.284 0 15-6.716 15-15 0-43.708-35.559-79.267-79.267-79.267-14.356 0-33.2-10.686-33.2-34.267h33.2c43.708 0 79.267-35.559 79.267-79.267v-176.732c0-43.708-35.559-79.267-79.267-79.267zm0 399.533c21.938 0 40.572 14.413 46.933 34.267h-270.599c6.36-19.854 24.995-34.267 46.933-34.267 30.352 0 63.2-23.437 63.2-64.267h50.333c0 41.022 33.158 64.267 63.2 64.267zm49.267-143.533c0 27.166-22.101 49.267-49.267 49.267h-176.733c-27.166 0-49.267-22.101-49.267-49.267v-176.733c0-27.166 22.101-49.267 49.267-49.267h176.733c27.166 0 49.267 22.101 49.267 49.267z"/><circle cx="256" cy="127.467" r="15"/><path d="m167.634 136.567c-43.708 0-79.268 35.559-79.268 79.267s35.56 79.267 79.268 79.267 79.267-35.559 79.267-79.267-35.559-79.267-79.267-79.267zm0 128.533c-27.166 0-49.268-22.101-49.268-49.267s22.102-49.267 49.268-49.267 49.267 22.101 49.267 49.267-22.101 49.267-49.267 49.267z"/></g></svg>