<svg id="Layer_1" height="512" viewBox="0 0 150 150" width="512" xmlns="http://www.w3.org/2000/svg" data-name="Layer 1"><path d="m135.408 133.244h-120.817a4.6 4.6 0 0 1 -4.591-4.592v-49a4.6 4.6 0 0 1 4.591-4.591h120.817a4.6 4.6 0 0 1 4.592 4.592v49a4.6 4.6 0 0 1 -4.592 4.591zm-120.817-56.182a2.594 2.594 0 0 0 -2.591 2.591v49a2.594 2.594 0 0 0 2.591 2.592h120.817a2.6 2.6 0 0 0 2.592-2.593v-49a2.6 2.6 0 0 0 -2.592-2.591z"/><path d="m22.149 85.583h-4.524a1 1 0 0 1 0-2h4.524a1 1 0 0 1 0 2z"/><path d="m37.9 85.583h-4.529a1 1 0 0 1 0-2h4.529a1 1 0 0 1 0 2z"/><path d="m53.643 85.583h-4.526a1 1 0 1 1 0-2h4.526a1 1 0 0 1 0 2z"/><path d="m69.389 85.583h-4.525a1 1 0 0 1 0-2h4.525a1 1 0 0 1 0 2z"/><path d="m85.136 85.583h-4.526a1 1 0 1 1 0-2h4.526a1 1 0 0 1 0 2z"/><path d="m100.882 85.583h-4.525a1 1 0 0 1 0-2h4.525a1 1 0 0 1 0 2z"/><path d="m116.628 85.583h-4.528a1 1 0 0 1 0-2h4.524a1 1 0 1 1 0 2z"/><path d="m132.375 85.583h-4.525a1 1 0 0 1 0-2h4.525a1 1 0 0 1 0 2z"/><path d="m22.149 98.629h-4.524a1 1 0 0 1 0-2h4.524a1 1 0 0 1 0 2z"/><path d="m37.9 98.629h-4.529a1 1 0 1 1 0-2h4.529a1 1 0 0 1 0 2z"/><path d="m53.643 98.629h-4.526a1 1 0 0 1 0-2h4.526a1 1 0 0 1 0 2z"/><path d="m69.389 98.629h-4.525a1 1 0 0 1 0-2h4.525a1 1 0 0 1 0 2z"/><path d="m85.136 98.629h-4.526a1 1 0 0 1 0-2h4.526a1 1 0 0 1 0 2z"/><path d="m100.882 98.629h-4.525a1 1 0 0 1 0-2h4.525a1 1 0 0 1 0 2z"/><path d="m116.628 98.629h-4.528a1 1 0 0 1 0-2h4.524a1 1 0 0 1 0 2z"/><path d="m132.375 98.629h-4.525a1 1 0 0 1 0-2h4.525a1 1 0 0 1 0 2z"/><path d="m22.149 111.676h-4.524a1 1 0 1 1 0-2h4.524a1 1 0 0 1 0 2z"/><path d="m37.9 111.676h-4.529a1 1 0 1 1 0-2h4.529a1 1 0 0 1 0 2z"/><path d="m53.643 111.676h-4.526a1 1 0 0 1 0-2h4.526a1 1 0 1 1 0 2z"/><path d="m69.389 111.676h-4.525a1 1 0 0 1 0-2h4.525a1 1 0 0 1 0 2z"/><path d="m85.136 111.676h-4.526a1 1 0 0 1 0-2h4.526a1 1 0 0 1 0 2z"/><path d="m100.882 111.676h-4.525a1 1 0 0 1 0-2h4.525a1 1 0 0 1 0 2z"/><path d="m132.375 111.676h-4.525a1 1 0 0 1 0-2h4.525a1 1 0 0 1 0 2z"/><path d="m116.628 111.676h-4.528a1 1 0 0 1 0-2h4.524a1 1 0 0 1 0 2z"/><path d="m22.149 124.723h-4.524a1 1 0 0 1 0-2h4.524a1 1 0 1 1 0 2z"/><path d="m37.9 124.723h-4.529a1 1 0 1 1 0-2h4.529a1 1 0 0 1 0 2z"/><path d="m85.212 124.723h-36.1a1 1 0 0 1 0-2h36.1a1 1 0 0 1 0 2z"/><path d="m100.882 124.723h-4.525a1 1 0 0 1 0-2h4.525a1 1 0 0 1 0 2z"/><path d="m116.628 124.723h-4.528a1 1 0 0 1 0-2h4.524a1 1 0 0 1 0 2z"/><path d="m132.375 124.723h-4.525a1 1 0 0 1 0-2h4.525a1 1 0 0 1 0 2z"/><path d="m75 77.062a1 1 0 0 1 -1-1v-7.053a1 1 0 0 1 2 0v7.053a1 1 0 0 1 -1 1z"/><path d="m109 32.839a1 1 0 0 1 -.707-.293 47.076 47.076 0 0 0 -66.579 0 1 1 0 0 1 -1.414-1.414 49.075 49.075 0 0 1 69.407 0 1 1 0 0 1 -.707 1.707z"/><path d="m101.151 40.684a1 1 0 0 1 -.707-.293 36.026 36.026 0 0 0 -50.888 0 1 1 0 0 1 -1.414-1.414 38.025 38.025 0 0 1 53.716 0 1 1 0 0 1 -.707 1.707z"/><path d="m93.306 48.529a.993.993 0 0 1 -.707-.293 24.92 24.92 0 0 0 -35.2 0 1 1 0 0 1 -1.414-1.414 26.92 26.92 0 0 1 38.027 0 1 1 0 0 1 -.707 1.707z"/><path d="m85.46 56.375a1 1 0 0 1 -.707-.293 13.811 13.811 0 0 0 -19.507 0 1 1 0 0 1 -1.414-1.414 15.81 15.81 0 0 1 22.335 0 1 1 0 0 1 -.707 1.707z"/><path d="m75 70.009a5.984 5.984 0 1 1 5.982-5.983 5.99 5.99 0 0 1 -5.982 5.983zm0-9.967a3.984 3.984 0 1 0 3.982 3.984 3.989 3.989 0 0 0 -3.982-3.984z"/></svg>