<svg id="Layer_1" enable-background="new 0 0 512 512" height="512" viewBox="0 0 512 512" width="512" xmlns="http://www.w3.org/2000/svg"><g><path d="m384.533 56.233c-8.284 0-15 6.716-15 15s6.716 15 15 15c22.736 0 41.233 18.497 41.233 41.233 0 8.284 6.716 15 15 15s15-6.716 15-15c.001-39.278-31.954-71.233-71.233-71.233z"/><path d="m384.533 0c-8.284 0-15 6.716-15 15s6.716 15 15 15c53.743 0 97.467 43.724 97.467 97.467 0 8.284 6.716 15 15 15s15-6.716 15-15c0-70.286-57.182-127.467-127.467-127.467z"/><circle cx="384.533" cy="127.467" r="15"/><path d="m368.467 353.467h-17.134v-97.467c0-71.169-46.827-131.599-111.286-152.118 9.279-11.002 14.887-25.196 14.887-40.682 0-34.849-28.352-63.2-63.2-63.2s-63.2 28.352-63.2 63.2c0 15.486 5.608 29.68 14.887 40.682-64.46 20.519-111.287 80.949-111.287 152.118v97.467h-17.134c-8.284 0-15 6.716-15 15v64.267c0 8.284 6.716 15 15 15h113.533v1.066c0 34.958 28.29 63.2 63.2 63.2 34.958 0 63.2-28.289 63.2-63.2v-1.066h113.533c8.284 0 15-6.716 15-15v-64.267c.001-8.284-6.715-15-14.999-15zm-176.734-323.467c18.307 0 33.2 14.894 33.2 33.2s-14.894 33.2-33.2 33.2-33.2-14.893-33.2-33.2 14.894-33.2 33.2-33.2zm-129.599 226c0-71.462 58.138-129.6 129.6-129.6s129.6 58.138 129.6 129.6v97.467h-259.2zm162.8 192.8c0 18.359-14.853 33.2-33.2 33.2-18.359 0-33.2-14.854-33.2-33.2v-1.066h66.4zm128.533-31.067h-323.467v-34.267h323.467z"/></g></svg>