<svg id="Layer_1" height="512" viewBox="0 0 150 150" width="512" xmlns="http://www.w3.org/2000/svg" data-name="Layer 1"><path d="m16.113 106.51a6.022 6.022 0 0 1 -6.113-5.91v-84.687a6.022 6.022 0 0 1 6.113-5.913 6.023 6.023 0 0 1 6.114 5.913v84.687a6.023 6.023 0 0 1 -6.114 5.91zm0-94.51a4.021 4.021 0 0 0 -4.113 3.913v84.687a4.021 4.021 0 0 0 4.113 3.913 4.021 4.021 0 0 0 4.114-3.913v-84.687a4.021 4.021 0 0 0 -4.114-3.913z"/><path d="m87.505 38.785c-37.309 0-66.576-21.843-66.883-22.075a1 1 0 0 1 1.208-1.594c.316.239 31.983 23.852 71.191 21.5a1.022 1.022 0 0 1 1.057.938 1 1 0 0 1 -.938 1.058c-1.895.118-3.778.173-5.635.173z"/><path d="m21.228 101.536a1 1 0 0 1 -.6-1.8c.326-.243 33.159-24.3 73.092-21.9a1 1 0 0 1 -.119 2c-39.215-2.355-71.458 21.27-71.78 21.509a.987.987 0 0 1 -.593.191z"/><path d="m116.648 82.457h-16.773a9.3 9.3 0 0 1 -9.446-9.116v-30.9a9.3 9.3 0 0 1 9.446-9.116h16.773a9.3 9.3 0 0 1 9.447 9.116v30.9a9.3 9.3 0 0 1 -9.447 9.116zm-16.773-47.135a7.3 7.3 0 0 0 -7.446 7.116v30.9a7.3 7.3 0 0 0 7.446 7.116h16.773a7.3 7.3 0 0 0 7.447-7.116v-30.9a7.3 7.3 0 0 0 -7.447-7.116z"/><path d="m112.016 35.317a1 1 0 0 1 -1-1v-3.066a3.668 3.668 0 0 0 -7.326 0v3.066a1 1 0 1 1 -2 0v-3.066a5.666 5.666 0 0 1 11.326 0v3.066a1 1 0 0 1 -1 1z"/><path d="m108.262 67.033a9.152 9.152 0 1 1 9.484-9.138 9.327 9.327 0 0 1 -9.484 9.138zm0-16.291a7.153 7.153 0 1 0 7.484 7.153 7.333 7.333 0 0 0 -7.484-7.153z"/><path d="m130.794 79.21h-6.93a1 1 0 0 1 -1-1v-.663a1 1 0 0 1 1.943-.337h5.987a7.058 7.058 0 0 0 7.206-6.885v-24.212a7.058 7.058 0 0 0 -7.206-6.885h-6.809a1.01 1.01 0 0 1 -1.121-.986v-.014a1 1 0 0 1 1-1h6.93a9.06 9.06 0 0 1 9.206 8.885v24.212a9.06 9.06 0 0 1 -9.206 8.885z"/><path d="m110.293 140h-5.879a8.474 8.474 0 0 1 -8.609-8.312v-50.794a1 1 0 0 1 2 0v50.794a6.473 6.473 0 0 0 6.609 6.312h5.879a6.473 6.473 0 0 0 6.609-6.312v-50.321a1 1 0 0 1 2 0v50.321a8.474 8.474 0 0 1 -8.609 8.312z"/></svg>