<svg id="Layer_1" enable-background="new 0 0 512 512" height="512" viewBox="0 0 512 512" width="512" xmlns="http://www.w3.org/2000/svg"><g><path d="m384.533 56.233c-8.284 0-15 6.716-15 15s6.716 15 15 15c22.736 0 41.233 18.497 41.233 41.233 0 8.284 6.716 15 15 15s15-6.716 15-15c.001-39.278-31.954-71.233-71.233-71.233z"/><path d="m384.533 0c-8.284 0-15 6.716-15 15s6.716 15 15 15c53.743 0 97.467 43.724 97.467 97.467 0 8.284 6.716 15 15 15s15-6.716 15-15c0-70.286-57.181-127.467-127.467-127.467z"/><circle cx="384.533" cy="127.467" r="15"/><path d="m175.667 112.467c-61.426 0-111.4 49.974-111.4 111.4 0 8.284 6.716 15 15 15s15-6.716 15-15c0-44.884 36.516-81.4 81.4-81.4 8.284 0 15-6.716 15-15s-6.716-15-15-15z"/><path d="m175.667 48.2c-96.863 0-175.667 78.804-175.667 175.667 0 51.738 22.607 100.296 62.036 133.254 21.84 19.061 34.364 46.609 34.364 75.604v32.142c0 25.989 21.144 47.133 47.133 47.133h64.267c25.989 0 47.133-21.144 47.133-47.133v-32.142c0-28.996 12.524-56.544 34.364-75.604 39.429-32.958 62.036-81.516 62.036-133.254 0-96.863-78.804-175.667-175.666-175.667zm49.266 416.667c0 9.447-7.686 17.133-17.133 17.133h-64.267c-9.447 0-17.133-7.686-17.133-17.133v-17.133h98.533zm45.019-130.677c-.08.066-.159.134-.237.202-24.659 21.457-40.206 51.23-43.919 83.341h-100.26c-3.713-32.111-19.26-61.885-43.919-83.341-.078-.068-.157-.135-.237-.202-32.652-27.243-51.38-67.455-51.38-110.323 0-80.321 65.346-145.667 145.667-145.667s145.667 65.346 145.667 145.667c-.001 42.868-18.729 83.08-51.382 110.323z"/></g></svg>