<svg id="_x31__px" height="512" viewBox="0 0 24 24" width="512" xmlns="http://www.w3.org/2000/svg"><path d="m17.5 17c-.128 0-.256-.049-.354-.146l-2.646-2.647-2.646 2.646c-.195.195-.512.195-.707 0s-.195-.512 0-.707l3-3c.195-.195.512-.195.707 0l3 3c.195.195.195.512 0 .707-.098.098-.226.147-.354.147z"/><path d="m14.5 24c-.276 0-.5-.224-.5-.5v-9.75c0-.276.224-.5.5-.5s.5.224.5.5v9.75c0 .276-.224.5-.5.5z"/><path d="m20.5 24c-.128 0-.256-.049-.354-.146l-3-3c-.195-.195-.195-.512 0-.707s.512-.195.707 0l2.646 2.646 2.646-2.646c.195-.195.512-.195.707 0s.195.512 0 .707l-3 3c-.096.097-.224.146-.352.146z"/><path d="m20.5 23.75c-.276 0-.5-.224-.5-.5v-9.75c0-.276.224-.5.5-.5s.5.224.5.5v9.75c0 .276-.224.5-.5.5z"/><path d="m9.5 19h-4c-1.378 0-2.5-1.121-2.5-2.5v-11c0-1.379 1.122-2.5 2.5-2.5h11c1.378 0 2.5 1.121 2.5 2.5v5.001c0 .276-.224.5-.5.5s-.5-.224-.5-.5v-5.001c0-.827-.673-1.5-1.5-1.5h-11c-.827 0-1.5.673-1.5 1.5v11c0 .827.673 1.5 1.5 1.5h4c.276 0 .5.224.5.5s-.223.5-.5.5z"/><path d="m8.5 16h-1c-.827 0-1.5-.673-1.5-1.5v-7c0-.827.673-1.5 1.5-1.5h3.586c.4 0 .777.156 1.061.439l3.414 3.414c.195.195.195.512 0 .707s-.512.195-.707 0l-3.414-3.414c-.094-.092-.223-.146-.354-.146h-3.586c-.276 0-.5.225-.5.5v7c0 .275.224.5.5.5h1c.276 0 .5.224.5.5s-.224.5-.5.5z"/><path d="m6.5 22c-.276 0-.5-.224-.5-.5v-3c0-.276.224-.5.5-.5s.5.224.5.5v3c0 .276-.224.5-.5.5z"/><path d="m11 4c-.276 0-.5-.224-.5-.5v-3c0-.276.224-.5.5-.5s.5.224.5.5v3c0 .276-.224.5-.5.5z"/><path d="m6.5 4c-.276 0-.5-.224-.5-.5v-3c0-.276.224-.5.5-.5s.5.224.5.5v3c0 .276-.224.5-.5.5z"/><path d="m15.5 4c-.276 0-.5-.224-.5-.5v-3c0-.276.224-.5.5-.5s.5.224.5.5v3c0 .276-.224.5-.5.5z"/><path d="m3.5 11.5h-3c-.276 0-.5-.224-.5-.5s.224-.5.5-.5h3c.276 0 .5.224.5.5s-.224.5-.5.5z"/><path d="m3.5 7h-3c-.276 0-.5-.224-.5-.5s.224-.5.5-.5h3c.276 0 .5.224.5.5s-.224.5-.5.5z"/><path d="m3.5 16h-3c-.276 0-.5-.224-.5-.5s.224-.5.5-.5h3c.276 0 .5.224.5.5s-.224.5-.5.5z"/><path d="m21.5 7h-3c-.276 0-.5-.224-.5-.5s.224-.5.5-.5h3c.276 0 .5.224.5.5s-.224.5-.5.5z"/></svg>