<svg id="Layer_1" height="512" viewBox="0 0 150 150" width="512" xmlns="http://www.w3.org/2000/svg" data-name="Layer 1"><path d="m134.137 124.6h-118.274a5.869 5.869 0 0 1 -5.863-5.867v-73.776a5.869 5.869 0 0 1 5.863-5.863h50.56a4.218 4.218 0 0 0 3.489-1.843l5.379-8.982a6.4 6.4 0 0 1 5.329-2.869h30.892a6.382 6.382 0 0 1 5.3 2.82l5.421 9.051a4.2 4.2 0 0 0 3.474 1.819h8.429a5.869 5.869 0 0 1 5.864 5.867v73.776a5.869 5.869 0 0 1 -5.863 5.867zm-118.274-83.506a3.867 3.867 0 0 0 -3.863 3.863v73.776a3.867 3.867 0 0 0 3.863 3.863h118.274a3.867 3.867 0 0 0 3.863-3.863v-73.776a3.867 3.867 0 0 0 -3.863-3.863h-8.429a6.215 6.215 0 0 1 -5.162-2.747l-5.421-9.047a4.366 4.366 0 0 0 -3.613-1.892h-30.892a4.385 4.385 0 0 0 -3.642 1.937l-5.364 8.955-.029.045a6.213 6.213 0 0 1 -5.162 2.747z"/><path d="m93.666 113.8a32.437 32.437 0 1 1 32.434-32.435 32.474 32.474 0 0 1 -32.434 32.435zm0-62.873a30.437 30.437 0 1 0 30.434 30.438 30.471 30.471 0 0 0 -30.434-30.436z"/><path d="m93.666 101.8a20.437 20.437 0 1 1 20.434-20.435 20.46 20.46 0 0 1 -20.434 20.435zm0-38.873a18.437 18.437 0 1 0 18.434 18.438 18.458 18.458 0 0 0 -18.434-18.436z"/><path d="m104.1 82.365a1 1 0 0 1 -1-1 9.447 9.447 0 0 0 -9.436-9.436 1 1 0 0 1 0-2 11.45 11.45 0 0 1 11.436 11.436 1 1 0 0 1 -1 1z"/><path d="m48 62.93h-25.84a1 1 0 0 1 -1-1v-12a1 1 0 0 1 1-1h25.84a1 1 0 0 1 1 1v12a1 1 0 0 1 -1 1zm-24.84-2h23.84v-10h-23.84z"/><path d="m28.7 117.07a7.75 7.75 0 1 1 7.75-7.75 7.759 7.759 0 0 1 -7.75 7.75zm0-13.5a5.75 5.75 0 1 0 5.75 5.75 5.757 5.757 0 0 0 -5.75-5.75z"/><path d="m33.83 83.25h-12.13a1 1 0 0 1 0-2h12.13a1 1 0 0 1 0 2z"/></svg>