<svg id="Layer_1" enable-background="new 0 0 512 512" height="512" viewBox="0 0 512 512" width="512" xmlns="http://www.w3.org/2000/svg"><g><path d="m384.533 56.233c-8.284 0-15 6.716-15 15s6.716 15 15 15c22.736 0 41.233 18.497 41.233 41.233 0 8.284 6.716 15 15 15s15-6.716 15-15c.001-39.278-31.954-71.233-71.233-71.233z"/><path d="m384.533 0c-8.284 0-15 6.716-15 15s6.716 15 15 15c53.743 0 97.467 43.724 97.467 97.467 0 8.284 6.716 15 15 15s15-6.716 15-15c0-70.286-57.182-127.467-127.467-127.467z"/><circle cx="384.533" cy="127.467" r="15"/><path d="m432.733 176.733h-417.733c-8.284 0-15 6.716-15 15v192.8c0 8.284 6.716 15 15 15h417.733c8.284 0 15-6.716 15-15v-192.8c0-8.284-6.715-15-15-15zm-15 192.8h-387.733v-34.267h387.733zm0-64.266h-387.733v-98.533h387.733z"/><path d="m127.467 433.8c-8.284 0-15 6.716-15 15 0 18.307-14.894 33.2-33.2 33.2-8.284 0-15 6.716-15 15s6.716 15 15 15c34.849 0 63.2-28.352 63.2-63.2 0-8.284-6.716-15-15-15z"/><path d="m368.467 482c-18.307 0-33.2-14.894-33.2-33.2 0-8.284-6.716-15-15-15s-15 6.716-15 15c0 34.849 28.352 63.2 63.2 63.2 8.284 0 15-6.716 15-15s-6.716-15-15-15z"/><path d="m191.733 433.8c-8.284 0-15 6.716-15 15v48.2c0 8.284 6.716 15 15 15s15-6.716 15-15v-48.2c0-8.284-6.715-15-15-15z"/><path d="m256 433.8c-8.284 0-15 6.716-15 15v48.2c0 8.284 6.716 15 15 15s15-6.716 15-15v-48.2c0-8.284-6.716-15-15-15z"/><circle cx="368.467" cy="256" r="15"/><circle cx="304.2" cy="256" r="15"/></g></svg>