<svg id="Layer_1" height="512" viewBox="0 0 150 150" width="512" xmlns="http://www.w3.org/2000/svg" data-name="Layer 1"><path d="m22.2 66.569h-6.133a1 1 0 0 1 -1-1v-17.586h-.294a4.779 4.779 0 0 1 -4.773-4.773v-22.4a4.779 4.779 0 0 1 4.773-4.773h8.721a4.778 4.778 0 0 1 4.773 4.773v22.4a4.778 4.778 0 0 1 -4.773 4.773h-.294v17.586a1 1 0 0 1 -1 1zm-5.132-2h4.132v-17.586a1 1 0 0 1 1-1h1.295a2.777 2.777 0 0 0 2.773-2.773v-22.4a2.777 2.777 0 0 0 -2.773-2.773h-8.722a2.776 2.776 0 0 0 -2.773 2.774v22.4a2.776 2.776 0 0 0 2.773 2.773h1.294a1 1 0 0 1 1 1z"/><path d="m31.911 41.638h-4.644a1 1 0 0 1 -1-1v-17.252a1 1 0 0 1 1-1h4.644a9.626 9.626 0 0 1 0 19.252zm-3.644-2h3.644a7.626 7.626 0 0 0 0-15.252h-3.644z"/><path d="m66.36 139.847a14.574 14.574 0 0 1 -6.106-1.342 27.8 27.8 0 0 1 -16.134-25.182v-9.441a27.021 27.021 0 0 1 -25.986-26.968v-11.345a1 1 0 0 1 2 0v11.345a25.015 25.015 0 0 0 24.986 24.986 1 1 0 0 1 1 1v10.423a25.79 25.79 0 0 0 14.97 23.365 12.609 12.609 0 0 0 17.542-8.562l2.1-8.9c.081-.344.172-.687.276-1.027a13.559 13.559 0 0 1 9.78-9.265 14.181 14.181 0 0 1 13.592 3.7l3.982 3.962a11.959 11.959 0 0 0 17.917-1.192l7.411-9.645a1 1 0 0 1 1.586 1.219l-7.411 9.645a13.959 13.959 0 0 1 -20.913 1.391l-3.982-3.962a12.189 12.189 0 0 0 -11.692-3.178 11.581 11.581 0 0 0 -8.356 7.9c-.09.3-.172.6-.243.908l-2.1 8.9a14.623 14.623 0 0 1 -14.219 11.265z"/><path d="m21.211 27.413h-4.149a1 1 0 0 1 0-2h4.149a1 1 0 0 1 0 2z"/><path d="m21.211 38.2h-4.149a1 1 0 1 1 0-2h4.149a1 1 0 0 1 0 2z"/><path d="m54.269 54.964a1 1 0 0 1 -.644-.235l-4.693-3.946a1 1 0 0 1 -.122-1.409l11.315-13.461-.225-.189a4.772 4.772 0 0 1 -.582-6.724l14.413-17.147a4.778 4.778 0 0 1 6.725-.582l6.676 5.612a4.778 4.778 0 0 1 .582 6.724l-14.414 17.146a4.781 4.781 0 0 1 -6.726.582l-.224-.189-11.316 13.461a1 1 0 0 1 -.68.353c-.028.002-.054.004-.085.004zm-3.285-5.064 3.162 2.658 11.317-13.465a1 1 0 0 1 1.409-.122l.99.833a2.777 2.777 0 0 0 3.908-.338l14.413-17.146a2.777 2.777 0 0 0 -.338-3.906l-6.676-5.614a2.775 2.775 0 0 0 -3.906.338l-14.413 17.148a2.769 2.769 0 0 0 .337 3.907l.991.832a1 1 0 0 1 .122 1.409z"/><path d="m83.288 44.148a9.582 9.582 0 0 1 -6.188-2.248l-3.556-2.989a1 1 0 0 1 -.122-1.409l11.1-13.206a1 1 0 0 1 1.41-.122l3.554 2.988a9.638 9.638 0 0 1 1.178 13.558 9.609 9.609 0 0 1 -7.376 3.428zm-7.688-6.129 2.79 2.344a7.625 7.625 0 1 0 9.81-11.674l-2.789-2.345z"/><path d="m79.041 25.227a1 1 0 0 1 -.643-.234l-3.175-2.669a1 1 0 1 1 1.287-1.531l3.176 2.669a1 1 0 0 1 -.645 1.765z"/><path d="m71.768 32.61a1 1 0 0 1 -.643-.235l-3.175-2.669a1 1 0 1 1 1.287-1.531l3.175 2.669a1 1 0 0 1 -.644 1.766z"/><path d="m45.12 103.9a1 1 0 0 1 -.66-1.751l7.853-6.909a10.878 10.878 0 0 0 -.09-16.415 18.6 18.6 0 0 1 -1.023-27.246l.166-.166a1 1 0 0 1 1.416 1.412l-.167.167a16.6 16.6 0 0 0 .912 24.316 12.879 12.879 0 0 1 .107 19.434l-7.854 6.909a.994.994 0 0 1 -.66.249z"/><path d="m139 107.373h-9.039a1 1 0 0 1 -1-1v-21.4a1 1 0 0 1 1-1h9.039a1 1 0 0 1 1 1v21.4a1 1 0 0 1 -1 1zm-8.039-2h7.039v-19.4h-7.039z"/><path d="m136.681 85.969h-4.4a1 1 0 0 1 -1-1v-12.941a1 1 0 0 1 .329-.741l2.2-1.991a1 1 0 0 1 1.341 0l2.2 1.991a1 1 0 0 1 .329.741v12.941a1 1 0 0 1 -.999 1zm-3.4-2h2.4v-11.5l-1.2-1.087-1.2 1.087z"/><path d="m139 96.85h-9.039a1 1 0 0 1 0-2h9.039a1 1 0 0 1 0 2z"/><path d="m136.681 79.17h-4.4a1 1 0 0 1 0-2h4.4a1 1 0 0 1 0 2z"/></svg>