<svg id="Layer_1" enable-background="new 0 0 512 512" height="512" viewBox="0 0 512 512" width="512" xmlns="http://www.w3.org/2000/svg"><g><path d="m384.533 56.233c-8.284 0-15 6.716-15 15s6.716 15 15 15c22.736 0 41.233 18.497 41.233 41.233 0 8.284 6.716 15 15 15s15-6.716 15-15c.001-39.278-31.954-71.233-71.233-71.233z"/><path d="m384.533 0c-8.284 0-15 6.716-15 15s6.716 15 15 15c53.743 0 97.467 43.724 97.467 97.467 0 8.284 6.716 15 15 15s15-6.716 15-15c0-70.286-57.182-127.467-127.467-127.467z"/><circle cx="384.533" cy="127.467" r="15"/><path d="m320.267 48.2h-305.267c-8.284 0-15 6.716-15 15v433.8c0 8.284 6.716 15 15 15h305.267c8.284 0 15-6.716 15-15v-433.8c0-8.284-6.716-15-15-15zm-15 433.8h-275.267v-275.267h34.267v226c0 8.284 6.716 15 15 15h176.733c8.284 0 15-6.716 15-15v-226h34.267zm-122.633-186.9h58.366v122.633h-58.366zm0-30v-58.367h58.366v58.367zm-30 0h-58.367v-58.367h58.367zm0 30v122.633h-58.367v-122.633zm152.633-118.367h-275.267v-34.267h275.267zm0-64.266h-275.267v-34.267h275.267z"/></g></svg>