<svg id="_x31__px" height="512" viewBox="0 0 24 24" width="512" xmlns="http://www.w3.org/2000/svg"><path d="m18 19.5c-2.229 0-6-.421-6-2 0-.276.224-.5.5-.5.271 0 .492.217.5.486.158.357 1.994 1.014 5 1.014 3.024 0 4.864-.664 5.003-1.021 0-.276.223-.49.499-.49.275 0 .498.234.498.511 0 1.579-3.771 2-6 2zm-5-2h.01z"/><path d="m18 15c-2.229 0-6-.421-6-2s3.771-2 6-2 6 .421 6 2-3.771 2-6 2zm0-3c-3.021 0-4.863.665-5.003 1.021.14.314 1.982.979 5.003.979 2.962 0 4.79-.639 4.993-1-.203-.361-2.031-1-4.993-1zm5.003 1.021h.01z"/><path d="m18 24c-2.229 0-6-.421-6-2v-9c0-.276.224-.5.5-.5s.5.224.5.5v9c.136.336 1.976 1 5 1s4.864-.664 5.003-1.021l-.003-8.979c0-.276.224-.5.5-.5s.5.224.5.5v9c0 1.579-3.771 2-6 2z"/><path d="m9.5 19h-4c-1.379 0-2.5-1.121-2.5-2.5v-11c0-1.379 1.121-2.5 2.5-2.5h11c1.379 0 2.5 1.121 2.5 2.5v3.001c0 .276-.224.5-.5.5s-.5-.224-.5-.5v-3.001c0-.827-.673-1.5-1.5-1.5h-11c-.827 0-1.5.673-1.5 1.5v11c0 .827.673 1.5 1.5 1.5h4c.276 0 .5.224.5.5s-.224.5-.5.5z"/><path d="m6.5 22c-.276 0-.5-.224-.5-.5v-3c0-.276.224-.5.5-.5s.5.224.5.5v3c0 .276-.224.5-.5.5z"/><path d="m11 4c-.276 0-.5-.224-.5-.5v-3c0-.276.224-.5.5-.5s.5.224.5.5v3c0 .276-.224.5-.5.5z"/><path d="m6.5 4c-.276 0-.5-.224-.5-.5v-3c0-.276.224-.5.5-.5s.5.224.5.5v3c0 .276-.224.5-.5.5z"/><path d="m15.5 4c-.276 0-.5-.224-.5-.5v-3c0-.276.224-.5.5-.5s.5.224.5.5v3c0 .276-.224.5-.5.5z"/><path d="m3.5 11.5h-3c-.276 0-.5-.224-.5-.5s.224-.5.5-.5h3c.276 0 .5.224.5.5s-.224.5-.5.5z"/><path d="m3.5 7h-3c-.276 0-.5-.224-.5-.5s.224-.5.5-.5h3c.276 0 .5.224.5.5s-.224.5-.5.5z"/><path d="m3.5 16h-3c-.276 0-.5-.224-.5-.5s.224-.5.5-.5h3c.276 0 .5.224.5.5s-.224.5-.5.5z"/><path d="m21.5 7h-3c-.276 0-.5-.224-.5-.5s.224-.5.5-.5h3c.276 0 .5.224.5.5s-.224.5-.5.5z"/><path d="m9.5 16h-2c-.827 0-1.5-.673-1.5-1.5v-7c0-.827.673-1.5 1.5-1.5h3.586c.4 0 .777.156 1.061.439l1.707 1.707c.195.195.195.512 0 .707s-.512.195-.707 0l-1.707-1.707c-.095-.094-.22-.146-.354-.146h-3.586c-.275 0-.5.225-.5.5v7c0 .275.225.5.5.5h2c.276 0 .5.224.5.5s-.224.5-.5.5z"/><circle cx="14.5" cy="16.5" r=".5"/><circle cx="14.5" cy="21" r=".5"/></svg>