<svg id="Layer_1" height="512" viewBox="0 0 150 150" width="512" xmlns="http://www.w3.org/2000/svg" data-name="Layer 1"><path d="m25.846 137.341a1 1 0 0 1 -1-1v-123.559h-13.846a1 1 0 0 1 0-2h14.846a1 1 0 0 1 1 1v124.559a1 1 0 0 1 -1 1z"/><path d="m139 124.216h-113.15a1 1 0 0 1 -1-1v-98.308a1 1 0 0 1 1-1h113.15a1 1 0 0 1 1 1v98.308a1 1 0 0 1 -1 1zm-112.15-2h111.15v-96.308h-111.15z"/><path d="m106.245 78.683a20.745 20.745 0 1 1 20.745-20.745 20.769 20.769 0 0 1 -20.745 20.745zm0-39.49a18.745 18.745 0 1 0 18.745 18.745 18.766 18.766 0 0 0 -18.745-18.745z"/><path d="m106.245 78.683a1 1 0 0 1 -1-1v-39.49a1 1 0 1 1 2 0v39.49a1 1 0 0 1 -1 1z"/><path d="m125.99 58.938h-39.49a1 1 0 0 1 0-2h39.49a1 1 0 0 1 0 2z"/><path d="m66.109 107.229h-17.6a1 1 0 0 1 -1-1v-66.491a1 1 0 0 1 1-1h17.6a1 1 0 0 1 1 1v66.491a1 1 0 0 1 -1 1zm-16.6-2h15.6v-64.491h-15.6z"/><path d="m73.677 49.538h-7.568a1 1 0 0 1 0-2h7.568a1 1 0 0 1 0 2z"/><path d="m48.509 49.538h-7.569a1 1 0 0 1 0-2h7.569a1 1 0 0 1 0 2z"/><path d="m73.677 65.835h-7.568a1 1 0 0 1 0-2h7.568a1 1 0 1 1 0 2z"/><path d="m48.509 65.835h-7.569a1 1 0 0 1 0-2h7.569a1 1 0 1 1 0 2z"/><path d="m73.677 82.131h-7.568a1 1 0 0 1 0-2h7.568a1 1 0 0 1 0 2z"/><path d="m48.509 82.131h-7.569a1 1 0 0 1 0-2h7.569a1 1 0 0 1 0 2z"/><path d="m73.677 98.428h-7.568a1 1 0 1 1 0-2h7.568a1 1 0 1 1 0 2z"/><path d="m48.509 98.428h-7.569a1 1 0 0 1 0-2h7.569a1 1 0 1 1 0 2z"/><path d="m127.457 139.218h-76.757a1 1 0 0 1 -1-1v-14.995a1 1 0 0 1 1-1h76.759a1 1 0 0 1 1 1v14.995a1 1 0 0 1 -1.002 1zm-75.759-2h74.759v-12.995h-74.757z"/><path d="m118.307 130.026a1 1 0 0 1 -1-1v-5.8a1 1 0 0 1 2 0v5.8a1 1 0 0 1 -1 1z"/><path d="m103.692 130.026a1 1 0 0 1 -1-1v-5.8a1 1 0 0 1 2 0v5.8a1 1 0 0 1 -1 1z"/><path d="m89.078 130.026a1 1 0 0 1 -1-1v-5.8a1 1 0 1 1 2 0v5.8a1 1 0 0 1 -1 1z"/><path d="m74.464 130.026a1 1 0 0 1 -1-1v-5.8a1 1 0 0 1 2 0v5.8a1 1 0 0 1 -1 1z"/><path d="m59.85 130.026a1 1 0 0 1 -1-1v-5.8a1 1 0 1 1 2 0v5.8a1 1 0 0 1 -1 1z"/></svg>