<svg id="Layer_1" enable-background="new 0 0 512 512" height="512" viewBox="0 0 512 512" width="512" xmlns="http://www.w3.org/2000/svg"><g><path d="m432.733 80.333h-353.466c-43.708 0-79.267 35.559-79.267 79.267v192.8c0 43.708 35.559 79.267 79.267 79.267h353.467c43.708 0 79.267-35.559 79.267-79.267v-192.8c-.001-43.708-35.56-79.267-79.268-79.267zm49.267 272.067c0 27.166-22.101 49.267-49.267 49.267h-353.466c-27.166 0-49.267-22.102-49.267-49.267v-192.8c0-27.166 22.101-49.267 49.267-49.267h353.467c27.166 0 49.267 22.101 49.267 49.267v192.8z"/><path d="m368.467 206.733h40.167c8.284 0 15-6.716 15-15s-6.716-15-15-15h-40.167c-8.284 0-15 6.716-15 15s6.716 15 15 15z"/><path d="m408.633 305.267h-40.167c-8.284 0-15 6.716-15 15s6.716 15 15 15h40.167c8.284 0 15-6.716 15-15s-6.716-15-15-15z"/><path d="m432.733 241h-88.367c-8.284 0-15 6.716-15 15s6.716 15 15 15h88.367c8.284 0 15-6.716 15-15s-6.715-15-15-15z"/><path d="m288.133 144.6h-208.866c-8.284 0-15 6.716-15 15v192.8c0 8.284 6.716 15 15 15h208.867c8.284 0 15-6.716 15-15v-192.8c-.001-8.284-6.717-15-15.001-15zm-79.266 192.8h-50.333v-9.1c0-13.908 11.249-25.167 25.167-25.167 13.909 0 25.167 11.248 25.167 25.167v9.1zm-42.3-81.4c0-9.447 7.686-17.133 17.133-17.133s17.133 7.686 17.133 17.133-7.686 17.133-17.133 17.133-17.133-7.686-17.133-17.133zm106.566 81.4h-34.267v-9.1c0-25.671-16.793-39.743-19.235-41.845 6.979-8.221 11.202-18.851 11.202-30.454 0-25.989-21.144-47.133-47.133-47.133s-47.133 21.143-47.133 47.132c0 11.603 4.223 22.233 11.202 30.455-2.448 2.108-19.235 16.174-19.235 41.845v9.1h-34.267v-162.8h178.867v162.8z"/></g></svg>