<svg id="Layer_1" height="512" viewBox="0 0 150 150" width="512" xmlns="http://www.w3.org/2000/svg" data-name="Layer 1"><path d="m118.648 140h-87.3a4.831 4.831 0 0 1 -4.932-4.712v-120.576a4.831 4.831 0 0 1 4.936-4.712h87.3a4.831 4.831 0 0 1 4.932 4.712v120.576a4.831 4.831 0 0 1 -4.936 4.712zm-87.296-128a2.832 2.832 0 0 0 -2.932 2.712v120.576a2.832 2.832 0 0 0 2.932 2.712h87.3a2.832 2.832 0 0 0 2.932-2.712v-120.576a2.832 2.832 0 0 0 -2.936-2.712z"/><path d="m115.687 133.492h-81.374a1 1 0 0 1 -1-1v-114.984a1 1 0 0 1 1-1h81.374a1 1 0 0 1 1 1v114.984a1 1 0 0 1 -1 1zm-80.374-2h79.374v-112.984h-79.374z"/><path d="m43.217 129.333a4.189 4.189 0 1 1 4.173-4.188 4.193 4.193 0 0 1 -4.173 4.188zm0-6.377a2.189 2.189 0 1 0 2.173 2.189 2.192 2.192 0 0 0 -2.173-2.189z"/><path d="m106.8 129.333a4.189 4.189 0 1 1 4.173-4.188 4.193 4.193 0 0 1 -4.173 4.188zm0-6.377a2.189 2.189 0 1 0 2.173 2.189 2.192 2.192 0 0 0 -2.173-2.189z"/><path d="m43.217 29.044a4.189 4.189 0 1 1 4.173-4.189 4.194 4.194 0 0 1 -4.173 4.189zm0-6.377a2.189 2.189 0 1 0 2.173 2.188 2.191 2.191 0 0 0 -2.173-2.188z"/><path d="m106.8 29.044a4.189 4.189 0 1 1 4.173-4.189 4.194 4.194 0 0 1 -4.173 4.189zm0-6.377a2.189 2.189 0 1 0 2.173 2.188 2.192 2.192 0 0 0 -2.173-2.188z"/><path d="m75 51.221a12.31 12.31 0 1 1 12.31-12.31 12.325 12.325 0 0 1 -12.31 12.31zm0-22.621a10.31 10.31 0 1 0 10.31 10.31 10.322 10.322 0 0 0 -10.31-10.31z"/><path d="m69.672 39.911a1 1 0 0 1 -1-1 6.337 6.337 0 0 1 6.328-6.33 1 1 0 0 1 0 2 4.334 4.334 0 0 0 -4.33 4.33 1 1 0 0 1 -.998 1z"/><path d="m75 122.9a33 33 0 1 1 33-33 33.041 33.041 0 0 1 -33 33zm0-63.992a31 31 0 1 0 31 30.992 31.032 31.032 0 0 0 -31-30.993z"/><path d="m75 112.219a22.316 22.316 0 1 1 22.323-22.319 22.349 22.349 0 0 1 -22.323 22.319zm0-42.632a20.316 20.316 0 1 0 20.323 20.313 20.34 20.34 0 0 0 -20.323-20.313z"/><path d="m75 97.177a7.274 7.274 0 1 1 7.28-7.281 7.289 7.289 0 0 1 -7.28 7.281zm0-12.548a5.274 5.274 0 1 0 5.28 5.267 5.28 5.28 0 0 0 -5.28-5.267z"/></svg>