<svg id="_x31__px" height="512" viewBox="0 0 24 24" width="512" xmlns="http://www.w3.org/2000/svg"><path d="m18.5 24c-.059 0-.119-.011-.177-.032-.223-.085-.355-.314-.316-.55l.903-5.418h-2.41c-.188 0-.359-.104-.444-.271-.086-.166-.071-.367.038-.52l5-7c.137-.191.39-.259.605-.168.216.094.338.326.292.557l-.881 4.402h2.39c.182 0 .349.099.438.258.088.159.083.354-.014.507l-5 8c-.093.15-.256.235-.424.235zm-1.028-7h2.028c.147 0 .287.064.381.177.095.112.136.261.112.405l-.587 3.525 3.192-5.107h-2.098c-.15 0-.292-.067-.387-.183s-.133-.269-.104-.415l.543-2.716z"/><path d="m13.5 19h-8c-1.378 0-2.5-1.121-2.5-2.5v-11c0-1.379 1.122-2.5 2.5-2.5h11c1.378 0 2.5 1.121 2.5 2.5v3.001c0 .276-.224.5-.5.5s-.5-.224-.5-.5v-3.001c0-.827-.673-1.5-1.5-1.5h-11c-.827 0-1.5.673-1.5 1.5v11c0 .827.673 1.5 1.5 1.5h8c.276 0 .5.224.5.5s-.223.5-.5.5z"/><path d="m13.5 16h-6c-.827 0-1.5-.673-1.5-1.5v-7c0-.827.673-1.5 1.5-1.5h3.586c.4 0 .777.156 1.061.439l3.414 3.414c.279.28.439.667.439 1.061v2.586c0 .276-.224.5-.5.5s-.5-.224-.5-.5v-2.586c0-.132-.053-.261-.146-.354l-3.414-3.414c-.094-.092-.223-.146-.354-.146h-3.586c-.276 0-.5.225-.5.5v7c0 .275.224.5.5.5h6c.276 0 .5.224.5.5s-.224.5-.5.5z"/><path d="m6.5 22c-.276 0-.5-.224-.5-.5v-3c0-.276.224-.5.5-.5s.5.224.5.5v3c0 .276-.224.5-.5.5z"/><path d="m11 22c-.276 0-.5-.224-.5-.5v-3c0-.276.224-.5.5-.5s.5.224.5.5v3c0 .276-.224.5-.5.5z"/><path d="m11 4c-.276 0-.5-.224-.5-.5v-3c0-.276.224-.5.5-.5s.5.224.5.5v3c0 .276-.224.5-.5.5z"/><path d="m6.5 4c-.276 0-.5-.224-.5-.5v-3c0-.276.224-.5.5-.5s.5.224.5.5v3c0 .276-.224.5-.5.5z"/><path d="m15.5 4c-.276 0-.5-.224-.5-.5v-3c0-.276.224-.5.5-.5s.5.224.5.5v3c0 .276-.224.5-.5.5z"/><path d="m3.5 11.5h-3c-.276 0-.5-.224-.5-.5s.224-.5.5-.5h3c.276 0 .5.224.5.5s-.224.5-.5.5z"/><path d="m3.5 7h-3c-.276 0-.5-.224-.5-.5s.224-.5.5-.5h3c.276 0 .5.224.5.5s-.224.5-.5.5z"/><path d="m3.5 16h-3c-.276 0-.5-.224-.5-.5s.224-.5.5-.5h3c.276 0 .5.224.5.5s-.224.5-.5.5z"/><path d="m21.5 7h-3c-.276 0-.5-.224-.5-.5s.224-.5.5-.5h3c.276 0 .5.224.5.5s-.224.5-.5.5z"/></svg>