<svg id="_x31__px" height="512" viewBox="0 0 24 24" width="512" xmlns="http://www.w3.org/2000/svg"><path d="m22.5 24c-.527 0-1.006-.27-1.281-.72l-1.854-3.04c-.091-.148-.254-.24-.427-.24h-4.877c-.173 0-.336.092-.427.24l-1.854 3.04c-.274.45-.753.72-1.28.72-.827 0-1.5-.673-1.5-1.5 0-.072.005-.143.015-.214l1.01-7.139c.177-1.224 1.242-2.147 2.475-2.147.715 0 1.396.308 1.869.844.088.098.218.156.358.156h3.547c.14 0 .27-.058.358-.157.472-.535 1.153-.843 1.868-.843 1.227 0 2.285.913 2.472 2.127.002.007.003.014.004.021l1.01 7.141c.009.068.014.139.014.211 0 .827-.673 1.5-1.5 1.5zm-8.438-5h4.877c.52 0 1.01.275 1.28.719l1.854 3.04c.091.151.251.241.427.241.275 0 .5-.225.5-.5l-1.012-7.194c-.001-.005-.002-.01-.003-.015-.106-.735-.745-1.291-1.485-1.291-.434 0-.831.18-1.119.506-.279.314-.683.494-1.108.494h-3.547c-.425 0-.828-.18-1.106-.493-.289-.327-.686-.507-1.12-.507-.74 0-1.379.556-1.485 1.291l-1.01 7.138c-.008.567.688.719.923.33l1.854-3.04c.27-.444.76-.719 1.28-.719z"/><path d="m6.5 19h-1c-1.379 0-2.5-1.121-2.5-2.5v-11c0-1.378 1.121-2.5 2.5-2.5h11c1.379 0 2.5 1.122 2.5 2.5v5c0 .276-.224.5-.5.5s-.5-.223-.5-.5v-5c0-.827-.673-1.5-1.5-1.5h-11c-.827 0-1.5.673-1.5 1.5v11c0 .827.673 1.5 1.5 1.5h1c.276 0 .5.224.5.5s-.224.5-.5.5z"/><path d="m7.5 16c-.827 0-1.5-.673-1.5-1.5v-7c0-.827.673-1.5 1.5-1.5h3.586c.4 0 .777.156 1.061.439l3.414 3.414c.283.284.439.661.439 1.061v.586c0 .276-.224.5-.5.5s-.5-.224-.5-.5v-.586c0-.131-.054-.26-.146-.354l-3.414-3.414c-.095-.094-.22-.146-.354-.146h-3.586c-.275 0-.5.224-.5.5v7c0 .275.225.5.5.5.276 0 .5.224.5.5s-.224.5-.5.5z"/><path d="m6.5 22c-.276 0-.5-.224-.5-.5v-3c0-.276.224-.5.5-.5s.5.224.5.5v3c0 .276-.224.5-.5.5z"/><path d="m11 4c-.276 0-.5-.224-.5-.5v-3c0-.276.224-.5.5-.5s.5.224.5.5v3c0 .276-.224.5-.5.5z"/><path d="m6.5 4c-.276 0-.5-.224-.5-.5v-3c0-.276.224-.5.5-.5s.5.224.5.5v3c0 .276-.224.5-.5.5z"/><path d="m15.5 4c-.276 0-.5-.224-.5-.5v-3c0-.276.224-.5.5-.5s.5.224.5.5v3c0 .276-.224.5-.5.5z"/><path d="m3.5 11.5h-3c-.276 0-.5-.224-.5-.5s.224-.5.5-.5h3c.276 0 .5.224.5.5s-.224.5-.5.5z"/><path d="m3.5 7h-3c-.276 0-.5-.224-.5-.5s.224-.5.5-.5h3c.276 0 .5.224.5.5s-.224.5-.5.5z"/><path d="m3.5 16h-3c-.276 0-.5-.224-.5-.5s.224-.5.5-.5h3c.276 0 .5.224.5.5s-.224.5-.5.5z"/><path d="m21.5 7h-3c-.276 0-.5-.224-.5-.5s.224-.5.5-.5h3c.276 0 .5.224.5.5s-.224.5-.5.5z"/></svg>