<svg id="Layer_1" height="512" viewBox="0 0 150 150" width="512" xmlns="http://www.w3.org/2000/svg" data-name="Layer 1"><path d="m75 83.153a1 1 0 0 1 -1-1v-7.053a1 1 0 0 1 2 0v7.053a1 1 0 0 1 -1 1z"/><path d="m109 38.93a1 1 0 0 1 -.707-.293 47.076 47.076 0 0 0 -66.579 0 1 1 0 0 1 -1.414-1.414 49.075 49.075 0 0 1 69.407 0 1 1 0 0 1 -.707 1.707z"/><path d="m48.85 46.775a1 1 0 0 1 -.707-1.707 38.026 38.026 0 0 1 53.716 0 1 1 0 0 1 -1.414 1.414 36.026 36.026 0 0 0 -50.888 0 1 1 0 0 1 -.707.293z"/><path d="m93.307 54.621a1 1 0 0 1 -.707-.293 24.918 24.918 0 0 0 -35.2 0 1 1 0 0 1 -1.414-1.414 26.917 26.917 0 0 1 38.027 0 1 1 0 0 1 -.707 1.707z"/><path d="m85.461 62.466a1 1 0 0 1 -.707-.293 13.809 13.809 0 0 0 -19.507 0 1 1 0 1 1 -1.414-1.414 15.811 15.811 0 0 1 22.335 0 1 1 0 0 1 -.707 1.707z"/><path d="m75 76.1a5.984 5.984 0 1 1 5.982-5.983 5.99 5.99 0 0 1 -5.982 5.983zm0-9.967a3.984 3.984 0 1 0 3.982 3.984 3.988 3.988 0 0 0 -3.982-3.984z"/><path d="m136.085 120.153h-122.17a3.92 3.92 0 0 1 -3.915-3.915v-31.17a3.919 3.919 0 0 1 3.915-3.915h122.17a3.919 3.919 0 0 1 3.915 3.915v31.17a3.92 3.92 0 0 1 -3.915 3.915zm-122.17-37a1.917 1.917 0 0 0 -1.915 1.915v31.17a1.917 1.917 0 0 0 1.915 1.915h122.17a1.917 1.917 0 0 0 1.915-1.915v-31.17a1.917 1.917 0 0 0 -1.915-1.915z"/><path d="m129.5 127.153h-6.5a1 1 0 0 1 -1-1v-7a1 1 0 0 1 1-1h6.5a1 1 0 0 1 1 1v7a1 1 0 0 1 -1 1zm-5.5-2h4.5v-5h-4.5z"/><path d="m27 127.153h-6.5a1 1 0 0 1 -1-1v-7a1 1 0 0 1 1-1h6.5a1 1 0 0 1 1 1v7a1 1 0 0 1 -1 1zm-5.5-2h4.5v-5h-4.5z"/><path d="m120.955 108.432a7.031 7.031 0 1 1 7.031-7.031 7.038 7.038 0 0 1 -7.031 7.031zm0-12.061a5.031 5.031 0 1 0 5.031 5.03 5.036 5.036 0 0 0 -5.031-5.03z"/><path d="m91.185 109.929a8.528 8.528 0 1 1 8.527-8.528 8.538 8.538 0 0 1 -8.527 8.528zm0-15.055a6.528 6.528 0 1 0 6.527 6.527 6.535 6.535 0 0 0 -6.527-6.527z"/><path d="m40.269 94.874h-17.254a1 1 0 0 1 0-2h17.254a1 1 0 1 1 0 2z"/><path d="m40.269 107.5h-17.254a1 1 0 0 1 0-2h17.254a1 1 0 1 1 0 2z"/><path d="m70.04 94.874h-9.254a1 1 0 0 1 0-2h9.254a1 1 0 0 1 0 2z"/><path d="m70.04 107.5h-9.254a1 1 0 0 1 0-2h9.254a1 1 0 0 1 0 2z"/></svg>