<svg id="_x31__px" height="512" viewBox="0 0 24 24" width="512" xmlns="http://www.w3.org/2000/svg"><path d="m7.5 19h-2c-1.378 0-2.5-1.121-2.5-2.5v-11c0-1.378 1.122-2.5 2.5-2.5h11c1.378 0 2.5 1.122 2.5 2.5v8.001c0 .276-.224.5-.5.5s-.5-.224-.5-.5v-8.001c0-.827-.673-1.5-1.5-1.5h-11c-.827 0-1.5.673-1.5 1.5v11c0 .827.673 1.5 1.5 1.5h2c.277 0 .5.224.5.5s-.223.5-.5.5z"/><path d="m10.5 16h-3c-.827 0-1.5-.673-1.5-1.5v-7c0-.827.673-1.5 1.5-1.5h3.586c.4 0 .777.156 1.061.439l3.414 3.414c.283.284.439.661.439 1.061v2.586c0 .276-.224.5-.5.5s-.5-.224-.5-.5v-2.586c0-.131-.053-.26-.146-.354l-3.414-3.414c-.094-.093-.223-.146-.354-.146h-3.586c-.276 0-.5.224-.5.5v7c0 .275.224.5.5.5h3c.276 0 .5.224.5.5s-.224.5-.5.5z"/><path d="m6.5 22c-.276 0-.5-.224-.5-.5v-3c0-.276.224-.5.5-.5s.5.224.5.5v3c0 .276-.224.5-.5.5z"/><path d="m11 4c-.276 0-.5-.224-.5-.5v-3c0-.276.224-.5.5-.5s.5.224.5.5v3c0 .276-.224.5-.5.5z"/><path d="m6.5 4c-.276 0-.5-.224-.5-.5v-3c0-.276.224-.5.5-.5s.5.224.5.5v3c0 .276-.224.5-.5.5z"/><path d="m15.5 4c-.276 0-.5-.224-.5-.5v-3c0-.276.224-.5.5-.5s.5.224.5.5v3c0 .276-.224.5-.5.5z"/><path d="m3.5 11.5h-3c-.276 0-.5-.224-.5-.5s.224-.5.5-.5h3c.276 0 .5.224.5.5s-.224.5-.5.5z"/><path d="m3.5 7h-3c-.276 0-.5-.224-.5-.5s.224-.5.5-.5h3c.276 0 .5.224.5.5s-.224.5-.5.5z"/><path d="m3.5 16h-3c-.276 0-.5-.224-.5-.5s.224-.5.5-.5h3c.276 0 .5.224.5.5s-.224.5-.5.5z"/><path d="m21.5 11.5h-3c-.276 0-.5-.224-.5-.5s.224-.5.5-.5h3c.276 0 .5.224.5.5s-.224.5-.5.5z"/><path d="m21.5 7h-3c-.276 0-.5-.224-.5-.5s.224-.5.5-.5h3c.276 0 .5.224.5.5s-.224.5-.5.5z"/><path d="m23.5 24h-14c-.137 0-.269-.057-.363-.156-.094-.1-.144-.234-.136-.371.23-4.191 3.524-7.473 7.499-7.473s7.269 3.282 7.499 7.473c.008.137-.042.271-.136.371-.094.099-.226.156-.363.156zm-13.453-1h12.906c-.432-3.404-3.176-6-6.453-6s-6.021 2.596-6.453 6z"/><path d="m16.5 23.993c-.095 0-.192-.027-.277-.084-.229-.153-.292-.464-.138-.693l2-2.993c.152-.229.463-.293.693-.139.229.153.292.464.138.693l-2 2.993c-.097.145-.255.223-.416.223z"/></svg>