<svg id="Layer_1" height="512" viewBox="0 0 150 150" width="512" xmlns="http://www.w3.org/2000/svg" data-name="Layer 1"><path d="m122.753 123.753h-95.506a1 1 0 0 1 -1-1v-95.506a1 1 0 0 1 1-1h95.506a1 1 0 0 1 1 1v95.506a1 1 0 0 1 -1 1zm-94.506-2h93.506v-93.506h-93.506z"/><path d="m37.307 49.909a1 1 0 0 1 -1-1v-11.6a1 1 0 0 1 1-1h13.272a1 1 0 0 1 0 2h-12.272v10.6a1 1 0 0 1 -1 1z"/><path d="m49.06 113.693h-11.753a1 1 0 0 1 -1-1v-12.637a1 1 0 0 1 2 0v11.637h10.753a1 1 0 0 1 0 2z"/><path d="m112.692 113.693h-13.271a1 1 0 0 1 0-2h12.271v-12.272a1 1 0 0 1 2 0v13.272a1 1 0 0 1 -1 1z"/><path d="m112.692 51.579a1 1 0 0 1 -1-1v-12.272h-11.034a1 1 0 0 1 0-2h12.034a1 1 0 0 1 1 1v13.272a1 1 0 0 1 -1 1z"/><path d="m115.7 28.247a1 1 0 0 1 -1-1v-16.247a1 1 0 0 1 2 0v16.247a1 1 0 0 1 -1 1z"/><path d="m99.421 28.247a1 1 0 0 1 -1-1v-16.247a1 1 0 0 1 2 0v16.247a1 1 0 0 1 -1 1z"/><path d="m83.141 28.247a1 1 0 0 1 -1-1v-16.247a1 1 0 0 1 2 0v16.247a1 1 0 0 1 -1 1z"/><path d="m66.86 28.247a1 1 0 0 1 -1-1v-16.247a1 1 0 0 1 2 0v16.247a1 1 0 0 1 -1 1z"/><path d="m50.579 28.247a1 1 0 0 1 -1-1v-16.247a1 1 0 0 1 2 0v16.247a1 1 0 0 1 -1 1z"/><path d="m34.3 28.247a1 1 0 0 1 -1-1v-16.247a1 1 0 0 1 2 0v16.247a1 1 0 0 1 -1 1z"/><path d="m115.7 140a1 1 0 0 1 -1-1v-16.247a1 1 0 0 1 2 0v16.247a1 1 0 0 1 -1 1z"/><path d="m99.421 140a1 1 0 0 1 -1-1v-16.247a1 1 0 0 1 2 0v16.247a1 1 0 0 1 -1 1z"/><path d="m83.141 140a1 1 0 0 1 -1-1v-16.247a1 1 0 0 1 2 0v16.247a1 1 0 0 1 -1 1z"/><path d="m66.86 140a1 1 0 0 1 -1-1v-16.247a1 1 0 0 1 2 0v16.247a1 1 0 0 1 -1 1z"/><path d="m50.579 140a1 1 0 0 1 -1-1v-16.247a1 1 0 0 1 2 0v16.247a1 1 0 0 1 -1 1z"/><path d="m34.3 140a1 1 0 0 1 -1-1v-16.247a1 1 0 0 1 2 0v16.247a1 1 0 0 1 -1 1z"/><path d="m139 116.7h-16.247a1 1 0 0 1 0-2h16.247a1 1 0 0 1 0 2z"/><path d="m139 100.421h-16.247a1 1 0 0 1 0-2h16.247a1 1 0 0 1 0 2z"/><path d="m139 84.14h-16.247a1 1 0 0 1 0-2h16.247a1 1 0 0 1 0 2z"/><path d="m139 67.86h-16.247a1 1 0 0 1 0-2h16.247a1 1 0 0 1 0 2z"/><path d="m139 51.579h-16.247a1 1 0 0 1 0-2h16.247a1 1 0 0 1 0 2z"/><path d="m139 35.3h-16.247a1 1 0 0 1 0-2h16.247a1 1 0 0 1 0 2z"/><path d="m27.247 116.7h-16.247a1 1 0 0 1 0-2h16.247a1 1 0 0 1 0 2z"/><path d="m27.247 100.421h-16.247a1 1 0 0 1 0-2h16.247a1 1 0 0 1 0 2z"/><path d="m27.247 84.14h-16.247a1 1 0 0 1 0-2h16.247a1 1 0 0 1 0 2z"/><path d="m27.247 67.86h-16.247a1 1 0 0 1 0-2h16.247a1 1 0 0 1 0 2z"/><path d="m27.247 51.579h-16.247a1 1 0 0 1 0-2h16.247a1 1 0 0 1 0 2z"/><path d="m27.247 35.3h-16.247a1 1 0 0 1 0-2h16.247a1 1 0 0 1 0 2z"/><path d="m99.421 100.421h-48.842a1 1 0 0 1 -1-1v-48.842a1 1 0 0 1 1-1h48.842a1 1 0 0 1 1 1v48.842a1 1 0 0 1 -1 1zm-47.842-2h46.842v-46.842h-46.842z"/></svg>