<svg id="Layer_1" height="512" viewBox="0 0 150 150" width="512" xmlns="http://www.w3.org/2000/svg" data-name="Layer 1"><path d="m133.77 98.39h-64.64a1 1 0 0 1 0-2h64.64a4.234 4.234 0 0 0 4.23-4.23v-40.31a4.235 4.235 0 0 0 -4.23-4.23h-64.65a1 1 0 0 1 0-2h64.65a6.237 6.237 0 0 1 6.23 6.23v40.31a6.237 6.237 0 0 1 -6.23 6.23z"/><path d="m35.25 98.39h-19.02a6.237 6.237 0 0 1 -6.23-6.23v-40.31a6.237 6.237 0 0 1 6.23-6.23h19.03a1 1 0 0 1 0 2h-19.03a4.235 4.235 0 0 0 -4.23 4.23v40.31a4.234 4.234 0 0 0 4.23 4.23h19.02a1 1 0 0 1 0 2z"/><path d="m52.19 103.52a31.513 31.513 0 1 1 31.52-31.5 31.548 31.548 0 0 1 -31.52 31.5zm0-61.026a29.513 29.513 0 1 0 29.52 29.521 29.554 29.554 0 0 0 -29.52-29.521z"/><path d="m52.19 95.143a23.136 23.136 0 1 1 23.141-23.131 23.163 23.163 0 0 1 -23.141 23.131zm0-44.271a21.136 21.136 0 1 0 21.141 21.14 21.164 21.164 0 0 0 -21.141-21.14z"/><path d="m52.19 86.527a14.536 14.536 0 0 1 -14.523-14.517 1 1 0 0 1 2 0 12.534 12.534 0 0 0 12.523 12.517 1 1 0 0 1 0 2z"/><path d="m65.713 73.01a1 1 0 0 1 -1-1 12.537 12.537 0 0 0 -12.523-12.523 1 1 0 0 1 0-2 14.539 14.539 0 0 1 14.523 14.523 1 1 0 0 1 -1 1z"/><path d="m18.144 58.6a4.066 4.066 0 1 1 4.065-4.066 4.07 4.07 0 0 1 -4.065 4.066zm0-6.132a2.066 2.066 0 0 0 0 4.132 2.044 2.044 0 0 0 2.065-2.066 2.068 2.068 0 0 0 -2.065-2.068z"/><path d="m129.04 56.187h-38.24a1 1 0 0 1 0-2h38.24a1 1 0 0 1 0 2z"/><path d="m129.04 67.4h-38.24a1 1 0 0 1 0-2h38.24a1 1 0 0 1 0 2z"/><path d="m129.04 78.609h-38.24a1 1 0 0 1 0-2h38.24a1 1 0 0 1 0 2z"/><path d="m129.04 89.82h-38.24a1 1 0 1 1 0-2h38.24a1 1 0 0 1 0 2z"/><path d="m28.854 109.506h-7.364a3.317 3.317 0 0 1 -3.236-2.635l-1.918-9.271a1 1 0 0 1 .979-1.2h15.713a1 1 0 0 1 .98 1.2l-1.919 9.276a3.316 3.316 0 0 1 -3.235 2.63zm-10.311-11.113 1.67 8.073a1.309 1.309 0 0 0 1.277 1.04h7.364a1.307 1.307 0 0 0 1.276-1.04l1.67-8.073z"/><path d="m129.26 109.506h-7.36a3.316 3.316 0 0 1 -3.235-2.635l-1.922-9.271a1 1 0 0 1 .98-1.2h15.713a1 1 0 0 1 .979 1.2l-1.918 9.276a3.318 3.318 0 0 1 -3.237 2.63zm-10.309-11.113 1.67 8.073a1.307 1.307 0 0 0 1.276 1.04h7.363a1.31 1.31 0 0 0 1.278-1.04l1.67-8.073z"/></svg>