<svg id="Layer_1" enable-background="new 0 0 512 512" height="512" viewBox="0 0 512 512" width="512" xmlns="http://www.w3.org/2000/svg"><g><path d="m384.533 56.233c-8.284 0-15 6.716-15 15s6.716 15 15 15c22.736 0 41.233 18.497 41.233 41.233 0 8.284 6.716 15 15 15s15-6.716 15-15c.001-39.278-31.954-71.233-71.233-71.233z"/><path d="m384.533 0c-8.284 0-15 6.716-15 15s6.716 15 15 15c53.743 0 97.467 43.724 97.467 97.467 0 8.284 6.716 15 15 15s15-6.716 15-15c0-70.286-57.182-127.467-127.467-127.467z"/><circle cx="384.533" cy="127.467" r="15"/><path d="m336.333 176.733h-18.575c-7.033-36.558-39.245-64.267-77.824-64.267h-4.305c2.082-5.315 3.238-11.09 3.238-17.133 0-25.989-21.144-47.133-47.133-47.133s-47.134 21.144-47.134 47.133c0 6.044 1.156 11.819 3.238 17.133h-4.32c-38.572 0-70.779 27.705-77.809 64.267h-50.709c-8.284 0-15 6.732-15 15.016 0 38.715 27.669 70.819 64.267 77.817v148.167h-1.067c-6.883 0-12.883 4.685-14.552 11.362l-16.066 64.267c-1.121 4.481-.114 9.229 2.729 12.869 2.843 3.641 7.204 5.769 11.823 5.769h281.166c4.303 0 8.397-1.848 11.245-5.073 2.848-3.226 4.173-7.519 3.639-11.788l-8.033-64.267c-.938-7.506-7.319-13.14-14.884-13.14h-1.067v-211h17.133c9.496 0 17.134 7.694 17.134 17.133v112.467c0 8.284 6.716 15 15 15s15-6.716 15-15v-112.465c0-26.287-21.336-47.134-47.134-47.134zm-272.066 61.957c-7.279-2.316-24.967-10.326-31.905-31.957h31.905zm127.466-160.49c9.447 0 17.133 7.686 17.133 17.133s-7.686 17.133-17.133 17.133-17.133-7.685-17.133-17.133 7.686-17.133 17.133-17.133zm-48.215 64.267h96.416c21.938 0 40.572 14.413 46.933 34.267h-190.27c6.354-19.853 24.986-34.267 46.921-34.267zm-49.251 64.266h194.933v211h-194.933zm-27.921 275.267 8.566-34.267h232.112l4.285 34.267z"/></g></svg>