<svg id="Layer_1" enable-background="new 0 0 512 512" height="512" viewBox="0 0 512 512" width="512" xmlns="http://www.w3.org/2000/svg"><g><path d="m384.533 86.233c22.736 0 41.233 18.497 41.233 41.233 0 8.284 6.716 15 15 15s15-6.716 15-15c0-39.278-31.955-71.233-71.233-71.233-8.284 0-15 6.716-15 15s6.716 15 15 15z"/><path d="m384.533 30c53.743 0 97.467 43.724 97.467 97.467 0 8.284 6.716 15 15 15s15-6.716 15-15c0-70.286-57.182-127.467-127.467-127.467-8.284 0-15 6.716-15 15s6.716 15 15 15z"/><circle cx="384.533" cy="127.467" r="15"/><path d="m256 80.333h-192.8c-34.958 0-63.2 28.289-63.2 63.2v353.467c0 8.284 6.716 15 15 15h289.2c8.284 0 15-6.716 15-15v-353.467c0-34.957-28.289-63.2-63.2-63.2zm33.2 401.667h-259.2v-338.467c0-18.359 14.85-33.2 33.2-33.2h192.8c18.359 0 33.2 14.852 33.2 33.2z"/><path d="m432.733 273.133c-5.134 0-9.911 2.625-12.663 6.96-6.817 10.737-66.604 106.24-66.604 152.64 0 43.708 35.559 79.267 79.267 79.267s79.267-35.559 79.267-79.267c0-46.4-59.786-141.903-66.604-152.64-2.751-4.334-7.529-6.96-12.663-6.96zm0 208.867c-27.166 0-49.267-22.101-49.267-49.267 0-25.746 28.981-80.968 49.267-115.676 20.286 34.709 49.267 89.931 49.267 115.676 0 27.166-22.101 49.267-49.267 49.267z"/><path d="m127.467 174.6h64.267c8.284 0 15-6.716 15-15s-6.716-15-15-15h-64.267c-8.284 0-15 6.716-15 15s6.716 15 15 15z"/><path d="m239.934 337.4h-160.667c-8.284 0-15 6.716-15 15s6.716 15 15 15h160.667c8.284 0 15-6.716 15-15s-6.716-15-15-15z"/><path d="m239.934 401.667h-160.667c-8.284 0-15 6.716-15 15s6.716 15 15 15h160.667c8.284 0 15-6.716 15-15s-6.716-15-15-15z"/></g></svg>