<svg id="Layer_1" height="512" viewBox="0 0 150 150" width="512" xmlns="http://www.w3.org/2000/svg" data-name="Layer 1"><path d="m112.971 61.475h-75.942a1 1 0 0 1 -.97-.757l-12.43-49.474a1 1 0 0 1 .971-1.244h99.82a1 1 0 0 1 .974 1.226l-11.449 49.474a1 1 0 0 1 -.974.775zm-75.162-2h74.367l10.986-47.475h-97.281z"/><path d="m129.663 140h-109.326a1 1 0 0 1 -1-1v-17.308a1 1 0 0 1 1-1h109.326a1 1 0 0 1 1 1v17.308a1 1 0 0 1 -1 1zm-108.326-2h107.326v-15.308h-107.326z"/><path d="m20.337 122.692a1 1 0 0 1 -.965-1.263l16.692-61.218a1 1 0 0 1 1.93.527l-16.694 61.217a1 1 0 0 1 -.963.737z"/><path d="m129.663 122.692a1 1 0 0 1 -.965-.737l-16.692-61.217a1 1 0 0 1 1.93-.527l16.692 61.218a1 1 0 0 1 -.965 1.263z"/><path d="m114.461 114.428h-78.922a1 1 0 0 1 -.972-1.232l10.622-44.688a1 1 0 0 1 .973-.769h57.676a1 1 0 0 1 .973.769l10.622 44.692a1 1 0 0 1 -.972 1.232zm-77.656-2h76.395l-10.152-42.689h-56.1z"/><path d="m121.883 131.346h-7.013a1 1 0 0 1 0-2h7.013a1 1 0 0 1 0 2z"/><path d="m108.464 131.346h-7.014a1 1 0 1 1 0-2h7.014a1 1 0 0 1 0 2z"/><path d="m39.811 131.346h-11.285a1 1 0 0 1 0-2h11.285a1 1 0 1 1 0 2z"/></svg>