<svg id="Layer_1" enable-background="new 0 0 512 512" height="512" viewBox="0 0 512 512" width="512" xmlns="http://www.w3.org/2000/svg"><g><path d="m459.406 197.194-192.8-192.8c-5.857-5.858-15.355-5.858-21.213 0l-192.8 192.8c-2.813 2.813-4.394 6.628-4.394 10.606v289.2c0 8.284 6.716 15 15 15h385.6c8.284 0 15-6.716 15-15v-289.2c.001-3.978-1.579-7.793-4.393-10.606zm-25.606 284.806h-355.6v-267.987l177.8-177.799 177.8 177.8z"/><path d="m112.467 288.134c0 8.284 6.716 15 15 15h148.128c6.281 18.655 23.926 32.133 44.672 32.133s38.391-13.478 44.672-32.133h19.595c8.284 0 15-6.716 15-15s-6.716-15-15-15h-19.595c-6.282-18.655-23.927-32.134-44.672-32.134s-38.391 13.478-44.672 32.133h-148.128c-8.284.001-15 6.716-15 15.001zm207.8-17.134c9.447 0 17.133 7.686 17.133 17.133s-7.686 17.133-17.133 17.133-17.133-7.686-17.133-17.133 7.685-17.133 17.133-17.133z"/><path d="m384.533 385.6h-148.128c-6.281-18.655-23.926-32.133-44.672-32.133s-38.391 13.478-44.672 32.133h-19.595c-8.284 0-15 6.716-15 15s6.716 15 15 15h19.595c6.281 18.655 23.926 32.133 44.672 32.133s38.391-13.478 44.672-32.133h148.128c8.284 0 15-6.716 15-15s-6.715-15-15-15zm-192.799 32.134c-9.447 0-17.133-7.686-17.133-17.133s7.686-17.133 17.133-17.133 17.133 7.686 17.133 17.133-7.686 17.133-17.133 17.133z"/></g></svg>