<svg id="Layer_1" height="512" viewBox="0 0 150 150" width="512" xmlns="http://www.w3.org/2000/svg" data-name="Layer 1"><path d="m45.975 139.986a35.963 35.963 0 0 1 -25.438-61.4l49.918-49.914a1 1 0 0 1 1.414 0l49.462 49.462a1 1 0 0 1 0 1.414l-49.918 49.918a35.87 35.87 0 0 1 -25.438 10.52zm25.187-109.193-49.211 49.207a33.975 33.975 0 0 0 48.049 48.052l49.21-49.211z"/><path d="m111.909 71.127a1 1 0 0 1 -.707-.293l-32.033-32.034a1 1 0 0 1 0-1.414l27.091-27.086a1.029 1.029 0 0 1 1.414 0l32.033 32.034a1 1 0 0 1 0 1.414l-27.091 27.086a1 1 0 0 1 -.707.293zm-30.619-33.033 30.619 30.619 25.677-25.677-30.619-30.619z"/><path d="m97.911 57.128a1 1 0 0 1 -.707-1.707l12.633-12.633-3.33-3.329a1 1 0 0 1 0-1.414l13.751-13.751a1 1 0 1 1 1.414 1.414l-13.044 13.044 3.33 3.329a1 1 0 0 1 0 1.414l-13.34 13.34a1 1 0 0 1 -.707.293z"/><path d="m115.425 53.915a1 1 0 0 1 -.707-1.707l6.363-6.363a1 1 0 1 1 1.414 1.414l-6.363 6.363a1 1 0 0 1 -.707.293z"/><path d="m97.088 35.577a1 1 0 0 1 -.707-1.707l6.363-6.362a1 1 0 0 1 1.414 1.414l-6.358 6.362a1 1 0 0 1 -.712.293z"/><path d="m44.115 124.7h-.005a18.938 18.938 0 1 1 .005 0zm0-35.86a16.93 16.93 0 1 0 0 33.86h.005a16.821 16.821 0 0 0 11.973-4.959 16.926 16.926 0 0 0 -11.974-28.9z"/><path d="m98.056 82.312a1 1 0 0 1 -.707-.293l-29.366-29.365a1 1 0 1 1 1.417-1.414l29.363 29.365a1 1 0 0 1 -.707 1.707z"/><path d="m84.8 95.571a1 1 0 0 1 -.707-.293l-29.369-29.364a1 1 0 1 1 1.414-1.414l29.362 29.364a1 1 0 0 1 -.707 1.707z"/></svg>