<svg id="Layer_1" height="512" viewBox="0 0 150 150" width="512" xmlns="http://www.w3.org/2000/svg" data-name="Layer 1"><path d="m95.673 140a32.756 32.756 0 0 1 -32.719-32.72v-54.754a1 1 0 0 1 .381-.785c.315-.249 31.939-24.553 64.658-.014a1 1 0 0 1 .4.8v54.753a32.758 32.758 0 0 1 -32.72 32.72zm-30.719-86.971v54.251a30.72 30.72 0 1 0 61.439 0v-54.251c-29.418-21.7-57.832-2.605-61.439 0z"/><path d="m95.669 84.913a1 1 0 0 1 -1-1v-15.145a1 1 0 0 1 2 0v15.145a1 1 0 0 1 -1 1z"/><path d="m95.669 55.281a1 1 0 0 1 -1-1v-12.581a1 1 0 0 1 2 0v12.581a1 1 0 0 1 -1 1z"/><path d="m95.673 69.765a5.071 5.071 0 0 1 -5.065-5.065v-6.357a5.065 5.065 0 1 1 10.13 0v6.357a5.071 5.071 0 0 1 -5.065 5.065zm0-14.487a3.069 3.069 0 0 0 -3.065 3.065v6.357a3.065 3.065 0 0 0 6.13 0v-6.357a3.069 3.069 0 0 0 -3.065-3.065z"/><path d="m91.561 42.954a1 1 0 0 1 -1-1v-2.035a5.116 5.116 0 1 1 10.231 0v1.9a1 1 0 0 1 -2 0v-1.9a3.116 3.116 0 1 0 -6.231 0v2.035a1 1 0 0 1 -1 1z"/><path d="m22.607 65.119a1 1 0 0 1 0-2 21.853 21.853 0 0 0 21.828-21.828v-5.491a25.832 25.832 0 0 1 25.803-25.8h.635a25.832 25.832 0 0 1 25.8 25.8 1 1 0 0 1 -2 0 23.83 23.83 0 0 0 -23.8-23.8h-.635a23.83 23.83 0 0 0 -23.8 23.8v5.488a23.855 23.855 0 0 1 -23.831 23.831z"/><path d="m127.393 84.913h-63.439a1 1 0 1 1 0-2h63.439a1 1 0 0 1 0 2z"/></svg>