<svg id="Layer_1" enable-background="new 0 0 512 512" height="512" viewBox="0 0 512 512" width="512" xmlns="http://www.w3.org/2000/svg"><g><path d="m384.533 56.233c-8.284 0-15 6.716-15 15s6.716 15 15 15c22.736 0 41.233 18.497 41.233 41.233 0 8.284 6.716 15 15 15s15-6.716 15-15c.001-39.278-31.954-71.233-71.233-71.233z"/><path d="m384.533 0c-8.284 0-15 6.716-15 15s6.716 15 15 15c53.743 0 97.467 43.724 97.467 97.467 0 8.284 6.716 15 15 15s15-6.716 15-15c0-70.286-57.181-127.467-127.467-127.467z"/><circle cx="384.533" cy="127.467" r="15"/><path d="m416.667 192.8h-97.467v-81.4c0-44.788-36.483-79.267-79.267-79.267h-224.933c-8.284 0-15 6.716-15 15v449.867c0 8.284 6.716 15 15 15h337.4c8.284 0 15-6.716 15-15v-16.067c0-29.68-20.57-54.633-48.2-61.386v-36.08h17.133c25.989 0 47.133-21.144 47.133-47.133s-21.143-47.134-47.133-47.134h-128.533c-8.284 0-15 6.716-15 15v113.533h-34.267v-227.066h34.267v49.267c0 8.284 6.716 15 15 15h96.4c8.284 0 15-6.716 15-15v-17.134h97.466c8.284 0 15-6.716 15-15s-6.715-15-14.999-15zm-97.467 126.4h17.133c9.447 0 17.133 7.686 17.133 17.133s-7.686 17.133-17.133 17.133h-17.133zm-96.4 0h66.4v98.533h-66.4zm66.4-94.267h-66.4v-34.267h66.4zm0-64.266h-145.667c-8.284 0-15 6.716-15 15v257.067c0 8.284 6.716 15 15 15h160.667c18.306 0 33.2 14.894 33.2 33.2v1.066h-307.4v-419.867h209.933c26.993 0 49.267 21.77 49.267 49.267z"/><circle cx="79.267" cy="111.4" r="15"/><circle cx="143.533" cy="111.4" r="15"/></g></svg>