<svg id="Layer_1" enable-background="new 0 0 512 512" height="512" viewBox="0 0 512 512" width="512" xmlns="http://www.w3.org/2000/svg"><g><path d="m384.533 56.233c-8.284 0-15 6.716-15 15s6.716 15 15 15c22.736 0 41.233 18.497 41.233 41.233 0 8.284 6.716 15 15 15s15-6.716 15-15c.001-39.278-31.954-71.233-71.233-71.233z"/><path d="m384.533 0c-8.284 0-15 6.716-15 15s6.716 15 15 15c53.743 0 97.467 43.724 97.467 97.467 0 8.284 6.716 15 15 15s15-6.716 15-15c0-70.286-57.182-127.467-127.467-127.467z"/><circle cx="384.533" cy="127.467" r="15"/><path d="m199.767 112.467c-110.152 0-199.767 89.615-199.767 199.766s89.615 199.767 199.767 199.767c110.151 0 199.767-89.615 199.767-199.767s-89.616-199.766-199.767-199.766zm0 369.533c-93.61 0-169.767-76.157-169.767-169.767s76.157-169.767 169.767-169.767 169.767 76.157 169.767 169.767-76.158 169.767-169.767 169.767z"/><path d="m262.993 227.79c-5.859 5.857-5.861 15.354-.004 21.213 16.902 16.909 26.211 39.365 26.211 63.23 0 49.313-40.12 89.433-89.434 89.433-49.313 0-89.433-40.12-89.433-89.433 0-23.866 9.309-46.321 26.211-63.23 5.856-5.859 5.854-15.356-.004-21.213-5.859-5.856-15.357-5.855-21.213.004-22.566 22.575-34.994 52.562-34.994 84.439 0 65.855 53.578 119.433 119.433 119.433s119.434-53.577 119.434-119.433c0-31.876-12.428-61.864-34.994-84.439-5.856-5.859-15.354-5.86-21.213-.004z"/><path d="m199.767 279.033c8.284 0 15-6.716 15-15v-56.233c0-8.284-6.716-15-15-15s-15 6.716-15 15v56.233c0 8.284 6.715 15 15 15z"/></g></svg>