<svg id="Layer_1" height="512" viewBox="0 0 150 150" width="512" xmlns="http://www.w3.org/2000/svg" data-name="Layer 1"><path d="m125.6 130.043h-28.31a14.412 14.412 0 0 1 -14.4-14.4v-81.29a14.412 14.412 0 0 1 14.4-14.4h28.31a14.412 14.412 0 0 1 14.4 14.4v81.294a14.412 14.412 0 0 1 -14.4 14.396zm-28.31-108.086a12.409 12.409 0 0 0 -12.4 12.4v81.294a12.409 12.409 0 0 0 12.4 12.4h28.31a12.41 12.41 0 0 0 12.4-12.4v-81.298a12.41 12.41 0 0 0 -12.4-12.4z"/><path d="m111.447 68.84a21.01 21.01 0 1 1 21-21.02 21.034 21.034 0 0 1 -21 21.02zm0-40.02a19.01 19.01 0 1 0 19 19 19.022 19.022 0 0 0 -19-19z"/><path d="m111.447 59.558a11.729 11.729 0 1 1 11.723-11.734 11.741 11.741 0 0 1 -11.723 11.734zm0-21.457a9.729 9.729 0 1 0 9.723 9.723 9.734 9.734 0 0 0 -9.723-9.724z"/><path d="m97.18 123.238a7.252 7.252 0 1 1 7.251-7.251 7.249 7.249 0 0 1 -7.251 7.251zm0-12.5a5.252 5.252 0 1 0 5.251 5.252 5.248 5.248 0 0 0 -5.251-5.255z"/><path d="m67.97 88.45h-48.05a9.931 9.931 0 0 1 -9.92-9.92v-41.23a9.931 9.931 0 0 1 9.92-9.92h48.05a9.932 9.932 0 0 1 9.92 9.92v41.23a9.932 9.932 0 0 1 -9.92 9.92zm-48.05-59.07a7.929 7.929 0 0 0 -7.92 7.92v41.23a7.929 7.929 0 0 0 7.92 7.92h48.05a7.929 7.929 0 0 0 7.92-7.92v-41.23a7.929 7.929 0 0 0 -7.92-7.92z"/><path d="m62.492 42.987h-37.092a1 1 0 0 1 0-2h37.1a1 1 0 0 1 0 2z"/><path d="m62.492 74.843h-37.092a1 1 0 0 1 0-2h37.1a1 1 0 1 1 0 2z"/><path d="m57.505 58.915h-26.711a1 1 0 0 1 0-2h26.711a1 1 0 0 1 0 2z"/><path d="m128.7 81.82h-34.5a1 1 0 0 1 0-2h34.5a1 1 0 0 1 0 2z"/><path d="m128.7 96.2h-34.5a1 1 0 0 1 0-2h34.5a1 1 0 0 1 0 2z"/><path d="m83.9 45.653h-7a1 1 0 0 1 0-2h7a1 1 0 0 1 0 2z"/><path d="m83.9 72.32h-7a1 1 0 1 1 0-2h7a1 1 0 0 1 0 2z"/></svg>