<svg id="Layer_1" enable-background="new 0 0 512 512" height="512" viewBox="0 0 512 512" width="512" xmlns="http://www.w3.org/2000/svg"><g><path d="m335.267 127.467c0-43.708-35.559-79.267-79.267-79.267-43.43 0-78.988 35.516-79.267 79.267v194.892c-20.5 20.787-32.134 48.929-32.134 78.242 0 61.426 49.974 111.4 111.4 111.4s111.4-49.974 111.4-111.4c0-29.313-11.634-57.455-32.134-78.242v-194.892zm2.133 273.133c0 44.884-36.516 81.4-81.4 81.4s-81.4-36.516-81.4-81.4c0-23.096 9.893-45.204 27.142-60.653 3.177-2.845 4.992-6.909 4.992-11.173v-201.211c.172-27.219 22.274-49.363 49.266-49.363 27.166 0 49.267 22.101 49.267 49.267v201.307c0 4.265 1.815 8.328 4.992 11.173 17.249 15.449 27.141 37.557 27.141 60.653z"/><path d="m384.533 56.233c-8.284 0-15 6.716-15 15s6.716 15 15 15c22.736 0 41.233 18.497 41.233 41.233 0 8.284 6.716 15 15 15s15-6.716 15-15c.001-39.278-31.954-71.233-71.233-71.233z"/><path d="m384.533 0c-8.284 0-15 6.716-15 15s6.716 15 15 15c53.743 0 97.467 43.724 97.467 97.467 0 8.284 6.716 15 15 15s15-6.716 15-15c0-70.286-57.182-127.467-127.467-127.467z"/><circle cx="384.533" cy="127.467" r="15"/><path d="m271 355.928v-228.461c0-8.284-6.716-15-15-15s-15 6.716-15 15v228.461c-18.655 6.281-32.134 23.926-32.134 44.672 0 25.989 21.145 47.133 47.134 47.133s47.134-21.144 47.134-47.133c0-20.745-13.479-38.39-32.134-44.672zm-15 61.805c-9.447 0-17.134-7.686-17.134-17.133s7.687-17.133 17.134-17.133 17.134 7.686 17.134 17.133-7.687 17.133-17.134 17.133z"/><path d="m95.333 80.333h-80.333c-8.284 0-15 6.716-15 15s6.716 15 15 15h80.333c8.284 0 15-6.716 15-15s-6.716-15-15-15z"/><path d="m95.333 208.867h-80.333c-8.284 0-15 6.716-15 15s6.716 15 15 15h80.333c8.284 0 15-6.716 15-15s-6.716-15-15-15z"/><path d="m95.333 337.4h-80.333c-8.284 0-15 6.716-15 15s6.716 15 15 15h80.333c8.284 0 15-6.716 15-15s-6.716-15-15-15z"/><path d="m95.333 144.6h-32.133c-8.284 0-15 6.716-15 15s6.716 15 15 15h32.133c8.284 0 15-6.716 15-15s-6.716-15-15-15z"/><path d="m95.333 273.133h-32.133c-8.284 0-15 6.716-15 15s6.716 15 15 15h32.133c8.284 0 15-6.716 15-15s-6.716-15-15-15z"/></g></svg>