<svg id="Layer_1" height="512" viewBox="0 0 150 150" width="512" xmlns="http://www.w3.org/2000/svg" data-name="Layer 1"><path d="m126.454 105.333h-10.493a1 1 0 1 1 0-2h10.493a5 5 0 0 0 5-5v-39.1a5 5 0 0 0 -5-4.995h-102.907a5 5 0 0 0 -5 4.995v39.1a5 5 0 0 0 5 5h10.618a1 1 0 0 1 0 2h-10.618a7 7 0 0 1 -7-7v-39.1a7 7 0 0 1 7-6.995h102.907a7 7 0 0 1 7 6.995v39.1a7 7 0 0 1 -7 7z"/><path d="m108.3 105.333h-66.235a1 1 0 0 1 0-2h66.235a1 1 0 0 1 0 2z"/><path d="m111.707 122.555h-.551a1 1 0 0 1 0-2h.551a3.258 3.258 0 0 0 3.254-3.254v-24.988a3.254 3.254 0 0 0 -3.254-3.245h-73.288a3.254 3.254 0 0 0 -3.254 3.245v24.987a3.258 3.258 0 0 0 3.254 3.254h.793a1 1 0 0 1 0 2h-.793a5.26 5.26 0 0 1 -5.254-5.254v-24.987a5.256 5.256 0 0 1 5.254-5.245h73.288a5.256 5.256 0 0 1 5.254 5.245v24.987a5.26 5.26 0 0 1 -5.254 5.255z"/><path d="m114.044 140h-77.724a1 1 0 0 1 -.987-1.164l5.745-34.665a1 1 0 0 1 .986-.837h66.236a1 1 0 0 1 .987.837l5.744 34.665a1 1 0 0 1 -.987 1.164zm-76.544-2h75.365l-5.412-32.666h-64.541z"/><path d="m97.858 115.284h-46.3a1 1 0 0 1 0-2h46.3a1 1 0 0 1 0 2z"/><path d="m101.13 128.615h-52.848a1 1 0 1 1 0-2h52.848a1 1 0 0 1 0 2z"/><path d="m112.609 65.947h-9.057a3.849 3.849 0 0 1 0-7.65h9.057a3.849 3.849 0 0 1 0 7.65zm-9.057-5.65a1.882 1.882 0 0 0 0 3.65h9.057a1.882 1.882 0 0 0 0-3.65z"/><path d="m124.332 66.351a4.229 4.229 0 1 1 4.228-4.229 4.234 4.234 0 0 1 -4.228 4.229zm0-6.457a2.229 2.229 0 1 0 2.228 2.228 2.231 2.231 0 0 0 -2.228-2.228z"/><path d="m117.993 54.238a1 1 0 0 1 -1-1v-25.08h-8.393a1 1 0 0 1 0-2h9.39a1 1 0 0 1 1 1v26.08a1 1 0 0 1 -.997 1z"/><path d="m32.975 54.238a1 1 0 0 1 -1-1v-26.08a1 1 0 0 1 1-1h9.5a1 1 0 0 1 0 2h-8.5v25.08a1 1 0 0 1 -1 1z"/><path d="m108.606 54.241h-66.131a1 1 0 0 1 -1-1v-42.241a1 1 0 0 1 1-1h60.091a1 1 0 0 1 .727.314l5.982 6.342a1 1 0 0 1 .331.74v35.845a1 1 0 0 1 -1 1zm-65.131-2h64.131v-34.441l-5.472-5.8h-58.659z"/></svg>