<svg id="_x31__px" height="512" viewBox="0 0 24 24" width="512" xmlns="http://www.w3.org/2000/svg"><path d="m18 24c-3.309 0-6-2.691-6-6 0-.276.224-.5.5-.5s.5.224.5.5c0 2.757 2.243 5 5 5s5-2.243 5-5-2.243-5-5-5c-1.562 0-3.003.709-3.953 1.944-.169.219-.482.259-.701.092-.219-.169-.26-.482-.092-.701 1.142-1.484 2.871-2.335 4.746-2.335 3.309 0 6 2.691 6 6s-2.691 6-6 6z"/><path d="m15.892 15.392h-2.392c-.276 0-.5-.224-.5-.5v-2.392c0-.276.224-.5.5-.5s.5.224.5.5v1.892h1.892c.276 0 .5.224.5.5s-.224.5-.5.5z"/><path d="m9.5 19h-4c-1.379 0-2.5-1.121-2.5-2.5v-11c0-1.379 1.121-2.5 2.5-2.5h11c1.379 0 2.5 1.121 2.5 2.5v4.001c0 .276-.224.5-.5.5s-.5-.224-.5-.5v-4.001c0-.827-.673-1.5-1.5-1.5h-11c-.827 0-1.5.673-1.5 1.5v11c0 .827.673 1.5 1.5 1.5h4c.276 0 .5.224.5.5s-.224.5-.5.5z"/><path d="m9.5 16h-2c-.827 0-1.5-.673-1.5-1.5v-7c0-.827.673-1.5 1.5-1.5h3.586c.4 0 .777.156 1.061.439l2.707 2.707c.195.195.195.512 0 .707s-.512.195-.707 0l-2.707-2.707c-.095-.094-.22-.146-.354-.146h-3.586c-.275 0-.5.225-.5.5v7c0 .275.225.5.5.5h2c.276 0 .5.224.5.5s-.224.5-.5.5z"/><path d="m6.5 22c-.276 0-.5-.224-.5-.5v-3c0-.276.224-.5.5-.5s.5.224.5.5v3c0 .276-.224.5-.5.5z"/><path d="m11 4c-.276 0-.5-.224-.5-.5v-3c0-.276.224-.5.5-.5s.5.224.5.5v3c0 .276-.224.5-.5.5z"/><path d="m6.5 4c-.276 0-.5-.224-.5-.5v-3c0-.276.224-.5.5-.5s.5.224.5.5v3c0 .276-.224.5-.5.5z"/><path d="m15.5 4c-.276 0-.5-.224-.5-.5v-3c0-.276.224-.5.5-.5s.5.224.5.5v3c0 .276-.224.5-.5.5z"/><path d="m3.5 11.5h-3c-.276 0-.5-.224-.5-.5s.224-.5.5-.5h3c.276 0 .5.224.5.5s-.224.5-.5.5z"/><path d="m3.5 7h-3c-.276 0-.5-.224-.5-.5s.224-.5.5-.5h3c.276 0 .5.224.5.5s-.224.5-.5.5z"/><path d="m3.5 16h-3c-.276 0-.5-.224-.5-.5s.224-.5.5-.5h3c.276 0 .5.224.5.5s-.224.5-.5.5z"/><path d="m21.5 7h-3c-.276 0-.5-.224-.5-.5s.224-.5.5-.5h3c.276 0 .5.224.5.5s-.224.5-.5.5z"/></svg>