<svg id="Layer_1" enable-background="new 0 0 512 512" height="512" viewBox="0 0 512 512" width="512" xmlns="http://www.w3.org/2000/svg"><g><path d="m384.533 56.233c-8.284 0-15 6.716-15 15s6.716 15 15 15c22.736 0 41.233 18.497 41.233 41.233 0 8.284 6.716 15 15 15s15-6.716 15-15c.001-39.278-31.954-71.233-71.233-71.233z"/><path d="m384.533 0c-8.284 0-15 6.716-15 15s6.716 15 15 15c53.743 0 97.467 43.724 97.467 97.467 0 8.284 6.716 15 15 15s15-6.716 15-15c0-70.286-57.182-127.467-127.467-127.467z"/><circle cx="384.533" cy="127.467" r="15"/><path d="m432.733 176.733h-417.733c-8.284 0-15 6.716-15 15v305.267c0 8.284 6.716 15 15 15h417.733c8.284 0 15-6.716 15-15v-305.267c0-8.284-6.715-15-15-15zm-15 305.267h-387.733v-194.933h387.733zm0-224.933h-387.733v-50.333h387.733z"/><circle cx="368.467" cy="432.733" r="15"/><circle cx="304.2" cy="432.733" r="15"/><path d="m79.267 447.733h128.533c8.284 0 15-6.716 15-15v-64.267c0-8.284-6.716-15-15-15h-17.133v-17.133c0-8.284-6.716-15-15-15h-64.267c-8.284 0-15 6.716-15 15v17.133h-17.133c-8.284 0-15 6.716-15 15v64.267c0 8.285 6.715 15 15 15zm15-64.266h17.133c8.284 0 15-6.716 15-15v-17.133h34.267v17.133c0 8.284 6.716 15 15 15h17.133v34.267h-98.533z"/></g></svg>