<svg id="Layer_1" height="512" viewBox="0 0 150 150" width="512" xmlns="http://www.w3.org/2000/svg" data-name="Layer 1"><path d="m134.55 113.156h-119.1a5.714 5.714 0 0 1 -5.45-5.935v-85.921a5.714 5.714 0 0 1 5.45-5.935h119.1a5.714 5.714 0 0 1 5.45 5.935v85.926a5.714 5.714 0 0 1 -5.45 5.93zm-119.1-95.796a3.721 3.721 0 0 0 -3.45 3.94v85.926a3.721 3.721 0 0 0 3.45 3.935h119.1a3.721 3.721 0 0 0 3.45-3.935v-85.926a3.721 3.721 0 0 0 -3.45-3.935z"/><path d="m131.83 87.333h-113.66a1 1 0 0 1 -1-1v-63.01a1 1 0 0 1 1-1h113.66a1 1 0 0 1 1 1v63.01a1 1 0 0 1 -1 1zm-112.66-2h111.66v-61.01h-111.66z"/><path d="m139 94.809h-128a1 1 0 0 1 0-2h128a1 1 0 0 1 0 2z"/><path d="m100.5 134.64h-51.42a1 1 0 0 1 -.7-1.711l11.325-11.219.005-9.551a1 1 0 0 1 1-1h28.17a1 1 0 0 1 1 1l.012 9.461 11.315 11.314a1 1 0 0 1 -.707 1.707zm-48.989-2h46.575l-9.9-9.9a.994.994 0 0 1 -.293-.7l-.012-8.876h-26.172v8.968a1 1 0 0 1 -.3.71z"/><path d="m75 107.845a4.54 4.54 0 1 1 4.544-4.536 4.545 4.545 0 0 1 -4.544 4.536zm0-7.08a2.54 2.54 0 1 0 2.544 2.544 2.547 2.547 0 0 0 -2.544-2.544z"/></svg>