<svg id="Layer_1" enable-background="new 0 0 512 512" height="512" viewBox="0 0 512 512" width="512" xmlns="http://www.w3.org/2000/svg"><g><path d="m266.606 181.127c-5.857-5.858-15.355-5.858-21.213 0l-48.2 48.2c-2.813 2.813-4.394 6.628-4.394 10.606v64.267c0 8.284 6.716 15 15 15h96.4c8.284 0 15-6.716 15-15v-64.267c0-3.978-1.581-7.793-4.394-10.606zm22.594 108.073h-66.4v-43.054l33.2-33.2 33.2 33.2z"/><path d="m403.653 356.558c-7.52 0-14.628 1.779-20.942 4.925l-25.256-25.212c-5.863-5.854-15.36-5.846-21.213.019-5.853 5.863-5.845 15.36.019 21.213l25.22 25.176c-3.168 6.331-4.961 13.465-4.961 21.013 0 25.989 21.144 47.133 47.133 47.133s47.133-21.144 47.133-47.133-21.144-47.134-47.133-47.134zm0 64.267c-9.447 0-17.133-7.686-17.133-17.133s7.686-17.133 17.133-17.133 17.133 7.686 17.133 17.133-7.686 17.133-17.133 17.133z"/><path d="m464.867 208.867c-20.745 0-38.391 13.478-44.672 32.133h-35.662c-8.284 0-15 6.716-15 15s6.716 15 15 15h35.662c6.281 18.655 23.926 32.133 44.672 32.133 25.989 0 47.133-21.144 47.133-47.133s-21.144-47.133-47.133-47.133zm0 64.266c-9.447 0-17.133-7.686-17.133-17.133s7.686-17.133 17.133-17.133 17.133 7.686 17.133 17.133-7.686 17.133-17.133 17.133z"/><path d="m91.805 271h35.662c8.284 0 15-6.716 15-15s-6.716-15-15-15h-35.662c-6.281-18.655-23.926-32.133-44.672-32.133-25.989 0-47.133 21.144-47.133 47.133s21.144 47.133 47.133 47.133c20.746 0 38.391-13.478 44.672-32.133zm-44.672 2.133c-9.447 0-17.133-7.686-17.133-17.133s7.686-17.133 17.133-17.133 17.134 7.686 17.134 17.133-7.686 17.133-17.134 17.133z"/><path d="m271 420.195v-35.662c0-8.284-6.716-15-15-15s-15 6.716-15 15v35.662c-18.655 6.281-32.133 23.926-32.133 44.672 0 25.989 21.144 47.133 47.133 47.133s47.133-21.144 47.133-47.133c0-20.746-13.478-38.391-32.133-44.672zm-15 61.805c-9.447 0-17.133-7.686-17.133-17.133s7.686-17.133 17.133-17.133 17.133 7.686 17.133 17.133-7.686 17.133-17.133 17.133z"/><path d="m241 91.805v35.662c0 8.284 6.716 15 15 15s15-6.716 15-15v-35.662c18.655-6.281 32.133-23.926 32.133-44.672 0-25.989-21.144-47.133-47.133-47.133s-47.133 21.144-47.133 47.133c0 20.746 13.478 38.391 32.133 44.672zm15-61.805c9.447 0 17.133 7.686 17.133 17.133s-7.686 17.134-17.133 17.134-17.133-7.686-17.133-17.133 7.686-17.134 17.133-17.134z"/><path d="m150.519 129.321c3.168-6.331 4.961-13.465 4.961-21.013 0-25.989-21.144-47.133-47.133-47.133s-47.133 21.144-47.133 47.133 21.144 47.133 47.133 47.133c7.52 0 14.628-1.779 20.942-4.925l25.256 25.212c5.864 5.854 15.362 5.843 21.213-.019 5.853-5.863 5.845-15.36-.019-21.213zm-42.172-3.879c-9.447 0-17.133-7.686-17.133-17.133s7.686-17.133 17.133-17.133 17.133 7.686 17.133 17.133-7.686 17.133-17.133 17.133z"/><path d="m154.545 336.271-25.256 25.212c-6.314-3.146-13.422-4.925-20.942-4.925-25.989 0-47.133 21.144-47.133 47.133s21.144 47.133 47.133 47.133 47.133-21.144 47.133-47.133c0-7.548-1.793-14.681-4.961-21.013l25.22-25.176c5.863-5.853 5.872-15.35.019-21.213-5.852-5.863-15.35-5.871-21.213-.018zm-46.198 84.554c-9.447 0-17.133-7.686-17.133-17.133s7.686-17.133 17.133-17.133 17.133 7.686 17.133 17.133-7.686 17.133-17.133 17.133z"/><path d="m357.455 175.729 25.256-25.212c6.314 3.146 13.422 4.925 20.942 4.925 25.989 0 47.133-21.144 47.133-47.133s-21.144-47.133-47.133-47.133-47.133 21.144-47.133 47.133c0 7.548 1.793 14.681 4.961 21.013l-25.22 25.176c-5.863 5.853-5.872 15.35-.019 21.213 5.854 5.864 15.351 5.87 21.213.018zm46.198-84.554c9.447 0 17.133 7.686 17.133 17.133s-7.686 17.133-17.133 17.133-17.133-7.686-17.133-17.133 7.686-17.133 17.133-17.133z"/></g></svg>