<svg id="Layer_1" height="512" viewBox="0 0 150 150" width="512" xmlns="http://www.w3.org/2000/svg" data-name="Layer 1"><path d="m105.043 134.881h-60.086a6.828 6.828 0 0 1 -6.82-6.819v-111.243a6.828 6.828 0 0 1 6.82-6.819h60.086a6.828 6.828 0 0 1 6.82 6.819v111.243a6.828 6.828 0 0 1 -6.82 6.819zm-60.086-122.881a4.825 4.825 0 0 0 -4.82 4.819v111.243a4.825 4.825 0 0 0 4.82 4.819h60.086a4.825 4.825 0 0 0 4.82-4.819v-111.243a4.825 4.825 0 0 0 -4.82-4.819z"/><path d="m101.119 33.112h-52.238a2.9 2.9 0 0 1 -2.894-2.9v-8.39a2.9 2.9 0 0 1 2.894-2.9h52.238a2.9 2.9 0 0 1 2.894 2.9v8.39a2.9 2.9 0 0 1 -2.894 2.9zm-52.238-12.18a.9.9 0 0 0 -.894.9v8.39a.9.9 0 0 0 .894.895h52.238a.9.9 0 0 0 .894-.895v-8.39a.9.9 0 0 0 -.894-.9z"/><path d="m101.119 55.577h-52.238a2.9 2.9 0 0 1 -2.894-2.895v-8.39a2.9 2.9 0 0 1 2.894-2.9h52.238a2.9 2.9 0 0 1 2.894 2.9v8.39a2.9 2.9 0 0 1 -2.894 2.895zm-52.238-12.177a.9.9 0 0 0 -.894.9v8.39a.9.9 0 0 0 .894.895h52.238a.9.9 0 0 0 .894-.895v-8.39a.9.9 0 0 0 -.894-.9z"/><path d="m75 92.838a8.953 8.953 0 0 1 -5.489-16.024 1 1 0 1 1 1.225 1.586 6.951 6.951 0 1 0 8.528 0 1 1 0 0 1 1.225-1.581 8.953 8.953 0 0 1 -5.489 16.019z"/><path d="m75 83.039a1 1 0 0 1 -1-1v-8.792a1 1 0 0 1 2 0v8.792a1 1 0 0 1 -1 1z"/><path d="m99.856 113.77h-12.271a1 1 0 0 1 0-2h12.271a1 1 0 0 1 0 2z"/><path d="m99.856 123.874h-12.271a1 1 0 0 1 0-2h12.271a1 1 0 0 1 0 2z"/><path d="m101.687 140h-7.245a1 1 0 0 1 -1-1v-5.121a1 1 0 0 1 1-1h7.245a1 1 0 0 1 1 1v5.121a1 1 0 0 1 -1 1zm-6.245-2h5.245v-3.121h-5.245z"/><path d="m55.558 140h-7.246a1 1 0 0 1 -1-1v-5.121a1 1 0 0 1 1-1h7.246a1 1 0 0 1 1 1v5.121a1 1 0 0 1 -1 1zm-6.246-2h5.246v-3.121h-5.246z"/></svg>