<svg id="_x31__px" height="512" viewBox="0 0 24 24" width="512" xmlns="http://www.w3.org/2000/svg"><path d="m18 20c-1.378 0-2.5-1.121-2.5-2.5s1.122-2.5 2.5-2.5 2.5 1.121 2.5 2.5-1.122 2.5-2.5 2.5zm0-4c-.827 0-1.5.673-1.5 1.5s.673 1.5 1.5 1.5 1.5-.673 1.5-1.5-.673-1.5-1.5-1.5z"/><path d="m18.775 24h-1.55c-.51 0-.932-.388-.98-.902l-.124-1.273c-.29-.133-.567-.299-.829-.495l-1.121.521c-.467.219-1.013.039-1.268-.415l-.774-1.38c-.248-.443-.129-1.003.275-1.303l1-.741c-.019-.156-.033-.329-.033-.511s.014-.354.033-.511l-1-.741c-.405-.3-.523-.859-.276-1.302l.775-1.382c.253-.453.798-.629 1.267-.415l1.121.521c.262-.196.539-.362.829-.495l.124-1.274c.049-.514.471-.902.981-.902h1.55c.51 0 .932.388.98.902l.124 1.273c.29.133.567.299.829.495l1.121-.521c.469-.216 1.014-.038 1.268.415l.774 1.38c.248.443.129 1.003-.275 1.303l-1 .741c.019.156.033.329.033.511s-.014.354-.033.511l1 .741c.405.3.523.859.276 1.302l-.775 1.382c-.252.453-.796.631-1.267.415l-1.121-.521c-.262.196-.539.362-.829.495l-.124 1.274c-.049.514-.471.902-.981.902zm-3.412-3.755c.117 0 .233.041.326.121.329.283.691.5 1.076.645.178.066.303.229.322.419l.153 1.571 1.535-.001.138-1.57c.019-.189.144-.353.322-.419.385-.145.747-.361 1.076-.645.148-.129.36-.157.537-.074l1.402.651.749-1.379-1.24-.929c-.151-.111-.227-.299-.196-.485.036-.212.065-.427.065-.65s-.029-.438-.065-.65c-.031-.187.044-.374.196-.485l1.241-.92-.776-1.391-1.376.653c-.177.081-.388.055-.537-.074-.329-.283-.691-.5-1.076-.645-.178-.066-.303-.229-.322-.419l-.153-1.571-1.535.002-.138 1.57c-.019.189-.144.353-.322.419-.385.145-.747.361-1.076.645-.149.129-.36.155-.537.074l-1.402-.651-.749 1.379 1.24.929c.151.111.227.299.196.485-.036.212-.065.427-.065.65s.029.438.065.65c.031.187-.044.374-.196.485l-1.241.92.776 1.391 1.376-.653c.067-.032.14-.048.211-.048z"/><path d="m9.5 19h-4c-1.378 0-2.5-1.121-2.5-2.5v-11c0-1.379 1.122-2.5 2.5-2.5h11c1.378 0 2.5 1.121 2.5 2.5v3.001c0 .276-.224.5-.5.5s-.5-.224-.5-.5v-3.001c0-.827-.673-1.5-1.5-1.5h-11c-.827 0-1.5.673-1.5 1.5v11c0 .827.673 1.5 1.5 1.5h4c.276 0 .5.224.5.5s-.223.5-.5.5z"/><path d="m9.5 16h-2c-.827 0-1.5-.673-1.5-1.5v-7c0-.827.673-1.5 1.5-1.5h3.586c.4 0 .777.156 1.061.439l2.707 2.707c.195.195.195.512 0 .707s-.512.195-.707 0l-2.707-2.707c-.094-.092-.223-.146-.354-.146h-3.586c-.276 0-.5.225-.5.5v7c0 .275.224.5.5.5h2c.276 0 .5.224.5.5s-.224.5-.5.5z"/><path d="m6.5 22c-.276 0-.5-.224-.5-.5v-3c0-.276.224-.5.5-.5s.5.224.5.5v3c0 .276-.224.5-.5.5z"/><path d="m11 4c-.276 0-.5-.224-.5-.5v-3c0-.276.224-.5.5-.5s.5.224.5.5v3c0 .276-.224.5-.5.5z"/><path d="m6.5 4c-.276 0-.5-.224-.5-.5v-3c0-.276.224-.5.5-.5s.5.224.5.5v3c0 .276-.224.5-.5.5z"/><path d="m15.5 4c-.276 0-.5-.224-.5-.5v-3c0-.276.224-.5.5-.5s.5.224.5.5v3c0 .276-.224.5-.5.5z"/><path d="m3.5 11.5h-3c-.276 0-.5-.224-.5-.5s.224-.5.5-.5h3c.276 0 .5.224.5.5s-.224.5-.5.5z"/><path d="m3.5 7h-3c-.276 0-.5-.224-.5-.5s.224-.5.5-.5h3c.276 0 .5.224.5.5s-.224.5-.5.5z"/><path d="m3.5 16h-3c-.276 0-.5-.224-.5-.5s.224-.5.5-.5h3c.276 0 .5.224.5.5s-.224.5-.5.5z"/><path d="m21.5 7h-3c-.276 0-.5-.224-.5-.5s.224-.5.5-.5h3c.276 0 .5.224.5.5s-.224.5-.5.5z"/></svg>