<svg id="Layer_1" height="512" viewBox="0 0 150 150" width="512" xmlns="http://www.w3.org/2000/svg" data-name="Layer 1"><path d="m41.842 73.931a31.842 31.842 0 1 1 31.843-31.842 31.878 31.878 0 0 1 -31.843 31.842zm0-61.684a29.842 29.842 0 1 0 29.843 29.842 29.876 29.876 0 0 0 -29.843-29.842z"/><path d="m41.842 61.483a19.394 19.394 0 1 1 19.394-19.394 19.416 19.416 0 0 1 -19.394 19.394zm0-36.788a17.394 17.394 0 1 0 17.394 17.394 17.414 17.414 0 0 0 -17.394-17.389z"/><path d="m52.944 43.089a1 1 0 0 1 -1-1 10.113 10.113 0 0 0 -10.1-10.1 1 1 0 0 1 0-2 12.115 12.115 0 0 1 12.1 12.1 1 1 0 0 1 -1 1z"/><path d="m55.212 139.753h-26.721a11.668 11.668 0 0 1 -11.655-11.653v-66.646a1 1 0 1 1 2 0v66.646a9.666 9.666 0 0 0 9.655 9.655h26.721a9.665 9.665 0 0 0 9.654-9.655v-66.664a1 1 0 1 1 2 0v66.664a11.667 11.667 0 0 1 -11.654 11.653z"/><path d="m80.742 113.553h-14.876a1 1 0 1 1 0-2h14.876a1 1 0 1 1 0 2z"/><path d="m80.742 89.863h-14.876a1 1 0 1 1 0-2h14.876a1 1 0 1 1 0 2z"/><path d="m132.572 127.889h-45.402a7.436 7.436 0 0 1 -7.428-7.427v-39.972a7.436 7.436 0 0 1 7.428-7.428h45.4a7.436 7.436 0 0 1 7.43 7.428v39.972a7.436 7.436 0 0 1 -7.428 7.427zm-45.402-52.827a5.434 5.434 0 0 0 -5.428 5.428v39.972a5.433 5.433 0 0 0 5.428 5.427h45.4a5.433 5.433 0 0 0 5.43-5.427v-39.972a5.434 5.434 0 0 0 -5.428-5.428z"/><path d="m41.852 110.076a1 1 0 0 1 -1-1v-18.828a1 1 0 0 1 2 0v18.828a1 1 0 0 1 -1 1z"/><path d="m127.637 112.127h-35.532a1 1 0 0 1 0-2h35.532a1 1 0 0 1 0 2z"/><path d="m127.637 90.824h-35.532a1 1 0 0 1 0-2h35.532a1 1 0 0 1 0 2z"/><path d="m52.719 133.147a7.76 7.76 0 1 1 7.76-7.761 7.775 7.775 0 0 1 -7.76 7.761zm0-13.52a5.76 5.76 0 1 0 5.76 5.759 5.771 5.771 0 0 0 -5.76-5.759z"/></svg>