<svg id="Layer_1" enable-background="new 0 0 512 512" height="512" viewBox="0 0 512 512" width="512" xmlns="http://www.w3.org/2000/svg"><g><path d="m384.533 0c-8.284 0-15 6.716-15 15s6.716 15 15 15c53.743 0 97.467 43.724 97.467 97.467 0 8.284 6.716 15 15 15s15-6.716 15-15c0-70.286-57.181-127.467-127.467-127.467z"/><path d="m384.533 56.233c-8.284 0-15 6.716-15 15s6.716 15 15 15c22.736 0 41.233 18.497 41.233 41.233 0 8.284 6.716 15 15 15s15-6.716 15-15c.001-39.278-31.954-71.233-71.233-71.233z"/><circle cx="384.533" cy="127.467" r="15"/><path d="m318.932 76.66c-1.265-7.168-7.493-12.394-14.772-12.394h-241c-7.279 0-13.507 5.226-14.772 12.394l-46.41 262.976c-6.567 37.395 3.769 64.095 22.877 83.203 11.045 11.045 24.596 18.675 39.372 22.362v51.799c0 8.284 6.716 15 15 15h208.867c8.284 0 15-6.716 15-15v-51.875c14.735-3.724 28.249-11.356 39.276-22.383 18.838-18.837 29.613-45.698 23.02-82.805zm-243.187 17.607h215.83l28.728 162.8h-273.286zm197.348 387.733h-178.866v-34.267h178.867v34.267zm48.063-80.471c-10.45 10.449-24.343 16.204-39.12 16.204h-197.074c-14.695 0-28.508-5.721-38.895-16.107-20.388-20.388-16.44-45.991-14.544-56.788l10.199-57.771h283.874l10.252 58.101c1.906 10.726 5.617 36.052-14.692 56.361z"/></g></svg>