<svg id="Layer_1" enable-background="new 0 0 512 512" height="512" viewBox="0 0 512 512" width="512" xmlns="http://www.w3.org/2000/svg"><g><path d="m384.533 86.233c22.736 0 41.233 18.497 41.233 41.233 0 8.284 6.716 15 15 15s15-6.716 15-15c0-39.278-31.955-71.233-71.233-71.233-8.284 0-15 6.716-15 15s6.716 15 15 15z"/><path d="m384.533 30c53.743 0 97.467 43.724 97.467 97.467 0 8.284 6.716 15 15 15s15-6.716 15-15c0-70.286-57.182-127.467-127.467-127.467-8.284 0-15 6.716-15 15s6.716 15 15 15z"/><circle cx="384.533" cy="127.467" r="15"/><path d="m497 192.8h-482c-8.284 0-15 6.716-15 15v224.934c0 8.284 6.716 15 15 15h17.133v49.266c0 8.284 6.716 15 15 15h128.533c8.284 0 15-6.716 15-15v-49.267h130.667v49.267c0 8.284 6.716 15 15 15h128.533c8.284 0 15-6.716 15-15v-49.267h17.134c8.284 0 15-6.716 15-15v-224.933c0-8.284-6.716-15-15-15zm-336.333 289.2h-98.534v-34.267h98.533v34.267zm289.199 0h-98.533v-34.267h98.533zm32.134-64.267h-452v-194.933h452z"/><circle cx="79.267" cy="352.4" r="15"/><circle cx="143.533" cy="352.4" r="15"/><circle cx="207.8" cy="352.4" r="15"/><path d="m384.533 383.467c34.849 0 63.2-28.352 63.2-63.2s-28.352-63.2-63.2-63.2-63.2 28.351-63.2 63.2 28.352 63.2 63.2 63.2zm0-96.4c18.307 0 33.2 14.893 33.2 33.2s-14.894 33.2-33.2 33.2-33.2-14.894-33.2-33.2 14.894-33.2 33.2-33.2z"/><path d="m79.267 303.133h128.533c8.284 0 15-6.716 15-15s-6.716-15-15-15h-128.533c-8.284 0-15 6.716-15 15s6.715 15 15 15z"/></g></svg>