<svg id="_x31__px" height="512" viewBox="0 0 24 24" width="512" xmlns="http://www.w3.org/2000/svg"><path d="m21.208 24c-.098 0-.196-.029-.281-.087l-3.427-2.332-3.427 2.332c-.172.117-.398.115-.568-.004-.17-.118-.249-.331-.198-.532l1.061-4.187-3.192-2.727c-.155-.132-.214-.346-.149-.539.065-.194.241-.328.445-.34l4.083-.232 1.477-4.025c.145-.394.794-.394.938 0l1.477 4.025 4.083.232c.204.012.38.146.445.34.065.193.006.407-.149.539l-3.192 2.727 1.061 4.187c.051.201-.028.414-.198.532-.088.061-.188.091-.289.091zm-3.708-3.523c.098 0 .196.029.281.087l2.619 1.781-.813-3.21c-.046-.185.016-.38.16-.503l2.481-2.119-3.167-.181c-.199-.011-.373-.14-.441-.327l-1.12-3.053-1.12 3.053c-.068.188-.242.316-.441.327l-3.167.181 2.481 2.119c.145.123.207.318.16.503l-.813 3.21 2.619-1.781c.085-.058.183-.087.281-.087z"/><path d="m9.5 19h-4c-1.378 0-2.5-1.121-2.5-2.5v-11c0-1.378 1.122-2.5 2.5-2.5h11c1.378 0 2.5 1.122 2.5 2.5v3c0 .277-.224.5-.5.5s-.5-.223-.5-.5v-3c0-.827-.673-1.5-1.5-1.5h-11c-.827 0-1.5.673-1.5 1.5v11c0 .827.673 1.5 1.5 1.5h4c.276 0 .5.224.5.5s-.223.5-.5.5z"/><path d="m8.5 16h-1c-.827 0-1.5-.673-1.5-1.5v-7c0-.827.673-1.5 1.5-1.5h3.586c.4 0 .777.156 1.061.439l2.707 2.707c.195.195.195.512 0 .707s-.512.195-.707 0l-2.707-2.707c-.094-.093-.223-.146-.354-.146h-3.586c-.276 0-.5.224-.5.5v7c0 .275.224.5.5.5h1c.276 0 .5.224.5.5s-.224.5-.5.5z"/><path d="m6.5 22c-.276 0-.5-.224-.5-.5v-3c0-.276.224-.5.5-.5s.5.224.5.5v3c0 .276-.224.5-.5.5z"/><path d="m11 4c-.276 0-.5-.224-.5-.5v-3c0-.276.224-.5.5-.5s.5.224.5.5v3c0 .276-.224.5-.5.5z"/><path d="m6.5 4c-.276 0-.5-.224-.5-.5v-3c0-.276.224-.5.5-.5s.5.224.5.5v3c0 .276-.224.5-.5.5z"/><path d="m15.5 4c-.276 0-.5-.224-.5-.5v-3c0-.276.224-.5.5-.5s.5.224.5.5v3c0 .276-.224.5-.5.5z"/><path d="m3.5 11.5h-3c-.276 0-.5-.224-.5-.5s.224-.5.5-.5h3c.276 0 .5.224.5.5s-.224.5-.5.5z"/><path d="m3.5 7h-3c-.276 0-.5-.224-.5-.5s.224-.5.5-.5h3c.276 0 .5.224.5.5s-.224.5-.5.5z"/><path d="m3.5 16h-3c-.276 0-.5-.224-.5-.5s.224-.5.5-.5h3c.276 0 .5.224.5.5s-.224.5-.5.5z"/><path d="m21.5 7h-3c-.276 0-.5-.224-.5-.5s.224-.5.5-.5h3c.276 0 .5.224.5.5s-.224.5-.5.5z"/></svg>