<svg id="Layer_1" height="512" viewBox="0 0 150 150" width="512" xmlns="http://www.w3.org/2000/svg" data-name="Layer 1"><path d="m75.935 88.826a1 1 0 0 1 -1-1v-17.02a1 1 0 1 1 2 0v17.02a1 1 0 0 1 -1 1z"/><path d="m123.88 79.431a1 1 0 0 1 -.955-1.3 47.077 47.077 0 0 0 -30.845-59 1 1 0 1 1 .6-1.908 49.076 49.076 0 0 1 32.153 61.507 1 1 0 0 1 -.953.701z"/><path d="m113.292 76.114a1 1 0 0 1 -.954-1.3 36.023 36.023 0 0 0 -23.576-45.1 1 1 0 0 1 .6-1.909 38.024 38.024 0 0 1 24.887 47.6 1 1 0 0 1 -.957.709z"/><path d="m102.705 72.8a.972.972 0 0 1 -.3-.047 1 1 0 0 1 -.656-1.253 24.917 24.917 0 0 0 -16.305-31.2 1 1 0 0 1 .6-1.909 26.92 26.92 0 0 1 17.617 33.7 1 1 0 0 1 -.956.709z"/><path d="m92.118 69.478a.978.978 0 0 1 -.3-.047 1 1 0 0 1 -.655-1.252 13.812 13.812 0 0 0 -9.037-17.288 1 1 0 1 1 .6-1.908 15.809 15.809 0 0 1 10.345 19.793 1 1 0 0 1 -.953.702z"/><path d="m75.935 71.806a7.49 7.49 0 1 1 7.49-7.49 7.5 7.5 0 0 1 -7.49 7.49zm0-12.98a5.49 5.49 0 1 0 5.49 5.49 5.5 5.5 0 0 0 -5.49-5.49z"/><path d="m136.085 125.826h-122.17a3.92 3.92 0 0 1 -3.915-3.916v-31.169a3.919 3.919 0 0 1 3.915-3.915h122.17a3.919 3.919 0 0 1 3.915 3.915v31.169a3.92 3.92 0 0 1 -3.915 3.916zm-122.17-37a1.916 1.916 0 0 0 -1.915 1.915v31.169a1.917 1.917 0 0 0 1.915 1.916h122.17a1.917 1.917 0 0 0 1.915-1.916v-31.169a1.916 1.916 0 0 0 -1.915-1.915z"/><path d="m129.5 132.826h-6.5a1 1 0 0 1 -1-1v-7a1 1 0 0 1 1-1h6.5a1 1 0 0 1 1 1v7a1 1 0 0 1 -1 1zm-5.5-2h4.5v-5h-4.5z"/><path d="m27 132.826h-6.5a1 1 0 0 1 -1-1v-7a1 1 0 0 1 1-1h6.5a1 1 0 0 1 1 1v7a1 1 0 0 1 -1 1zm-5.5-2h4.5v-5h-4.5z"/><path d="m124.37 113.205h-62.238a4.67 4.67 0 0 1 -4.665-4.665v-4.428a4.671 4.671 0 0 1 4.665-4.666h62.238a4.671 4.671 0 0 1 4.665 4.666v4.428a4.67 4.67 0 0 1 -4.665 4.665zm-62.238-11.759a2.669 2.669 0 0 0 -2.665 2.666v4.428a2.668 2.668 0 0 0 2.665 2.665h62.238a2.668 2.668 0 0 0 2.665-2.665v-4.428a2.669 2.669 0 0 0 -2.665-2.666z"/><path d="m30.535 115.9a9.57 9.57 0 1 1 9.57-9.57 9.581 9.581 0 0 1 -9.57 9.57zm0-17.14a7.57 7.57 0 1 0 7.57 7.57 7.579 7.579 0 0 0 -7.57-7.574z"/></svg>