<svg id="Layer_1" height="512" viewBox="0 0 150 150" width="512" xmlns="http://www.w3.org/2000/svg" data-name="Layer 1"><path d="m132.612 104.978h-115.228a7.392 7.392 0 0 1 -7.384-7.384v-27.423a7.392 7.392 0 0 1 7.384-7.383h13.757a1 1 0 1 1 0 2h-13.757a5.39 5.39 0 0 0 -5.384 5.383v27.423a5.39 5.39 0 0 0 5.384 5.384h115.228a5.39 5.39 0 0 0 5.388-5.384v-27.423a5.39 5.39 0 0 0 -5.384-5.383h-50.27a1 1 0 0 1 0-2h50.266a7.392 7.392 0 0 1 7.388 7.383v27.423a7.393 7.393 0 0 1 -7.388 7.384z"/><path d="m56.743 90.389a26.6 26.6 0 1 1 26.6-26.6 26.632 26.632 0 0 1 -26.6 26.6zm0-51.2a24.6 24.6 0 1 0 24.6 24.6 24.629 24.629 0 0 0 -24.6-24.603z"/><path d="m56.743 79.37a15.583 15.583 0 1 1 15.582-15.582 15.6 15.6 0 0 1 -15.582 15.582zm0-29.165a13.583 13.583 0 1 0 13.582 13.583 13.6 13.6 0 0 0 -13.582-13.583z"/><path d="m139 95.451h-18.545a1 1 0 0 1 0-2h18.545a1 1 0 0 1 0 2z"/><path d="m139 84.882h-18.545a1 1 0 1 1 0-2h18.545a1 1 0 0 1 0 2z"/><path d="m139 74.314h-18.545a1 1 0 0 1 0-2h18.545a1 1 0 0 1 0 2z"/><path d="m128.252 112.814h-7.925a3.261 3.261 0 0 1 -3.257-3.257v-5.579a1 1 0 0 1 2 0v5.579a1.259 1.259 0 0 0 1.257 1.257h7.925a1.259 1.259 0 0 0 1.257-1.257v-5.579a1 1 0 1 1 2 0v5.579a3.261 3.261 0 0 1 -3.257 3.257z"/><path d="m29.668 112.814h-7.924a3.261 3.261 0 0 1 -3.258-3.257v-5.579a1 1 0 0 1 2 0v5.579a1.259 1.259 0 0 0 1.258 1.257h7.924a1.259 1.259 0 0 0 1.258-1.257v-5.579a1 1 0 0 1 2 0v5.579a3.261 3.261 0 0 1 -3.258 3.257z"/><path d="m104.024 93.664h-14.954a1 1 0 0 1 -1-1v-14.954a1 1 0 0 1 1-1h14.954a1 1 0 0 1 1 1v14.954a1 1 0 0 1 -1 1zm-13.954-2h12.954v-12.954h-12.954z"/><path d="m20.909 79.37a5.012 5.012 0 1 1 5.012-5.012 5.018 5.018 0 0 1 -5.012 5.012zm0-8.024a3.012 3.012 0 1 0 3.012 3.012 3.016 3.016 0 0 0 -3.012-3.012z"/></svg>