<svg id="Layer_1" enable-background="new 0 0 512 512" height="512" viewBox="0 0 512 512" width="512" xmlns="http://www.w3.org/2000/svg"><g><path d="m384.533 56.233c-8.284 0-15 6.716-15 15s6.716 15 15 15c22.736 0 41.233 18.497 41.233 41.233 0 8.284 6.716 15 15 15s15-6.716 15-15c.001-39.278-31.954-71.233-71.233-71.233z"/><path d="m384.533 0c-8.284 0-15 6.716-15 15s6.716 15 15 15c53.743 0 97.467 43.724 97.467 97.467 0 8.284 6.716 15 15 15s15-6.716 15-15c0-70.286-57.182-127.467-127.467-127.467z"/><circle cx="384.533" cy="127.467" r="15"/><path d="m304.2 224.933h-1.066v-50.333h17.133c8.284 0 15-6.716 15-15s-6.716-15-15-15h-17.133v-49.267c0-26.266-21.307-47.133-47.134-47.133h-160.667c-26.34 0-47.133 21.392-47.133 47.133v129.6h-1.066c-25.989 0-47.134 21.144-47.134 47.134 0 21.057 13.881 38.929 32.972 44.956 3.93 30.035 21.483 57.265 47.77 73.039l31.725 19.031v21.037c0 23.793-15.084 44.849-37.572 52.517-6.151 1.871-10.628 7.589-10.628 14.353 0 8.284 6.716 15 15 15h192.8.073c8.25-.04 14.927-6.74 14.927-15 0-6.764-4.477-12.482-10.628-14.353-22.489-7.667-37.572-28.723-37.572-52.517v-21.037l31.729-19.033c26.284-15.774 43.836-43.003 47.766-73.038 19.091-6.027 32.971-23.9 32.971-44.956 0-25.989-21.144-47.133-47.133-47.133zm-226-129.6c0-9.326 7.537-17.133 17.133-17.133h160.667c9.348 0 17.134 7.558 17.134 17.133v17.133h-194.934zm0 47.134h194.934v82.466h-194.934zm176.962 221.868-39.013 23.402c-4.519 2.711-7.283 7.594-7.283 12.863v29.53c0 19.244 6.403 37.324 17.501 51.87h-101.401c11.098-14.545 17.501-32.625 17.501-51.87v-29.53c0-5.269-2.765-10.151-7.282-12.862l-39.009-23.401c-16.636-9.983-28.279-26.517-32.399-45.137h223.78c-4.119 18.618-15.761 35.153-32.395 45.135zm49.038-75.135h-257.066c-9.447 0-17.134-7.686-17.134-17.133 0-9.448 7.687-17.134 17.134-17.134h257.066c9.447 0 17.133 7.686 17.133 17.134 0 9.447-7.686 17.133-17.133 17.133z"/></g></svg>