<svg id="Layer_1" enable-background="new 0 0 512 512" height="512" viewBox="0 0 512 512" width="512" xmlns="http://www.w3.org/2000/svg"><g><path d="m384.533 56.233c-8.284 0-15 6.716-15 15s6.716 15 15 15c22.736 0 41.233 18.497 41.233 41.233 0 8.284 6.716 15 15 15s15-6.716 15-15c.001-39.278-31.954-71.233-71.233-71.233z"/><path d="m384.533 0c-8.284 0-15 6.716-15 15s6.716 15 15 15c53.743 0 97.467 43.724 97.467 97.467 0 8.284 6.716 15 15 15s15-6.716 15-15c0-70.286-57.182-127.467-127.467-127.467z"/><circle cx="384.533" cy="127.467" r="15"/><path d="m400.6 192.8h-49.318c-.974-26.773-16.253-50.617-40.37-62.682-4.225-2.113-9.197-2.113-13.422 0-10.19 5.097-18.8 12.299-25.423 20.935-6.622-8.635-15.232-15.837-25.422-20.935-4.225-2.113-9.197-2.113-13.422 0-10.19 5.097-18.8 12.299-25.423 20.935-6.622-8.635-15.232-15.837-25.422-20.935-4.225-2.113-9.197-2.113-13.422 0-10.19 5.097-18.8 12.299-25.423 20.935-6.622-8.635-15.232-15.837-25.422-20.935-4.224-2.113-9.197-2.113-13.421 0-24.119 12.064-39.399 35.909-40.372 62.682h-49.318c-8.284 0-15 6.716-15 15v64.267c0 8.284 6.716 15 15 15h49.267v82.466h-49.267c-8.284 0-15 6.716-15 15v64.267c0 8.284 6.716 15 15 15h49.267v1.067c0 26.338 21.39 47.133 47.133 47.133 12.049 0 23.396-4.499 32.133-12.672 8.749 8.178 20.09 12.672 32.133 12.672 12.049 0 23.396-4.499 32.133-12.672 8.751 8.178 20.092 12.672 32.135 12.672 12.049 0 23.396-4.499 32.133-12.672 8.749 8.178 20.09 12.672 32.133 12.672 26.34 0 47.133-21.392 47.133-47.133v-1.067h49.267c8.284 0 15-6.716 15-15v-64.267c0-8.284-6.716-15-15-15h-49.267v-82.466h49.267c8.284 0 15-6.716 15-15v-64.267c0-8.284-6.716-15-15-15zm-336.333 241h-34.267v-34.267h34.267zm0-176.733h-34.267v-34.267h34.267zm64.266 207.8c0 9.328-7.539 17.133-17.133 17.133-9.347 0-17.134-7.556-17.134-17.133v-269.342c0-13.768 6.409-26.374 17.134-34.429 10.724 8.055 17.133 20.661 17.133 34.429zm64.267 0c0 9.328-7.539 17.133-17.133 17.133-9.347 0-17.134-7.557-17.134-17.133v-269.342c0-13.768 6.409-26.374 17.134-34.429 10.724 8.055 17.133 20.661 17.133 34.429zm64.266 0c0 9.328-7.539 17.133-17.133 17.133-9.347 0-17.134-7.557-17.134-17.133v-269.342c0-13.768 6.409-26.374 17.134-34.429 10.724 8.055 17.133 20.661 17.133 34.429zm64.267 0c0 9.328-7.539 17.133-17.133 17.133-9.347 0-17.134-7.557-17.134-17.133v-269.342c0-13.768 6.409-26.374 17.134-34.429 10.724 8.055 17.133 20.661 17.133 34.429zm64.267-65.334v34.267h-34.267v-34.267zm0-142.466h-34.267v-34.267h34.267z"/></g></svg>