<svg id="_x31__px" height="512" viewBox="0 0 24 24" width="512" xmlns="http://www.w3.org/2000/svg"><path d="m22.5 24h-11c-.827 0-1.5-.673-1.5-1.5 0-.293.081-.568.234-.799l5.489-8.982c.258-.44.75-.719 1.277-.719s1.019.279 1.281.727l5.495 8.992c.143.213.224.488.224.781 0 .827-.673 1.5-1.5 1.5zm-5.5-11c-.174 0-.334.089-.418.232l-5.505 9.008c-.055.082-.077.166-.077.26 0 .275.225.5.5.5h11c.275 0 .5-.225.5-.5 0-.094-.022-.178-.066-.242l-5.511-9.018c-.089-.151-.249-.24-.423-.24z"/><path d="m17 20c-.276 0-.5-.224-.5-.5v-4c0-.276.224-.5.5-.5s.5.224.5.5v4c0 .276-.224.5-.5.5z"/><circle cx="17" cy="21.5" r=".5"/><path d="m9.5 19h-4c-1.379 0-2.5-1.121-2.5-2.5v-11c0-1.378 1.121-2.5 2.5-2.5h11c1.379 0 2.5 1.122 2.5 2.5v4c0 .276-.224.5-.5.5s-.5-.223-.5-.5v-4c0-.827-.673-1.5-1.5-1.5h-11c-.827 0-1.5.673-1.5 1.5v11c0 .827.673 1.5 1.5 1.5h4c.276 0 .5.224.5.5s-.224.5-.5.5z"/><path d="m10.5 16h-3c-.827 0-1.5-.673-1.5-1.5v-7c0-.827.673-1.5 1.5-1.5h3.586c.4 0 .777.156 1.061.439l2.707 2.707c.195.195.195.512 0 .707s-.512.195-.707 0l-2.707-2.707c-.095-.094-.22-.146-.354-.146h-3.586c-.275 0-.5.224-.5.5v7c0 .275.225.5.5.5h3c.276 0 .5.224.5.5s-.224.5-.5.5z"/><path d="m6.5 22c-.276 0-.5-.224-.5-.5v-3c0-.276.224-.5.5-.5s.5.224.5.5v3c0 .276-.224.5-.5.5z"/><path d="m11 4c-.276 0-.5-.224-.5-.5v-3c0-.276.224-.5.5-.5s.5.224.5.5v3c0 .276-.224.5-.5.5z"/><path d="m6.5 4c-.276 0-.5-.224-.5-.5v-3c0-.276.224-.5.5-.5s.5.224.5.5v3c0 .276-.224.5-.5.5z"/><path d="m15.5 4c-.276 0-.5-.224-.5-.5v-3c0-.276.224-.5.5-.5s.5.224.5.5v3c0 .276-.224.5-.5.5z"/><path d="m3.5 11.5h-3c-.276 0-.5-.224-.5-.5s.224-.5.5-.5h3c.276 0 .5.224.5.5s-.224.5-.5.5z"/><path d="m3.5 7h-3c-.276 0-.5-.224-.5-.5s.224-.5.5-.5h3c.276 0 .5.224.5.5s-.224.5-.5.5z"/><path d="m3.5 16h-3c-.276 0-.5-.224-.5-.5s.224-.5.5-.5h3c.276 0 .5.224.5.5s-.224.5-.5.5z"/><path d="m21.5 7h-3c-.276 0-.5-.224-.5-.5s.224-.5.5-.5h3c.276 0 .5.224.5.5s-.224.5-.5.5z"/></svg>