<svg id="Layer_1" height="512" viewBox="0 0 150 150" width="512" xmlns="http://www.w3.org/2000/svg" data-name="Layer 1"><path d="m134.293 139.985h-87.778c-3.147 0-5.707-2.127-5.707-4.742v-45.687c0-2.615 2.56-4.742 5.707-4.742h87.778c3.147 0 5.707 2.127 5.707 4.742v45.687c0 2.615-2.56 4.742-5.707 4.742zm-87.778-53.171c-2.044 0-3.707 1.23-3.707 2.742v45.687c0 1.512 1.663 2.742 3.707 2.742h87.778c2.044 0 3.707-1.23 3.707-2.742v-45.687c0-1.512-1.663-2.742-3.707-2.742z"/><path d="m41.808 130.182h-30.808a1 1 0 0 1 -1-1v-33.565a1 1 0 0 1 1-1h30.808a1 1 0 0 1 1 1v33.565a1 1 0 0 1 -1 1zm-29.808-2h28.808v-31.565h-28.808z"/><path d="m21.237 106.758a1 1 0 0 1 0-2l10.614-.039a1 1 0 0 1 0 2z"/><path d="m21.3 120.079a1 1 0 0 1 0-2l10.615-.039a1 1 0 0 1 0 2z"/><path d="m67.1 126.72a1 1 0 0 1 -1-1v-26.642a1 1 0 0 1 2 0v26.642a1 1 0 0 1 -1 1z"/><path d="m90.4 126.72a1 1 0 0 1 -1-1v-26.642a1 1 0 0 1 2 0v26.642a1 1 0 0 1 -1 1z"/><path d="m113.713 126.72a1 1 0 0 1 -1-1v-26.642a1 1 0 0 1 2 0v26.642a1 1 0 0 1 -1 1z"/><path d="m118.125 29.849a1 1 0 0 1 -.707-.293 60.057 60.057 0 0 0 -84.836 0 1 1 0 0 1 -1.414-1.414 62.058 62.058 0 0 1 87.664 0 1 1 0 0 1 -.707 1.707z"/><path d="m108.173 39.8a.993.993 0 0 1 -.707-.293 45.967 45.967 0 0 0 -64.932 0 1 1 0 0 1 -1.414-1.414 47.968 47.968 0 0 1 67.76 0 1 1 0 0 1 -.707 1.707z"/><path d="m98.221 49.753a1 1 0 0 1 -.707-.293 31.876 31.876 0 0 0 -45.028 0 1 1 0 1 1 -1.414-1.414 33.876 33.876 0 0 1 47.856 0 1 1 0 0 1 -.707 1.707z"/><path d="m88.269 59.7a.993.993 0 0 1 -.707-.293 17.785 17.785 0 0 0 -25.124 0 1 1 0 0 1 -1.414-1.407 19.786 19.786 0 0 1 27.952 0 1 1 0 0 1 -.707 1.707z"/><path d="m75 77a7.321 7.321 0 1 1 7.321-7.321 7.329 7.329 0 0 1 -7.321 7.321zm0-12.642a5.321 5.321 0 1 0 5.321 5.321 5.327 5.327 0 0 0 -5.321-5.322z"/><path d="m75 86.814a1 1 0 0 1 -1-1v-9.814a1 1 0 0 1 2 0v9.815a1 1 0 0 1 -1 .999z"/></svg>