<svg id="_x31__px" height="512" viewBox="0 0 24 24" width="512" xmlns="http://www.w3.org/2000/svg"><path d="m21 24c-.316 0-.604-.143-.79-.391l-3.26-4.066.779-.625 3.271 4.079 1.996-2.001-4.078-3.267.625-.779 4.079 3.271c.235.175.378.463.378.779 0 .264-.106.515-.299.705l-1.998 1.998c-.188.191-.439.297-.703.297z"/><path d="m16 20c-2.206 0-4-1.794-4-4 0-.094.002-.186.015-.278.02-.144.101-.271.222-.351s.272-.104.41-.062l2.208.629 1.084-1.084-.629-2.208c-.04-.139-.018-.288.062-.41.079-.121.207-.202.351-.222.091-.012.183-.014.277-.014 2.206 0 4 1.794 4 4s-1.794 4-4 4zm-2.965-3.54c.222 1.436 1.467 2.54 2.965 2.54 1.654 0 3-1.346 3-3 0-1.498-1.104-2.743-2.54-2.965l.521 1.828c.05.174.001.362-.127.49l-1.5 1.5c-.128.128-.317.179-.49.127z"/><path d="m9.5 19h-4c-1.379 0-2.5-1.121-2.5-2.5v-11c0-1.379 1.121-2.5 2.5-2.5h11c1.379 0 2.5 1.121 2.5 2.5v4.001c0 .276-.224.5-.5.5s-.5-.224-.5-.5v-4.001c0-.827-.673-1.5-1.5-1.5h-11c-.827 0-1.5.673-1.5 1.5v11c0 .827.673 1.5 1.5 1.5h4c.276 0 .5.224.5.5s-.224.5-.5.5z"/><path d="m9.5 16h-2c-.827 0-1.5-.673-1.5-1.5v-7c0-.827.673-1.5 1.5-1.5h3.586c.4 0 .777.156 1.061.439l2.707 2.707c.195.195.195.512 0 .707s-.512.195-.707 0l-2.707-2.707c-.095-.094-.22-.146-.354-.146h-3.586c-.275 0-.5.225-.5.5v7c0 .275.225.5.5.5h2c.276 0 .5.224.5.5s-.224.5-.5.5z"/><path d="m6.5 22c-.276 0-.5-.224-.5-.5v-3c0-.276.224-.5.5-.5s.5.224.5.5v3c0 .276-.224.5-.5.5z"/><path d="m11 4c-.276 0-.5-.224-.5-.5v-3c0-.276.224-.5.5-.5s.5.224.5.5v3c0 .276-.224.5-.5.5z"/><path d="m6.5 4c-.276 0-.5-.224-.5-.5v-3c0-.276.224-.5.5-.5s.5.224.5.5v3c0 .276-.224.5-.5.5z"/><path d="m15.5 4c-.276 0-.5-.224-.5-.5v-3c0-.276.224-.5.5-.5s.5.224.5.5v3c0 .276-.224.5-.5.5z"/><path d="m3.5 11.5h-3c-.276 0-.5-.224-.5-.5s.224-.5.5-.5h3c.276 0 .5.224.5.5s-.224.5-.5.5z"/><path d="m3.5 7h-3c-.276 0-.5-.224-.5-.5s.224-.5.5-.5h3c.276 0 .5.224.5.5s-.224.5-.5.5z"/><path d="m3.5 16h-3c-.276 0-.5-.224-.5-.5s.224-.5.5-.5h3c.276 0 .5.224.5.5s-.224.5-.5.5z"/><path d="m21.5 7h-3c-.276 0-.5-.224-.5-.5s.224-.5.5-.5h3c.276 0 .5.224.5.5s-.224.5-.5.5z"/></svg>