<svg id="Layer_1" enable-background="new 0 0 512 512" height="512" viewBox="0 0 512 512" width="512" xmlns="http://www.w3.org/2000/svg"><g><path d="m497 305.267h-65.333v-49.282c0-97.184-78.642-175.651-175.683-175.651-97.17 0-175.65 78.644-175.65 175.651v49.282h-65.334c-8.284 0-15 6.716-15 15s6.716 15 15 15h65.333v17.133c0 8.284 6.716 15 15 15s15-6.716 15-15v-17.134h34.267v81.375c0 8.284 6.716 15 15 15s15-6.716 15-15v-81.375h34.267v110.314c0 8.284 6.716 15 15 15s15-6.716 15-15v-110.313h34.267v110.313c0 8.284 6.716 15 15 15s15-6.716 15-15v-110.313h34.266v81.375c0 8.284 6.716 15 15 15s15-6.716 15-15v-81.375h34.267v17.133c0 8.284 6.716 15 15 15s15-6.716 15-15v-17.134h65.333c8.284 0 15-6.716 15-15s-6.716-14.999-15-14.999zm-129.6 0v-49.282c0-61.641-49.877-111.385-111.416-111.385-61.625 0-111.384 49.866-111.384 111.4 0 8.284 6.716 14.992 15 14.992s15-6.724 15-15.008c0-44.963 36.367-81.385 81.416-81.385 45.022 0 81.384 36.436 81.384 81.385v49.282h-98.533v-49.266c0-9.447 7.686-17.134 17.133-17.134s17.133 7.687 17.133 17.134c0 8.284 6.716 15 15 15s15-6.716 15-15c0-25.989-21.144-47.134-47.133-47.134s-47.133 21.145-47.133 47.134v49.267h-98.533v-49.282c0-80.603 65.223-145.651 145.683-145.651 80.574 0 145.65 65.212 145.65 145.651v49.282z"/><path d="m15 110.333c8.284 0 15-6.716 15-15v-65.333h65.333c8.284 0 15-6.716 15-15s-6.716-15-15-15h-80.333c-8.284 0-15 6.716-15 15v80.333c0 8.284 6.716 15 15 15z"/><path d="m95.333 482h-65.333v-65.333c0-8.284-6.716-15-15-15s-15 6.716-15 15v80.333c0 8.284 6.716 15 15 15h80.333c8.284 0 15-6.716 15-15s-6.715-15-15-15z"/><path d="m497 0h-80.333c-8.284 0-15 6.716-15 15s6.716 15 15 15h65.333v65.333c0 8.284 6.716 15 15 15s15-6.716 15-15v-80.333c0-8.284-6.716-15-15-15z"/><path d="m497 401.667c-8.284 0-15 6.716-15 15v65.333h-65.333c-8.284 0-15 6.716-15 15s6.716 15 15 15h80.333c8.284 0 15-6.716 15-15v-80.333c0-8.284-6.716-15-15-15z"/></g></svg>