<svg id="_x31__px" height="512" viewBox="0 0 24 24" width="512" xmlns="http://www.w3.org/2000/svg"><path d="m21.5 24h-19c-1.379 0-2.5-1.122-2.5-2.5v-19c0-1.378 1.121-2.5 2.5-2.5h19c1.379 0 2.5 1.122 2.5 2.5v19c0 1.378-1.121 2.5-2.5 2.5zm-19-23c-.827 0-1.5.673-1.5 1.5v19c0 .827.673 1.5 1.5 1.5h19c.827 0 1.5-.673 1.5-1.5v-19c0-.827-.673-1.5-1.5-1.5z"/><path d="m12 21c-4.963 0-9-4.038-9-9s4.037-9 9-9 9 4.038 9 9-4.037 9-9 9zm0-17c-4.411 0-8 3.589-8 8s3.589 8 8 8 8-3.589 8-8-3.589-8-8-8z"/><path d="m12 15c-1.654 0-3-1.346-3-3s1.346-3 3-3 3 1.346 3 3-1.346 3-3 3zm0-5c-1.103 0-2 .897-2 2s.897 2 2 2 2-.897 2-2-.897-2-2-2z"/><path d="m11.999 9.53-.998-.06c.116-1.921-.502-3.689-1.89-5.405l.777-.629c1.552 1.918 2.243 3.912 2.111 6.094z"/><path d="m13.895 10.307-.789-.613c1.387-1.786 1.847-3.613 1.406-5.584l.977-.218c.501 2.249-.035 4.407-1.594 6.415z"/><path d="m18.738 14.462c-1.711 0-3.23-.451-4.607-1.361l.551-.834c1.607 1.062 3.45 1.41 5.626 1.066l.156.987c-.597.095-1.171.142-1.726.142z"/><path d="m17.271 18.942c-2.2-.69-3.802-2.234-4.76-4.588l.926-.377c.853 2.093 2.204 3.405 4.133 4.011z"/><path d="m7.225 18.766-.961-.276c.683-2.373 1.92-4.082 3.782-5.225l.523.853c-1.64 1.005-2.734 2.526-3.344 4.648z"/><path d="m4.164 14.316-.738-.675c1.554-1.701 3.625-2.491 6.169-2.375l-.049.999c-2.254-.117-4.02.559-5.382 2.051z"/><path d="m22.75 23.25c-.128 0-.256-.049-.354-.146l-2.25-2.25c-.195-.195-.195-.512 0-.707s.512-.195.707 0l2.25 2.25c.195.195.195.512 0 .707-.097.097-.225.146-.353.146z"/><path d="m1.25 23.25c-.128 0-.256-.049-.354-.146-.195-.195-.195-.512 0-.707l2.25-2.25c.195-.195.512-.195.707 0s.195.512 0 .707l-2.25 2.25c-.097.097-.225.146-.353.146z"/><path d="m20.5 4c-.128 0-.256-.049-.354-.146-.195-.195-.195-.512 0-.707l2.25-2.25c.195-.195.512-.195.707 0s.195.512 0 .707l-2.25 2.25c-.097.097-.225.146-.353.146z"/><path d="m3.5 4c-.128 0-.256-.049-.354-.146l-2.25-2.25c-.195-.195-.195-.512 0-.707s.512-.195.707 0l2.25 2.25c.195.195.195.512 0 .707-.097.097-.225.146-.353.146z"/></svg>