<svg id="Layer_1" enable-background="new 0 0 512 512" height="512" viewBox="0 0 512 512" width="512" xmlns="http://www.w3.org/2000/svg"><g><path d="m384.533 56.233c-8.284 0-15 6.716-15 15s6.716 15 15 15c22.736 0 41.233 18.497 41.233 41.233 0 8.284 6.716 15 15 15s15-6.716 15-15c.001-39.278-31.954-71.233-71.233-71.233z"/><path d="m384.533 0c-8.284 0-15 6.716-15 15s6.716 15 15 15c53.743 0 97.467 43.724 97.467 97.467 0 8.284 6.716 15 15 15s15-6.716 15-15c0-70.285-57.181-127.467-127.467-127.467z"/><circle cx="384.533" cy="127.467" r="15"/><path d="m234.362 169.773-160.666 64.267c-5.845 2.337-9.607 8.075-9.423 14.367.185 6.292 4.279 11.8 10.25 13.79l65.185 21.728 21.728 65.185c1.991 5.972 7.498 10.065 13.79 10.25.148.005.296.007.443.007 6.117 0 11.642-3.723 13.924-9.429l64.267-160.666c2.229-5.571.922-11.935-3.321-16.178-4.242-4.243-10.605-5.549-16.177-3.321zm-57.414 131.001-11.15-33.451c-1.493-4.479-5.008-7.994-9.487-9.487l-33.452-11.15 90.149-36.06z"/><path d="m264.033 0h-208.866c-30.509 0-55.167 24.684-55.167 55.167v401.667c0 30.513 24.687 55.166 55.167 55.166h208.866c30.509 0 55.167-24.684 55.167-55.167v-401.666c0-30.515-24.688-55.167-55.167-55.167zm-49.128 30c-3.948 7.69-6.039 16.265-6.039 25.167 0 5.018-4.082 9.1-9.1 9.1h-80.333c-5.019 0-9.101-4.083-9.101-9.116 0-8.892-2.09-17.462-6.039-25.15h110.612zm49.129 452h-208.867c-13.9 0-25.167-11.267-25.167-25.167v-401.666c0-13.9 11.267-25.167 25.167-25.167s25.167 11.267 25.167 25.167c0 21.56 17.54 39.1 39.101 39.1h80.333c21.56 0 39.1-17.524 39.1-39.1 0-13.899 11.267-25.167 25.167-25.167s25.167 11.267 25.167 25.167l.001 401.667c-.003 13.899-11.27 25.166-25.169 25.166z"/><path d="m223.866 417.733h-128.533c-8.284 0-15 6.716-15 15s6.716 15 15 15h128.533c8.284 0 15-6.716 15-15s-6.716-15-15-15z"/></g></svg>