<svg id="Layer_1" height="512" viewBox="0 0 150 150" width="512" xmlns="http://www.w3.org/2000/svg" data-name="Layer 1"><path d="m123.41 92.818h-16.17a1 1 0 0 1 0-2h16.17c7.908 0 14.59-6.929 14.59-15.13v-.1a12.888 12.888 0 0 0 -8.425-12.617 1.074 1.074 0 0 1 -.136-.055 11.471 11.471 0 0 0 -1.464-.579 1 1 0 0 1 -.586-1.381 12.628 12.628 0 0 0 1.221-5.508 13.04 13.04 0 0 0 -13.03-13.02 12.847 12.847 0 0 0 -5.137 1.065 1 1 0 0 1 -1.4-.858 20.023 20.023 0 0 0 -37.356-8.756 1 1 0 0 1 -.863.5 1 1 0 0 1 -.862-.494 21.925 21.925 0 0 0 -40.832 11.143 21.523 21.523 0 0 0 .993 6.5 1 1 0 0 1 -.862 1.3 19.039 19.039 0 0 0 1.769 37.99h11.73a1 1 0 1 1 0 2h-11.73a21.041 21.041 0 0 1 -3.146-41.843 23.606 23.606 0 0 1 -.754-5.947 23.925 23.925 0 0 1 43.686-13.523 22.023 22.023 0 0 1 40.1 9.667 15.021 15.021 0 0 1 19.69 14.276 14.756 14.756 0 0 1 -.981 5.364c.226.092.435.185.637.282a15.092 15.092 0 0 1 9.738 14.497v.1c0 9.282-7.6 17.127-16.59 17.127z"/><path d="m46.993 108.789a1 1 0 0 1 -.869-.5 33.256 33.256 0 0 1 45.367-45.371 1 1 0 0 1 -.992 1.737 31.257 31.257 0 0 0 -42.639 42.638 1 1 0 0 1 -.867 1.5z"/><path d="m74.959 125.029a33.078 33.078 0 0 1 -16.435-4.357 1 1 0 1 1 .993-1.737 31.247 31.247 0 0 0 42.624-42.625 1 1 0 0 1 1.736-.992 33.233 33.233 0 0 1 -28.918 49.711z"/><path d="m83.114 68.463a1 1 0 0 1 -.4-1.916l7.246-3.187-3.19-7.247a1 1 0 0 1 1.831-.806l3.589 8.162a1 1 0 0 1 -.512 1.319l-8.162 3.59a1.026 1.026 0 0 1 -.402.085z"/><path d="m62.547 128.932a1 1 0 0 1 -.916-.6l-3.59-8.162a1 1 0 0 1 .513-1.318l8.162-3.59a1 1 0 0 1 .8 1.831l-7.246 3.187 3.187 7.247a1 1 0 0 1 -.513 1.318.987.987 0 0 1 -.397.087z"/></svg>