<svg id="Layer_1" height="512" viewBox="0 0 150 150" width="512" xmlns="http://www.w3.org/2000/svg" data-name="Layer 1"><path d="m135.409 136.378h-120.817a4.6 4.6 0 0 1 -4.592-4.591v-49a4.6 4.6 0 0 1 4.592-4.587h120.817a4.6 4.6 0 0 1 4.591 4.588v49a4.6 4.6 0 0 1 -4.591 4.59zm-120.817-56.178a2.594 2.594 0 0 0 -2.592 2.588v49a2.594 2.594 0 0 0 2.592 2.591h120.817a2.594 2.594 0 0 0 2.591-2.592v-49a2.594 2.594 0 0 0 -2.591-2.591z"/><path d="m22.15 88.718h-4.525a1 1 0 0 1 0-2h4.525a1 1 0 0 1 0 2z"/><path d="m37.9 88.718h-4.528a1 1 0 0 1 0-2h4.528a1 1 0 0 1 0 2z"/><path d="m53.643 88.718h-4.525a1 1 0 0 1 0-2h4.525a1 1 0 0 1 0 2z"/><path d="m69.39 88.718h-4.526a1 1 0 0 1 0-2h4.526a1 1 0 0 1 0 2z"/><path d="m85.136 88.718h-4.525a1 1 0 0 1 0-2h4.525a1 1 0 0 1 0 2z"/><path d="m100.883 88.718h-4.526a1 1 0 0 1 0-2h4.526a1 1 0 0 1 0 2z"/><path d="m116.629 88.718h-4.529a1 1 0 0 1 0-2h4.525a1 1 0 0 1 0 2z"/><path d="m132.375 88.718h-4.524a1 1 0 0 1 0-2h4.524a1 1 0 0 1 0 2z"/><path d="m22.15 101.764h-4.525a1 1 0 0 1 0-2h4.525a1 1 0 0 1 0 2z"/><path d="m37.9 101.764h-4.528a1 1 0 0 1 0-2h4.528a1 1 0 0 1 0 2z"/><path d="m53.643 101.764h-4.525a1 1 0 0 1 0-2h4.525a1 1 0 0 1 0 2z"/><path d="m69.39 101.764h-4.526a1 1 0 0 1 0-2h4.526a1 1 0 0 1 0 2z"/><path d="m85.136 101.764h-4.525a1 1 0 0 1 0-2h4.525a1 1 0 0 1 0 2z"/><path d="m100.883 101.764h-4.526a1 1 0 0 1 0-2h4.526a1 1 0 0 1 0 2z"/><path d="m116.629 101.764h-4.529a1 1 0 0 1 0-2h4.525a1 1 0 0 1 0 2z"/><path d="m132.375 101.764h-4.524a1 1 0 0 1 0-2h4.524a1 1 0 0 1 0 2z"/><path d="m22.15 114.811h-4.525a1 1 0 0 1 0-2h4.525a1 1 0 1 1 0 2z"/><path d="m37.9 114.811h-4.528a1 1 0 1 1 0-2h4.528a1 1 0 0 1 0 2z"/><path d="m53.643 114.811h-4.525a1 1 0 1 1 0-2h4.525a1 1 0 0 1 0 2z"/><path d="m69.39 114.811h-4.526a1 1 0 0 1 0-2h4.526a1 1 0 1 1 0 2z"/><path d="m85.136 114.811h-4.525a1 1 0 0 1 0-2h4.525a1 1 0 0 1 0 2z"/><path d="m116.629 114.811h-4.529a1 1 0 0 1 0-2h4.525a1 1 0 0 1 0 2z"/><path d="m22.15 127.858h-4.525a1 1 0 0 1 0-2h4.525a1 1 0 1 1 0 2z"/><path d="m37.9 127.858h-4.528a1 1 0 0 1 0-2h4.528a1 1 0 1 1 0 2z"/><path d="m85.213 127.858h-36.095a1 1 0 1 1 0-2h36.095a1 1 0 0 1 0 2z"/><path d="m100.883 127.858h-4.526a1 1 0 0 1 0-2h4.526a1 1 0 0 1 0 2z"/><path d="m116.629 127.858h-4.529a1 1 0 1 1 0-2h4.525a1 1 0 1 1 0 2z"/><path d="m132.375 127.858h-4.524a1 1 0 0 1 0-2h4.524a1 1 0 0 1 0 2z"/><path d="m96.357 80.2a1 1 0 0 1 -1-1 8.444 8.444 0 0 0 -8.434-8.435h-23.845a8.445 8.445 0 0 0 -8.435 8.435 1 1 0 0 1 -2 0 10.447 10.447 0 0 1 10.435-10.438h23.845a10.446 10.446 0 0 1 10.434 10.438 1 1 0 0 1 -1 1z"/><path d="m75 70.762a1 1 0 0 1 -1-1 19.83 19.83 0 0 1 19.808-19.807h13.606a10.917 10.917 0 0 0 0-21.833h-2.542a13.516 13.516 0 0 1 -13.5-13.5 1 1 0 0 1 2 0 11.513 11.513 0 0 0 11.5 11.5h2.542a12.917 12.917 0 0 1 0 25.833h-13.606a17.827 17.827 0 0 0 -17.808 17.807 1 1 0 0 1 -1 1z"/></svg>