<svg id="_x31__px" height="512" viewBox="0 0 24 24" width="512" xmlns="http://www.w3.org/2000/svg"><path d="m22.5 18c-.117 0-.235-.014-.353-.042-6.734-1.628-13.561-1.628-20.295 0-.446.109-.909.006-1.271-.277-.369-.292-.581-.734-.581-1.213v-12.936c0-.479.212-.921.582-1.212.361-.284.824-.385 1.271-.277 6.734 1.628 13.561 1.628 20.295 0 .447-.107.909-.007 1.271.277.369.291.581.733.581 1.212v12.937c0 .479-.212.921-.582 1.212-.267.209-.588.319-.918.319zm-.118-1.014c.206.048.349-.037.418-.091.127-.101.2-.256.2-.426v-12.937c0-.17-.073-.326-.2-.426-.069-.055-.213-.139-.418-.091-6.889 1.666-13.875 1.666-20.764 0-.203-.048-.347.036-.418.09-.127.101-.2.256-.2.427v12.937c0 .17.073.326.2.426.07.055.214.138.418.091 6.889-1.666 13.875-1.666 20.764 0z"/><path d="m9.5 20c-.276 0-.5-.224-.5-.5v-3c0-.276.224-.5.5-.5s.5.224.5.5v3c0 .276-.224.5-.5.5z"/><path d="m14.5 20c-.276 0-.5-.224-.5-.5v-3c0-.276.224-.5.5-.5s.5.224.5.5v3c0 .276-.224.5-.5.5z"/><path d="m19.5 22c-.08 0-.16-.019-.235-.059-4.82-2.571-9.709-2.571-14.529 0-.244.127-.547.038-.677-.206s-.037-.546.206-.677c5.133-2.737 10.338-2.737 15.471 0 .243.13.336.433.206.677-.09.169-.263.265-.442.265z"/></svg>