<svg id="Layer_1" enable-background="new 0 0 512 512" height="512" viewBox="0 0 512 512" width="512" xmlns="http://www.w3.org/2000/svg"><g><path d="m384.533 56.233c-8.284 0-15 6.716-15 15s6.716 15 15 15c22.736 0 41.233 18.497 41.233 41.233 0 8.284 6.716 15 15 15s15-6.716 15-15c.001-39.278-31.954-71.233-71.233-71.233z"/><path d="m384.533 0c-8.284 0-15 6.716-15 15s6.716 15 15 15c53.743 0 97.467 43.724 97.467 97.467 0 8.284 6.716 15 15 15s15-6.716 15-15c0-70.285-57.182-127.467-127.467-127.467z"/><circle cx="384.533" cy="127" r="15"/><path d="m272.066 385.6h-128.533c-6.067 0-11.537 3.654-13.858 9.26-2.321 5.605-1.038 12.057 3.252 16.347l59.873 59.873v25.92c0 8.284 6.716 15 15 15s15-6.716 15-15v-25.921l59.873-59.873c4.29-4.29 5.573-10.741 3.252-16.347-2.322-5.605-7.791-9.259-13.859-9.259zm-64.266 58.053-28.053-28.053h56.106z"/><circle cx="336.333" cy="336.333" r="15"/><circle cx="79.267" cy="336.333" r="15"/><circle cx="400.6" cy="432.733" r="15"/><circle cx="15" cy="432.733" r="15"/><path d="m336.333 287.066c8.284 0 15-6.716 15-15 0-25.989-21.144-47.133-47.133-47.133-26.304 0-47.134 21.35-47.134 47.133v64.267c0 8.284 6.716 15 15 15s15-6.716 15-15v-64.267c0-9.334 7.547-17.133 17.134-17.133 9.447 0 17.133 7.686 17.133 17.133 0 8.285 6.716 15 15 15z"/><path d="m143.533 351.333c8.284 0 15-6.716 15-15v-64.267c0-25.919-20.955-47.133-47.133-47.133-25.989 0-47.133 21.144-47.133 47.133 0 8.284 6.716 15 15 15s15-6.716 15-15c0-9.447 7.686-17.133 17.133-17.133 9.339 0 17.133 7.55 17.133 17.133v64.267c0 8.284 6.716 15 15 15z"/><path d="m400.6 287.066c8.284 0 15-6.716 15-15 0-61.426-49.974-111.399-111.399-111.399-43.451 0-78.231 24.288-96.4 55.49-18.159-31.186-52.941-55.49-96.4-55.49-61.427 0-111.401 49.974-111.401 111.399 0 8.284 6.716 15 15 15s15-6.716 15-15c0-44.884 36.516-81.399 81.4-81.399 44.946 0 81.4 36.365 81.4 81.399v64.267c0 8.284 6.716 15 15 15s15-6.716 15-15v-64.267c0-44.948 36.367-81.399 81.4-81.399 44.884 0 81.399 36.516 81.399 81.399.001 8.285 6.716 15 15.001 15z"/><path d="m15 321.333c-8.284 0-15 6.716-15 15v32.134c0 8.284 6.716 15 15 15s15-6.716 15-15v-32.134c0-8.284-6.716-15-15-15z"/><path d="m400.6 383.467c8.284 0 15-6.716 15-15v-32.134c0-8.284-6.716-15-15-15s-15 6.716-15 15v32.134c0 8.284 6.715 15 15 15z"/></g></svg>