<svg id="Layer_1" height="512" viewBox="0 0 150 150" width="512" xmlns="http://www.w3.org/2000/svg" data-name="Layer 1"><path d="m133.309 140h-116.618a6.693 6.693 0 0 1 -6.684-6.685v-116.63a6.693 6.693 0 0 1 6.684-6.685h116.618a6.693 6.693 0 0 1 6.684 6.685v116.63a6.693 6.693 0 0 1 -6.684 6.685zm-116.618-128a4.69 4.69 0 0 0 -4.684 4.685v116.63a4.69 4.69 0 0 0 4.684 4.685h116.618a4.69 4.69 0 0 0 4.684-4.685v-116.63a4.69 4.69 0 0 0 -4.684-4.685z"/><path d="m126.642 131.3a4.5 4.5 0 1 1 4.5-4.509 4.514 4.514 0 0 1 -4.5 4.509zm0-7.006a2.5 2.5 0 1 0 2.5 2.5 2.505 2.505 0 0 0 -2.5-2.494z"/><path d="m23.37 131.3a4.5 4.5 0 1 1 4.5-4.509 4.514 4.514 0 0 1 -4.5 4.509zm0-7.006a2.5 2.5 0 1 0 2.5 2.5 2.505 2.505 0 0 0 -2.5-2.494z"/><path d="m126.642 27.7a4.5 4.5 0 1 1 4.5-4.509 4.513 4.513 0 0 1 -4.5 4.509zm0-7.006a2.5 2.5 0 1 0 2.5 2.5 2.505 2.505 0 0 0 -2.5-2.494z"/><path d="m23.37 27.7a4.5 4.5 0 1 1 4.5-4.509 4.514 4.514 0 0 1 -4.5 4.509zm0-7.006a2.5 2.5 0 1 0 2.5 2.5 2.505 2.505 0 0 0 -2.5-2.494z"/><path d="m75.817 127.8a52.8 52.8 0 1 1 52.8-52.8 52.859 52.859 0 0 1 -52.8 52.8zm0-103.6a50.8 50.8 0 1 0 50.8 50.8 50.856 50.856 0 0 0 -50.8-50.8z"/><path d="m75.817 120.93a45.93 45.93 0 1 1 45.931-45.93 45.981 45.981 0 0 1 -45.931 45.93zm0-89.86a43.93 43.93 0 1 0 43.931 43.93 43.98 43.98 0 0 0 -43.931-43.93z"/><path d="m75.817 86.253a11.253 11.253 0 1 1 11.254-11.253 11.266 11.266 0 0 1 -11.254 11.253zm0-20.506a9.253 9.253 0 1 0 9.254 9.253 9.264 9.264 0 0 0 -9.254-9.253z"/><path d="m84.811 71.076a1 1 0 0 1 -.8-1.6c6.985-9.432 9.773-17.224 8.064-22.532-1.095-3.4-4.072-5.9-8.847-7.433-6.218-1.993-10.2-1.43-11.216 1.589a2.982 2.982 0 0 0 .164 2.189c5.793 12.67 1.786 21.909 1.613 22.295a1 1 0 0 1 -1.826-.815c.038-.087 3.791-8.844-1.606-20.648a4.988 4.988 0 0 1 -.242-3.657c.822-2.447 3.7-6.07 13.724-2.858 5.423 1.739 8.835 4.674 10.14 8.725 1.943 6.033-.871 14.221-8.361 24.336a1 1 0 0 1 -.807.409z"/><path d="m47.861 97.82c-2.586 0-6.183-1.762-8.222-10.435-1.303-5.545-.539-9.985 2.261-13.185 4.17-4.774 12.637-6.578 25.166-5.367a1 1 0 0 1 -.194 1.99c-11.681-1.129-19.8.492-23.467 4.693-2.351 2.692-2.963 6.531-1.815 11.412 1.5 6.359 4.036 9.483 7.139 8.8a2.987 2.987 0 0 0 1.792-1.268c7.879-11.496 17.854-12.82 18.279-12.871a1 1 0 0 1 .242 1.985c-.095.012-9.533 1.306-16.871 12.011a4.982 4.982 0 0 1 -3.011 2.091 6.05 6.05 0 0 1 -1.299.144z"/><path d="m94.582 104.667a11.218 11.218 0 0 1 -1.979-.177c-6.24-1.116-12.149-7.444-17.562-18.807a1 1 0 1 1 1.805-.86c5.049 10.6 10.619 16.716 16.109 17.7 3.517.63 7.123-.824 10.717-4.321 4.681-4.556 6.052-8.339 3.863-10.65a2.987 2.987 0 0 0 -2.011-.883c-13.906-.834-20.182-8.708-20.442-9.042a1 1 0 1 1 1.577-1.227c.075.095 6.048 7.5 18.985 8.275a4.973 4.973 0 0 1 3.342 1.5c1.776 1.874 3.626 6.114-3.92 13.459-3.438 3.345-6.957 5.033-10.484 5.033z"/></svg>