<svg id="_x31__px" height="512" viewBox="0 0 24 24" width="512" xmlns="http://www.w3.org/2000/svg"><path d="m22.5 21h-21c-.827 0-1.5-.673-1.5-1.5v-14c0-.827.673-1.5 1.5-1.5h8c.276 0 .5.224.5.5s-.224.5-.5.5h-8c-.276 0-.5.224-.5.5v14c0 .276.224.5.5.5h21c.276 0 .5-.224.5-.5v-7c0-.276.224-.5.5-.5s.5.224.5.5v7c0 .827-.673 1.5-1.5 1.5z"/><path d="m15.5 24h-7c-.202 0-.385-.122-.462-.309-.078-.187-.035-.402.108-.545 1.316-1.316 1.333-2.59 1.333-2.644.001-.275.225-.502.501-.502h4.02c.275 0 .499.222.5.497.001.063.04 1.336 1.354 2.649.143.143.186.358.108.545-.077.187-.26.309-.462.309zm-5.929-1h4.857c-.56-.801-.782-1.537-.87-2h-3.13c-.085.465-.301 1.2-.857 2zm4.929-2.5h.01z"/><path d="m23.5 18h-23c-.276 0-.5-.224-.5-.5s.224-.5.5-.5h23c.276 0 .5.224.5.5s-.224.5-.5.5z"/><path d="m18 12c-3.309 0-6-2.691-6-6s2.691-6 6-6 6 2.691 6 6-2.691 6-6 6zm0-11c-2.757 0-5 2.243-5 5s2.243 5 5 5 5-2.243 5-5-2.243-5-5-5z"/><path d="m18 9c-1.378 0-2.5-1.122-2.5-2.5s1.122-2.5 2.5-2.5 2.5 1.122 2.5 2.5-1.122 2.5-2.5 2.5zm0-4c-.827 0-1.5.673-1.5 1.5s.673 1.5 1.5 1.5 1.5-.673 1.5-1.5-.673-1.5-1.5-1.5z"/><path d="m16 7c-.231 0-.439-.162-.489-.397l-1-4.75c-.057-.27.116-.536.386-.592.268-.055.536.116.592.386l1 4.75c.057.27-.116.536-.386.592-.035.008-.069.011-.103.011z"/><path d="m20 7c-.034 0-.069-.003-.104-.011-.27-.057-.443-.322-.386-.592l1-4.75c.057-.27.323-.441.592-.386.27.057.443.322.386.592l-1 4.75c-.048.235-.256.397-.488.397z"/></svg>