<svg id="Layer_1" enable-background="new 0 0 512 512" height="512" viewBox="0 0 512 512" width="512" xmlns="http://www.w3.org/2000/svg"><g><path d="m384.533 56.233c-8.284 0-15 6.716-15 15s6.716 15 15 15c22.736 0 41.233 18.497 41.233 41.233 0 8.284 6.716 15 15 15s15-6.716 15-15c.001-39.278-31.954-71.233-71.233-71.233z"/><path d="m384.533 0c-8.284 0-15 6.716-15 15s6.716 15 15 15c53.743 0 97.467 43.724 97.467 97.467 0 8.284 6.716 15 15 15s15-6.716 15-15c0-70.285-57.182-127.467-127.467-127.467z"/><circle cx="384.533" cy="127.467" r="15"/><path d="m320.267 64.267h-305.267c-8.284 0-15 6.716-15 15v417.733c0 8.284 6.716 15 15 15h305.267c8.284 0 15-6.716 15-15v-417.733c0-8.285-6.716-15-15-15zm-15 417.733h-275.267v-307.4h275.267zm0-337.4h-275.267v-50.333h275.267z"/><path d="m167.634 431.667c56.996 0 103.366-46.37 103.366-103.367 0-56.996-46.37-103.366-103.366-103.366-56.997 0-103.367 46.37-103.367 103.366 0 56.997 46.37 103.367 103.367 103.367zm60.885-144.29c8.107 12.033 12.481 26.222 12.481 40.923s-4.374 28.89-12.481 40.924c-13.498-9.014-21.785-24.157-21.785-40.924s8.287-31.909 21.785-40.923zm-60.885-32.443c14.41 0 27.852 4.193 39.202 11.399-15.584 12.365-30.102 32.706-30.102 61.968 0 29.215 14.513 49.579 30.11 61.964-11.351 7.209-24.796 11.403-39.209 11.403-40.455 0-73.367-32.912-73.367-73.367-.001-40.455 32.911-73.367 73.366-73.367z"/></g></svg>