<svg id="Layer_1" enable-background="new 0 0 512 512" height="512" viewBox="0 0 512 512" width="512" xmlns="http://www.w3.org/2000/svg"><g><path d="m384.533 56.233c-8.284 0-15 6.716-15 15s6.716 15 15 15c22.736 0 41.233 18.497 41.233 41.233 0 8.284 6.716 15 15 15s15-6.716 15-15c.001-39.278-31.954-71.233-71.233-71.233z"/><path d="m384.533 0c-8.284 0-15 6.716-15 15s6.716 15 15 15c53.743 0 97.467 43.724 97.467 97.467 0 8.284 6.716 15 15 15s15-6.716 15-15c0-70.285-57.182-127.467-127.467-127.467z"/><circle cx="384.533" cy="127.467" r="15"/><path d="m384.533 176.733h-49.267v-17.133c0-8.284-6.716-15-15-15h-273.132c-26.262 0-47.134 21.307-47.134 47.133v96.4c0 26.278 21.325 47.133 47.134 47.133h113.533v98.534h-68.202c-6.728-27.691-31.653-48.2-61.398-48.2h-16.067c-8.284 0-15 6.716-15 15v96.4c0 8.284 6.716 15 15 15h16.066c29.776 0 54.672-20.533 61.397-48.2h83.203c8.284 0 15-6.716 15-15v-113.533h129.6c8.284 0 15-6.716 15-15v-17.133h49.267c8.284 0 15-6.716 15-15v-96.4c0-8.285-6.716-15.001-15-15.001zm-353.467 305.267h-1.066v-66.4h1.066c18.359 0 33.2 14.852 33.2 33.2.001 18.36-14.85 33.2-33.2 33.2zm274.201-176.733h-258.133c-9.329 0-17.134-7.54-17.134-17.133v-96.4c0-9.512 7.716-17.134 17.134-17.134h258.133zm64.266-32.133h-34.267v-66.4h34.267z"/><path d="m79.267 238.866h48.2c8.284 0 15-6.716 15-15s-6.716-15-15-15h-48.2c-8.284 0-15 6.716-15 15s6.715 15 15 15z"/></g></svg>