<svg id="Layer_1" height="512" viewBox="0 0 150 150" width="512" xmlns="http://www.w3.org/2000/svg" data-name="Layer 1"><path d="m75 116.067c-8.253 0-18.274-7.584-25.227-13.945a24.854 24.854 0 0 1 -8.041-18.3v-24.252a6.924 6.924 0 0 1 6.916-6.917h52.7a6.924 6.924 0 0 1 6.916 6.917v24.25a24.854 24.854 0 0 1 -8.041 18.3c-6.95 6.364-16.972 13.947-25.223 13.947zm-26.352-61.414a4.922 4.922 0 0 0 -4.916 4.917v24.25a22.848 22.848 0 0 0 7.391 16.826c6.691 6.123 16.266 13.421 23.877 13.421s17.185-7.3 23.877-13.421a22.848 22.848 0 0 0 7.391-16.826v-24.25a4.922 4.922 0 0 0 -4.916-4.917z"/><path d="m79.066 125.343h-7.04c-.169 0-.325-.01-.491-.021a6.03 6.03 0 0 1 -5.492-5.961v-5.218a1 1 0 0 1 2 0v5.218a4.007 4.007 0 0 0 3.619 3.966c.127.008.241.016.364.016h7.04c.157 0 .309-.009.465-.017a3.981 3.981 0 0 0 3.516-3.965v-5.486a1 1 0 0 1 2 0v5.486a5.984 5.984 0 0 1 -5.325 5.955c-.274.017-.461.027-.656.027z"/><path d="m71.573 140a1 1 0 0 1 -1-1v-14.677a1 1 0 0 1 2 0v14.677a1 1 0 0 1 -1 1z"/><path d="m79.611 140a1 1 0 0 1 -1-1v-14.677a1 1 0 0 1 2 0v14.677a1 1 0 0 1 -1 1z"/><path d="m99.749 54.653h-49.5a1 1 0 0 1 -1-1v-42.653a1 1 0 0 1 1-1h49.5a1 1 0 0 1 1 1v42.653a1 1 0 0 1 -1 1zm-48.5-2h47.5v-40.653h-47.5z"/><path d="m69.089 41.218h-9.595a1 1 0 0 1 -1-1v-9.608a1 1 0 0 1 1-1h9.595a1 1 0 0 1 1 1v9.608a1 1 0 0 1 -1 1zm-8.595-2h7.595v-7.608h-7.595z"/><path d="m90.506 41.218h-9.595a1 1 0 0 1 -1-1v-9.608a1 1 0 0 1 1-1h9.595a1 1 0 0 1 1 1v9.608a1 1 0 0 1 -1 1zm-8.595-2h7.595v-7.608h-7.595z"/><path d="m90.521 71.183h-32.682a1 1 0 1 1 0-2h32.682a1 1 0 0 1 0 2z"/><path d="m90.521 87.842h-32.682a1 1 0 1 1 0-2h32.682a1 1 0 0 1 0 2z"/></svg>