<svg id="_x31__px" height="512" viewBox="0 0 24 24" width="512" xmlns="http://www.w3.org/2000/svg"><path d="m21.5 24h-19c-1.379 0-2.5-1.122-2.5-2.5v-19c0-1.378 1.121-2.5 2.5-2.5h19c1.379 0 2.5 1.122 2.5 2.5v19c0 1.378-1.121 2.5-2.5 2.5zm-19-23c-.827 0-1.5.673-1.5 1.5v19c0 .827.673 1.5 1.5 1.5h19c.827 0 1.5-.673 1.5-1.5v-19c0-.827-.673-1.5-1.5-1.5z"/><path d="m18.5 20h-13c-1.379 0-2.5-1.122-2.5-2.5v-6c0-.827.673-1.5 1.5-1.5h1c.275 0 .5-.224.5-.5v-1c0-.827.673-1.5 1.5-1.5h1c.275 0 .5-.224.5-.5v-1c0-.827.673-1.5 1.5-1.5h3c.827 0 1.5.673 1.5 1.5v1c0 .276.225.5.5.5h1c.827 0 1.5.673 1.5 1.5v1c0 .276.225.5.5.5h1c.827 0 1.5.673 1.5 1.5v6c0 1.378-1.121 2.5-2.5 2.5zm-14-9c-.275 0-.5.224-.5.5v6c0 .827.673 1.5 1.5 1.5h13c.827 0 1.5-.673 1.5-1.5v-6c0-.276-.225-.5-.5-.5h-1c-.827 0-1.5-.673-1.5-1.5v-1c0-.276-.225-.5-.5-.5h-1c-.827 0-1.5-.673-1.5-1.5v-1c0-.276-.225-.5-.5-.5h-3c-.275 0-.5.224-.5.5v1c0 .827-.673 1.5-1.5 1.5h-1c-.275 0-.5.224-.5.5v1c0 .827-.673 1.5-1.5 1.5z"/><path d="m9 20c-.276 0-.5-.224-.5-.5v-4c0-.276.224-.5.5-.5s.5.224.5.5v4c0 .276-.224.5-.5.5z"/><path d="m15 20c-.276 0-.5-.224-.5-.5v-4c0-.276.224-.5.5-.5s.5.224.5.5v4c0 .276-.224.5-.5.5z"/></svg>