<svg id="Layer_1" height="512" viewBox="0 0 150 150" width="512" xmlns="http://www.w3.org/2000/svg" data-name="Layer 1"><path d="m133.07 117.82h-23.53a1 1 0 0 1 0-2h23.53a4.862 4.862 0 0 0 4.93-4.78v-56.14a4.862 4.862 0 0 0 -4.93-4.78h-116.14a4.862 4.862 0 0 0 -4.93 4.78v56.14a4.862 4.862 0 0 0 4.93 4.78h23.219a1 1 0 0 1 0 2h-23.219a6.863 6.863 0 0 1 -6.93-6.78v-56.14a6.864 6.864 0 0 1 6.93-6.78h116.14a6.864 6.864 0 0 1 6.93 6.78v56.14a6.863 6.863 0 0 1 -6.93 6.78z"/><path d="m105.328 140h-60.961a5.17 5.17 0 0 1 -5.215-5.112v-41.453a1 1 0 0 1 1-1h69.391a1 1 0 0 1 1 1v41.453a5.17 5.17 0 0 1 -5.215 5.112zm-64.176-45.565v40.453a3.169 3.169 0 0 0 3.215 3.112h60.961a3.168 3.168 0 0 0 3.215-3.112v-40.453z"/><path d="m108.578 73.485h-67.415a4.889 4.889 0 0 1 -4.931-4.835v-19.533a1 1 0 1 1 2 0v19.533a2.888 2.888 0 0 0 2.931 2.835h67.415a2.888 2.888 0 0 0 2.931-2.835v-19.533a1 1 0 0 1 2 0v19.533a4.889 4.889 0 0 1 -4.931 4.835z"/><path d="m109.543 50.117a1 1 0 0 1 -1-1v-34.143a3.027 3.027 0 0 0 -3.072-2.974h-61.245a3.029 3.029 0 0 0 -3.074 2.974v34.143a1 1 0 1 1 -2 0v-34.143a5.03 5.03 0 0 1 5.074-4.974h61.245a5.029 5.029 0 0 1 5.072 4.974v34.143a1 1 0 0 1 -1 1z"/><path d="m118.47 50.12a1 1 0 0 1 -1-1v-14.65a2.2 2.2 0 0 0 -2.241-2.16h-5.689a1 1 0 1 1 0-2h5.689a4.206 4.206 0 0 1 4.241 4.16v14.65a1 1 0 0 1 -1 1z"/><path d="m31.59 50.12a1 1 0 0 1 -1-1v-14.65a4.205 4.205 0 0 1 4.24-4.16h5.319a1 1 0 0 1 0 2h-5.319a2.2 2.2 0 0 0 -2.24 2.16v14.65a1 1 0 0 1 -1 1z"/><path d="m126.575 65.695a4.9 4.9 0 1 1 5-4.9 4.949 4.949 0 0 1 -5 4.9zm0-7.789a2.9 2.9 0 1 0 3 2.887 2.941 2.941 0 0 0 -3-2.887z"/><path d="m97.75 106.5h-45.622a1 1 0 0 1 0-2h45.622a1 1 0 0 1 0 2z"/><path d="m97.75 117.818h-45.622a1 1 0 0 1 0-2h45.622a1 1 0 0 1 0 2z"/><path d="m97.75 129.139h-45.622a1 1 0 0 1 0-2h45.622a1 1 0 1 1 0 2z"/></svg>