<svg id="Layer_1" enable-background="new 0 0 512 512" height="512" viewBox="0 0 512 512" width="512" xmlns="http://www.w3.org/2000/svg"><g><path d="m459.406 197.193-192.8-192.8c-5.857-5.857-15.355-5.857-21.213 0l-192.8 192.8c-2.813 2.813-4.394 6.628-4.394 10.606v289.201c0 8.284 6.716 15 15 15h385.6c8.284 0 15-6.716 15-15v-289.2c.001-3.979-1.58-7.795-4.393-10.607zm-25.606 284.807h-355.6v-267.988l177.8-177.8 177.8 177.8z"/><path d="m208.866 175.666v27.579c-5.839 2.729-11.421 5.959-16.709 9.669l-23.894-13.808c-7.174-4.143-16.348-1.686-20.491 5.488l-32.138 55.654c-4.143 7.174-1.686 16.348 5.489 20.491l23.9 13.824c-.568 6.435-.574 12.885-.017 19.305l-23.883 13.792c-7.174 4.143-9.631 13.317-5.489 20.491l32.138 55.654c4.143 7.174 13.317 9.631 20.491 5.488l23.883-13.792c5.28 3.69 10.866 6.907 16.72 9.631v27.601c0 8.284 6.716 15 15 15h64.267c8.284 0 15-6.716 15-15v-27.579c5.839-2.729 11.421-5.959 16.709-9.669l23.894 13.808c7.174 4.143 16.348 1.686 20.491-5.488l32.138-55.654c4.143-7.174 1.686-16.348-5.489-20.491l-23.9-13.824c.568-6.435.574-12.884.017-19.305l23.883-13.792c7.174-4.143 9.631-13.317 5.489-20.491l-32.138-55.654c-4.143-7.174-13.317-9.631-20.491-5.488l-23.883 13.792c-5.28-3.69-10.866-6.907-16.72-9.631v-27.601c0-8.284-6.716-15-15-15h-64.267c-8.284 0-15 6.715-15 15zm30 37.628v-22.628h34.267v22.628c0 6.354 4.004 12.021 9.995 14.141 9.433 3.339 18.096 8.352 25.748 14.898 4.832 4.135 11.745 4.771 17.252 1.593l19.625-11.331 17.134 29.677-19.594 11.315c-5.497 3.174-8.4 9.464-7.251 15.706.901 4.895 1.358 9.909 1.358 14.906 0 4.996-.457 10.011-1.358 14.905-1.149 6.242 1.754 12.532 7.25 15.706l19.595 11.316-17.134 29.676-19.625-11.331c-5.507-3.181-12.421-2.542-17.253 1.594-7.651 6.547-16.313 11.56-25.747 14.898-5.991 2.12-9.995 7.786-9.995 14.141v22.628h-34.267v-22.628c0-6.354-4.004-12.021-9.995-14.141-9.434-3.339-18.096-8.352-25.747-14.898-4.833-4.135-11.746-4.773-17.253-1.594l-19.625 11.331-17.134-29.676 19.595-11.316c5.497-3.174 8.4-9.464 7.25-15.706-.901-4.895-1.358-9.909-1.358-14.905 0-4.997.457-10.012 1.358-14.906 1.149-6.242-1.754-12.532-7.251-15.706l-19.594-11.315 17.134-29.677 19.625 11.331c5.506 3.18 12.419 2.541 17.252-1.593 7.652-6.547 16.314-11.56 25.748-14.898 5.991-2.12 9.995-7.786 9.995-14.141z"/><path d="m256 351.333c25.989 0 47.133-21.144 47.133-47.133s-21.144-47.134-47.133-47.134-47.133 21.145-47.133 47.134 21.143 47.133 47.133 47.133zm0-64.267c9.447 0 17.133 7.687 17.133 17.134s-7.686 17.133-17.133 17.133-17.133-7.686-17.133-17.133 7.685-17.134 17.133-17.134z"/></g></svg>