<svg id="_x31__px" height="512" viewBox="0 0 24 24" width="512" xmlns="http://www.w3.org/2000/svg"><path d="m3.461 24.002c-.54 0-1.047-.119-1.506-.358-1.156-.604-1.844-1.897-1.937-3.642-.154-2.891.644-5.719 2.438-8.646 1.349-2.2 2.826-2.781 5.27-2.074 1.214.351 2.542.684 3.764.65 1.116-.02 2.318-.226 3.783-.65 2.442-.707 3.921-.126 5.27 2.074 1.794 2.927 2.592 5.755 2.438 8.646-.093 1.745-.781 3.038-1.937 3.642-1.189.621-2.704.43-4.266-.538-1.219-.755-2.378-1.552-3.351-2.233-1.136-.794-2.721-.794-3.856 0-.973.681-2.132 1.478-3.351 2.233-.958.595-1.9.896-2.759.896zm2.533-14.001c-1.119 0-1.887.576-2.686 1.878-1.685 2.749-2.435 5.388-2.292 8.07.073 1.377.571 2.374 1.401 2.808.862.452 2.027.274 3.276-.5 1.198-.742 2.343-1.53 3.304-2.203 1.474-1.03 3.529-1.03 5.003 0 .961.672 2.106 1.46 3.304 2.202 1.25.775 2.414.953 3.276.501.83-.434 1.328-1.431 1.401-2.808.143-2.682-.606-5.322-2.292-8.07-1.104-1.799-2.149-2.212-4.139-1.636-1.552.449-2.837.668-4.043.689-1.39.035-2.771-.316-4.061-.689-.548-.159-1.025-.242-1.452-.242z"/><path d="m7.5 17h-4c-.276 0-.5-.224-.5-.5s.224-.5.5-.5h4c.276 0 .5.224.5.5s-.224.5-.5.5z"/><path d="m5.5 19c-.276 0-.5-.224-.5-.5v-4c0-.276.224-.5.5-.5s.5.224.5.5v4c0 .276-.224.5-.5.5z"/><path d="m11.5 10.75c-.276 0-.5-.224-.5-.5v-1.75c0-1.93 1.57-3.5 3.5-3.5h6c1.378 0 2.5-1.122 2.5-2.5v-2c0-.276.224-.5.5-.5s.5.224.5.5v2c0 1.93-1.57 3.5-3.5 3.5h-6c-1.378 0-2.5 1.122-2.5 2.5v1.75c0 .276-.224.5-.5.5z"/><path d="m17.5 19c-1.378 0-2.5-1.122-2.5-2.5s1.122-2.5 2.5-2.5 2.5 1.122 2.5 2.5-1.122 2.5-2.5 2.5zm0-4c-.827 0-1.5.673-1.5 1.5s.673 1.5 1.5 1.5 1.5-.673 1.5-1.5-.673-1.5-1.5-1.5z"/></svg>