<svg id="Layer_1" height="512" viewBox="0 0 150 150" width="512" xmlns="http://www.w3.org/2000/svg" data-name="Layer 1"><path d="m110.18 116.845a8.495 8.495 0 0 1 -2.924-.521l-6.038-2.21a5.316 5.316 0 0 1 -3.164-6.819l12.546-34.276a5.315 5.315 0 0 1 6.819-3.165l6.038 2.21a8.542 8.542 0 0 1 5.079 10.944l-10.336 28.238a8.546 8.546 0 0 1 -8.02 5.599zm5.41-45.317a3.323 3.323 0 0 0 -3.112 2.178l-12.546 34.276a3.316 3.316 0 0 0 1.974 4.254l6.038 2.21a6.536 6.536 0 0 0 8.378-3.888l10.336-28.238a6.54 6.54 0 0 0 -3.888-8.378l-6.039-2.21a3.314 3.314 0 0 0 -1.141-.204z"/><path d="m110.187 111.846a3.523 3.523 0 0 1 -1.212-.217l-5.4-1.975a1 1 0 0 1 .688-1.878l5.4 1.975a1.525 1.525 0 0 0 1.964-.911l1.36-3.715a1 1 0 1 1 1.878.687l-1.36 3.715a3.55 3.55 0 0 1 -3.318 2.319z"/><path d="m124.848 116.717a8.529 8.529 0 0 1 -2.935-.522l-6.166-2.257a1 1 0 1 1 .687-1.878l6.166 2.257a6.567 6.567 0 0 0 8.421-3.908l6.58-17.973a6.574 6.574 0 0 0 -3.909-8.422l-6.024-2.2a1 1 0 0 1 .687-1.878l6.024 2.2a8.575 8.575 0 0 1 5.1 10.988l-6.579 17.976a8.578 8.578 0 0 1 -8.052 5.617z"/><path d="m39.824 116.845a8.546 8.546 0 0 1 -8.02-5.6l-10.336-28.237a8.541 8.541 0 0 1 5.078-10.944l6.038-2.21a5.317 5.317 0 0 1 6.82 3.165l12.546 34.281a5.322 5.322 0 0 1 -3.164 6.819l-6.038 2.21a8.5 8.5 0 0 1 -2.924.516zm-16.478-34.525 10.336 28.238a6.539 6.539 0 0 0 8.378 3.888l6.038-2.21a3.316 3.316 0 0 0 1.974-4.254l-12.546-34.276a3.316 3.316 0 0 0 -4.254-1.974l-6.038 2.21a6.538 6.538 0 0 0 -3.888 8.378z"/><path d="m25.144 116.721a8.586 8.586 0 0 1 -8.044-5.621l-6.575-17.976a8.568 8.568 0 0 1 5.1-10.988l6.024-2.2a1 1 0 1 1 .687 1.878l-6.024 2.2a6.568 6.568 0 0 0 -3.912 8.422l6.579 17.973a6.568 6.568 0 0 0 8.421 3.908l6.167-2.257a1 1 0 1 1 .687 1.878l-6.163 2.262a8.572 8.572 0 0 1 -2.947.521z"/><path d="m64.479 129.986h-5.011a13.717 13.717 0 0 1 -12.085-7.21l-4.083-7.566a1 1 0 1 1 1.76-.95l4.084 7.566a11.72 11.72 0 0 0 10.325 6.16h5.011a1 1 0 0 1 0 2z"/><path d="m77.505 135.991c-.095 0-.19 0-.286-.01l-9.538-.616a4.5 4.5 0 0 1 -4.2-4.483v-4.682a4.5 4.5 0 0 1 4.2-4.483l9.538-.617a4.492 4.492 0 0 1 4.781 4.486v5.914a4.493 4.493 0 0 1 -4.5 4.492zm.01-12.9c-.056 0-.111 0-.167.005l-9.538.617a2.5 2.5 0 0 0 -2.331 2.487v4.679a2.5 2.5 0 0 0 2.332 2.487l9.537.616a2.493 2.493 0 0 0 2.652-2.482v-5.913a2.493 2.493 0 0 0 -2.486-2.492z"/><path d="m24.642 75.317a1 1 0 0 1 -.987-.84 51.6 51.6 0 0 1 -.648-8.193 51.965 51.965 0 1 1 103.929 0 52.59 52.59 0 0 1 -.633 8.143 1 1 0 1 1 -1.975-.31 50.7 50.7 0 0 0 .608-7.833 49.965 49.965 0 1 0 -99.929 0 49.479 49.479 0 0 0 .623 7.874 1 1 0 0 1 -.828 1.147 1.1 1.1 0 0 1 -.16.012z"/><path d="m32.978 71.788a1 1 0 0 1 -1-.974c-.378-14.034 3.722-25.962 11.851-34.497 7.746-8.129 18.56-12.568 31.274-12.839h.223c.308-.011.648-.011.988-.011a1 1 0 1 1 -.03 2c-.308 0-.617 0-.925.011h-.235c-12.148.258-22.477 4.484-29.847 12.219-7.757 8.14-11.663 19.574-11.3 33.064a1 1 0 0 1 -.972 1.026z"/><path d="m117.462 71.936h-.03a1 1 0 0 1 -.97-1.029c.395-13.537-3.5-25.011-11.27-33.182-7.372-7.754-17.707-11.989-29.887-12.247h-.181c-.35-.011-.646-.011-.987-.011a1 1 0 0 1 0-2c.34 0 .68 0 1.02.012h.169c12.746.271 23.568 4.72 31.316 12.869 8.144 8.566 12.231 20.536 11.819 34.618a1 1 0 0 1 -.999.97z"/></svg>