<svg id="_x31__px" height="512" viewBox="0 0 24 24" width="512" xmlns="http://www.w3.org/2000/svg"><path d="m18.5 24h-13c-1.379 0-2.5-1.122-2.5-2.5v-19c0-1.378 1.121-2.5 2.5-2.5h13c1.379 0 2.5 1.122 2.5 2.5v19c0 1.378-1.121 2.5-2.5 2.5zm-13-23c-.827 0-1.5.673-1.5 1.5v19c0 .827.673 1.5 1.5 1.5h13c.827 0 1.5-.673 1.5-1.5v-19c0-.827-.673-1.5-1.5-1.5z"/><path d="m14.17 14.56c-.193 0-.377-.112-.459-.301-.109-.253.007-.547.26-.657 1.84-.799 3.029-2.605 3.029-4.602 0-2.757-2.243-5-5-5s-5 2.243-5 5c0 1.113.378 2.207 1.063 3.082.17.217.132.532-.085.702-.218.17-.531.132-.702-.085-.823-1.05-1.276-2.364-1.276-3.699 0-3.309 2.691-6 6-6s6 2.691 6 6c0 2.396-1.426 4.562-3.631 5.519-.065.028-.133.041-.199.041z"/><path d="m8 21c-1.103 0-2-.897-2-2 0-.47.166-.927.468-1.286l4.649-5.536c.153-.182.412-.229.62-.119.208.113.31.356.242.583l-2.063 6.929c-.248.841-1.037 1.429-1.916 1.429zm2.333-6.333-3.1 3.691c-.15.179-.233.407-.233.642 0 .551.448 1 1 1 .439 0 .834-.293.958-.713zm-3.482 3.369h.01z"/><path d="m16.5 21c-.827 0-1.5-.673-1.5-1.5s.673-1.5 1.5-1.5 1.5.673 1.5 1.5-.673 1.5-1.5 1.5zm0-2c-.275 0-.5.224-.5.5s.225.5.5.5.5-.224.5-.5-.225-.5-.5-.5z"/></svg>