<svg id="Layer_1" enable-background="new 0 0 512 512" height="512" viewBox="0 0 512 512" width="512" xmlns="http://www.w3.org/2000/svg"><g><path d="m384.533 56.233c-8.284 0-15 6.716-15 15s6.716 15 15 15c22.736 0 41.233 18.497 41.233 41.233 0 8.284 6.716 15 15 15s15-6.716 15-15c.001-39.278-31.954-71.233-71.233-71.233z"/><path d="m384.533 0c-8.284 0-15 6.716-15 15s6.716 15 15 15c53.743 0 97.467 43.724 97.467 97.467 0 8.284 6.716 15 15 15s15-6.716 15-15c0-70.285-57.181-127.467-127.467-127.467z"/><circle cx="384.533" cy="127.467" r="15"/><path d="m432.733 176.733h-417.733c-8.284 0-15 6.716-15 15v241c0 8.284 6.716 15 15 15h145.667v34.267h-81.4c-8.284 0-15 6.716-15 15s6.716 15 15 15h289.2c8.284 0 15-6.716 15-15s-6.716-15-15-15h-81.4v-34.267h145.667c8.284 0 15-6.716 15-15v-241c-.001-8.284-6.716-15-15.001-15zm-175.666 305.267h-66.4v-34.267h66.4zm160.666-64.267h-387.733v-211h387.733z"/></g></svg>