<svg id="_x31__px" height="512" viewBox="0 0 24 24" width="512" xmlns="http://www.w3.org/2000/svg"><path d="m17.5 4h-3c-.276 0-.5-.224-.5-.5s.224-.5.5-.5h3c.276 0 .5.224.5.5s-.224.5-.5.5z"/><path d="m22.5 6h-2c-.276 0-.5-.224-.5-.5v-5c0-.276.224-.5.5-.5h2c.827 0 1.5.673 1.5 1.5v3c0 .827-.673 1.5-1.5 1.5zm-1.5-1h1.5c.276 0 .5-.225.5-.5v-3c0-.275-.224-.5-.5-.5h-1.5z"/><path d="m17.5 6c-.276 0-.5-.224-.5-.5v-5c0-.276.224-.5.5-.5s.5.224.5.5v5c0 .276-.224.5-.5.5z"/><path d="m14.5 6c-.276 0-.5-.224-.5-.5v-5c0-.276.224-.5.5-.5s.5.224.5.5v5c0 .276-.224.5-.5.5z"/><path d="m22.496 19.997c-.116 0-.234-.013-.351-.041-6.733-1.623-13.558-1.623-20.288 0-.453.105-.921.004-1.282-.282-.365-.29-.575-.729-.575-1.204v-12.94c0-.476.21-.914.575-1.204.361-.285.825-.392 1.279-.282 3.203.778 6.448 1.187 9.65 1.216.277.003.498.228.496.505-.002.274-.226.495-.5.495-.001 0-.003 0-.004 0-3.279-.03-6.601-.448-9.874-1.243-.151-.038-.305-.002-.426.093-.124.099-.196.252-.196.42v12.94c0 .168.072.321.196.42.122.097.274.132.43.094 6.882-1.66 13.865-1.66 20.751 0 .153.038.305.003.427-.094.124-.099.196-.252.196-.42v-9.97c0-.276.224-.5.5-.5s.5.224.5.5v9.97c0 .476-.21.914-.575 1.204-.268.212-.594.323-.929.323z"/><path d="m9.5 22c-.276 0-.5-.224-.5-.5v-3c0-.276.224-.5.5-.5s.5.224.5.5v3c0 .276-.224.5-.5.5z"/><path d="m14.5 22c-.276 0-.5-.224-.5-.5v-3c0-.276.224-.5.5-.5s.5.224.5.5v3c0 .276-.224.5-.5.5z"/><path d="m19.5 24c-.08 0-.16-.019-.235-.059-4.82-2.572-9.709-2.572-14.529 0-.245.131-.546.038-.676-.206s-.038-.547.206-.677c5.133-2.738 10.338-2.738 15.471 0 .244.13.336.433.206.677-.092.169-.265.265-.443.265z"/></svg>