<svg id="Layer_1" height="512" viewBox="0 0 150 150" width="512" xmlns="http://www.w3.org/2000/svg" data-name="Layer 1"><path d="m47.541 134.4a31.967 31.967 0 0 1 -9.577-1.472 1 1 0 1 1 .6-1.908 29.762 29.762 0 0 0 30.036-7.366l47.6-47.6a3.329 3.329 0 0 0 0-4.7l-37.5-37.5a3.4 3.4 0 0 0 -4.7 0l-47.6 47.596a29.75 29.75 0 0 0 -7.362 30.05 1 1 0 0 1 -1.908.6 31.743 31.743 0 0 1 7.853-32.061l47.6-47.6a5.326 5.326 0 0 1 7.53 0l37.5 37.5a5.331 5.331 0 0 1 0 7.53l-47.6 47.6a31.738 31.738 0 0 1 -22.472 9.331z"/><path d="m25.736 139.959a15.523 15.523 0 1 1 10.582-4.05 15.573 15.573 0 0 1 -10.582 4.05zm-.036-29.278a13.68 13.68 0 0 0 -10.026 23 13.881 13.881 0 0 0 19.288.759 13.68 13.68 0 0 0 -9.262-23.759z"/><path d="m113.394 68.122a1 1 0 0 1 -.707-.293l-30.464-30.464a1 1 0 0 1 0-1.414l25.618-25.618a1 1 0 0 1 1.414 0l30.464 30.467a1 1 0 0 1 0 1.414l-25.619 25.615a1 1 0 0 1 -.706.293zm-29.05-31.464 29.05 29.05 24.2-24.2-29.05-29.049z"/><path d="m113.355 51.312a1 1 0 0 1 -.707-1.707l6.924-6.923a1 1 0 0 1 1.414 1.414l-6.924 6.924a1 1 0 0 1 -.707.292z"/><path d="m99.739 37.7a1 1 0 0 1 -.707-1.707l6.924-6.924a1 1 0 1 1 1.414 1.414l-6.924 6.917a.993.993 0 0 1 -.707.3z"/><path d="m86.4 76.463a1 1 0 0 1 -.707-.293l-11.2-11.2a1 1 0 0 1 .391-1.656l16.787-5.589a1 1 0 0 1 1.265 1.265l-5.59 16.787a1 1 0 0 1 -.949.684zm-9.349-11.763 8.909 8.908 4.447-13.355z"/><path d="m51.64 100.023a1 1 0 0 1 -.707-1.707l29.158-29.159a1 1 0 0 1 1.414 1.414l-29.158 29.159a1 1 0 0 1 -.707.293z"/><path d="m47.024 111.163a7.524 7.524 0 1 1 5.323-2.2 7.5 7.5 0 0 1 -5.323 2.2zm0-13.049a5.525 5.525 0 1 0 3.909 1.616 5.513 5.513 0 0 0 -3.909-1.616z"/><path d="m72.891 98.043a1 1 0 0 1 -.5-.132l-12.248-7.021a1 1 0 1 1 .994-1.735l11.588 6.645 6.46-6.46a1 1 0 0 1 1.415 1.41l-7 7a1 1 0 0 1 -.709.293z"/><path d="m56.333 95.331a1 1 0 0 1 -.858-.485l-6.75-11.211a1 1 0 0 1 .15-1.223l7-7a1 1 0 1 1 1.414 1.414l-6.447 6.447 6.346 10.542a1 1 0 0 1 -.856 1.516z"/><path d="m60.468 78.727a6.493 6.493 0 1 1 4.588-1.9 6.47 6.47 0 0 1 -4.588 1.9zm0-10.983a4.492 4.492 0 1 0 3.174 7.671 4.49 4.49 0 0 0 -3.174-7.671z"/><path d="m82.511 93.661a1 1 0 0 1 -.707-.293l-5.234-5.234a1 1 0 0 1 0-1.414l5.23-5.234a1 1 0 0 1 1.414 0l5.234 5.234a1 1 0 0 1 0 1.414l-5.234 5.234a1 1 0 0 1 -.703.293zm-3.82-6.234 3.82 3.82 3.82-3.82-3.82-3.82z"/></svg>