<svg id="Layer_1" enable-background="new 0 0 512 512" height="512" viewBox="0 0 512 512" width="512" xmlns="http://www.w3.org/2000/svg"><g><path d="m384.533 56.233c-8.284 0-15 6.716-15 15s6.716 15 15 15c22.736 0 41.233 18.497 41.233 41.233 0 8.284 6.716 15 15 15s15-6.716 15-15c.001-39.278-31.954-71.233-71.233-71.233z"/><path d="m384.533 0c-8.284 0-15 6.716-15 15s6.716 15 15 15c53.743 0 97.467 43.724 97.467 97.467 0 8.284 6.716 15 15 15s15-6.716 15-15c0-70.285-57.182-127.467-127.467-127.467z"/><circle cx="384.533" cy="127.467" r="15"/><path d="m320.267 80.338h-305.267c-8.284 0-15 6.716-15 15v305.267c0 8.284 6.716 15 15 15h33.2v81.4c0 6.067 3.655 11.536 9.26 13.858 5.201 2.154 11.753 1.343 16.347-3.252l92.007-92.007h154.453c8.284 0 15-6.716 15-15v-305.266c0-8.285-6.716-15-15-15zm-15 305.266h-145.667c-3.978 0-7.793 1.58-10.606 4.394l-70.794 70.794v-60.188c0-8.284-6.716-15-15-15h-33.2v-275.266h275.267z"/><path d="m95.333 190.672h112.467c8.284 0 15-6.716 15-15s-6.716-15-15-15h-112.467c-8.284 0-15 6.716-15 15s6.716 15 15 15z"/><path d="m95.333 262.971h160.667c8.284 0 15-6.716 15-15s-6.716-15-15-15h-160.667c-8.284 0-15 6.716-15 15 0 8.285 6.716 15 15 15z"/><path d="m95.333 335.271h80.333c8.284 0 15-6.716 15-15s-6.716-15-15-15h-80.333c-8.284 0-15 6.716-15 15s6.716 15 15 15z"/></g></svg>