<svg id="_x31__px" height="512" viewBox="0 0 24 24" width="512" xmlns="http://www.w3.org/2000/svg"><path d="m19.5 13c-.076 0-.153-.018-.224-.053-.169-.085-.276-.258-.276-.447v-4.484l-2.175 1.864c-.208.18-.523.156-.705-.054-.18-.209-.155-.525.055-.705l2.825-2.422v-.398l-2.825-2.422c-.21-.18-.234-.495-.055-.705.182-.21.497-.233.705-.054l2.175 1.864v-4.484c0-.189.107-.362.276-.447.168-.084.373-.067.524.047l4 3c.121.091.195.232.2.384.005.151-.06.297-.175.396l-3.056 2.62 3.057 2.621c.114.098.179.244.174.395-.005.152-.079.293-.2.384l-4 3c-.088.066-.194.1-.3.1zm.5-5.841v4.341l2.701-2.026zm0-1.318 2.701-2.315-2.701-2.026z"/><path d="m22.496 19.998c-.116 0-.233-.013-.351-.041-6.731-1.625-13.557-1.624-20.288-.001-.457.107-.922.003-1.283-.282-.365-.29-.574-.729-.574-1.204v-12.94c0-.475.209-.914.574-1.204.361-.286.825-.39 1.28-.283 4.188 1.007 8.418 1.395 12.576 1.148.275-.007.512.194.528.47s-.194.512-.47.528c-4.255.25-8.586-.144-12.866-1.173-.153-.037-.306-.003-.426.094-.127.1-.196.249-.196.42v12.94c0 .17.069.32.196.42.12.096.272.13.43.093 6.883-1.661 13.864-1.662 20.751.001.153.035.305.001.427-.094.127-.1.196-.25.196-.42v-4.97c0-.276.224-.5.5-.5s.5.224.5.5v4.97c0 .475-.209.914-.574 1.204-.269.212-.595.324-.93.324z"/><path d="m9.5 22c-.276 0-.5-.224-.5-.5v-3c0-.276.224-.5.5-.5s.5.224.5.5v3c0 .276-.224.5-.5.5z"/><path d="m14.5 22c-.276 0-.5-.224-.5-.5v-3c0-.276.224-.5.5-.5s.5.224.5.5v3c0 .276-.224.5-.5.5z"/><path d="m19.5 24c-.08 0-.16-.019-.235-.059-4.82-2.571-9.709-2.571-14.529 0-.244.126-.547.037-.677-.206-.13-.244-.037-.546.206-.677 5.133-2.737 10.338-2.737 15.471 0 .243.13.336.433.206.677-.09.169-.263.265-.442.265z"/></svg>