<svg id="Layer_1" height="512" viewBox="0 0 150 150" width="512" xmlns="http://www.w3.org/2000/svg" data-name="Layer 1"><path d="m54.964 124.843a1 1 0 0 1 -.8-1.605l76.199-100.454a1 1 0 1 1 1.593 1.209l-76.194 100.454a1 1 0 0 1 -.798.396z"/><path d="m38.739 104.48a1 1 0 0 1 -.8-1.605l62.12-81.89a1 1 0 0 1 1.594 1.209l-62.12 81.89a1 1 0 0 1 -.794.396z"/><path d="m75 140a.992.992 0 0 1 -.5-.134c-31.995-18.458-45.7-49.182-51.559-71.706a158.666 158.666 0 0 1 -5.1-44.859 1 1 0 0 1 1.215-.911c24.8 5.51 55.138-12.074 55.441-12.252a1 1 0 0 1 1.013 0c.3.178 30.64 17.762 55.442 12.252a1 1 0 0 1 1.215.911 158.666 158.666 0 0 1 -5.1 44.859c-5.861 22.524-19.565 53.248-51.56 71.706a.989.989 0 0 1 -.507.134zm-55.217-115.416a159.84 159.84 0 0 0 5.109 43.132c5.739 22.016 19.089 52 50.108 70.128 31.039-18.144 44.389-48.151 50.124-70.187a159.779 159.779 0 0 0 5.094-43.073c-23.824 4.626-51.046-10.068-55.218-12.431-3.611 2.047-24.489 13.326-45.481 13.327a50.963 50.963 0 0 1 -9.736-.896z"/></svg>