<svg id="Layer_1" enable-background="new 0 0 512 512" height="512" viewBox="0 0 512 512" width="512" xmlns="http://www.w3.org/2000/svg"><g><path d="m497 176.733h-482c-8.284 0-15 6.716-15 15v273.133c0 8.284 6.716 15 15 15h17.134v17.134c0 8.284 6.716 15 15 15s15-6.716 15-15v-17.134h387.732v17.134c0 8.284 6.716 15 15 15s15-6.716 15-15v-17.134h17.134c8.284 0 15-6.716 15-15v-273.133c0-8.284-6.716-15-15-15zm-15 273.133h-452v-243.133h452z"/><path d="m384.533 86.233c22.736 0 41.233 18.497 41.233 41.233 0 8.284 6.716 15 15 15s15-6.716 15-15c0-39.278-31.955-71.233-71.233-71.233-8.284 0-15 6.716-15 15s6.716 15 15 15z"/><path d="m384.533 30c53.743 0 97.467 43.724 97.467 97.467 0 8.284 6.716 15 15 15s15-6.716 15-15c0-70.285-57.182-127.467-127.467-127.467-8.284 0-15 6.716-15 15s6.716 15 15 15z"/><circle cx="384.533" cy="127.467" r="15"/><circle cx="199.767" cy="296.167" r="15"/><circle cx="199.767" cy="360.433" r="15"/><path d="m87.3 407.566h56.233c8.284 0 15-6.716 15-15v-128.533c0-8.284-6.716-15-15-15h-56.233c-8.284 0-15 6.716-15 15v128.533c0 8.285 6.716 15 15 15zm15-128.533h26.233v34.267h-26.233zm0 64.267h26.233v34.267h-26.233z"/><path d="m256 407.566h56.233c8.284 0 15-6.716 15-15v-128.533c0-8.284-6.716-15-15-15h-56.233c-8.284 0-15 6.716-15 15v128.533c0 8.285 6.716 15 15 15zm15-128.533h26.233v98.533h-26.233z"/><path d="m368.467 407.566h56.233c8.284 0 15-6.716 15-15v-128.533c0-8.284-6.716-15-15-15h-56.233c-8.284 0-15 6.716-15 15v128.533c0 8.285 6.716 15 15 15zm15-128.533h26.233v98.533h-26.233z"/></g></svg>