<svg id="_x31__px" height="512" viewBox="0 0 24 24" width="512" xmlns="http://www.w3.org/2000/svg"><path d="m18 9c-.471 0-.854-.383-.854-.854s.383-.853.854-.853.854.383.854.854-.383.853-.854.853z"/><path d="m15.04 5.824c-.126 0-.251-.047-.349-.141-.197-.192-.202-.509-.01-.707.883-.911 2.065-1.422 3.33-1.44 1.223-.022 2.461.457 3.371 1.34.198.192.202.509.01.707s-.508.203-.707.011c-.718-.697-1.668-1.092-2.659-1.058-.997.015-1.931.418-2.628 1.137-.097.1-.227.151-.358.151z"/><path d="m12.5 3.358c-.126 0-.251-.047-.349-.141-.198-.192-.202-.509-.01-.707 1.539-1.585 3.605-2.476 5.817-2.51 2.19-.035 4.304.797 5.891 2.336.197.192.202.509.01.707-.191.198-.508.203-.707.011-1.368-1.327-3.164-2.054-5.068-2.054-.037 0-.074 0-.11 0-1.945.029-3.762.813-5.115 2.206-.098.102-.228.152-.359.152z"/><path d="m22.496 19.998c-.116 0-.233-.013-.351-.041-6.731-1.625-13.557-1.624-20.288-.001-.457.107-.922.003-1.283-.282-.365-.29-.574-.729-.574-1.204v-12.94c0-.475.209-.914.574-1.204.361-.286.825-.39 1.28-.283 3.385.814 6.825 1.227 10.226 1.227.276 0 .5.224.5.5s-.224.5-.5.5c-3.479 0-6.998-.422-10.457-1.254-.155-.037-.306-.003-.427.094-.127.1-.196.249-.196.42v12.94c0 .17.069.32.196.42.12.096.273.13.43.093 6.883-1.661 13.864-1.662 20.751.001.152.035.305.001.427-.094.127-.1.196-.25.196-.42v-10.97c0-.276.224-.5.5-.5s.5.224.5.5v10.97c0 .475-.209.914-.574 1.204-.269.212-.595.324-.93.324z"/><path d="m9.5 22c-.276 0-.5-.224-.5-.5v-3c0-.276.224-.5.5-.5s.5.224.5.5v3c0 .276-.224.5-.5.5z"/><path d="m14.5 22c-.276 0-.5-.224-.5-.5v-3c0-.276.224-.5.5-.5s.5.224.5.5v3c0 .276-.224.5-.5.5z"/><path d="m19.5 24c-.08 0-.16-.019-.235-.059-4.82-2.571-9.709-2.571-14.529 0-.244.126-.547.037-.677-.206-.13-.244-.037-.546.206-.677 5.133-2.737 10.338-2.737 15.471 0 .243.13.336.433.206.677-.09.169-.263.265-.442.265z"/></svg>