<svg id="Layer_1" height="512" viewBox="0 0 150 150" width="512" xmlns="http://www.w3.org/2000/svg" data-name="Layer 1"><path d="m68.9 140a58.05 58.05 0 0 1 -58.02-56.093c-.031-.647-.043-1.3-.043-1.964a58.1 58.1 0 0 1 84.381-51.782l-.906 1.783a56.1 56.1 0 0 0 -81.475 50c0 .631.011 1.251.042 1.883a55.8 55.8 0 0 0 56.021 54.173 56.362 56.362 0 0 0 48.121-27.283 55.787 55.787 0 0 0 7.905-26.874c.032-.649.042-1.269.042-1.9a56.152 56.152 0 0 0 -2.068-15.133l1.926-.539a58.154 58.154 0 0 1 2.139 15.672c0 .664-.011 1.317-.044 1.98a57.772 57.772 0 0 1 -8.188 27.822 58.369 58.369 0 0 1 -49.833 28.255z"/><path d="m68.9 140c-17.192 0-31.178-26.047-31.178-58.062s13.986-58.063 31.178-58.063 31.177 26.047 31.177 58.063-13.986 58.062-31.177 58.062zm0-114.125c-16.089 0-29.178 25.149-29.178 56.063s13.089 56.062 29.178 56.062 29.177-25.149 29.177-56.062-13.089-56.063-29.177-56.063z"/><path d="m11.837 82.878h114.125v2h-114.125z"/><path d="m19.937 51.645h81.409v2h-81.409z"/><path d="m19.937 110.229h97.938v2h-97.938z"/><path d="m67.9 24.875h2v114.125h-2z"/><path d="m116.405 80.41-.835-1.266c-.895-1.357-21.923-33.381-21.923-45.852 0-12.843 10.209-23.292 22.758-23.292s22.758 10.449 22.758 23.292c0 12.471-21.028 44.5-21.923 45.852zm0-68.41c-11.446 0-20.758 9.552-20.758 21.292 0 10.522 16.784 37.277 20.758 43.462 3.973-6.185 20.758-32.94 20.758-43.462 0-11.74-9.312-21.292-20.758-21.292z"/><path d="m116.405 42.666a11.966 11.966 0 1 1 11.966-11.966 11.979 11.979 0 0 1 -11.966 11.966zm0-21.931a9.966 9.966 0 1 0 9.966 9.966 9.978 9.978 0 0 0 -9.966-9.966z"/></svg>