<svg id="Layer_1" enable-background="new 0 0 512 512" height="512" viewBox="0 0 512 512" width="512" xmlns="http://www.w3.org/2000/svg"><g><path d="m384.533 56.233c-8.284 0-15 6.716-15 15s6.716 15 15 15c22.736 0 41.233 18.497 41.233 41.233 0 8.284 6.716 15 15 15s15-6.716 15-15c.001-39.277-31.954-71.233-71.233-71.233z"/><path d="m384.533 0c-8.284 0-15 6.716-15 15s6.716 15 15 15c53.744 0 97.467 43.724 97.467 97.467 0 8.284 6.716 15 15 15s15-6.716 15-15c0-70.285-57.181-127.467-127.467-127.467z"/><circle cx="384.533" cy="127.467" r="15"/><path d="m302.843 44.192c-1.402-7.012-7.559-12.059-14.709-12.059h-224.934c-7.15 0-13.307 5.047-14.709 12.059l-48.2 241c-.881 4.406.26 8.976 3.108 12.451 2.85 3.476 7.106 5.49 11.601 5.49h145.667v114.6h-17.134c-43.708 0-79.267 35.559-79.267 79.267 0 8.284 6.716 15 15 15h192.8c8.284 0 15-6.716 15-15 0-43.708-35.559-79.267-79.267-79.267h-17.133v-114.6h145.666c4.494 0 8.751-2.015 11.6-5.49 2.85-3.476 3.99-8.045 3.109-12.451zm-95.043 403.541c21.938 0 40.572 14.412 46.933 34.267h-158.132c6.36-19.854 24.995-34.267 46.933-34.267zm-174.503-174.599 42.2-211h200.34l42.199 211z"/></g></svg>