<svg id="Layer_1" height="512" viewBox="0 0 150 150" width="512" xmlns="http://www.w3.org/2000/svg" data-name="Layer 1"><path d="m105.158 140h-60.316a15.915 15.915 0 0 1 -15.9-15.9v-98.2a15.915 15.915 0 0 1 15.9-15.9h60.316a15.915 15.915 0 0 1 15.9 15.9v98.2a15.915 15.915 0 0 1 -15.9 15.9zm-60.316-128a13.913 13.913 0 0 0 -13.9 13.9v98.2a13.913 13.913 0 0 0 13.9 13.9h60.316a13.913 13.913 0 0 0 13.9-13.9v-98.2a13.913 13.913 0 0 0 -13.9-13.9z"/><path d="m111.621 123.413h-73.737a1 1 0 0 1 -1-1v-98.213a1 1 0 0 1 1-1h73.737a1 1 0 0 1 1 1v98.216a1 1 0 0 1 -1 .997zm-72.737-2h71.737v-96.213h-71.737z"/><path d="m74.752 136.691a5.775 5.775 0 1 1 5.785-5.764 5.781 5.781 0 0 1 -5.785 5.764zm0-9.549a3.775 3.775 0 1 0 3.785 3.785 3.789 3.789 0 0 0 -3.785-3.785z"/><path d="m101.25 113.57h-10a1 1 0 0 1 -1-1v-44a1 1 0 0 1 1-1h10a1 1 0 0 1 1 1v44a1 1 0 0 1 -1 1zm-9-2h8v-42h-8z"/><path d="m80 113.57h-10a1 1 0 0 1 -1-1v-31a1 1 0 0 1 1-1h10a1 1 0 0 1 1 1v31a1 1 0 0 1 -1 1zm-9-2h8v-29h-8z"/><path d="m58.749 113.57h-10a1 1 0 0 1 -1-1v-60a1 1 0 0 1 1-1h10a1 1 0 0 1 1 1v60a1 1 0 0 1 -1 1zm-9-2h8v-58h-8z"/><path d="m80.563 18.805h-11.125a1 1 0 0 1 0-2h11.125a1 1 0 0 1 0 2z"/></svg>