<svg id="Layer_1" enable-background="new 0 0 512 512" height="512" viewBox="0 0 512 512" width="512" xmlns="http://www.w3.org/2000/svg"><g><path d="m207.8 142.467h96.4c8.284 0 15-6.716 15-15v-64.267c0-3.979-1.581-7.794-4.394-10.606l-48.2-48.2c-5.857-5.857-15.355-5.857-21.213 0l-48.2 48.2c-2.813 2.813-4.394 6.628-4.394 10.606v64.267c.001 8.284 6.717 15 15.001 15zm15-73.054 33.2-33.2 33.2 33.2v43.054h-66.4z"/><path d="m497 417.733h-81.4v-113.533c0-8.284-6.716-15-15-15h-58.054l-71.546-71.547v-25.92c0-8.284-6.716-15-15-15s-15 6.716-15 15v25.92l-71.546 71.547h-58.054c-8.284 0-15 6.716-15 15v113.533h-81.4c-8.284 0-15 6.716-15 15v64.267c0 8.284 6.716 15 15 15h192.8c8.284 0 15-6.716 15-15v-64.267c0-8.284-6.716-15-15-15h-81.4v-98.533h43.054l75.94 75.939c2.929 2.929 6.768 4.394 10.606 4.394s7.678-1.465 10.606-4.394l75.94-75.939h43.054v98.533h-81.4c-8.284 0-15 6.716-15 15v64.267c0 8.284 6.716 15 15 15h192.8c8.284 0 15-6.716 15-15v-64.267c0-8.284-6.716-15-15-15zm-304.2 30v34.267h-162.8v-34.267zm63.2-84.413-59.12-59.12 59.12-59.121 59.12 59.121zm226 118.68h-162.8v-34.267h162.8z"/></g></svg>