<svg id="_x31__px" height="512" viewBox="0 0 24 24" width="512" xmlns="http://www.w3.org/2000/svg"><path d="m21.032 23.676-.77-2.054c-.364-.971-1.304-1.622-2.341-1.622h-11.842c-1.037 0-1.977.651-2.341 1.622l-.77 2.054-.937-.352.77-2.054c.51-1.358 1.827-2.27 3.278-2.27h11.842c1.451 0 2.768.912 3.277 2.271l.77 2.054z"/><path d="m23.5 24h-23c-.276 0-.5-.224-.5-.5s.224-.5.5-.5h23c.276 0 .5.224.5.5s-.224.5-.5.5z"/><path d="m13 14.5h1v5h-1z"/><path d="m10 14.5h1v5h-1z"/><path d="m13.5 15h-3c-1.378 0-2.5-1.121-2.5-2.5v-10c0-1.379 1.122-2.5 2.5-2.5h6c1.378 0 2.5 1.121 2.5 2.5v.764c0 .953-.529 1.81-1.382 2.236l-.789.395c-.511.255-.829.769-.829 1.341v5.264c0 1.379-1.122 2.5-2.5 2.5zm-3-14c-.827 0-1.5.673-1.5 1.5v10c0 .827.673 1.5 1.5 1.5h3c.827 0 1.5-.673 1.5-1.5v-5.264c0-.953.529-1.81 1.382-2.236l.789-.395c.511-.255.829-.769.829-1.341v-.764c0-.827-.673-1.5-1.5-1.5z"/><path d="m10.5 6h-2c-.276 0-.5-.224-.5-.5s.224-.5.5-.5h2c.276 0 .5.224.5.5s-.224.5-.5.5z"/><path d="m10.5 10h-2c-.276 0-.5-.224-.5-.5s.224-.5.5-.5h2c.276 0 .5.224.5.5s-.224.5-.5.5z"/></svg>