<svg id="Layer_1" enable-background="new 0 0 512 512" height="512" viewBox="0 0 512 512" width="512" xmlns="http://www.w3.org/2000/svg"><g><path d="m384.533 56.233c-8.284 0-15 6.716-15 15s6.716 15 15 15c22.736 0 41.233 18.497 41.233 41.233 0 8.284 6.716 15 15 15s15-6.716 15-15c.001-39.278-31.954-71.233-71.233-71.233z"/><path d="m384.533 0c-8.284 0-15 6.716-15 15s6.716 15 15 15c53.743 0 97.467 43.724 97.467 97.467 0 8.284 6.716 15 15 15s15-6.716 15-15c0-70.285-57.181-127.467-127.467-127.467z"/><circle cx="384.533" cy="127.467" r="15"/><path d="m239.933 0h-160.666c-43.852 0-79.267 35.487-79.267 79.267v353.467c0 43.851 35.488 79.266 79.267 79.266h160.667c43.851 0 79.267-35.486 79.267-79.267v-353.466c-.001-43.851-35.488-79.267-79.268-79.267zm49.267 432.733c0 27.252-22.051 49.267-49.267 49.267h-160.666c-27.252 0-49.267-22.051-49.267-49.267v-353.466c0-27.251 22.05-49.267 49.267-49.267h160.667c27.252 0 49.267 22.051 49.267 49.267v353.466z"/><circle cx="159.6" cy="352.4" r="15"/><circle cx="159.6" cy="207.8" r="15"/><circle cx="159.6" cy="143.533" r="15"/><circle cx="79.267" cy="207.8" r="15"/><circle cx="79.267" cy="143.533" r="15"/><circle cx="239.933" cy="79.267" r="15"/><circle cx="239.933" cy="207.8" r="15"/><circle cx="239.933" cy="143.533" r="15"/><path d="m111.4 64.267h-32.133c-8.284 0-15 6.716-15 15s6.716 15 15 15h32.133c8.284 0 15-6.716 15-15s-6.716-15-15-15z"/><path d="m165.06 406.061-5.46 5.46-5.46-5.46c-5.858-5.859-15.355-5.857-21.213 0-5.857 5.858-5.857 15.355 0 21.213l16.067 16.066c2.929 2.929 6.768 4.394 10.606 4.394s7.678-1.465 10.606-4.394l16.066-16.066c5.858-5.857 5.858-15.355 0-21.213-5.856-5.858-15.355-5.858-21.212 0z"/><path d="m170.207 261.46c-2.929-2.929-6.768-4.394-10.606-4.394s-7.677 1.465-10.606 4.394l-16.067 16.066c-5.858 5.857-5.858 15.354 0 21.213 5.858 5.857 15.355 5.859 21.213 0l5.46-5.46 5.46 5.46c5.857 5.857 15.355 5.857 21.213 0s5.858-15.355 0-21.213z"/><path d="m105.939 325.726c-5.858-5.857-15.355-5.857-21.213 0l-16.066 16.067c-2.929 2.929-4.394 6.768-4.394 10.606s1.465 7.678 4.394 10.606l16.066 16.066c5.857 5.858 15.355 5.858 21.213 0 5.857-5.857 5.857-15.355 0-21.213l-5.46-5.46 5.46-5.46c5.86-5.857 5.858-15.354 0-21.212z"/><path d="m234.474 325.727c-5.857-5.858-15.354-5.858-21.213 0-5.857 5.858-5.859 15.355 0 21.213l5.46 5.46-5.46 5.46c-5.857 5.857-5.857 15.355 0 21.213s15.355 5.858 21.213 0l16.066-16.066c2.929-2.929 4.394-6.768 4.394-10.606s-1.465-7.677-4.394-10.606z"/></g></svg>