<svg id="Layer_1" height="512" viewBox="0 0 150 150" width="512" xmlns="http://www.w3.org/2000/svg" data-name="Layer 1"><path d="m77.03 101.915h-57.849a9.186 9.186 0 0 1 -9.181-9.17v-31.945a11.266 11.266 0 0 1 9.459-11.067c.687-.107 1.371-.227 2.056-.346s1.367-.239 2.053-.346c6.308-.985 13.653-1.772 37.986-4.38l15.33-1.645a1.019 1.019 0 0 1 1.116.989 1 1 0 0 1 -1 1l-15.232 1.64c-24.3 2.6-31.63 3.389-37.891 4.367-.675.1-1.347.223-2.019.34-.7.122-1.392.243-2.092.352a9.254 9.254 0 0 0 -7.766 9.096v31.95a7.184 7.184 0 0 0 7.181 7.17h57.849a1 1 0 0 1 0 2z"/><path d="m130.82 101.915h-20.7a1 1 0 0 1 0-2h20.7a7.183 7.183 0 0 0 7.18-7.17v-31.51c0-5.262-4.233-8.454-8.195-9.688-.5-.154-.945-.3-1.385-.453-.854-.288-1.66-.56-2.792-.845-3.013-.76-5.994-1.319-9.15-1.91l-2.264-.427a1 1 0 0 1 .156-1.987h.01a.972.972 0 0 1 .187.018l2.279.43c3.048.571 6.2 1.162 9.27 1.936 1.208.3 2.09.6 2.944.89.425.143.857.289 1.338.439 5.923 1.843 9.6 6.287 9.6 11.6v31.51a9.186 9.186 0 0 1 -9.178 9.167z"/><path d="m93.577 106.369a33.917 33.917 0 1 1 33.923-33.926 33.965 33.965 0 0 1 -33.923 33.926zm0-65.834a31.917 31.917 0 1 0 31.923 31.908 31.954 31.954 0 0 0 -31.923-31.908z"/><path d="m93.577 99.967a27.515 27.515 0 1 1 27.523-27.522 27.553 27.553 0 0 1 -27.523 27.522zm0-53.03a25.515 25.515 0 1 0 25.523 25.508 25.543 25.543 0 0 0 -25.523-25.508z"/><path d="m93.577 86.764a14.312 14.312 0 1 1 14.316-14.316 14.332 14.332 0 0 1 -14.316 14.316zm0-26.624a12.312 12.312 0 1 0 12.316 12.308 12.325 12.325 0 0 0 -12.316-12.308z"/><path d="m93.577 80.564a8.113 8.113 0 1 1 8.114-8.114 8.123 8.123 0 0 1 -8.114 8.114zm0-14.225a6.113 6.113 0 1 0 6.114 6.111 6.12 6.12 0 0 0 -6.114-6.111z"/><path d="m55.659 60.14a4.965 4.965 0 1 1 4.957-4.957 4.971 4.971 0 0 1 -4.957 4.957zm0-7.93a2.965 2.965 0 1 0 2.957 2.973 2.977 2.977 0 0 0 -2.957-2.973z"/><path d="m47.021 88.115h-29.007a1 1 0 1 1 0-2h29.007a1 1 0 0 1 0 2z"/><path d="m47.021 77.227h-29.007a1 1 0 1 1 0-2h29.007a1 1 0 0 1 0 2z"/><path d="m47.021 66.339h-29.007a1 1 0 1 1 0-2h29.007a1 1 0 0 1 0 2z"/><path d="m124.04 111.465h-98.279a4.936 4.936 0 0 1 -4.931-4.93v-5.62a1 1 0 0 1 1-1h55.2a1 1 0 0 1 0 2h-54.2v4.62a2.934 2.934 0 0 0 2.931 2.93h98.279a2.928 2.928 0 0 0 2.92-2.93v-4.62h-16.84a1 1 0 0 1 0-2h17.84a1 1 0 0 1 1 1v5.62a4.93 4.93 0 0 1 -4.92 4.93z"/></svg>