<svg id="_x31__px" height="512" viewBox="0 0 24 24" width="512" xmlns="http://www.w3.org/2000/svg"><path d="m19.184 12.644-.707-.707c2.632-2.632 3.753-3.753 4.297-4.163l-.066-.066c.188-.19.292-.441.292-.708s-.104-.518-.293-.707l-5-5c-.378-.378-1.036-.378-1.413 0l-4.23 4.23c-.195.195-.512.195-.707 0s-.195-.512 0-.707l4.23-4.23c.752-.756 2.071-.756 2.828 0l5 5c.377.378.585.88.585 1.414s-.208 1.036-.586 1.414c-.081.08-4.23 4.23-4.23 4.23z"/><path d="m8 21c-.526 0-1.041-.214-1.414-.586l-3-3c-.372-.373-.586-.888-.586-1.414 0-.101.011-.213.024-.313l1.003-6.019c.065-.405.258-.78.559-1.081l4-4c.745-.745 2.082-.745 2.827 0l2.75 2.75c.195.195.195.512 0 .707s-.512.195-.707 0l-2.75-2.75c-.373-.373-1.04-.373-1.413 0l-4 4c-.15.151-.247.336-.279.535l-1 6.003c-.006.041-.014.108-.014.168 0 .263.107.52.293.707l3 3c.229.229.57.319.893.277l5.981-.997c.202-.033.387-.129.539-.281l4-4c.187-.186.294-.443.294-.706s-.107-.52-.293-.707l-2.75-2.75c-.195-.195-.195-.512 0-.707s.512-.195.707 0l2.75 2.75c.372.373.586.888.586 1.414s-.214 1.041-.586 1.414l-4 4c-.302.301-.676.495-1.084.56l-5.997 1c-.12.015-.232.026-.333.026z"/><path d="m13.403 12.999c-.361 0-.723-.137-.999-.412l-.991-.991c-.55-.551-.55-1.447 0-1.998l4.185-4.185c.55-.549 1.446-.551 1.998 0l.991.991c.55.551.55 1.447 0 1.998l-4.185 4.185c-.276.274-.637.412-.999.412zm-1.282-2.694c-.161.161-.161.423 0 .583l.99.991c.162.16.423.161.583 0l4.185-4.184c.161-.161.161-.423 0-.583l-.99-.991c-.162-.16-.423-.161-.583 0z"/><path d="m.5 21c-.128 0-.256-.049-.354-.146-.195-.195-.195-.512 0-.707l3.25-3.25c.195-.195.512-.195.707 0s.195.512 0 .707l-3.25 3.25c-.097.097-.225.146-.353.146z"/><path d="m3.5 24c-.128 0-.256-.049-.354-.146-.195-.195-.195-.512 0-.707l3.25-3.25c.195-.195.512-.195.707 0s.195.512 0 .707l-3.25 3.25c-.097.097-.225.146-.353.146z"/></svg>