<svg id="Layer_1" enable-background="new 0 0 512 512" height="512" viewBox="0 0 512 512" width="512" xmlns="http://www.w3.org/2000/svg"><g><path d="m384.533 56.233c-8.284 0-15 6.716-15 15s6.716 15 15 15c22.736 0 41.233 18.497 41.233 41.233 0 8.284 6.716 15 15 15s15-6.716 15-15c.001-39.278-31.954-71.233-71.233-71.233z"/><path d="m384.533 0c-8.284 0-15 6.716-15 15s6.716 15 15 15c53.743 0 97.467 43.724 97.467 97.467 0 8.284 6.716 15 15 15s15-6.716 15-15c0-70.285-57.182-127.467-127.467-127.467z"/><circle cx="384.533" cy="127.467" r="15"/><path d="m272.066 144.6h-176.733c-51.798 0-95.333 41.856-95.333 95.334v176.733c0 53.521 43.561 95.333 95.333 95.333h176.733c51.794 0 95.334-41.848 95.334-95.333v-176.733c0-53.521-43.561-95.334-95.334-95.334zm65.334 272.067c0 36.68-29.865 65.333-65.334 65.333h-176.733c-35.401 0-65.333-28.594-65.333-65.333v-176.733c0-36.702 29.888-65.334 65.333-65.334h176.733c35.402 0 65.334 28.594 65.334 65.334z"/><path d="m183.7 337.4c-25.487 0-47.133 20.558-47.133 47.133v48.2c0 8.284 6.716 15 15 15h64.267c8.284 0 15-6.716 15-15v-48.2c-.001-26.576-21.646-47.133-47.134-47.133zm17.133 80.333h-34.267v-33.2c0-9.594 7.778-17.133 17.133-17.133 9.366 0 17.133 7.552 17.133 17.133v33.2z"/><path d="m111.4 224.934c-8.284 0-15 6.716-15 15v64.266c0 8.284 6.716 15 15 15s15-6.716 15-15v-64.267c0-8.284-6.716-14.999-15-14.999z"/><path d="m256 224.934c-8.284 0-15 6.716-15 15v64.266c0 8.284 6.716 15 15 15s15-6.716 15-15v-64.267c0-8.284-6.716-14.999-15-14.999z"/></g></svg>