<svg id="Layer_1" enable-background="new 0 0 512 512" height="512" viewBox="0 0 512 512" width="512" xmlns="http://www.w3.org/2000/svg"><g><path d="m384.533 56.233c-8.284 0-15 6.716-15 15s6.716 15 15 15c22.736 0 41.233 18.497 41.233 41.233 0 8.284 6.716 15 15 15s15-6.716 15-15c.001-39.278-31.954-71.233-71.233-71.233z"/><path d="m384.533 0c-8.284 0-15 6.716-15 15s6.716 15 15 15c53.743 0 97.467 43.724 97.467 97.467 0 8.284 6.716 15 15 15s15-6.716 15-15c0-70.285-57.182-127.467-127.467-127.467z"/><circle cx="384.533" cy="127.467" r="15"/><path d="m346.939 229.327c-5.857-5.859-15.355-5.857-21.213 0-5.858 5.858-5.858 15.355 0 21.213l6.527 6.526h-50.458c-3.625 0-7.224.167-10.795.479v-66.247c3.559-.412 7.161-.631 10.795-.631h54.538c8.284 0 15-6.716 15-15s-6.716-15-15-15h-54.538c-3.625 0-7.224.167-10.795.479v-65.813c0-8.284-6.716-15-15-15h-144.6c-8.284 0-15 6.716-15 15v107.74c-31.114 42.518-79.919 37.927-81.4 37.927-8.284 0-15 6.716-15 15s6.716 15 15 15c13.516 0 49.191-.379 81.4-25.161v53.635c-31.114 42.517-79.919 37.926-81.4 37.926-8.284 0-15 6.716-15 15s6.716 15 15 15c13.516 0 49.191-.379 81.4-25.161v53.634c-31.114 42.518-79.919 37.927-81.4 37.927-8.284 0-15 6.716-15 15s6.716 15 15 15c13.516 0 49.191-.379 81.4-25.162v58.362c0 8.284 6.716 15 15 15h144.6c8.284 0 15-6.716 15-15v-112.902c3.559-.412 7.161-.631 10.795-.631h54.538c8.284 0 15-6.716 15-15s-6.716-15-15-15h-54.538c-3.625 0-7.224.167-10.795.479v-66.248c3.559-.412 7.161-.631 10.795-.631h50.459l-6.527 6.527c-5.858 5.857-5.858 15.355 0 21.213 5.856 5.856 15.353 5.86 21.213 0l32.134-32.134c2.813-2.813 4.394-6.628 4.394-10.606s-1.58-7.794-4.394-10.606zm-105.939 131.062c-24.896 8.717-46.664 25.334-61.747 47.956-4.596 6.893-2.733 16.206 4.159 20.802 8.421 5.614 17.354 1.011 20.802-4.159 9.356-14.032 22.115-25.005 36.786-32.14v89.152h-114.6v-371.667h114.6v57.256c-24.896 8.717-46.664 25.334-61.747 47.956-4.596 6.893-2.733 16.206 4.159 20.802 8.421 5.614 17.354 1.011 20.802-4.159 9.356-14.032 22.115-25.005 36.786-32.14v63.942c-24.896 8.717-46.664 25.334-61.747 47.956-4.596 6.893-2.733 16.206 4.159 20.802 8.421 5.614 17.354 1.011 20.802-4.159 9.356-14.032 22.115-25.005 36.786-32.14z"/></g></svg>