<svg id="Layer_1" height="512" viewBox="0 0 150 150" width="512" xmlns="http://www.w3.org/2000/svg" data-name="Layer 1"><path d="m139 117.1h-16.628a1 1 0 0 1 -1-1v-8.17h-12.3v8.17a1 1 0 0 1 -1 1h-60.416a1 1 0 0 1 -.883-.531l-4.6-8.639h-21.424a1 1 0 1 1 0-2h22.029a1 1 0 0 1 .883.531l4.6 8.639h58.814v-8.17a1 1 0 0 1 1-1h14.3a1 1 0 0 1 1 1v8.17h14.625v-81.668h-117.251a1 1 0 1 1 0-2h118.251a1 1 0 0 1 1 1v83.668a1 1 0 0 1 -1 1z"/><path d="m20.749 131.279a1 1 0 0 1 -1-1v-109.558h-8.749a1 1 0 0 1 0-2h9.749a1 1 0 0 1 1 1v110.558a1 1 0 0 1 -1 1z"/><path d="m62.247 103.572a29.308 29.308 0 1 1 29.308-29.308 29.342 29.342 0 0 1 -29.308 29.308zm0-56.616a27.308 27.308 0 1 0 27.308 27.308 27.339 27.339 0 0 0 -27.308-27.308z"/><path d="m121.813 64.808h-17.843a1 1 0 0 1 -1-1v-17.861a1 1 0 0 1 1-1h17.843a1 1 0 0 1 1 1v17.861a1 1 0 0 1 -1 1zm-16.843-2h15.843v-15.861h-15.843z"/><path d="m126.88 60.755h-5.067a1 1 0 0 1 0-2h5.067a1 1 0 0 1 0 2z"/><path d="m126.88 51h-5.067a1 1 0 1 1 0-2h5.067a1 1 0 0 1 0 2z"/><path d="m103.97 60.755h-5.07a1 1 0 0 1 0-2h5.067a1 1 0 0 1 0 2z"/><path d="m103.97 51h-5.07a1 1 0 0 1 0-2h5.067a1 1 0 0 1 0 2z"/><path d="m121.813 95.3h-17.843a1 1 0 0 1 -1-1v-17.863a1 1 0 0 1 1-1h17.843a1 1 0 0 1 1 1v17.863a1 1 0 0 1 -1 1zm-16.843-2h15.843v-15.863h-15.843z"/><path d="m126.88 91.245h-5.067a1 1 0 1 1 0-2h5.067a1 1 0 0 1 0 2z"/><path d="m126.88 81.489h-5.067a1 1 0 0 1 0-2h5.067a1 1 0 0 1 0 2z"/><path d="m103.97 91.245h-5.07a1 1 0 0 1 0-2h5.067a1 1 0 0 1 0 2z"/><path d="m103.97 81.489h-5.07a1 1 0 1 1 0-2h5.067a1 1 0 0 1 0 2z"/><path d="m64.639 89.379a1 1 0 0 1 -.483-.124l-13.887-7.644a1 1 0 0 1 -.518-.876v-12.942a1 1 0 0 1 .518-.876l13.887-7.645a1 1 0 0 1 1.483.876v28.231a1 1 0 0 1 -1 1zm-12.888-9.234 11.888 6.543v-24.848l-11.888 6.544z"/><path d="m50.751 81.623h-8.283a1 1 0 0 1 -1-1v-12.718a1 1 0 0 1 1-1h8.283a1 1 0 0 1 1 1v12.718a1 1 0 0 1 -1 1zm-7.283-2h6.283v-10.718h-6.283z"/><path d="m70.552 67.061a1 1 0 0 1 -.584-1.813l7-5.025a1 1 0 0 1 1.166 1.625l-7 5.025a.994.994 0 0 1 -.582.188z"/><path d="m77.55 88.374a1 1 0 0 1 -.582-.188l-7-5.025a1 1 0 1 1 1.166-1.625l7 5.025a1 1 0 0 1 -.584 1.813z"/><path d="m82.026 75.486-8.617-.028a1 1 0 0 1 0-2l8.617.028a1 1 0 0 1 0 2z"/></svg>