<svg id="_x31__px" height="512" viewBox="0 0 24 24" width="512" xmlns="http://www.w3.org/2000/svg"><path d="m23.5 20h-23c-.276 0-.5-.224-.5-.5s.224-.5.5-.5h23c.276 0 .5.224.5.5s-.224.5-.5.5z"/><path d="m21.5 20c-.276 0-.5-.224-.5-.5v-6c0-.276.224-.5.5-.5s.5.224.5.5v6c0 .276-.224.5-.5.5z"/><path d="m2.5 20c-.276 0-.5-.224-.5-.5v-11.5c0-1.103.897-2 2-2h5.5c.276 0 .5.224.5.5s-.224.5-.5.5h-5.5c-.552 0-1 .449-1 1v11.5c0 .276-.224.5-.5.5z"/><path d="m18 12c-3.309 0-6-2.691-6-6s2.691-6 6-6 6 2.691 6 6-2.691 6-6 6zm0-11c-2.757 0-5 2.243-5 5s2.243 5 5 5 5-2.243 5-5-2.243-5-5-5z"/><path d="m18 9c-1.379 0-2.5-1.122-2.5-2.5s1.121-2.5 2.5-2.5 2.5 1.122 2.5 2.5-1.121 2.5-2.5 2.5zm0-4c-.827 0-1.5.673-1.5 1.5s.673 1.5 1.5 1.5 1.5-.673 1.5-1.5-.673-1.5-1.5-1.5z"/><path d="m15.999 7c-.231 0-.438-.162-.488-.397l-1-4.75c-.057-.27.116-.536.387-.592.265-.055.535.116.592.386l1 4.75c.057.27-.116.536-.387.592-.035.008-.07.011-.104.011z"/><path d="m20.001 7c-.034 0-.069-.003-.104-.011-.271-.057-.443-.322-.387-.592l1-4.75c.057-.27.326-.444.592-.386.271.057.443.322.387.592l-1 4.75c-.05.235-.258.397-.488.397z"/></svg>