<svg id="Layer_1" height="512" viewBox="0 0 150 150" width="512" xmlns="http://www.w3.org/2000/svg" data-name="Layer 1"><path d="m75 93.423a18.424 18.424 0 1 1 18.423-18.423 18.445 18.445 0 0 1 -18.423 18.423zm0-34.847a16.424 16.424 0 1 0 16.423 16.424 16.443 16.443 0 0 0 -16.423-16.424z"/><path d="m90.283 67.632a1 1 0 0 1 -.8-1.6c12.01-16.217 16.785-29.676 13.808-38.92-1.939-6.004-7.149-10.412-15.491-13.08-10.993-3.524-18.074-2.407-19.937 3.144a5.765 5.765 0 0 0 .306 4.233c9.714 21.246 3.031 36.665 2.74 37.311a1 1 0 0 1 -1.825-.816c.066-.151 6.583-15.285-2.733-35.663a7.761 7.761 0 0 1 -.384-5.7c1.314-3.914 5.978-9.689 22.444-4.412 8.99 2.881 14.636 7.717 16.78 14.375 3.229 10.025-1.516 23.726-14.1 40.724a1 1 0 0 1 -.808.404z"/><path d="m18.854 84.405a7.272 7.272 0 0 1 -2.314-.373c-3.914-1.314-9.69-5.976-4.412-22.444 2.881-8.99 7.718-14.636 14.374-16.78 10.025-3.228 23.727 1.516 40.725 14.1a1 1 0 1 1 -1.19 1.607c-16.219-12.007-29.675-16.78-38.921-13.803-6.009 1.935-10.41 7.146-13.084 15.486-3.523 10.994-2.407 18.075 3.144 19.937a5.758 5.758 0 0 0 4.234-.306c21.247-9.712 36.664-3.029 37.31-2.739a1 1 0 0 1 -.816 1.826c-.151-.067-15.282-6.585-35.663 2.732a8.155 8.155 0 0 1 -3.387.757z"/><path d="m73.042 139.99a38.226 38.226 0 0 1 -11.454-2.118c-8.99-2.882-14.635-7.718-16.779-14.375-3.229-10.026 1.516-23.727 14.1-40.725a1 1 0 0 1 1.608 1.191c-12.011 16.217-16.785 29.676-13.808 38.92 1.935 6.009 7.146 10.411 15.487 13.084 10.993 3.523 18.074 2.407 19.937-3.144a5.761 5.761 0 0 0 -.307-4.233c-9.712-21.247-3.028-36.665-2.738-37.311a1 1 0 0 1 1.826.816c-.067.151-6.584 15.285 2.731 35.663a7.759 7.759 0 0 1 .384 5.7c-.929 2.793-3.575 6.532-10.987 6.532z"/><path d="m116.947 106.173c-9.169 0-20.623-5.051-34.175-15.086a1 1 0 1 1 1.191-1.607c16.218 12.01 29.677 16.786 38.921 13.807 6.009-1.935 10.41-7.146 13.084-15.487 3.523-10.993 2.407-18.074-3.145-19.937a5.767 5.767 0 0 0 -4.233.307c-21.247 9.712-36.665 3.028-37.311 2.739a1 1 0 0 1 .817-1.826c.15.067 15.284 6.585 35.662-2.732a7.764 7.764 0 0 1 5.7-.384c3.914 1.313 9.69 5.976 4.412 22.444-2.881 8.99-7.718 14.635-14.375 16.78a21.307 21.307 0 0 1 -6.548.982z"/><path d="m131.206 87.275a1.017 1.017 0 0 1 -.306-.048 1 1 0 0 1 -.647-1.258c2.523-7.871 1.906-12 .661-12.417a1 1 0 0 1 .637-1.9c3.589 1.206 2.666 8.5.607 14.925a1 1 0 0 1 -.952.698z"/><path d="m75 84.371a9.372 9.372 0 1 1 9.362-9.371 9.382 9.382 0 0 1 -9.362 9.371zm0-16.743a7.372 7.372 0 1 0 7.362 7.372 7.38 7.38 0 0 0 -7.362-7.372z"/></svg>