<svg id="Layer_1" enable-background="new 0 0 512 512" height="512" viewBox="0 0 512 512" width="512" xmlns="http://www.w3.org/2000/svg"><g><path d="m384.533 56.233c-8.284 0-15 6.716-15 15s6.716 15 15 15c22.736 0 41.233 18.497 41.233 41.233 0 8.284 6.716 15 15 15s15-6.716 15-15c.001-39.278-31.954-71.233-71.233-71.233z"/><path d="m384.533 0c-8.284 0-15 6.716-15 15s6.716 15 15 15c53.743 0 97.467 43.724 97.467 97.467 0 8.284 6.716 15 15 15s15-6.716 15-15c0-70.285-57.182-127.467-127.467-127.467z"/><circle cx="384.533" cy="127.467" r="15"/><path d="m320.267 96.4h-36.688c-42.108 0-80.587-21.252-103.015-56.874-2.608-4.423-7.422-7.389-12.93-7.389-5.462 0-10.242 2.921-12.865 7.285-22.419 35.682-60.934 56.978-103.081 56.978h-36.688c-8.284 0-15 6.716-15 15v197.499c0 47.394 16.445 93.763 46.307 130.565 29.862 36.805 71.851 62.45 118.229 72.214 1.016.214 2.068.321 3.106.321s2.074-.107 3.09-.321c46.378-9.764 88.366-35.409 118.229-72.214 29.861-36.803 46.307-83.172 46.307-130.565v-197.499c-.001-8.284-6.717-15-15.001-15zm-290.267 212.499v-182.499h21.688c25.666 0 51.1-6.577 73.55-19.02 16.139-8.945 30.526-20.806 42.396-34.854 11.868 14.048 26.256 25.908 42.396 34.854 10.714 5.938 22.112 10.523 33.886 13.712l-212.205 212.206c-1.127-8.058-1.711-16.209-1.711-24.399zm275.267 0c0 40.532-14.064 80.188-39.604 111.664-24.876 30.659-59.589 52.264-98.03 61.08-36.561-8.385-69.744-28.346-94.305-56.656l231.938-231.931v115.843zm0-158.268-249.812 249.804c-6.297-10.42-11.485-21.436-15.513-32.942l241.113-241.113c.843.015 1.684.021 2.522.021h21.688v24.23z"/></g></svg>