<svg id="_x31__px" height="512" viewBox="0 0 24 24" width="512" xmlns="http://www.w3.org/2000/svg"><path d="m15.5 24h-11c-1.378 0-2.5-1.122-2.5-2.5v-19c0-1.378 1.122-2.5 2.5-2.5h11c1.378 0 2.5 1.122 2.5 2.5 0 .276-.224.5-.5.5s-.5-.224-.5-.5c0-.827-.673-1.5-1.5-1.5h-11c-.827 0-1.5.673-1.5 1.5v16.5h14.5c.276 0 .5.224.5.5v2c0 1.378-1.122 2.5-2.5 2.5zm-12.5-4v1.5c0 .827.673 1.5 1.5 1.5h11c.827 0 1.5-.673 1.5-1.5v-1.5z"/><path d="m16 17c-3.309 0-6-2.691-6-6s2.691-6 6-6 6 2.691 6 6-2.691 6-6 6zm0-11c-2.757 0-5 2.243-5 5s2.243 5 5 5 5-2.243 5-5-2.243-5-5-5z"/><path d="m16 14c-1.378 0-2.5-1.122-2.5-2.5s1.122-2.5 2.5-2.5 2.5 1.122 2.5 2.5-1.122 2.5-2.5 2.5zm0-4c-.827 0-1.5.673-1.5 1.5s.673 1.5 1.5 1.5 1.5-.673 1.5-1.5-.673-1.5-1.5-1.5z"/><path d="m14 12c-.231 0-.439-.162-.489-.397l-1-4.75c-.057-.27.116-.536.386-.592.271-.058.536.116.592.386l1 4.75c.057.27-.116.536-.386.592-.035.008-.069.011-.103.011z"/><path d="m18 12c-.034 0-.069-.003-.104-.011-.27-.057-.443-.322-.386-.592l1-4.75c.057-.27.322-.444.592-.386.27.057.443.322.386.592l-1 4.75c-.048.235-.256.397-.488.397z"/></svg>