<svg id="Layer_1" height="512" viewBox="0 0 150 150" width="512" xmlns="http://www.w3.org/2000/svg" data-name="Layer 1"><path d="m23.22 66.3a1 1 0 0 1 -1-1v-8.17a1 1 0 1 1 2 0v8.17a1 1 0 0 1 -1 1z"/><path d="m139 108.59h-115.78a1 1 0 0 1 -1-1v-29.88a1 1 0 0 1 2 0v28.88h113.78v-70.18h-113.78v8.32a1 1 0 0 1 -2 0v-9.32a1 1 0 0 1 1-1h115.78a1 1 0 0 1 1 1v72.18a1 1 0 0 1 -1 1z"/><path d="m92.785 123.5h-52.455a1 1 0 0 1 -1-1v-14.906a1 1 0 0 1 1-1h52.455a1 1 0 0 1 1 1v14.906a1 1 0 0 1 -1 1zm-51.455-2h50.455v-12.906h-50.455z"/><path d="m83.892 123.5a1 1 0 0 1 -1-1v-7.453a1 1 0 0 1 2 0v7.453a1 1 0 0 1 -1 1z"/><path d="m75.225 123.5a1 1 0 0 1 -1-1v-7.453a1 1 0 0 1 2 0v7.453a1 1 0 0 1 -1 1z"/><path d="m66.558 123.5a1 1 0 0 1 -1-1v-7.453a1 1 0 0 1 2 0v7.453a1 1 0 0 1 -1 1z"/><path d="m57.891 123.5a1 1 0 0 1 -1-1v-7.453a1 1 0 0 1 2 0v7.453a1 1 0 0 1 -1 1z"/><path d="m49.224 123.5a1 1 0 0 1 -1-1v-7.453a1 1 0 0 1 2 0v7.453a1 1 0 0 1 -1 1z"/><path d="m23.22 123.5a1 1 0 0 1 -1-1v-44.79a1 1 0 0 1 2 0v44.79a1 1 0 0 1 -1 1z"/><path d="m23.22 45.73a1 1 0 0 1 -1-1v-11.5a4.611 4.611 0 0 0 -4.47-4.73h-6.75a1 1 0 0 1 0-2h6.75a6.611 6.611 0 0 1 6.47 6.73v11.5a1 1 0 0 1 -1 1z"/><path d="m23.22 66.3a1 1 0 0 1 -1-1v-8.17a1 1 0 1 1 2 0v8.17a1 1 0 0 1 -1 1z"/><path d="m23.22 58.134h-9.491a1 1 0 0 1 -1-1v-12.4a1 1 0 0 1 1-1h9.491a1 1 0 0 1 1 1v12.4a1 1 0 0 1 -1 1zm-8.491-2h7.491v-10.4h-7.491z"/><path d="m23.22 78.705h-9.491a1 1 0 0 1 -1-1v-12.405a1 1 0 0 1 1-1h9.491a1 1 0 0 1 1 1v12.405a1 1 0 0 1 -1 1zm-8.491-2h7.491v-10.405h-7.491z"/><path d="m72.718 64.529h-29.494a1 1 0 0 1 -1-1v-16.069a1 1 0 0 1 1-1h29.494a1 1 0 0 1 1 1v16.069a1 1 0 0 1 -1 1zm-28.494-2h27.494v-14.069h-27.494z"/><path d="m69.726 48.46a1 1 0 0 1 -1-1v-4.629a1 1 0 0 1 2 0v4.629a1 1 0 0 1 -1 1z"/><path d="m61.889 48.46a1 1 0 0 1 -1-1v-4.629a1 1 0 0 1 2 0v4.629a1 1 0 0 1 -1 1z"/><path d="m54.052 48.46a1 1 0 0 1 -1-1v-4.629a1 1 0 0 1 2 0v4.629a1 1 0 0 1 -1 1z"/><path d="m46.215 48.46a1 1 0 0 1 -1-1v-4.629a1 1 0 0 1 2 0v4.629a1 1 0 0 1 -1 1z"/><path d="m69.726 69.158a1 1 0 0 1 -1-1v-4.629a1 1 0 1 1 2 0v4.629a1 1 0 0 1 -1 1z"/><path d="m61.889 69.158a1 1 0 0 1 -1-1v-4.629a1 1 0 0 1 2 0v4.629a1 1 0 0 1 -1 1z"/><path d="m54.052 69.158a1 1 0 0 1 -1-1v-4.629a1 1 0 0 1 2 0v4.629a1 1 0 0 1 -1 1z"/><path d="m46.215 69.158a1 1 0 0 1 -1-1v-4.629a1 1 0 1 1 2 0v4.629a1 1 0 0 1 -1 1z"/><path d="m53.256 53.037h-3.5a1 1 0 0 1 0-2h3.5a1 1 0 0 1 0 2z"/><path d="m66.187 59.953h-3.5a1 1 0 0 1 0-2h3.5a1 1 0 0 1 0 2z"/><path d="m126.946 96.545h-29.494a1 1 0 0 1 -1-1v-16.068a1 1 0 0 1 1-1h29.494a1 1 0 0 1 1 1v16.068a1 1 0 0 1 -1 1zm-28.494-2h27.494v-14.068h-27.494z"/><path d="m123.954 80.477a1 1 0 0 1 -1-1v-4.629a1 1 0 0 1 2 0v4.629a1 1 0 0 1 -1 1z"/><path d="m116.117 80.477a1 1 0 0 1 -1-1v-4.629a1 1 0 0 1 2 0v4.629a1 1 0 0 1 -1 1z"/><path d="m108.28 80.477a1 1 0 0 1 -1-1v-4.629a1 1 0 1 1 2 0v4.629a1 1 0 0 1 -1 1z"/><path d="m100.444 80.477a1 1 0 0 1 -1-1v-4.629a1 1 0 0 1 2 0v4.629a1 1 0 0 1 -1 1z"/><path d="m123.954 101.175a1 1 0 0 1 -1-1v-4.63a1 1 0 0 1 2 0v4.63a1 1 0 0 1 -1 1z"/><path d="m116.117 101.175a1 1 0 0 1 -1-1v-4.63a1 1 0 0 1 2 0v4.63a1 1 0 0 1 -1 1z"/><path d="m108.28 101.175a1 1 0 0 1 -1-1v-4.63a1 1 0 1 1 2 0v4.63a1 1 0 0 1 -1 1z"/><path d="m100.444 101.175a1 1 0 0 1 -1-1v-4.63a1 1 0 0 1 2 0v4.63a1 1 0 0 1 -1 1z"/><path d="m107.484 85.053h-3.5a1 1 0 0 1 0-2h3.5a1 1 0 0 1 0 2z"/><path d="m120.415 91.969h-3.5a1 1 0 1 1 0-2h3.5a1 1 0 1 1 0 2z"/></svg>