<svg id="Layer_1" enable-background="new 0 0 512 512" height="512" viewBox="0 0 512 512" width="512" xmlns="http://www.w3.org/2000/svg"><g><path d="m464.867 0h-417.734c-25.49 0-47.133 20.557-47.133 47.134v321.333c0 26.58 21.647 47.133 47.133 47.133h129.6v66.4h-33.2c-8.284 0-15 6.716-15 15s6.716 15 15 15h48.2 128.533 48.2c8.284 0 15-6.716 15-15s-6.716-15-15-15h-33.2v-66.4h129.6c25.491 0 47.133-20.556 47.133-47.133v-321.333c.001-26.58-21.645-47.134-47.132-47.134zm-159.6 482h-98.533v-66.4h98.533zm176.733-113.533c0 9.588-7.765 17.133-17.133 17.133h-417.734c-9.36 0-17.133-7.536-17.133-17.133v-20.355c5.313 2.079 11.093 3.222 17.133 3.222h417.733c5.88 0 11.703-1.129 17.133-3.249v20.382zm0-64.267c0 9.588-7.765 17.133-17.133 17.133h-417.734c-9.36 0-17.133-7.536-17.133-17.133v-257.066c0-9.588 7.765-17.134 17.133-17.134h417.733c9.36 0 17.134 7.537 17.134 17.134z"/><path d="m154.14 84.727c-5.857-5.857-15.355-5.857-21.213 0l-64.267 64.266c-2.813 2.813-4.394 6.628-4.394 10.606v96.401c0 8.284 6.716 15 15 15h128.534c8.284 0 15-6.716 15-15v-96.4c0-3.979-1.581-7.794-4.394-10.606zm38.66 156.273h-98.533v-75.188l49.267-49.267 49.267 49.267v75.188z"/><path d="m352.4 128.533h-80.333c-8.284 0-15 6.716-15 15s6.716 15 15 15h80.333c8.284 0 15-6.716 15-15s-6.716-15-15-15z"/><path d="m384.533 64.267h-112.466c-8.284 0-15 6.716-15 15s6.716 15 15 15h112.466c8.284 0 15-6.716 15-15s-6.716-15-15-15z"/><path d="m432.733 128.533h-16.067c-8.284 0-15 6.716-15 15s6.716 15 15 15h16.067c8.284 0 15-6.716 15-15s-6.715-15-15-15z"/><path d="m352.4 192.8h-80.333c-8.284 0-15 6.716-15 15s6.716 15 15 15h80.333c8.284 0 15-6.716 15-15s-6.716-15-15-15z"/><path d="m432.733 192.8h-16.067c-8.284 0-15 6.716-15 15s6.716 15 15 15h16.067c8.284 0 15-6.716 15-15s-6.715-15-15-15z"/><path d="m352.4 257.066h-80.333c-8.284 0-15 6.716-15 15s6.716 15 15 15h80.333c8.284 0 15-6.716 15-15s-6.716-15-15-15z"/><path d="m432.733 257.066h-16.067c-8.284 0-15 6.716-15 15s6.716 15 15 15h16.067c8.284 0 15-6.716 15-15s-6.715-15-15-15z"/></g></svg>