<svg id="_x31__px" height="512" viewBox="0 0 24 24" width="512" xmlns="http://www.w3.org/2000/svg"><path d="m12 21c-4.962 0-9-4.038-9-9 0-3.112 1.583-5.965 4.234-7.633.234-.146.542-.077.689.157.147.233.077.542-.157.689-2.358 1.484-3.766 4.021-3.766 6.787 0 4.411 3.589 8 8 8s8-3.589 8-8c0-2.766-1.408-5.303-3.766-6.787-.234-.147-.304-.456-.157-.689.147-.234.456-.303.689-.157 2.651 1.668 4.234 4.521 4.234 7.633 0 4.962-4.038 9-9 9z"/><path d="m16.5 13h-9c-.276 0-.5-.224-.5-.5s.224-.5.5-.5h9c.276 0 .5.224.5.5s-.224.5-.5.5z"/><path d="m15 16h-6c-1.103 0-2-.897-2-2v-12c0-1.103.897-2 2-2h6c1.103 0 2 .897 2 2v12c0 1.103-.897 2-2 2zm-6-15c-.551 0-1 .449-1 1v12c0 .551.449 1 1 1h6c.551 0 1-.449 1-1v-12c0-.551-.449-1-1-1z"/><path d="m12 24c-.276 0-.5-.224-.5-.5v-3c0-.276.224-.5.5-.5s.5.224.5.5v3c0 .276-.224.5-.5.5z"/><path d="m11.5 10c-.104 0-.209-.033-.299-.1-.221-.166-.266-.479-.1-.7l1.141-1.521-1.464-.732c-.133-.066-.229-.188-.263-.333-.036-.143-.004-.295.085-.414l1.5-2c.166-.221.479-.265.7-.1.221.166.266.479.1.7l-1.141 1.521 1.464.732c.133.066.229.188.263.333.035.143.003.295-.086.414l-1.5 2c-.098.131-.248.2-.4.2z"/></svg>