<svg id="Layer_1" height="512" viewBox="0 0 150 150" width="512" xmlns="http://www.w3.org/2000/svg" data-name="Layer 1"><path d="m117.524 118.524h-85.048a1 1 0 0 1 -1-1v-85.048a1 1 0 0 1 1-1h85.048a1 1 0 0 1 1 1v85.048a1 1 0 0 1 -1 1zm-84.048-2h83.048v-83.048h-83.048z"/><path d="m102.215 103.215h-54.43a1 1 0 0 1 -1-1v-54.431a1 1 0 0 1 1-1h54.43a1 1 0 0 1 1 1v54.431a1 1 0 0 1 -1 1zm-53.43-2h52.43v-52.431h-52.43z"/><path d="m126.3 55.738h-8.776a1 1 0 0 1 -1-1v-16.867a1 1 0 0 1 1-1h8.776a1 1 0 0 1 1 1v16.867a1 1 0 0 1 -1 1zm-7.776-2h6.776v-14.867h-6.776z"/><path d="m126.3 84.433h-8.776a1 1 0 0 1 -1-1v-16.867a1 1 0 0 1 1-1h8.776a1 1 0 0 1 1 1v16.867a1 1 0 0 1 -1 1zm-7.776-2h6.776v-14.867h-6.776z"/><path d="m126.3 113.129h-8.776a1 1 0 0 1 -1-1v-16.867a1 1 0 0 1 1-1h8.776a1 1 0 0 1 1 1v16.867a1 1 0 0 1 -1 1zm-7.776-2h6.776v-14.867h-6.776z"/><path d="m139 47.3h-12.7a1 1 0 1 1 0-2h12.7a1 1 0 0 1 0 2z"/><path d="m139 76h-12.7a1 1 0 0 1 0-2h12.7a1 1 0 0 1 0 2z"/><path d="m139 104.7h-12.7a1 1 0 0 1 0-2h12.7a1 1 0 0 1 0 2z"/><path d="m32.476 55.738h-8.776a1 1 0 0 1 -1-1v-16.867a1 1 0 0 1 1-1h8.776a1 1 0 0 1 1 1v16.867a1 1 0 0 1 -1 1zm-7.776-2h6.776v-14.867h-6.776z"/><path d="m32.476 84.433h-8.776a1 1 0 0 1 -1-1v-16.867a1 1 0 0 1 1-1h8.776a1 1 0 0 1 1 1v16.867a1 1 0 0 1 -1 1zm-7.776-2h6.776v-14.867h-6.776z"/><path d="m32.476 113.129h-8.776a1 1 0 0 1 -1-1v-16.867a1 1 0 0 1 1-1h8.776a1 1 0 0 1 1 1v16.867a1 1 0 0 1 -1 1zm-7.776-2h6.776v-14.867h-6.776z"/><path d="m23.7 47.3h-12.7a1 1 0 0 1 0-2h12.7a1 1 0 1 1 0 2z"/><path d="m23.7 76h-12.7a1 1 0 0 1 0-2h12.7a1 1 0 1 1 0 2z"/><path d="m23.7 104.7h-12.7a1 1 0 0 1 0-2h12.7a1 1 0 1 1 0 2z"/><path d="m112.129 127.3h-16.867a1 1 0 0 1 -1-1v-8.776a1 1 0 0 1 1-1h16.867a1 1 0 0 1 1 1v8.776a1 1 0 0 1 -1 1zm-15.867-2h14.867v-6.776h-14.867z"/><path d="m83.434 127.3h-16.868a1 1 0 0 1 -1-1v-8.776a1 1 0 0 1 1-1h16.868a1 1 0 0 1 1 1v8.776a1 1 0 0 1 -1 1zm-15.868-2h14.868v-6.776h-14.868z"/><path d="m54.738 127.3h-16.867a1 1 0 0 1 -1-1v-8.776a1 1 0 0 1 1-1h16.867a1 1 0 0 1 1 1v8.776a1 1 0 0 1 -1 1zm-15.867-2h14.867v-6.776h-14.867z"/><path d="m103.7 140a1 1 0 0 1 -1-1v-12.7a1 1 0 0 1 2 0v12.7a1 1 0 0 1 -1 1z"/><path d="m75 140a1 1 0 0 1 -1-1v-12.7a1 1 0 0 1 2 0v12.7a1 1 0 0 1 -1 1z"/><path d="m46.305 140a1 1 0 0 1 -1-1v-12.7a1 1 0 0 1 2 0v12.7a1 1 0 0 1 -1 1z"/><path d="m112.129 33.476h-16.867a1 1 0 0 1 -1-1v-8.776a1 1 0 0 1 1-1h16.867a1 1 0 0 1 1 1v8.776a1 1 0 0 1 -1 1zm-15.867-2h14.867v-6.776h-14.867z"/><path d="m83.434 33.476h-16.868a1 1 0 0 1 -1-1v-8.776a1 1 0 0 1 1-1h16.868a1 1 0 0 1 1 1v8.776a1 1 0 0 1 -1 1zm-15.868-2h14.868v-6.776h-14.868z"/><path d="m54.738 33.476h-16.867a1 1 0 0 1 -1-1v-8.776a1 1 0 0 1 1-1h16.867a1 1 0 0 1 1 1v8.776a1 1 0 0 1 -1 1zm-15.867-2h14.867v-6.776h-14.867z"/><path d="m103.7 24.7a1 1 0 0 1 -1-1v-12.7a1 1 0 0 1 2 0v12.7a1 1 0 0 1 -1 1z"/><path d="m75 24.7a1 1 0 0 1 -1-1v-12.7a1 1 0 0 1 2 0v12.7a1 1 0 0 1 -1 1z"/><path d="m46.305 24.7a1 1 0 0 1 -1-1v-12.7a1 1 0 0 1 2 0v12.7a1 1 0 0 1 -1 1z"/><path d="m83.283 68.564h-24.914a1 1 0 0 1 0-2h24.914a1 1 0 0 1 0 2z"/><path d="m91.631 83.435h-33.262a1 1 0 0 1 0-2h33.262a1 1 0 0 1 0 2z"/></svg>