<svg id="Layer_1" enable-background="new 0 0 512 512" height="512" viewBox="0 0 512 512" width="512" xmlns="http://www.w3.org/2000/svg"><g><path d="m384.533 56.233c-8.284 0-15 6.716-15 15s6.716 15 15 15c22.736 0 41.233 18.497 41.233 41.233 0 8.284 6.716 15 15 15s15-6.716 15-15c.001-39.278-31.954-71.233-71.233-71.233z"/><path d="m384.533 0c-8.284 0-15 6.716-15 15s6.716 15 15 15c53.743 0 97.467 43.724 97.467 97.467 0 8.284 6.716 15 15 15s15-6.716 15-15c0-70.285-57.181-127.467-127.467-127.467z"/><circle cx="384.533" cy="127.467" r="15"/><path d="m432.733 353.467h-33.2v-129.601c0-25.989-21.144-47.133-47.133-47.133s-47.133 21.144-47.133 47.133v129.601h-34.267v-129.601c0-25.989-21.144-47.133-47.133-47.133s-47.133 21.144-47.133 47.133v129.601h-34.267v-129.601c0-25.989-21.144-47.133-47.133-47.133s-47.134 21.144-47.134 47.133v129.601h-33.2c-8.284 0-15 6.716-15 15v128.533c0 8.284 6.716 15 15 15h417.733c8.284 0 15-6.716 15-15v-128.533c0-8.284-6.715-15-15-15zm-97.466-129.601c0-9.447 7.686-17.133 17.133-17.133s17.133 7.686 17.133 17.133v129.601h-34.267v-129.601zm-128.534 0c0-9.447 7.686-17.133 17.133-17.133s17.134 7.686 17.134 17.133v129.601h-34.267zm-128.533 0c0-9.447 7.686-17.133 17.133-17.133s17.133 7.686 17.133 17.133v129.601h-34.266zm339.533 258.134h-387.733v-98.533h387.733z"/><circle cx="79.267" cy="432.733" r="16.067"/><circle cx="143.533" cy="432.733" r="16.067"/><path d="m336.333 447.733h32.133c8.284 0 15-6.716 15-15s-6.716-15-15-15h-32.133c-8.284 0-15 6.716-15 15s6.716 15 15 15z"/></g></svg>