<svg id="Layer_1" enable-background="new 0 0 512 512" height="512" viewBox="0 0 512 512" width="512" xmlns="http://www.w3.org/2000/svg"><g><g><path d="m384.533 56.233c-8.284 0-15 6.716-15 15s6.716 15 15 15c22.736 0 41.233 18.497 41.233 41.233 0 8.284 6.716 15 15 15s15-6.716 15-15c.001-39.278-31.954-71.233-71.233-71.233z"/><path d="m384.533 0c-8.284 0-15 6.716-15 15s6.716 15 15 15c53.743 0 97.467 43.724 97.467 97.467 0 8.284 6.716 15 15 15s15-6.716 15-15c0-70.285-57.182-127.467-127.467-127.467z"/><circle cx="384.533" cy="127.467" r="15"/></g><path d="m414.419 187.911c-3.91-6.427-11.976-8.963-18.858-5.932-46.292 20.378-90.682 45.12-132.14 73.618-2.023-1.675-4.161-3.214-6.384-4.631 14.289-48.247 24.1-98.111 29.175-148.425.755-7.483-4.148-14.368-11.467-16.102-33.742-7.992-69.413-7.992-103.154 0-7.318 1.733-12.222 8.618-11.467 16.102 5.077 50.324 14.891 100.191 29.182 148.426-2.222 1.417-4.36 2.955-6.383 4.63-41.458-28.498-85.848-53.239-132.14-73.618-6.885-3.033-14.949-.494-18.858 5.932-18.026 29.627-29.048 63.552-31.875 98.105-.613 7.496 4.42 14.287 11.77 15.882 49.415 10.721 99.858 16.798 150.134 18.117.661 2.572 1.496 5.073 2.463 7.508-39.906 30.623-77.146 65.19-110.831 102.915-5.009 5.609-5.089 14.062-.188 19.767 22.593 26.292 51.45 47.259 83.452 60.634 6.941 2.901 14.955.213 18.743-6.286 25.459-43.675 46.827-89.775 63.627-137.202 1.308.081 2.623.136 3.952.136 1.328 0 2.643-.055 3.95-.136 16.792 47.42 38.157 93.518 63.621 137.201 2.761 4.736 7.767 7.448 12.965 7.448 1.935 0 3.896-.375 5.778-1.162 31.996-13.372 60.855-34.338 83.458-60.632 4.903-5.704 4.823-14.158-.187-19.769-33.672-37.711-70.914-72.278-110.832-102.911.967-2.437 1.803-4.938 2.464-7.512 50.269-1.319 100.711-7.396 150.134-18.117 7.352-1.595 12.386-8.389 11.771-15.886-2.837-34.568-13.859-68.491-31.875-98.1zm-159.536-74.878c-5.152 43.471-13.964 86.507-26.267 128.284-1.805-.154-3.622-.231-5.448-.231-1.824 0-3.638.077-5.441.231-12.305-41.768-21.119-84.804-26.272-128.284 20.945-3.457 42.48-3.457 63.428 0zm-93.304 176.97c-43.516-1.207-87.163-6.125-130.097-14.659 3.185-20.987 9.84-41.469 19.601-60.326 39.75 18.333 77.95 40.011 113.864 64.615-1.424 3.351-2.55 6.817-3.368 10.37zm-25.164 187.643c-18.98-9.518-36.405-22.178-51.314-37.282 29.73-32.15 62.163-61.793 96.671-88.355 2.747 2.381 5.692 4.523 8.799 6.4-14.606 41.038-32.774 81.04-54.156 119.237zm86.757-140.16c-18.307 0-33.2-14.894-33.2-33.2s14.893-33.2 33.2-33.2 33.2 14.894 33.2 33.2-14.893 33.2-33.2 33.2zm138.071 102.876c-14.917 15.108-32.341 27.767-51.321 37.284-21.387-38.205-39.552-78.204-54.15-119.238 3.106-1.877 6.049-4.018 8.795-6.398 34.523 26.572 66.952 56.209 96.676 88.352zm-76.485-150.359c-.817-3.552-1.942-7.017-3.365-10.367 35.916-24.606 74.115-46.283 113.868-64.618 9.755 18.849 16.409 39.331 19.599 60.326-42.943 8.535-86.588 13.452-130.102 14.659z"/></g></svg>