<svg id="Layer_1" height="512" viewBox="0 0 150 150" width="512" xmlns="http://www.w3.org/2000/svg" data-name="Layer 1"><path d="m50.833 129.715a15.33 15.33 0 0 1 -10.912-4.515l-15.189-15.19a15.429 15.429 0 0 1 0-21.822l54.155-54.159a3.652 3.652 0 0 1 5.045 0l31.968 31.971a3.567 3.567 0 0 1 0 5.045l-54.157 54.155a15.329 15.329 0 0 1 -10.91 4.515zm-9.5-5.934a13.43 13.43 0 0 0 18.994 0l54.155-54.155a1.568 1.568 0 0 0 0-2.217l-31.964-31.966a1.57 1.57 0 0 0 -2.217 0l-54.155 54.157a13.43 13.43 0 0 0 0 18.994z"/><path d="m46.064 113.127a9.117 9.117 0 1 1 -.011-18.233h.008a9.117 9.117 0 1 1 0 18.233zm-.011-16.233a7.119 7.119 0 0 0 .009 14.237 7.119 7.119 0 0 0 0-14.237z"/><path d="m111.144 63.651a1 1 0 0 1 -.707-.293l-23.722-23.723a1 1 0 0 1 0-1.414l17.644-17.643a1 1 0 0 1 1.414 0l23.727 23.722a1 1 0 0 1 0 1.414l-17.649 17.644a1 1 0 0 1 -.707.293zm-22.308-24.723 22.308 22.309 16.23-16.23-22.308-22.307z"/><path d="m101.289 42.794a4.2 4.2 0 0 1 -2.966-7.161l2.277-2.277a4.195 4.195 0 1 1 5.932 5.932l-2.278 2.277a4.161 4.161 0 0 1 -2.965 1.229zm2.277-8.666a2.181 2.181 0 0 0 -1.552.642l-2.277 2.277a2.2 2.2 0 0 0 0 3.1 2.247 2.247 0 0 0 3.1 0l2.278-2.277a2.194 2.194 0 0 0 -1.552-3.746z"/><path d="m111.473 52.976a4.24 4.24 0 0 1 -3.014-7.206l2.278-2.277a4.228 4.228 0 0 1 5.979 5.98l-2.276 2.277a4.185 4.185 0 0 1 -2.967 1.226zm2.23-8.711a2.181 2.181 0 0 0 -1.552.642l-2.277 2.277a2.229 2.229 0 0 0 3.152 3.152l2.276-2.277a2.195 2.195 0 0 0 0-3.1 2.223 2.223 0 0 0 -1.602-.694z"/><path d="m96.651 74.075a1 1 0 0 1 -.707-.293l-19.8-19.8a1 1 0 0 1 1.414-1.414l19.8 19.8a1 1 0 0 1 -.707 1.707z"/><path d="m85.691 85.035a.993.993 0 0 1 -.707-.293l-19.8-19.8a1 1 0 1 1 1.416-1.413l19.8 19.8a1 1 0 0 1 -.707 1.707z"/><path d="m74.731 96a.993.993 0 0 1 -.707-.293l-19.8-19.8a1 1 0 0 1 1.414-1.414l19.8 19.8a1 1 0 0 1 -.707 1.707z"/></svg>