<svg id="Layer_1" height="512" viewBox="0 0 150 150" width="512" xmlns="http://www.w3.org/2000/svg" data-name="Layer 1"><path d="m25.168 140a14.909 14.909 0 0 1 -10.547-25.456l34.527-34.531a11.424 11.424 0 0 1 6.781-3.262l4.31-.482a12.263 12.263 0 0 1 3.261-11.461l.5-.5a1.028 1.028 0 0 1 1.414 0l20.78 20.78a1 1 0 0 1 0 1.414l-.4.4a12.265 12.265 0 0 1 -11.814 3.175l-.475 4.25a11.426 11.426 0 0 1 -3.262 6.781l-34.529 34.527a14.866 14.866 0 0 1 -10.546 4.365zm39.538-73.565a10.258 10.258 0 0 0 -2.421 9.765l.185.666a1 1 0 0 1 -.852 1.262l-5.466.611a9.422 9.422 0 0 0 -5.59 2.689l-34.527 34.527a12.916 12.916 0 0 0 18.265 18.266l34.529-34.528a9.412 9.412 0 0 0 2.688-5.593l.611-5.466a1 1 0 0 1 .472-.734.992.992 0 0 1 .878-.08 10.252 10.252 0 0 0 10.582-2.024z"/><path d="m77.848 79.166a1 1 0 0 1 -.707-.293l-6.269-6.273a1 1 0 0 1 0-1.414l43.782-43.784 3.117-8.5a1 1 0 0 1 .464-.536l15.316-8.248a1 1 0 0 1 1.182.173l4.715 4.715a1 1 0 0 1 .174 1.181l-8.249 15.316a1 1 0 0 1 -.537.465l-8.5 3.116-43.781 43.789a1 1 0 0 1 -.707.293zm-4.855-7.266 4.855 4.855 43.232-43.235a1 1 0 0 1 .362-.232l8.35-3.061 7.715-14.327-3.662-3.663-14.327 7.716-3.062 8.347a1 1 0 0 1 -.232.363z"/><path d="m32.787 125.968a1 1 0 0 1 -.707-1.707l26.6-26.6a1 1 0 0 1 1.414 1.414l-26.6 26.6a1 1 0 0 1 -.707.293z"/><path d="m25.533 118.714a1 1 0 0 1 -.707-1.707l26.6-26.6a1 1 0 1 1 1.414 1.414l-26.6 26.6a1 1 0 0 1 -.707.293z"/></svg>