<svg id="Layer_1" height="512" viewBox="0 0 150 150" width="512" xmlns="http://www.w3.org/2000/svg" data-name="Layer 1"><path d="m96.649 140a8.5 8.5 0 0 1 -6.032-2.5l-58.169-58.166a8.529 8.529 0 0 1 0-12.064l34.82-34.82a8.532 8.532 0 0 1 12.064 0l58.168 58.169a8.531 8.531 0 0 1 0 12.065l-34.818 34.816a8.5 8.5 0 0 1 -6.033 2.5zm-23.349-108.048a6.489 6.489 0 0 0 -4.618 1.912l-34.82 34.82a6.53 6.53 0 0 0 0 9.236l58.169 58.169a6.54 6.54 0 0 0 9.237 0l34.819-34.819a6.532 6.532 0 0 0 0-9.237l-58.169-58.169a6.488 6.488 0 0 0 -4.618-1.912z"/><path d="m113.444 139.3a13.929 13.929 0 0 1 -9.882-4.087 1 1 0 0 1 1.414-1.414 11.991 11.991 0 0 0 16.938 0l11.879-11.879a11.977 11.977 0 0 0 0-16.938 1 1 0 1 1 1.414-1.414 13.976 13.976 0 0 1 0 19.766l-11.879 11.879a13.932 13.932 0 0 1 -9.884 4.087z"/><path d="m32.206 60.654a.993.993 0 0 1 -.707-.293l-21.206-21.206a1 1 0 0 1 0-1.414l27.446-27.441a1 1 0 0 1 1.414 0l21.206 21.2a1 1 0 0 1 0 1.415l-27.446 27.446a.993.993 0 0 1 -.707.293zm-19.792-22.206 19.792 19.792 26.032-26.032-19.792-19.791z"/><path d="m47.773 45.087a1 1 0 0 1 -.707-.293l-9.9-9.9-2.978 2.986a1 1 0 0 1 -1.414 0l-10.6-10.6a1 1 0 1 1 1.414-1.414l9.9 9.9 2.983-2.982a1 1 0 0 1 1.414 0l10.6 10.6a1 1 0 0 1 -.707 1.707z"/><path d="m32.9 68.233a7.548 7.548 0 0 1 0-10.675l24.656-24.658a7.557 7.557 0 0 1 10.675 0 1 1 0 1 1 -1.414 1.414 5.547 5.547 0 0 0 -7.847 0l-24.658 24.658a5.549 5.549 0 0 0 0 7.847z"/><path d="m92.279 118.981a1 1 0 0 1 -.707-.293l-40.308-40.309a1 1 0 0 1 0-1.414l25.7-25.7a1.029 1.029 0 0 1 1.414 0l40.309 40.309a1 1 0 0 1 0 1.414l-25.7 25.7a1 1 0 0 1 -.708.293zm-38.894-41.309 38.894 38.895 24.285-24.285-38.894-38.895z"/><path d="m72.125 98.827a1 1 0 0 1 -.707-1.707l25.7-25.7a1 1 0 0 1 1.414 1.414l-25.7 25.7a1 1 0 0 1 -.707.293z"/></svg>