<svg id="Layer_1" enable-background="new 0 0 512 512" height="512" viewBox="0 0 512 512" width="512" xmlns="http://www.w3.org/2000/svg"><g><path d="m384.533 56.233c-8.284 0-15 6.716-15 15s6.716 15 15 15c22.736 0 41.233 18.497 41.233 41.233 0 8.284 6.716 15 15 15s15-6.716 15-15c.001-39.278-31.954-71.233-71.233-71.233z"/><path d="m384.533 0c-8.284 0-15 6.716-15 15s6.716 15 15 15c53.743 0 97.467 43.724 97.467 97.467 0 8.284 6.716 15 15 15s15-6.716 15-15c0-70.285-57.182-127.467-127.467-127.467z"/><circle cx="384.533" cy="127.467" r="15"/><path d="m320.267 48.2h-305.267c-8.284 0-15 6.716-15 15v433.8c0 8.284 6.716 15 15 15h305.267c8.284 0 15-6.716 15-15v-433.8c0-8.284-6.716-15-15-15zm-15 433.8h-275.267v-403.8h275.267z"/><path d="m167.634 206.733c25.989 0 47.133-21.145 47.133-47.134s-21.144-47.133-47.133-47.133-47.134 21.144-47.134 47.134 21.145 47.133 47.134 47.133zm0-64.266c9.447 0 17.133 7.686 17.133 17.133s-7.686 17.134-17.133 17.134-17.134-7.687-17.134-17.134 7.687-17.133 17.134-17.133z"/><path d="m167.634 455.767c61.426 0 111.399-49.974 111.399-111.4s-49.974-111.399-111.399-111.399c-61.427 0-111.4 49.974-111.4 111.399-.001 61.426 49.973 111.4 111.4 111.4zm0-192.8c44.884 0 81.399 36.516 81.399 81.399 0 44.885-36.516 81.4-81.399 81.4-44.885 0-81.4-36.516-81.4-81.4-.001-44.884 36.515-81.399 81.4-81.399z"/><path d="m167.634 391.5c25.989 0 47.133-21.145 47.133-47.134s-21.144-47.133-47.133-47.133-47.134 21.144-47.134 47.133 21.145 47.134 47.134 47.134zm0-64.267c9.447 0 17.133 7.686 17.133 17.133s-7.686 17.134-17.133 17.134-17.134-7.687-17.134-17.134 7.687-17.133 17.134-17.133z"/></g></svg>