<svg id="_x31__px" height="512" viewBox="0 0 24 24" width="512" xmlns="http://www.w3.org/2000/svg"><path d="m6 23.5c-.534 0-1.036-.208-1.414-.586l-4-4c-.378-.378-.586-.88-.586-1.414s.208-1.036.586-1.414l15.5-15.5c.756-.756 2.072-.756 2.828 0l4 4c.378.378.586.88.586 1.414s-.208 1.036-.586 1.414l-15.5 15.5c-.378.378-.88.586-1.414.586zm11.5-22.5c-.267 0-.518.104-.707.293l-15.5 15.5c-.189.189-.293.44-.293.707s.104.518.293.707l4 4c.379.378 1.035.378 1.414 0l15.5-15.5c.189-.189.293-.44.293-.707s-.104-.518-.293-.707l-4-4c-.189-.189-.44-.293-.707-.293z"/><path d="m9 24c-.375 0-.729-.137-1.005-.386-.021-.015-.04-.032-.059-.05l-.94-.94c-.195-.195-.195-.512 0-.707s.512-.195.707 0l.896.895c.018.013.033.027.049.042.188.188.518.188.705 0l6.001-6c.095-.095.146-.22.146-.354s-.052-.259-.146-.354c-.016-.016-.029-.032-.043-.048l-.895-.895c-.195-.195-.195-.512 0-.707s.512-.195.707 0l.94.94c.019.019.035.039.051.06.249.276.386.629.386 1.004 0 .4-.156.777-.439 1.061l-6 6c-.283.283-.66.439-1.061.439z"/><path d="m19 14c-.375 0-.729-.137-1.005-.386-.021-.015-.04-.032-.059-.05l-.94-.94c-.195-.195-.195-.512 0-.707s.512-.195.707 0l.896.895c.018.013.033.027.049.042.188.188.518.188.705 0l3.501-3.5c.094-.095.146-.221.146-.354s-.052-.259-.146-.354c-.016-.016-.029-.032-.043-.048l-.895-.895c-.195-.195-.195-.512 0-.707s.512-.195.707 0l.94.94c.019.019.035.039.051.06.249.276.386.629.386 1.004 0 .4-.156.777-.439 1.061l-3.5 3.5c-.283.283-.66.439-1.061.439z"/><path d="m7 19c-.128 0-.256-.049-.354-.146l-2-2c-.195-.195-.195-.512 0-.707l4-4c.195-.195.512-.195.707 0l2 2c.195.195.195.512 0 .707l-4 4c-.097.097-.225.146-.353.146zm-1.293-2.5 1.293 1.293 3.293-3.293-1.293-1.293z"/><path d="m14.5 11.5c-.128 0-.256-.049-.354-.146l-2-2c-.195-.195-.195-.512 0-.707l4-4c.195-.195.512-.195.707 0l2 2c.195.195.195.512 0 .707l-4 4c-.097.097-.225.146-.353.146zm-1.293-2.5 1.293 1.293 3.293-3.293-1.293-1.293z"/></svg>