<svg id="Layer_1" height="512" viewBox="0 0 150 150" width="512" xmlns="http://www.w3.org/2000/svg" data-name="Layer 1"><path d="m75.74 140h-53.25a6.037 6.037 0 0 1 -6.03-6.029v-86.971a6.037 6.037 0 0 1 6.03-6.03h53.25a6.037 6.037 0 0 1 6.029 6.03v86.974a6.036 6.036 0 0 1 -6.029 6.026zm-53.25-97.033a4.035 4.035 0 0 0 -4.03 4.033v86.974a4.035 4.035 0 0 0 4.03 4.026h53.25a4.034 4.034 0 0 0 4.029-4.029v-86.971a4.035 4.035 0 0 0 -4.029-4.03z"/><path d="m65.793 42.967h-33.357a1 1 0 0 1 -1-1v-8.523a3.723 3.723 0 0 1 3.719-3.718h27.92a3.722 3.722 0 0 1 3.718 3.718v8.523a1 1 0 0 1 -1 1zm-32.357-2h31.357v-7.523a1.72 1.72 0 0 0 -1.718-1.718h-27.92a1.721 1.721 0 0 0 -1.719 1.718z"/><path d="m72.535 133.048h-46.544a1.939 1.939 0 0 1 -1.937-1.937v-15.58a1.939 1.939 0 0 1 1.937-1.937h46.544a1.939 1.939 0 0 1 1.936 1.937v15.58a1.939 1.939 0 0 1 -1.936 1.937zm-46.544-17.454.063 15.517 46.481-.063-.064-15.454z"/><path d="m72.535 107.384h-46.544a1.938 1.938 0 0 1 -1.937-1.936v-15.581a1.939 1.939 0 0 1 1.937-1.937h46.544a1.939 1.939 0 0 1 1.936 1.937v15.581a1.938 1.938 0 0 1 -1.936 1.936zm-46.544-17.454.063 15.518 46.481-.064-.064-15.454z"/><path d="m72.535 81.721h-46.544a1.939 1.939 0 0 1 -1.937-1.937v-15.584a1.939 1.939 0 0 1 1.937-1.937h46.544a1.939 1.939 0 0 1 1.936 1.937v15.58a1.939 1.939 0 0 1 -1.936 1.941zm-46.544-17.454.063 15.517 46.481-.063-.064-15.454z"/><path d="m113.606 69.391a19.957 19.957 0 0 1 -19.934-19.933v-19.324a1 1 0 0 1 1-1h37.868a1 1 0 0 1 1 1v19.324a19.957 19.957 0 0 1 -19.934 19.933zm-17.934-38.257v18.324a17.934 17.934 0 0 0 35.868 0v-18.324z"/><path d="m126.932 31.134h-6.167a1 1 0 0 1 -1-1v-16.051a4.084 4.084 0 0 1 8.167 0v16.051a1 1 0 0 1 -1 1zm-5.167-2h4.167v-15.051a2.084 2.084 0 0 0 -4.167 0z"/><path d="m106.446 31.134h-6.167a1 1 0 0 1 -1-1v-16.051a4.084 4.084 0 0 1 8.167 0v16.051a1 1 0 0 1 -1 1zm-5.167-2h4.167v-15.051a2.084 2.084 0 0 0 -4.167 0z"/><path d="m113.606 54.351a5.089 5.089 0 1 1 5.094-5.083 5.094 5.094 0 0 1 -5.094 5.083zm0-8.177a3.089 3.089 0 1 0 3.094 3.094 3.1 3.1 0 0 0 -3.094-3.094z"/><path d="m97.506 128.026c-11.693 0-17.532-9.9-17.605-10.029a1 1 0 0 1 1.735-1c.342.595 8.6 14.487 25.779 6.658l.528-.244a9.89 9.89 0 0 0 5.764-8.844 9.758 9.758 0 0 0 -5.206-9.022c-4-2.154-6.126-6.061-6.138-11.3-.034-13.7 10.045-25.984 10.474-26.5a1 1 0 1 1 1.538 1.278c-.1.121-10.044 12.249-10.012 25.218.011 4.52 1.721 7.73 5.086 9.541a11.725 11.725 0 0 1 6.258 10.836 12.012 12.012 0 0 1 -6.912 10.6l-.549.254a25.8 25.8 0 0 1 -10.74 2.554z"/></svg>