<svg id="Layer_1" enable-background="new 0 0 512 512" height="512" viewBox="0 0 512 512" width="512" xmlns="http://www.w3.org/2000/svg"><path d="m459.406 197.193-192.8-192.8c-5.857-5.857-15.355-5.857-21.213 0l-192.8 192.8c-2.813 2.813-4.394 6.628-4.394 10.606v289.201c0 8.284 6.716 15 15 15h385.6c8.284 0 15-6.716 15-15v-289.2c.001-3.979-1.58-7.795-4.393-10.607zm-203.406-4.394c-9.447 0-17.133-7.686-17.133-17.133s7.686-17.134 17.133-17.134 17.133 7.687 17.133 17.134-7.686 17.133-17.133 17.133zm177.8 289.201h-141.587l70.794-70.794c2.813-2.813 4.394-6.628 4.394-10.606v-83.861c18.655-6.281 32.133-23.927 32.133-44.672 0-25.989-21.144-47.133-47.133-47.133s-47.133 21.144-47.133 47.133c0 20.745 13.478 38.391 32.133 44.672v77.648l-66.4 66.4v-11.987-228.462c18.655-6.281 32.133-23.926 32.133-44.671 0-25.989-21.144-47.134-47.133-47.134s-47.133 21.145-47.133 47.134c0 20.745 13.478 38.39 32.133 44.671v192.249l-66.4-66.399v-29.449c18.655-6.281 32.133-23.927 32.133-44.672 0-25.989-21.144-47.133-47.133-47.133s-47.133 21.144-47.133 47.133c0 20.745 13.478 38.391 32.133 44.672v35.661c0 3.979 1.581 7.794 4.394 10.606l92.005 92.006v26.988h-162.8v-267.988l177.8-177.8 177.8 177.8zm-98.534-209.934c0-9.447 7.686-17.133 17.133-17.133s17.133 7.686 17.133 17.133-7.685 17.134-17.132 17.134-17.134-7.687-17.134-17.134zm-175.666 17.134c-9.447 0-17.133-7.687-17.133-17.134s7.686-17.133 17.133-17.133 17.133 7.686 17.133 17.133-7.686 17.134-17.133 17.134z"/></svg>