<svg id="Layer_1" height="512" viewBox="0 0 150 150" width="512" xmlns="http://www.w3.org/2000/svg" data-name="Layer 1"><path d="m97.187 91.981h-42.335a10.187 10.187 0 0 1 -2.1-20.153 11.519 11.519 0 0 1 11.276-13.809 11.547 11.547 0 0 1 9.056 4.405 10.631 10.631 0 0 1 18.816 4.659 7.44 7.44 0 0 1 8.81 9.379 7.438 7.438 0 0 1 4.616 7.131 8.382 8.382 0 0 1 -8.139 8.388zm-33.159-31.962a9.524 9.524 0 0 0 -9.508 9.519 9.368 9.368 0 0 0 .428 2.814 1 1 0 0 1 -.862 1.3 8.185 8.185 0 0 0 .766 16.333h42.335a6.355 6.355 0 0 0 6.143-6.364v-.059a5.408 5.408 0 0 0 -3.488-5.279 1.071 1.071 0 0 1 -.122-.049 5.654 5.654 0 0 0 -.613-.242 1 1 0 0 1 -.587-1.38 5.259 5.259 0 0 0 .506-2.291 5.432 5.432 0 0 0 -5.43-5.424 5.27 5.27 0 0 0 -2.138.444 1 1 0 0 1 -1.4-.859 8.631 8.631 0 0 0 -16.106-3.782 1 1 0 0 1 -.863.5 1 1 0 0 1 -.863-.5 9.527 9.527 0 0 0 -8.198-4.681z"/><path d="m107.913 140h-65.83a9.581 9.581 0 0 1 -9.57-9.57v-110.86a9.581 9.581 0 0 1 9.57-9.57h65.83a9.581 9.581 0 0 1 9.57 9.57v110.86a9.581 9.581 0 0 1 -9.57 9.57zm-65.83-128a7.579 7.579 0 0 0 -7.57 7.57v110.86a7.579 7.579 0 0 0 7.57 7.57h65.83a7.579 7.579 0 0 0 7.57-7.57v-110.86a7.579 7.579 0 0 0 -7.57-7.57z"/><path d="m116.487 27.1h-82.974a1 1 0 0 1 0-2h82.974a1 1 0 0 1 0 2z"/><path d="m116.487 124.9h-82.974a1 1 0 0 1 0-2h82.974a1 1 0 0 1 0 2z"/><path d="m81.165 20.083h-12.333a1 1 0 0 1 0-2h12.333a1 1 0 0 1 0 2z"/><path d="m81.165 131.917h-12.333a1 1 0 0 1 0-2h12.333a1 1 0 0 1 0 2z"/></svg>