<svg id="Layer_1" enable-background="new 0 0 512 512" height="512" viewBox="0 0 512 512" width="512" xmlns="http://www.w3.org/2000/svg"><g><path d="m384.533 86.233c22.736 0 41.233 18.497 41.233 41.233 0 8.284 6.716 15 15 15s15-6.716 15-15c0-39.278-31.955-71.233-71.233-71.233-8.284 0-15 6.716-15 15s6.716 15 15 15z"/><path d="m384.533 30c53.743 0 97.467 43.724 97.467 97.467 0 8.284 6.716 15 15 15s15-6.716 15-15c0-70.285-57.181-127.467-127.467-127.467-8.284 0-15 6.716-15 15s6.716 15 15 15z"/><circle cx="384.533" cy="127.467" r="15"/><path d="m497 385.6h-33.2v-49.267c0-8.284-6.716-15-15-15h-96.4c-8.284 0-15 6.716-15 15v49.267h-34.267v-209.933c0-70.285-57.181-127.467-127.467-127.467-69.555 0-127.466 56.154-127.466 127.467v64.267c0 8.284 6.716 15 15 15h64.267c8.284 0 15-6.716 15-15v-64.267c0-18.571 15.137-33.2 33.2-33.2 18.307 0 33.2 14.894 33.2 33.2v209.933h-34.267v-49.267c0-8.284-6.716-15-15-15h-96.4c-8.284 0-15 6.716-15 15v49.267h-33.2c-8.284 0-15 6.716-15 15v96.4c0 8.284 6.716 15 15 15h482c8.284 0 15-6.716 15-15v-96.4c0-8.285-6.716-15-15-15zm-129.6-34.267h66.4v34.267h-66.4zm-191.733-238.866c-34.445 0-63.2 27.863-63.2 63.2v49.267h-34.267v-49.267c0-54.613 44.345-97.467 97.466-97.467 53.744 0 97.467 43.724 97.467 97.467v209.933h-34.267v-209.933c.001-34.849-28.351-63.2-63.199-63.2zm-97.467 238.866h66.4v34.267h-66.4zm403.8 130.667h-452v-66.4h452z"/></g></svg>