<svg id="Layer_1" enable-background="new 0 0 512 512" height="512" viewBox="0 0 512 512" width="512" xmlns="http://www.w3.org/2000/svg"><g><path d="m272.066 0h-224.933c-25.989 0-47.133 21.145-47.133 47.134v401.666c0 20.745 13.478 38.391 32.133 44.672v3.528c0 8.284 6.716 15 15 15s15-6.716 15-15v-1.066h194.933v1.066c0 8.284 6.716 15 15 15s15-6.716 15-15v-3.528c18.655-6.281 32.134-23.927 32.134-44.672v-401.666c0-25.989-21.144-47.134-47.134-47.134zm17.134 448.8c0 9.447-7.687 17.134-17.134 17.134h-224.933c-9.447 0-17.133-7.687-17.133-17.134v-242.067h34.267v97.467c0 8.284 6.716 15 15 15s15-6.716 15-15v-97.467h194.933zm0-272.067h-194.933v-65.333c0-8.284-6.716-15-15-15s-15 6.716-15 15v65.333h-34.267v-129.6c0-9.446 7.686-17.133 17.133-17.133h224.933c9.447 0 17.134 7.687 17.134 17.134z"/><path d="m384.533 56.233c-8.284 0-15 6.716-15 15s6.716 15 15 15c22.736 0 41.233 18.497 41.233 41.233 0 8.284 6.716 15 15 15s15-6.716 15-15c.001-39.278-31.954-71.233-71.233-71.233z"/><path d="m384.533 0c-8.284 0-15 6.716-15 15s6.716 15 15 15c53.743 0 97.467 43.724 97.467 97.467 0 8.284 6.716 15 15 15s15-6.716 15-15c0-70.285-57.182-127.467-127.467-127.467z"/><circle cx="384.533" cy="127.467" r="15"/></g></svg>