<svg id="Layer_1" height="512" viewBox="0 0 150 150" width="512" xmlns="http://www.w3.org/2000/svg" data-name="Layer 1"><path d="m97.187 84.981h-42.335a10.187 10.187 0 0 1 -2.1-20.153 11.519 11.519 0 0 1 11.275-13.809 11.549 11.549 0 0 1 9.057 4.405 10.631 10.631 0 0 1 18.816 4.659 7.44 7.44 0 0 1 8.81 9.379 7.438 7.438 0 0 1 4.616 7.132 8.382 8.382 0 0 1 -8.139 8.387zm-33.16-31.962a9.524 9.524 0 0 0 -9.507 9.519 9.319 9.319 0 0 0 .429 2.814 1 1 0 0 1 -.863 1.3 8.185 8.185 0 0 0 .766 16.333h42.335a6.356 6.356 0 0 0 6.143-6.362v-.061a5.439 5.439 0 0 0 -3.482-5.282.828.828 0 0 1 -.128-.05 5.67 5.67 0 0 0 -.614-.242 1 1 0 0 1 -.585-1.38 5.272 5.272 0 0 0 .5-2.291 5.432 5.432 0 0 0 -5.421-5.428 5.271 5.271 0 0 0 -2.139.444 1 1 0 0 1 -1.4-.859 8.632 8.632 0 0 0 -16.109-3.774 1 1 0 0 1 -.863.5 1 1 0 0 1 -.863-.494 9.528 9.528 0 0 0 -8.199-4.687z"/><path d="m123.739 123.5h-97.478a16.316 16.316 0 0 1 -16.261-16.333 1 1 0 0 1 1-1h128a1 1 0 0 1 1 1 16.316 16.316 0 0 1 -16.261 16.333zm-111.7-15.333a14.311 14.311 0 0 0 14.222 13.333h97.478a14.311 14.311 0 0 0 14.227-13.333z"/><path d="m127.625 108.17h-105.25a1 1 0 0 1 -1-1v-74.9a5.778 5.778 0 0 1 5.772-5.77h95.706a5.778 5.778 0 0 1 5.772 5.772v74.9a1 1 0 0 1 -1 .998zm-104.25-2h103.25v-73.9a3.776 3.776 0 0 0 -3.772-3.772h-95.706a3.776 3.776 0 0 0 -3.772 3.772z"/><path d="m120.042 100.75h-90.084a1 1 0 0 1 -1-1v-64.83a1 1 0 0 1 1-1h90.084a1 1 0 0 1 1 1v64.83a1 1 0 0 1 -1 1zm-89.084-2h88.084v-62.83h-88.084z"/><path d="m89.171 123.5a1 1 0 0 1 -.9-.557l-3.016-6.11h-20.512l-3.016 6.11a1 1 0 0 1 -1.793-.886l3.291-6.667a1 1 0 0 1 .9-.557h21.754a1 1 0 0 1 .9.557l3.291 6.667a1 1 0 0 1 -.454 1.339.985.985 0 0 1 -.445.104z"/></svg>