<svg id="Layer_1" enable-background="new 0 0 512 512" height="512" viewBox="0 0 512 512" width="512" xmlns="http://www.w3.org/2000/svg"><g><path d="m320.267 48.2h-305.267c-8.284 0-15 6.716-15 15v433.8c0 8.284 6.716 15 15 15h305.267c8.284 0 15-6.716 15-15v-433.8c0-8.284-6.716-15-15-15zm-15 433.8h-275.267v-403.8h275.267z"/><path d="m111.4 399.533h112.466c8.284 0 15-6.716 15-15v-208.866c0-8.284-6.716-15-15-15h-112.466c-8.284 0-15 6.716-15 15v208.866c0 8.284 6.716 15 15 15zm15-208.866h82.466v74.433h-82.466zm0 104.433h82.466v74.434h-82.466z"/><path d="m384.533 56.233c-8.284 0-15 6.716-15 15s6.716 15 15 15c22.736 0 41.233 18.497 41.233 41.233 0 8.284 6.716 15 15 15s15-6.716 15-15c.001-39.278-31.954-71.233-71.233-71.233z"/><path d="m384.533 0c-8.284 0-15 6.716-15 15s6.716 15 15 15c53.743 0 97.467 43.724 97.467 97.467 0 8.284 6.716 15 15 15s15-6.716 15-15c0-70.285-57.182-127.467-127.467-127.467z"/><circle cx="384.533" cy="127.467" r="15"/><circle cx="167.633" cy="119.433" r="15"/><circle cx="167.633" cy="440.767" r="15"/></g></svg>