<svg id="_x31__px" height="512" viewBox="0 0 24 24" width="512" xmlns="http://www.w3.org/2000/svg"><path d="m23.5 24h-11c-.276 0-.5-.224-.5-.5s.224-.5.5-.5h11c.276 0 .5.224.5.5s-.224.5-.5.5z"/><path d="m23 23.5h-1v-8.5h-2v8.5h-1v-9c0-.276.224-.5.5-.5h3c.276 0 .5.224.5.5z"/><path d="m17 23.5h-1v-4.5h-2v4.5h-1v-5c0-.276.224-.5.5-.5h3c.276 0 .5.224.5.5z"/><path d="m9.5 24h-7c-1.378 0-2.5-1.122-2.5-2.5v-9c0-.827.673-1.5 1.5-1.5.276 0 .5-.224.5-.5v-2c0-.276-.224-.5-.5-.5-.827 0-1.5-.673-1.5-1.5v-4c0-1.378 1.122-2.5 2.5-2.5h10.171c.667 0 1.295.26 1.768.732l3.829 3.828c.472.473.732 1.101.732 1.769v4.171c0 .276-.224.5-.5.5s-.5-.224-.5-.5v-4.171c0-.401-.156-.777-.439-1.061l-3.829-3.828c-.279-.28-.666-.44-1.061-.44h-10.171c-.827 0-1.5.673-1.5 1.5v4c0 .276.224.5.5.5.827 0 1.5.673 1.5 1.5v2c0 .827-.673 1.5-1.5 1.5-.276 0-.5.224-.5.5v9c0 .827.673 1.5 1.5 1.5h7c.276 0 .5.224.5.5s-.224.5-.5.5z"/><path d="m4.5 5c-.276 0-.5-.224-.5-.5v-4c0-.276.224-.5.5-.5s.5.224.5.5v4c0 .276-.224.5-.5.5z"/><path d="m8.5 5c-.276 0-.5-.224-.5-.5v-4c0-.276.224-.5.5-.5s.5.224.5.5v4c0 .276-.224.5-.5.5z"/><path d="m12.5 5c-.276 0-.5-.224-.5-.5v-4c0-.276.224-.5.5-.5s.5.224.5.5v4c0 .276-.224.5-.5.5z"/><path d="m10.5 21h-6c-.827 0-1.5-.673-1.5-1.5v-5c0-.827.673-1.5 1.5-1.5h11c.276 0 .5.224.5.5s-.224.5-.5.5h-11c-.276 0-.5.224-.5.5v5c0 .276.224.5.5.5h6c.276 0 .5.224.5.5s-.224.5-.5.5z"/></svg>