<svg id="Layer_1" height="512" viewBox="0 0 150 150" width="512" xmlns="http://www.w3.org/2000/svg" data-name="Layer 1"><path d="m134.55 114.877h-119.1a5.73 5.73 0 0 1 -5.45-5.962v-92.453a5.73 5.73 0 0 1 5.45-5.962h119.1a5.73 5.73 0 0 1 5.45 5.962v92.453a5.73 5.73 0 0 1 -5.45 5.962zm-119.1-102.377a3.737 3.737 0 0 0 -3.45 3.962v92.453a3.737 3.737 0 0 0 3.45 3.962h119.1a3.737 3.737 0 0 0 3.45-3.962v-92.453a3.737 3.737 0 0 0 -3.45-3.962z"/><path d="m131.83 88.908h-113.66a1 1 0 0 1 -1-1v-69.408a1 1 0 0 1 1-1h113.66a1 1 0 0 1 1 1v69.408a1 1 0 0 1 -1 1zm-112.66-2h111.66v-67.408h-111.66z"/><path d="m139 96.427h-128a1 1 0 0 1 0-2h128a1 1 0 0 1 0 2z"/><path d="m100.5 139.5h-51.42a1 1 0 0 1 -.782-1.623l11.407-14.321.005-9.675a1 1 0 0 1 1-1h28.17a1 1 0 0 1 1 1l.012 9.583 11.393 14.417a1 1 0 0 1 -.785 1.62zm-49.345-2h47.28l-10.328-13.068a1.007 1.007 0 0 1 -.215-.619l-.011-8.932h-26.172v9.025a1 1 0 0 1 -.218.623z"/><path d="m75 109.536a4.56 4.56 0 1 1 4.544-4.556 4.555 4.555 0 0 1 -4.544 4.556zm0-7.12a2.56 2.56 0 1 0 2.544 2.564 2.557 2.557 0 0 0 -2.544-2.564z"/><path d="m84.975 64.069a20.668 20.668 0 1 1 14.625-6.046 20.614 20.614 0 0 1 -14.625 6.046zm0-39.336a18.669 18.669 0 1 0 13.207 5.461 18.614 18.614 0 0 0 -13.207-5.461z"/><path d="m84.975 58.31a14.893 14.893 0 1 1 10.546-4.363 14.81 14.81 0 0 1 -10.546 4.363zm0-27.816a12.908 12.908 0 0 0 -9.132 22.04 12.914 12.914 0 1 0 9.132-22.04z"/><path d="m69.6 64.221a1 1 0 0 1 -.707-.293l-4.449-4.449a1 1 0 0 1 0-1.414l3.827-3.827a1 1 0 0 1 1.414 1.414l-3.12 3.12 3.035 3.035 3.12-3.12a1 1 0 1 1 1.418 1.413l-3.827 3.827a1 1 0 0 1 -.711.294z"/><path d="m53.711 83.686a2.619 2.619 0 0 1 -1.863-.772l-6.386-6.386a2.638 2.638 0 0 1 0-3.726l15.705-15.702a2.7 2.7 0 0 1 3.727 0l6.385 6.385a2.635 2.635 0 0 1 0 3.727l-15.7 15.7a2.619 2.619 0 0 1 -1.868.774zm9.32-25.361a.63.63 0 0 0 -.449.186l-15.706 15.7a.637.637 0 0 0 0 .9l6.386 6.389a.651.651 0 0 0 .9 0l15.7-15.7a.635.635 0 0 0 0-.9l-6.382-6.389a.632.632 0 0 0 -.449-.186z"/></svg>