<svg id="_x31__px" height="512" viewBox="0 0 24 24" width="512" xmlns="http://www.w3.org/2000/svg"><path d="m19.5 24c-.076 0-.153-.018-.224-.053-.169-.085-.276-.258-.276-.447v-4.484l-2.175 1.864c-.208.181-.523.157-.705-.054-.18-.209-.155-.525.055-.705l2.825-2.422v-.397l-2.825-2.422c-.21-.18-.234-.495-.055-.705.182-.21.497-.233.705-.054l2.175 1.863v-4.484c0-.189.107-.362.276-.447s.372-.067.523.047l4 3c.121.091.195.232.2.384.005.151-.06.297-.175.396l-3.055 2.62 3.057 2.621c.115.099.18.244.175.396s-.079.293-.2.384l-4 3c-.089.065-.195.099-.301.099zm.5-5.841v4.341l2.701-2.026zm0-1.318 2.701-2.315-2.701-2.026z"/><path d="m14.499 24h-11.999c-1.379 0-2.5-1.122-2.5-2.5v-9c0-.827.673-1.5 1.5-1.5.275 0 .5-.224.5-.5v-2c0-.276-.225-.5-.5-.5-.827 0-1.5-.673-1.5-1.5v-4c0-1.378 1.121-2.5 2.5-2.5h10.171c.668 0 1.295.26 1.768.732l3.829 3.828c.472.473.732 1.101.732 1.769v2.171c0 .276-.224.5-.5.5s-.5-.224-.5-.5v-2.171c0-.401-.156-.777-.439-1.061l-3.829-3.828c-.284-.284-.661-.44-1.061-.44h-10.171c-.827 0-1.5.673-1.5 1.5v4c0 .276.225.5.5.5.827 0 1.5.673 1.5 1.5v2c0 .827-.673 1.5-1.5 1.5-.275 0-.5.224-.5.5v9c0 .827.673 1.5 1.5 1.5h11.999c.276 0 .5.224.5.5s-.224.5-.5.5z"/><path d="m4.5 5c-.276 0-.5-.224-.5-.5v-4c0-.276.224-.5.5-.5s.5.224.5.5v4c0 .276-.224.5-.5.5z"/><path d="m8.5 5c-.276 0-.5-.224-.5-.5v-4c0-.276.224-.5.5-.5s.5.224.5.5v4c0 .276-.224.5-.5.5z"/><path d="m12.5 5c-.276 0-.5-.224-.5-.5v-4c0-.276.224-.5.5-.5s.5.224.5.5v4c0 .276-.224.5-.5.5z"/><path d="m13.5 21h-9c-.827 0-1.5-.673-1.5-1.5v-5c0-.827.673-1.5 1.5-1.5h9c.276 0 .5.224.5.5s-.224.5-.5.5h-9c-.275 0-.5.224-.5.5v5c0 .276.225.5.5.5h9c.276 0 .5.224.5.5s-.224.5-.5.5z"/></svg>