<svg id="Layer_1" enable-background="new 0 0 512 512" height="512" viewBox="0 0 512 512" width="512" xmlns="http://www.w3.org/2000/svg"><g><path d="m384.533 56.233c-8.284 0-15 6.716-15 15s6.716 15 15 15c22.736 0 41.233 18.497 41.233 41.233 0 8.284 6.716 15 15 15s15-6.716 15-15c.001-39.278-31.954-71.233-71.233-71.233z"/><path d="m384.533 0c-8.284 0-15 6.716-15 15s6.716 15 15 15c53.743 0 97.467 43.724 97.467 97.467 0 8.284 6.716 15 15 15s15-6.716 15-15c0-70.285-57.182-127.467-127.467-127.467z"/><circle cx="384.533" cy="127.467" r="15"/><path d="m368.466 208.866h-111.049l29.474-191.584c.999-6.494-2.344-12.882-8.248-15.762-5.906-2.882-12.998-1.583-17.5 3.201l-257.065 273.133c-4.102 4.357-5.221 10.736-2.847 16.229 2.373 5.494 7.785 9.051 13.769 9.051h111.048l-29.473 191.584c-.999 6.494 2.344 12.882 8.248 15.763 5.906 2.882 12.998 1.583 17.5-3.201l257.065-273.133c4.102-4.357 5.221-10.736 2.847-16.229-2.373-5.495-7.785-9.052-13.769-9.052zm-234.899 242.694 24.791-161.145c1.398-9.086-5.632-17.281-14.826-17.281h-93.815l200.181-212.694-24.791 161.145c-1.398 9.086 5.632 17.281 14.826 17.281h93.816z"/></g></svg>