<svg id="Layer_1" height="512" viewBox="0 0 150 150" width="512" xmlns="http://www.w3.org/2000/svg" data-name="Layer 1"><path d="m125.44 140h-100.881a7.693 7.693 0 0 1 -7.685-7.685v-114.63a7.693 7.693 0 0 1 7.685-7.685h87.608a1 1 0 0 1 .707.293l19.959 19.959a1 1 0 0 1 .293.707v101.356a7.693 7.693 0 0 1 -7.686 7.685zm-100.881-128a5.691 5.691 0 0 0 -5.685 5.685v114.63a5.691 5.691 0 0 0 5.685 5.685h100.881a5.692 5.692 0 0 0 5.686-5.685v-100.942l-19.373-19.373z"/><path d="m101.647 50.051h-65.707a1 1 0 0 1 -1-1v-38.051a1 1 0 0 1 1-1h65.707a1 1 0 0 1 1 1v38.051a1 1 0 0 1 -1 1zm-64.707-2h63.707v-36.051h-63.707z"/><path d="m110.449 140h-70.899a1 1 0 0 1 -1-1v-40.436a1 1 0 0 1 1-1h70.9a1 1 0 0 1 1 1v40.436a1 1 0 0 1 -1.001 1zm-69.9-2h68.9v-38.436h-68.899z"/><path d="m86.6 40.655a5.231 5.231 0 0 1 -5.225-5.225v-10.8a5.225 5.225 0 0 1 10.45 0v10.8a5.231 5.231 0 0 1 -5.225 5.225zm0-19.255a3.228 3.228 0 0 0 -3.225 3.225v10.805a3.225 3.225 0 0 0 6.45 0v-10.8a3.229 3.229 0 0 0 -3.225-3.23z"/><path d="m64.568 40.655a5.23 5.23 0 0 1 -5.224-5.225v-10.8a5.225 5.225 0 1 1 10.45 0v10.8a5.231 5.231 0 0 1 -5.226 5.225zm0-19.255a3.228 3.228 0 0 0 -3.224 3.225v10.805a3.225 3.225 0 1 0 6.45 0v-10.8a3.229 3.229 0 0 0 -3.226-3.23z"/><path d="m100.547 112.461h-51.094a1 1 0 1 1 0-2h51.094a1 1 0 0 1 0 2z"/><path d="m100.547 127.1h-51.094a1 1 0 1 1 0-2h51.094a1 1 0 0 1 0 2z"/></svg>