<svg id="Layer_1" height="512" viewBox="0 0 150 150" width="512" xmlns="http://www.w3.org/2000/svg" data-name="Layer 1"><path d="m104.04 140h-58.08a6.633 6.633 0 0 1 -6.625-6.625v-116.75a6.633 6.633 0 0 1 6.625-6.625h58.08a6.633 6.633 0 0 1 6.625 6.625v116.75a6.633 6.633 0 0 1 -6.625 6.625zm-58.08-128a4.631 4.631 0 0 0 -4.625 4.625v116.75a4.631 4.631 0 0 0 4.625 4.625h58.08a4.631 4.631 0 0 0 4.625-4.625v-116.75a4.631 4.631 0 0 0 -4.625-4.625z"/><path d="m100.83 42.58h-51.66a1 1 0 0 1 -1-1v-10.66a1 1 0 0 1 1-1h51.66a1 1 0 0 1 1 1v10.66a1 1 0 0 1 -1 1zm-50.66-2h49.66v-8.66h-49.66z"/><path d="m100.83 63.308h-51.66a1 1 0 0 1 -1-1v-10.661a1 1 0 0 1 1-1h51.66a1 1 0 0 1 1 1v10.661a1 1 0 0 1 -1 1zm-50.66-2h49.66v-8.661h-49.66z"/><path d="m75 82.83h-25.83a1 1 0 0 1 -1-1v-8.25a1 1 0 0 1 1-1h25.83a1 1 0 0 1 1 1v8.25a1 1 0 0 1 -1 1zm-24.83-2h23.83v-6.25h-23.83z"/><path d="m75 108a8 8 0 1 1 8-8 8.009 8.009 0 0 1 -8 8zm0-14a6 6 0 1 0 6 6 6.006 6.006 0 0 0 -6-6z"/><path d="m98.83 129.75h-6.17a1 1 0 0 1 0-2h6.17a1 1 0 0 1 0 2z"/></svg>