<svg id="Layer_1" height="512" viewBox="0 0 150 150" width="512" xmlns="http://www.w3.org/2000/svg" data-name="Layer 1"><path d="m110.958 43.3a1 1 0 0 1 -1-1v-30.3h-69.916v30.3a1 1 0 0 1 -2 0v-31.3a1 1 0 0 1 1-1h71.916a1 1 0 0 1 1 1v31.3a1 1 0 0 1 -1 1z"/><path d="m110.958 140h-71.916a1 1 0 0 1 -1-1v-62.828a1 1 0 0 1 2 0v61.828h69.916v-61.828a1 1 0 0 1 2 0v62.828a1 1 0 0 1 -1 1z"/><path d="m138.8 100.5h-27.84a1 1 0 1 1 0-2h26.84v-44.29a10.911 10.911 0 0 0 -10.9-10.9h-103.8a10.911 10.911 0 0 0 -10.9 10.9v44.29h26.841a1 1 0 0 1 0 2h-27.841a1 1 0 0 1 -1-1v-45.29a12.915 12.915 0 0 1 12.9-12.9h103.8a12.915 12.915 0 0 1 12.9 12.9v45.29a1 1 0 0 1 -1 1z"/><path d="m121.371 100.5a1 1 0 0 1 -1-1v-18.042a4.291 4.291 0 0 0 -4.286-4.286h-82.17a4.291 4.291 0 0 0 -4.286 4.286v18.042a1 1 0 0 1 -2 0v-18.042a6.293 6.293 0 0 1 6.286-6.286h82.17a6.293 6.293 0 0 1 6.286 6.286v18.042a1 1 0 0 1 -1 1z"/><path d="m124.128 61.075a5.417 5.417 0 1 1 5.422-5.411 5.418 5.418 0 0 1 -5.422 5.411zm0-8.833a3.417 3.417 0 1 0 3.422 3.422 3.421 3.421 0 0 0 -3.422-3.422z"/><path d="m106.537 61.075a5.417 5.417 0 1 1 5.421-5.411 5.418 5.418 0 0 1 -5.421 5.411zm0-8.833a3.417 3.417 0 1 0 3.421 3.422 3.42 3.42 0 0 0 -3.421-3.422z"/><path d="m100.581 107.772h-51.161a1 1 0 0 1 0-2h51.161a1 1 0 0 1 0 2z"/><path d="m100.581 91.117h-51.161a1 1 0 0 1 0-2h51.161a1 1 0 0 1 0 2z"/><path d="m100.581 126.056h-51.161a1 1 0 0 1 0-2h51.161a1 1 0 0 1 0 2z"/></svg>