<svg id="Layer_1" height="512" viewBox="0 0 150 150" width="512" xmlns="http://www.w3.org/2000/svg" data-name="Layer 1"><path d="m109.143 140h-68.286a1 1 0 0 1 -1-1v-114.454a1 1 0 0 1 1-1h68.286a1 1 0 0 1 1 1v114.454a1 1 0 0 1 -1 1zm-67.286-2h66.286v-112.454h-66.286z"/><path d="m97.163 25.546h-44.326a1 1 0 0 1 -1-1v-5.82a8.793 8.793 0 0 1 8.839-8.726h28.649a8.792 8.792 0 0 1 8.838 8.726v5.82a1 1 0 0 1 -1 1zm-43.326-2h42.326v-4.82a6.79 6.79 0 0 0 -6.838-6.726h-28.649a6.791 6.791 0 0 0 -6.839 6.726z"/><path d="m102.093 133.981h-54.186a1 1 0 0 1 -1-1v-14.462a1 1 0 0 1 1-1h54.186a1 1 0 0 1 1 1v14.462a1 1 0 0 1 -1 1zm-53.186-2h52.186v-12.462h-52.186z"/><path d="m102.093 110.892h-54.186a1 1 0 0 1 -1-1v-14.463a1 1 0 0 1 1-1h54.186a1 1 0 0 1 1 1v14.463a1 1 0 0 1 -1 1zm-53.186-2h52.186v-12.463h-52.186z"/><path d="m102.093 87.8h-54.186a1 1 0 0 1 -1-1v-14.461a1 1 0 0 1 1-1h54.186a1 1 0 0 1 1 1v14.461a1 1 0 0 1 -1 1zm-53.186-2h52.186v-12.461h-52.186z"/><path d="m102.093 64.712h-54.186a1 1 0 0 1 -1-1v-14.462a1 1 0 0 1 1-1h54.186a1 1 0 0 1 1 1v14.462a1 1 0 0 1 -1 1zm-53.186-2h52.186v-12.462h-52.186z"/></svg>