<svg id="_x31__px" height="512" viewBox="0 0 24 24" width="512" xmlns="http://www.w3.org/2000/svg"><path d="m9.5 24h-7c-1.378 0-2.5-1.122-2.5-2.5v-9c0-.827.673-1.5 1.5-1.5.276 0 .5-.224.5-.5v-2c0-.276-.224-.5-.5-.5-.827 0-1.5-.673-1.5-1.5v-4c0-1.378 1.122-2.5 2.5-2.5h10.171c.667 0 1.295.26 1.768.732l3.829 3.828c.472.473.732 1.101.732 1.769v5.171c0 .276-.224.5-.5.5s-.5-.224-.5-.5v-5.171c0-.401-.156-.777-.439-1.061l-3.829-3.828c-.279-.28-.666-.44-1.061-.44h-10.171c-.827 0-1.5.673-1.5 1.5v4c0 .276.224.5.5.5.827 0 1.5.673 1.5 1.5v2c0 .827-.673 1.5-1.5 1.5-.276 0-.5.224-.5.5v9c0 .827.673 1.5 1.5 1.5h7c.276 0 .5.224.5.5s-.224.5-.5.5z"/><path d="m4.5 5c-.276 0-.5-.224-.5-.5v-4c0-.276.224-.5.5-.5s.5.224.5.5v4c0 .276-.224.5-.5.5z"/><path d="m8.5 5c-.276 0-.5-.224-.5-.5v-4c0-.276.224-.5.5-.5s.5.224.5.5v4c0 .276-.224.5-.5.5z"/><path d="m12.5 5c-.276 0-.5-.224-.5-.5v-4c0-.276.224-.5.5-.5s.5.224.5.5v4c0 .276-.224.5-.5.5z"/><path d="m9.5 21h-5c-.827 0-1.5-.673-1.5-1.5v-5c0-.827.673-1.5 1.5-1.5h8c.276 0 .5.224.5.5s-.224.5-.5.5h-8c-.276 0-.5.224-.5.5v5c0 .276.224.5.5.5h5c.276 0 .5.224.5.5s-.224.5-.5.5z"/><path d="m18 22c-1.378 0-2.5-1.122-2.5-2.5s1.122-2.5 2.5-2.5 2.5 1.122 2.5 2.5-1.122 2.5-2.5 2.5zm0-4c-.827 0-1.5.673-1.5 1.5s.673 1.5 1.5 1.5 1.5-.673 1.5-1.5-.673-1.5-1.5-1.5z"/><path d="m22.5 24h-9c-.827 0-1.5-.673-1.5-1.5v-5c0-.827.673-1.5 1.5-1.5h1c.157 0 .306-.075.4-.2l.9-1.201c.281-.375.73-.6 1.2-.6h2c.47 0 .918.224 1.2.6l.9 1.2c.094.125.243.2.4.2h1c.827 0 1.5.673 1.5 1.5v5c0 .828-.673 1.501-1.5 1.501zm-9-7c-.276 0-.5.224-.5.5v5c0 .276.224.5.5.5h9c.276 0 .5-.224.5-.5v-5c0-.276-.224-.5-.5-.5h-1c-.47 0-.918-.224-1.2-.6l-.9-1.2c-.094-.125-.243-.2-.4-.2h-2c-.157 0-.306.075-.4.2l-.9 1.2c-.281.375-.73.6-1.2.6z"/></svg>