<svg id="Layer_1" height="512" viewBox="0 0 150 150" width="512" xmlns="http://www.w3.org/2000/svg" data-name="Layer 1"><path d="m134.742 48.281h-119.484a5.263 5.263 0 0 1 -5.258-5.257v-27.676a5.264 5.264 0 0 1 5.258-5.258h119.484a5.264 5.264 0 0 1 5.258 5.258v27.676a5.263 5.263 0 0 1 -5.258 5.257zm-119.484-36.191a3.262 3.262 0 0 0 -3.258 3.258v27.676a3.261 3.261 0 0 0 3.258 3.257h119.484a3.261 3.261 0 0 0 3.258-3.257v-27.676a3.262 3.262 0 0 0 -3.258-3.258z"/><path d="m22.976 39.234a1 1 0 0 1 -1-1v-19.248a1 1 0 0 1 2 0v19.248a1 1 0 0 1 -1 1z"/><path d="m36.459 39.234a1 1 0 0 1 -1-1v-19.248a1 1 0 0 1 2 0v19.248a1 1 0 0 1 -1 1z"/><path d="m49.941 39.234a1 1 0 0 1 -1-1v-19.248a1 1 0 0 1 2 0v19.248a1 1 0 0 1 -1 1z"/><path d="m122.689 34.922a6.316 6.316 0 1 1 6.311-6.312 6.323 6.323 0 0 1 -6.311 6.312zm0-10.632a4.316 4.316 0 1 0 4.311 4.32 4.326 4.326 0 0 0 -4.311-4.32z"/><path d="m97.487 34.922a6.316 6.316 0 1 1 6.313-6.312 6.323 6.323 0 0 1 -6.313 6.312zm0-10.632a4.316 4.316 0 1 0 4.312 4.32 4.325 4.325 0 0 0 -4.312-4.32z"/><path d="m134.742 98.84h-119.484a5.264 5.264 0 0 1 -5.258-5.258v-27.676a5.263 5.263 0 0 1 5.258-5.257h119.484a5.263 5.263 0 0 1 5.258 5.257v27.676a5.264 5.264 0 0 1 -5.258 5.258zm-119.484-36.191a3.261 3.261 0 0 0 -3.258 3.257v27.676a3.262 3.262 0 0 0 3.258 3.258h119.484a3.262 3.262 0 0 0 3.258-3.258v-27.676a3.261 3.261 0 0 0 -3.258-3.257z"/><path d="m22.976 89.792a1 1 0 0 1 -1-1v-19.247a1 1 0 0 1 2 0v19.247a1 1 0 0 1 -1 1z"/><path d="m36.459 89.792a1 1 0 0 1 -1-1v-19.247a1 1 0 0 1 2 0v19.247a1 1 0 0 1 -1 1z"/><path d="m49.941 89.792a1 1 0 0 1 -1-1v-19.247a1 1 0 0 1 2 0v19.247a1 1 0 0 1 -1 1z"/><path d="m122.689 85.48a6.316 6.316 0 1 1 6.311-6.312 6.323 6.323 0 0 1 -6.311 6.312zm0-10.632a4.316 4.316 0 1 0 4.311 4.32 4.326 4.326 0 0 0 -4.311-4.32z"/><path d="m97.487 85.48a6.316 6.316 0 1 1 6.312-6.312 6.323 6.323 0 0 1 -6.312 6.312zm0-10.632a4.316 4.316 0 1 0 4.312 4.32 4.325 4.325 0 0 0 -4.312-4.32z"/><path d="m113.686 62.65a1 1 0 0 1 -1-1v-14.37a1 1 0 0 1 2 0v14.37a1 1 0 0 1 -1 1z"/><path d="m36.315 62.65a1 1 0 0 1 -1-1v-14.37a1 1 0 0 1 2 0v14.37a1 1 0 0 1 -1 1z"/><path d="m131.751 139.91a1 1 0 0 1 -1-1v-14.49h-47.08a1 1 0 0 1 0-2h48.08a1 1 0 0 1 1 1v15.49a1 1 0 0 1 -1 1z"/><path d="m18.251 139.91a1 1 0 0 1 -1-1v-15.49a1 1 0 0 1 1-1h48.079a1 1 0 0 1 0 2h-47.079v14.49a1 1 0 0 1 -1 1z"/><path d="m75 115.75a1 1 0 0 1 -1-1v-16.91a1 1 0 0 1 2 0v16.91a1 1 0 0 1 -1 1z"/><path d="m75 133.09a9.67 9.67 0 1 1 9.671-9.67 9.681 9.681 0 0 1 -9.671 9.67zm0-17.34a7.67 7.67 0 1 0 7.671 7.67 7.679 7.679 0 0 0 -7.671-7.67z"/></svg>