<svg id="Layer_1" height="512" viewBox="0 0 150 150" width="512" xmlns="http://www.w3.org/2000/svg" data-name="Layer 1"><path d="m133.189 108.023h-116.379a6.818 6.818 0 0 1 -6.81-6.81v-44.513a6.818 6.818 0 0 1 6.81-6.81h54.74a1 1 0 0 1 0 2h-54.74a4.815 4.815 0 0 0 -4.81 4.81v44.51a4.815 4.815 0 0 0 4.81 4.81h116.379a4.816 4.816 0 0 0 4.811-4.81v-44.51a4.816 4.816 0 0 0 -4.811-4.81h-11.376a1 1 0 0 1 0-2h11.376a6.819 6.819 0 0 1 6.811 6.81v44.51a6.819 6.819 0 0 1 -6.811 6.813z"/><path d="m36.521 114.317h-12.731a1 1 0 0 1 -1-1v-6.29a1 1 0 0 1 1-1h12.731a1 1 0 0 1 1 1v6.29a1 1 0 0 1 -1 1zm-11.731-2h10.731v-4.29h-10.731z"/><path d="m126.005 114.317h-12.731a1 1 0 0 1 -1-1v-6.29a1 1 0 0 1 1-1h12.731a1 1 0 0 1 1 1v6.29a1 1 0 0 1 -1 1zm-11.731-2h10.731v-4.29h-10.731z"/><path d="m96.682 96.329a30.323 30.323 0 1 1 30.323-30.323 30.358 30.358 0 0 1 -30.323 30.323zm0-58.646a28.323 28.323 0 1 0 28.323 28.323 28.355 28.355 0 0 0 -28.323-28.323z"/><path d="m96.682 90.4a24.4 24.4 0 1 1 24.4-24.4 24.426 24.426 0 0 1 -24.4 24.4zm0-46.795a22.4 22.4 0 1 0 22.4 22.4 22.423 22.423 0 0 0 -22.4-22.396z"/><path d="m96.682 77.414a11.408 11.408 0 1 1 11.408-11.408 11.421 11.421 0 0 1 -11.408 11.408zm0-20.816a9.408 9.408 0 1 0 9.408 9.408 9.419 9.419 0 0 0 -9.408-9.406z"/><path d="m47.553 69.9a3.57 3.57 0 0 1 -3.566-3.565v-15.442a1 1 0 0 1 1-1h5.131a1 1 0 0 1 1 1v15.437a3.569 3.569 0 0 1 -3.565 3.57zm-1.566-18v14.43a1.566 1.566 0 0 0 3.131 0v-14.437z"/><path d="m34.269 69.9a3.57 3.57 0 0 1 -3.569-3.57v-15.437a1 1 0 0 1 1-1h5.131a1 1 0 0 1 1 1v15.437a3.569 3.569 0 0 1 -3.562 3.57zm-1.566-18v14.43a1.566 1.566 0 0 0 3.131 0v-14.437z"/><path d="m20.984 69.9a3.569 3.569 0 0 1 -3.565-3.565v-15.442a1 1 0 0 1 1-1h5.13a1 1 0 0 1 1 1v15.437a3.569 3.569 0 0 1 -3.565 3.57zm-1.565-18v14.43a1.565 1.565 0 1 0 3.13 0v-14.437z"/><path d="m139 82.523h-17.437a1 1 0 0 1 0-2h16.437v-4.49h-13.415a1 1 0 0 1 0-2h14.415a1 1 0 0 1 1 1v6.49a1 1 0 0 1 -1 1z"/><path d="m71.8 82.523h-60.79a1 1 0 0 1 -1-1v-6.49a1 1 0 0 1 1-1h57.767a1 1 0 0 1 0 2h-56.767v4.49h59.79a1 1 0 1 1 0 2z"/></svg>