<svg id="_x31__px" height="512" viewBox="0 0 24 24" width="512" xmlns="http://www.w3.org/2000/svg"><path d="m20.152 24h-7.913c-1.786 0-3.239-1.436-3.239-3.2 0-1.641 1.258-2.998 2.871-3.179.496-2.091 2.416-3.621 4.629-3.621 1.741 0 3.349.949 4.173 2.44 1.888.246 3.327 1.845 3.327 3.76 0 2.095-1.726 3.8-3.848 3.8zm-3.652-9c-1.86 0-3.458 1.363-3.717 3.171-.035.246-.246.429-.495.429-1.283 0-2.288.987-2.288 2.2s1.005 2.2 2.239 2.2h7.913c1.571 0 2.848-1.256 2.848-2.8 0-1.482-1.175-2.707-2.674-2.789-.183-.01-.346-.119-.425-.285-.611-1.292-1.946-2.126-3.401-2.126z"/><path d="m6.499 24h-3.999c-1.379 0-2.5-1.122-2.5-2.5v-9c0-.827.673-1.5 1.5-1.5.275 0 .5-.224.5-.5v-2c0-.276-.225-.5-.5-.5-.827 0-1.5-.673-1.5-1.5v-4c0-1.378 1.121-2.5 2.5-2.5h10.171c.668 0 1.295.26 1.768.732l3.829 3.828c.472.473.732 1.101.732 1.769v5.171c0 .276-.224.5-.5.5s-.5-.224-.5-.5v-5.171c0-.401-.156-.777-.439-1.061l-3.829-3.828c-.284-.284-.661-.44-1.061-.44h-10.171c-.827 0-1.5.673-1.5 1.5v4c0 .276.225.5.5.5.827 0 1.5.673 1.5 1.5v2c0 .827-.673 1.5-1.5 1.5-.275 0-.5.224-.5.5v9c0 .827.673 1.5 1.5 1.5h3.999c.276 0 .5.224.5.5s-.224.5-.5.5z"/><path d="m4.5 5c-.276 0-.5-.224-.5-.5v-4c0-.276.224-.5.5-.5s.5.224.5.5v4c0 .276-.224.5-.5.5z"/><path d="m8.5 5c-.276 0-.5-.224-.5-.5v-4c0-.276.224-.5.5-.5s.5.224.5.5v4c0 .276-.224.5-.5.5z"/><path d="m12.5 5c-.276 0-.5-.224-.5-.5v-4c0-.276.224-.5.5-.5s.5.224.5.5v4c0 .276-.224.5-.5.5z"/><path d="m6.5 21h-2c-.827 0-1.5-.673-1.5-1.5v-5c0-.827.673-1.5 1.5-1.5h7c.276 0 .5.224.5.5s-.224.5-.5.5h-7c-.275 0-.5.224-.5.5v5c0 .276.225.5.5.5h2c.276 0 .5.224.5.5s-.224.5-.5.5z"/></svg>