<svg id="_x31__px" height="512" viewBox="0 0 24 24" width="512" xmlns="http://www.w3.org/2000/svg"><path d="m18 19.5c-2.229 0-6-.421-6-2 0-.276.224-.5.5-.5.271 0 .492.216.5.486.158.357 1.994 1.014 5 1.014 3.024 0 4.864-.665 5.003-1.021 0-.276.223-.49.499-.49.275 0 .498.234.498.51 0 1.58-3.771 2.001-6 2.001zm-5-2h.01z"/><path d="m18 15c-2.229 0-6-.421-6-2s3.771-2 6-2 6 .421 6 2-3.771 2-6 2zm0-3c-3.021 0-4.863.665-5.003 1.021.14.314 1.982.979 5.003.979 2.963 0 4.791-.639 4.993-1-.202-.361-2.03-1-4.993-1zm5.003 1.021h.01z"/><path d="m18 24c-2.229 0-6-.421-6-2v-9c0-.276.224-.5.5-.5s.5.224.5.5v9c.136.335 1.976 1 5 1s4.864-.665 5.003-1.021l-.003-8.979c0-.276.224-.5.5-.5s.5.224.5.5v9c0 1.579-3.771 2-6 2z"/><circle cx="14.5" cy="16.5" r=".5"/><circle cx="14.5" cy="21" r=".5"/><path d="m9.499 24h-6.999c-1.379 0-2.5-1.122-2.5-2.5v-9c0-.827.673-1.5 1.5-1.5.275 0 .5-.224.5-.5v-2c0-.276-.225-.5-.5-.5-.827 0-1.5-.673-1.5-1.5v-4c0-1.378 1.121-2.5 2.5-2.5h10.171c.668 0 1.295.26 1.768.732l3.829 3.828c.472.473.732 1.101.732 1.769v2.171c0 .276-.224.5-.5.5s-.5-.224-.5-.5v-2.171c0-.401-.156-.777-.439-1.061l-3.829-3.828c-.284-.284-.661-.44-1.061-.44h-10.171c-.827 0-1.5.673-1.5 1.5v4c0 .276.225.5.5.5.827 0 1.5.673 1.5 1.5v2c0 .827-.673 1.5-1.5 1.5-.275 0-.5.224-.5.5v9c0 .827.673 1.5 1.5 1.5h6.999c.276 0 .5.224.5.5s-.224.5-.5.5z"/><path d="m4.5 5c-.276 0-.5-.224-.5-.5v-4c0-.276.224-.5.5-.5s.5.224.5.5v4c0 .276-.224.5-.5.5z"/><path d="m8.5 5c-.276 0-.5-.224-.5-.5v-4c0-.276.224-.5.5-.5s.5.224.5.5v4c0 .276-.224.5-.5.5z"/><path d="m12.5 5c-.276 0-.5-.224-.5-.5v-4c0-.276.224-.5.5-.5s.5.224.5.5v4c0 .276-.224.5-.5.5z"/><path d="m9.5 21h-5c-.827 0-1.5-.673-1.5-1.5v-5c0-.827.673-1.5 1.5-1.5h5c.276 0 .5.224.5.5s-.224.5-.5.5h-5c-.275 0-.5.224-.5.5v5c0 .276.225.5.5.5h5c.276 0 .5.224.5.5s-.224.5-.5.5z"/></svg>