<svg id="Layer_1" height="512" viewBox="0 0 150 150" width="512" xmlns="http://www.w3.org/2000/svg" data-name="Layer 1"><path d="m133.81 111.458h-117.637a6.188 6.188 0 0 1 -6.181-6.181v-82.594a6.188 6.188 0 0 1 6.181-6.183h117.637a6.189 6.189 0 0 1 6.182 6.182v82.594a6.188 6.188 0 0 1 -6.182 6.182zm-117.637-92.958a4.186 4.186 0 0 0 -4.181 4.182v82.594a4.185 4.185 0 0 0 4.181 4.181h117.637a4.186 4.186 0 0 0 4.182-4.181v-82.593a4.187 4.187 0 0 0 -4.182-4.183z"/><path d="m100.992 133.5h-52a1 1 0 0 1 -.837-1.547l14.389-22.046a1 1 0 0 1 .837-.453h23.219a1 1 0 0 1 .837.453l14.388 22.046a1 1 0 0 1 -.837 1.547zm-50.154-2h48.307l-13.083-20.047h-22.14z"/><path d="m138.992 91.417h-128a1 1 0 0 1 0-2h128a1 1 0 0 1 0 2z"/><path d="m74.992 105.312a5 5 0 1 1 5-5 5.006 5.006 0 0 1 -5 5zm0-8a3 3 0 1 0 3 3 3 3 0 0 0 -3-3z"/><path d="m88.6 80.032h-.04a1 1 0 0 1 -.922-.724l-14.285-50.062-15.353 38.554a1 1 0 0 1 -1.862-.01l-10.511-27.229-9.5 18.96a1 1 0 0 1 -.894.552h-24.241a1 1 0 1 1 0-2h23.624l10.236-20.429a1 1 0 0 1 1.827.088l10.4 26.961 15.5-38.912a1 1 0 0 1 1.891.1l14.262 49.956 11.068-29.567a1.029 1.029 0 0 1 .938-.649 1 1 0 0 1 .936.653l8.3 22.435 8.6-10.277a1 1 0 0 1 .767-.359h19.676a1 1 0 0 1 0 2h-19.217l-9.4 11.242a1 1 0 0 1 -1.7-.3l-7.962-21.531-11.198 29.899a1 1 0 0 1 -.94.649z"/></svg>