<svg id="Layer_1" height="512" viewBox="0 0 150 150" width="512" xmlns="http://www.w3.org/2000/svg" data-name="Layer 1"><path d="m110.323 140h-70.646a8.581 8.581 0 0 1 -8.571-8.572v-112.856a8.581 8.581 0 0 1 8.571-8.572h70.646a8.581 8.581 0 0 1 8.571 8.572v112.856a8.581 8.581 0 0 1 -8.571 8.572zm-70.646-128a6.579 6.579 0 0 0 -6.571 6.572v112.856a6.579 6.579 0 0 0 6.571 6.572h70.646a6.579 6.579 0 0 0 6.571-6.572v-112.856a6.579 6.579 0 0 0 -6.571-6.572z"/><path d="m117.894 119.188h-85.788a1 1 0 0 1 0-2h85.788a1 1 0 0 1 0 2z"/><path d="m75 134.234a5.636 5.636 0 1 1 5.631-5.63 5.636 5.636 0 0 1 -5.631 5.63zm0-9.272a3.636 3.636 0 1 0 3.631 3.642 3.639 3.639 0 0 0 -3.631-3.642z"/><path d="m81.948 20.73h-13.895a1 1 0 0 1 0-2h13.895a1 1 0 0 1 0 2z"/><path d="m42.151 48.96a1 1 0 0 1 -.561-1.828l12.71-8.589a1 1 0 0 1 1.12 1.657l-12.71 8.589a1 1 0 0 1 -.559.171z"/><path d="m55.045 51.454a1 1 0 0 1 -.561-1.829l12.707-8.589a1 1 0 0 1 1.12 1.658l-12.711 8.588a1 1 0 0 1 -.555.172z"/><path d="m117.894 28.5h-85.788a1 1 0 0 1 0-2h85.788a1 1 0 0 1 0 2z"/></svg>