<svg id="Layer_1" height="512" viewBox="0 0 150 150" width="512" xmlns="http://www.w3.org/2000/svg" data-name="Layer 1"><path d="m75 140a65 65 0 1 1 65-65 65.073 65.073 0 0 1 -65 65zm0-128a63 63 0 1 0 63 63 63.072 63.072 0 0 0 -63-63z"/><path d="m75 125a50.057 50.057 0 0 1 -50-50 1 1 0 0 1 2 0 48.054 48.054 0 0 0 48 48 1 1 0 0 1 0 2z"/><path d="m124 76a1 1 0 0 1 -1-1 48.055 48.055 0 0 0 -48-48 1 1 0 0 1 0-2 50.057 50.057 0 0 1 50 50 1 1 0 0 1 -1 1z"/><path d="m75 112.417a37.46 37.46 0 0 1 -37.417-37.417 1 1 0 0 1 2 0 35.457 35.457 0 0 0 35.417 35.417 1 1 0 0 1 0 2z"/><path d="m111.417 76a1 1 0 0 1 -1-1 35.457 35.457 0 0 0 -35.417-35.417 1 1 0 0 1 0-2 37.46 37.46 0 0 1 37.417 37.417 1 1 0 0 1 -1 1z"/><path d="m75 91.068a16.068 16.068 0 1 1 16.068-16.068 16.086 16.086 0 0 1 -16.068 16.068zm0-30.136a14.068 14.068 0 1 0 14.068 14.068 14.084 14.084 0 0 0 -14.068-14.068z"/></svg>