<svg id="Layer_1" height="512" viewBox="0 0 150 150" width="512" xmlns="http://www.w3.org/2000/svg" data-name="Layer 1"><path d="m112.8 121.44h-101.8a1 1 0 0 1 -1-1v-90.88a1 1 0 0 1 1-1h29.012a1 1 0 0 1 .712.3l12.624 12.789h59.452a1 1 0 0 1 1 1v14.632a1 1 0 0 1 -2 0v-13.632h-58.87a1 1 0 0 1 -.712-.3l-12.624-12.789h-27.594v88.88h100.8a1 1 0 1 1 0 2z"/><path d="m112.8 121.44h-101.8a1 1 0 0 1 -.924-1.383l26.2-63.157a1 1 0 0 1 .924-.617h101.8a1 1 0 0 1 .924 1.383l-26.2 63.156a1 1 0 0 1 -.924.618zm-100.3-2h99.634l25.366-61.156h-99.632z"/><path d="m58.58 78.442h-29.743a1 1 0 0 1 0-2h29.743a1 1 0 0 1 0 2z"/><path d="m54.08 89.862h-29.743a1 1 0 0 1 0-2h29.743a1 1 0 1 1 0 2z"/></svg>