<svg id="_x31__px" height="512" viewBox="0 0 24 24" width="512" xmlns="http://www.w3.org/2000/svg"><path d="m11.894 24c-.131 0-.259-.052-.354-.146-.118-.118-.17-.288-.137-.452l.707-3.536c.02-.097.066-.186.137-.255l7.778-7.778c.584-.585 1.537-.585 2.121 0l1.414 1.414c.585.585.585 1.536 0 2.121l-7.778 7.778c-.069.07-.158.117-.256.137l-3.535.707c-.032.007-.065.01-.097.01zm1.168-3.789-.53 2.652 2.651-.53 7.671-7.671c.195-.195.195-.512 0-.707l-1.414-1.414c-.195-.195-.512-.195-.707 0zm2.367 2.582h.01z"/><path d="m8.499 24h-5.999c-1.379 0-2.5-1.122-2.5-2.5v-9c0-.827.673-1.5 1.5-1.5.275 0 .5-.224.5-.5v-2c0-.276-.225-.5-.5-.5-.827 0-1.5-.673-1.5-1.5v-4c0-1.378 1.121-2.5 2.5-2.5h10.171c.668 0 1.295.26 1.768.732l3.829 3.828c.472.473.732 1.101.732 1.769v3.171c0 .276-.224.5-.5.5s-.5-.224-.5-.5v-3.171c0-.401-.156-.777-.439-1.061l-3.829-3.828c-.284-.284-.661-.44-1.061-.44h-10.171c-.827 0-1.5.673-1.5 1.5v4c0 .276.225.5.5.5.827 0 1.5.673 1.5 1.5v2c0 .827-.673 1.5-1.5 1.5-.275 0-.5.224-.5.5v9c0 .827.673 1.5 1.5 1.5h5.999c.276 0 .5.224.5.5s-.224.5-.5.5z"/><path d="m4.5 5c-.276 0-.5-.224-.5-.5v-4c0-.276.224-.5.5-.5s.5.224.5.5v4c0 .276-.224.5-.5.5z"/><path d="m8.5 5c-.276 0-.5-.224-.5-.5v-4c0-.276.224-.5.5-.5s.5.224.5.5v4c0 .276-.224.5-.5.5z"/><path d="m12.5 5c-.276 0-.5-.224-.5-.5v-4c0-.276.224-.5.5-.5s.5.224.5.5v4c0 .276-.224.5-.5.5z"/><path d="m9.5 21h-5c-.827 0-1.5-.673-1.5-1.5v-5c0-.827.673-1.5 1.5-1.5h10c.276 0 .5.224.5.5s-.224.5-.5.5h-10c-.275 0-.5.224-.5.5v5c0 .276.225.5.5.5h5c.276 0 .5.224.5.5s-.224.5-.5.5z"/></svg>