<svg id="Layer_1" height="512" viewBox="0 0 150 150" width="512" xmlns="http://www.w3.org/2000/svg" data-name="Layer 1"><path d="m74.955 136.158a1 1 0 0 1 -1-1v-66.421a1 1 0 0 1 2 0v66.421a1 1 0 0 1 -1 1z"/><path d="m30.465 109.826a1 1 0 0 1 -.707-.293 67.534 67.534 0 0 1 0-95.4 1 1 0 1 1 1.414 1.414 65.532 65.532 0 0 0 0 92.57 1 1 0 0 1 -.707 1.707z"/><path d="m41.309 98.981a1 1 0 0 1 -.707-.293 52.18 52.18 0 0 1 0-73.709 1 1 0 0 1 1.414 1.414 50.177 50.177 0 0 0 0 70.881 1 1 0 0 1 -.707 1.707z"/><path d="m52.154 88.137a1 1 0 0 1 -.707-.293 36.825 36.825 0 0 1 0-52.021 1 1 0 0 1 1.414 1.415 34.825 34.825 0 0 0 0 49.192 1 1 0 0 1 -.707 1.707z"/><path d="m63 77.293a1 1 0 0 1 -.709-.293 21.473 21.473 0 0 1 0-30.332 1 1 0 0 1 1.414 1.414 19.47 19.47 0 0 0 0 27.5 1 1 0 0 1 -.705 1.711z"/><path d="m74.956 69.721a7.888 7.888 0 1 1 7.888-7.887 7.9 7.9 0 0 1 -7.888 7.887zm0-13.775a5.888 5.888 0 1 0 5.888 5.888 5.9 5.9 0 0 0 -5.888-5.888z"/><path d="m119.534 109.826a1 1 0 0 1 -.707-1.707 65.454 65.454 0 0 0 0-92.57 1 1 0 1 1 1.414-1.414 67.532 67.532 0 0 1 0 95.4 1 1 0 0 1 -.707.291z"/><path d="m108.69 98.981a1 1 0 0 1 -.707-1.707 50.177 50.177 0 0 0 0-70.881 1 1 0 1 1 1.414-1.414 52.179 52.179 0 0 1 0 73.709.993.993 0 0 1 -.707.293z"/><path d="m97.846 88.137a1 1 0 0 1 -.707-1.707 34.825 34.825 0 0 0 0-49.192 1 1 0 0 1 1.414-1.415 36.825 36.825 0 0 1 0 52.021 1 1 0 0 1 -.707.293z"/><path d="m87 77.293a1 1 0 0 1 -.707-1.707 19.47 19.47 0 0 0 0-27.5 1 1 0 0 1 1.414-1.414 21.473 21.473 0 0 1 0 30.332 1 1 0 0 1 -.707.289z"/></svg>