<svg id="Layer_1" height="512" viewBox="0 0 150 150" width="512" xmlns="http://www.w3.org/2000/svg" data-name="Layer 1"><path d="m123.41 81.947h-16.67a1 1 0 0 1 0-2h16.67c7.908 0 14.59-6.928 14.59-15.13v-.1a12.888 12.888 0 0 0 -8.425-12.617 1.065 1.065 0 0 1 -.122-.048 13.428 13.428 0 0 0 -1.478-.586 1 1 0 0 1 -.586-1.382 12.607 12.607 0 0 0 1.221-5.506 13.035 13.035 0 0 0 -13.03-13.011 12.7 12.7 0 0 0 -5.133 1.063 1 1 0 0 1 -1.405-.856 20.023 20.023 0 0 0 -37.356-8.766 1 1 0 0 1 -.863.5 1 1 0 0 1 -.862-.494 21.93 21.93 0 0 0 -40.831 11.143 21.537 21.537 0 0 0 .993 6.5 1 1 0 0 1 -.862 1.3 19.038 19.038 0 0 0 1.769 37.99h12.231a1 1 0 0 1 0 2h-12.231a21.041 21.041 0 0 1 -3.146-41.847 23.612 23.612 0 0 1 -.754-5.947 23.93 23.93 0 0 1 43.686-13.519 22.021 22.021 0 0 1 40.1 9.673 15.033 15.033 0 0 1 19.694 14.271 14.744 14.744 0 0 1 -.982 5.367c.217.089.428.181.63.275a15.093 15.093 0 0 1 9.742 14.5v.1c0 9.28-7.6 17.127-16.59 17.127z"/><path d="m100.18 139.792h-50.365a7.564 7.564 0 0 1 -7.556-7.556v-84.815a7.564 7.564 0 0 1 7.556-7.556h50.365a7.564 7.564 0 0 1 7.556 7.556v84.815a7.564 7.564 0 0 1 -7.556 7.556zm-50.365-97.927a5.562 5.562 0 0 0 -5.556 5.556v84.815a5.563 5.563 0 0 0 5.556 5.556h50.365a5.563 5.563 0 0 0 5.556-5.556v-84.815a5.562 5.562 0 0 0 -5.556-5.556z"/><path d="m106.738 54.561h-63.478a1 1 0 0 1 0-2h63.478a1 1 0 0 1 0 2z"/><path d="m106.738 125.032h-63.478a1 1 0 0 1 0-2h63.478a1 1 0 0 1 0 2z"/><path d="m80.811 48.646h-11.625a1 1 0 0 1 0-2h11.625a1 1 0 0 1 0 2z"/><path d="m75 136.1a4.65 4.65 0 1 1 4.64-4.649 4.655 4.655 0 0 1 -4.64 4.649zm0-7.3a2.65 2.65 0 1 0 2.64 2.651 2.654 2.654 0 0 0 -2.64-2.646z"/></svg>