<svg id="Layer_1" height="512" viewBox="0 0 150 150" width="512" xmlns="http://www.w3.org/2000/svg" data-name="Layer 1"><path d="m133.818 116.875h-117.636a6.321 6.321 0 0 1 -6.182-6.437v-94a6.32 6.32 0 0 1 6.182-6.438h117.636a6.32 6.32 0 0 1 6.182 6.437v94a6.321 6.321 0 0 1 -6.182 6.438zm-117.636-104.875a4.32 4.32 0 0 0 -4.182 4.437v94a4.32 4.32 0 0 0 4.182 4.437h117.636a4.32 4.32 0 0 0 4.182-4.436v-94a4.32 4.32 0 0 0 -4.182-4.438z"/><path d="m101 140h-52a1 1 0 0 1 -.849-1.528l14.388-23.131a1 1 0 0 1 .85-.472h23.223a1 1 0 0 1 .849.472l14.39 23.131a1 1 0 0 1 -.851 1.528zm-50.2-2h48.4l-13.143-21.131h-22.113z"/><path d="m139 95.848h-128a1 1 0 0 1 0-2h128a1 1 0 0 1 0 2z"/><path d="m75 110.15a4.921 4.921 0 1 1 5-4.921 4.966 4.966 0 0 1 -5 4.921zm0-7.841a2.922 2.922 0 1 0 3 2.92 2.964 2.964 0 0 0 -3-2.92z"/><path d="m75 84.4a6.863 6.863 0 1 1 6.862-6.863 6.87 6.87 0 0 1 -6.862 6.863zm0-11.726a4.863 4.863 0 1 0 4.862 4.863 4.868 4.868 0 0 0 -4.862-4.861z"/><path d="m115.449 37.918a.993.993 0 0 1 -.707-.293 56.269 56.269 0 0 0 -79.484 0 1 1 0 0 1 -1.414-1.414 58.272 58.272 0 0 1 82.312 0 1 1 0 0 1 -.707 1.707z"/><path d="m44.432 47.8a1 1 0 0 1 -.707-1.707 44.278 44.278 0 0 1 62.55 0 1 1 0 1 1 -1.414 1.414 42.279 42.279 0 0 0 -59.722 0 1 1 0 0 1 -.707.293z"/><path d="m54.312 57.679a1 1 0 0 1 -.708-1.707 30.292 30.292 0 0 1 42.792 0 1 1 0 1 1 -1.415 1.414 28.291 28.291 0 0 0 -39.962 0 1 1 0 0 1 -.707.293z"/><path d="m64.191 67.559a1 1 0 0 1 -.707-1.707 16.3 16.3 0 0 1 23.032 0 1 1 0 0 1 -1.416 1.413 14.3 14.3 0 0 0 -20.2 0 1 1 0 0 1 -.709.294z"/></svg>