<svg id="_x31__px" height="512" viewBox="0 0 24 24" width="512" xmlns="http://www.w3.org/2000/svg"><path d="m22.5 24c-.527 0-1.006-.269-1.281-.72l-1.854-3.04c-.091-.148-.254-.24-.427-.24h-4.877c-.173 0-.336.092-.427.24l-1.854 3.04c-.274.451-.753.72-1.28.72-.827 0-1.5-.673-1.5-1.5 0-.073.005-.145.016-.215l1.009-7.138c.001-.009.003-.017.004-.025.189-1.211 1.246-2.122 2.471-2.122.714 0 1.396.307 1.869.843.088.099.219.157.358.157h3.547c.139 0 .27-.058.358-.158.472-.535 1.154-.842 1.868-.842 1.225 0 2.282.91 2.472 2.122.001.008.003.017.004.025l1.01 7.142c.009.066.014.138.014.211 0 .827-.673 1.5-1.5 1.5zm-8.438-5h4.877c.52 0 1.01.275 1.28.719l1.854 3.04c.091.151.251.241.427.241.275 0 .5-.224.5-.5l-1.012-7.19c-.001-.006-.002-.012-.003-.018-.106-.737-.745-1.292-1.485-1.292-.434 0-.831.18-1.119.505-.279.315-.683.495-1.108.495h-3.547c-.425 0-.828-.18-1.106-.494-.289-.326-.686-.506-1.12-.506-.74 0-1.379.555-1.485 1.292-.001.006-.002.012-.003.018l-1.007 7.119c-.008.568.687.718.923.331l1.854-3.04c.27-.445.76-.72 1.28-.72z"/><path d="m6.499 24h-3.999c-1.379 0-2.5-1.122-2.5-2.5v-9c0-.827.673-1.5 1.5-1.5.275 0 .5-.224.5-.5v-2c0-.276-.225-.5-.5-.5-.827 0-1.5-.673-1.5-1.5v-4c0-1.378 1.121-2.5 2.5-2.5h10.171c.668 0 1.295.26 1.768.732l3.829 3.828c.472.473.732 1.101.732 1.769v4.171c0 .276-.224.5-.5.5s-.5-.224-.5-.5v-4.171c0-.401-.156-.777-.439-1.061l-3.829-3.828c-.284-.284-.661-.44-1.061-.44h-10.171c-.827 0-1.5.673-1.5 1.5v4c0 .276.225.5.5.5.827 0 1.5.673 1.5 1.5v2c0 .827-.673 1.5-1.5 1.5-.275 0-.5.224-.5.5v9c0 .827.673 1.5 1.5 1.5h3.999c.276 0 .5.224.5.5s-.224.5-.5.5z"/><path d="m4.5 5c-.276 0-.5-.224-.5-.5v-4c0-.276.224-.5.5-.5s.5.224.5.5v4c0 .276-.224.5-.5.5z"/><path d="m8.5 5c-.276 0-.5-.224-.5-.5v-4c0-.276.224-.5.5-.5s.5.224.5.5v4c0 .276-.224.5-.5.5z"/><path d="m12.5 5c-.276 0-.5-.224-.5-.5v-4c0-.276.224-.5.5-.5s.5.224.5.5v4c0 .276-.224.5-.5.5z"/><path d="m6.5 21h-2c-.827 0-1.5-.673-1.5-1.5v-5c0-.827.673-1.5 1.5-1.5h3c.276 0 .5.224.5.5s-.224.5-.5.5h-3c-.275 0-.5.224-.5.5v5c0 .276.225.5.5.5h2c.276 0 .5.224.5.5s-.224.5-.5.5z"/></svg>