<svg id="Layer_1" height="512" viewBox="0 0 150 150" width="512" xmlns="http://www.w3.org/2000/svg" data-name="Layer 1"><path d="m117.151 140h-84.3a6.884 6.884 0 0 1 -6.61-7.115v-56.1a6.883 6.883 0 0 1 6.61-7.114h84.3a6.883 6.883 0 0 1 6.61 7.114v56.1a6.884 6.884 0 0 1 -6.61 7.115zm-84.3-68.326a4.887 4.887 0 0 0 -4.61 5.114v56.1a4.887 4.887 0 0 0 4.608 5.112h84.3a4.887 4.887 0 0 0 4.61-5.115v-56.1a4.887 4.887 0 0 0 -4.61-5.114z"/><path d="m114.828 132.067h-10.36a1 1 0 0 1 0-2h9.36v-8.267a1 1 0 1 1 2 0v9.272a1 1 0 0 1 -1 .995z"/><path d="m109.8 71.674a1 1 0 0 1 -1-1v-24.874a33.8 33.8 0 0 0 -67.592 0v24.874a1 1 0 0 1 -2 0v-24.874a35.8 35.8 0 0 1 71.592 0v24.874a1 1 0 0 1 -1 1z"/><path d="m98.86 71.674a1 1 0 0 1 -1-1v-24.755a22.86 22.86 0 1 0 -45.719 0v24.755a1 1 0 0 1 -2 0v-24.755a24.86 24.86 0 1 1 49.719 0v24.755a1 1 0 0 1 -1 1z"/><path d="m81.343 114.384h-12.743a1 1 0 0 1 -.984-1.184l2.153-11.508a8.665 8.665 0 1 1 10.458 0l2.1 11.51a1 1 0 0 1 -.983 1.18zm-11.538-2h10.339l-2-10.963a1 1 0 0 1 .444-1.023 6.665 6.665 0 1 0 -7.18 0 1 1 0 0 1 .444 1.027z"/></svg>