<svg id="_x31__px" height="512" viewBox="0 0 24 24" width="512" xmlns="http://www.w3.org/2000/svg"><path d="m12.5 22.486c-.128 0-.256-.049-.354-.146-.195-.195-.195-.512 0-.707l2.465-2.465c.731-.73 1.92-.73 2.651 0 .182.183.422.275.671.259.251-.014.477-.13.634-.327l.717-.896c.715-.894 2.212-.894 2.928 0l1.676 2.095c.172.216.137.53-.078.703-.216.173-.53.137-.703-.078l-1.676-2.095c-.333-.418-1.033-.418-1.366 0l-.717.896c-.332.416-.828.671-1.359.701-.529.034-1.053-.169-1.43-.546-.345-.345-.9-.345-1.241-.004l-2.465 2.465c-.097.097-.225.145-.353.145z"/><path d="m22.5 24h-9c-.827 0-1.5-.673-1.5-1.5v-9c0-.827.673-1.5 1.5-1.5h9c.827 0 1.5.673 1.5 1.5v9c0 .827-.673 1.5-1.5 1.5zm-9-11c-.276 0-.5.224-.5.5v9c0 .276.224.5.5.5h9c.276 0 .5-.224.5-.5v-9c0-.276-.224-.5-.5-.5z"/><path d="m9.5 24h-7c-1.378 0-2.5-1.122-2.5-2.5v-9c0-.827.673-1.5 1.5-1.5.276 0 .5-.224.5-.5v-2c0-.276-.224-.5-.5-.5-.827 0-1.5-.673-1.5-1.5v-4c0-1.378 1.122-2.5 2.5-2.5h10.171c.667 0 1.295.26 1.768.732l3.829 3.828c.472.473.732 1.101.732 1.769v3.171c0 .276-.224.5-.5.5s-.5-.224-.5-.5v-3.171c0-.401-.156-.777-.439-1.061l-3.829-3.828c-.279-.28-.666-.44-1.061-.44h-10.171c-.827 0-1.5.673-1.5 1.5v4c0 .276.224.5.5.5.827 0 1.5.673 1.5 1.5v2c0 .827-.673 1.5-1.5 1.5-.276 0-.5.224-.5.5v9c0 .827.673 1.5 1.5 1.5h7c.276 0 .5.224.5.5s-.224.5-.5.5z"/><path d="m4.5 5c-.276 0-.5-.224-.5-.5v-4c0-.276.224-.5.5-.5s.5.224.5.5v4c0 .276-.224.5-.5.5z"/><path d="m8.5 5c-.276 0-.5-.224-.5-.5v-4c0-.276.224-.5.5-.5s.5.224.5.5v4c0 .276-.224.5-.5.5z"/><path d="m12.5 5c-.276 0-.5-.224-.5-.5v-4c0-.276.224-.5.5-.5s.5.224.5.5v4c0 .276-.224.5-.5.5z"/><path d="m9.5 21h-5c-.827 0-1.5-.673-1.5-1.5v-5c0-.827.673-1.5 1.5-1.5h5c.276 0 .5.224.5.5s-.224.5-.5.5h-5c-.276 0-.5.224-.5.5v5c0 .276.224.5.5.5h5c.276 0 .5.224.5.5s-.224.5-.5.5z"/></svg>