<svg id="Layer_1" height="512" viewBox="0 0 150 150" width="512" xmlns="http://www.w3.org/2000/svg" data-name="Layer 1"><path d="m123.409 81.74h-24.64a1 1 0 0 1 0-2h24.64c7.909 0 14.591-6.929 14.591-15.13v-.1a13.044 13.044 0 0 0 -8.422-12.617.884.884 0 0 1 -.124-.048 13.727 13.727 0 0 0 -1.481-.587 1 1 0 0 1 -.584-1.381 12.628 12.628 0 0 0 1.22-5.507 13.034 13.034 0 0 0 -13.03-13.01 12.675 12.675 0 0 0 -5.131 1.063 1 1 0 0 1 -1.406-.856 20.023 20.023 0 0 0 -37.356-8.767 1 1 0 0 1 -.864.5 1 1 0 0 1 -.862-.494 21.929 21.929 0 0 0 -40.83 11.144 21.507 21.507 0 0 0 .993 6.5 1 1 0 0 1 -.862 1.3 19.039 19.039 0 0 0 1.768 37.99h20.2a1 1 0 0 1 0 2h-20.2a21.041 21.041 0 0 1 -3.145-41.84 23.6 23.6 0 0 1 -.754-5.947 23.929 23.929 0 0 1 43.685-13.526 22.022 22.022 0 0 1 40.1 9.672 15.034 15.034 0 0 1 19.69 14.271 14.753 14.753 0 0 1 -.982 5.368c.218.089.429.181.631.275a15.093 15.093 0 0 1 9.746 14.5v.1c0 9.287-7.6 17.127-16.591 17.127z"/><path d="m75 140a24.8 24.8 0 0 1 -24.77-24.769v-47.974a1 1 0 0 1 1-1h47.538a1 1 0 0 1 1 1v47.974a24.8 24.8 0 0 1 -24.768 24.769zm-22.77-71.743v46.974a22.769 22.769 0 0 0 45.538 0v-46.974z"/><path d="m90.393 68.257h-30.787a1 1 0 0 1 -1-1v-23.686a1 1 0 0 1 1-1h30.787a1 1 0 0 1 1 1v23.686a1 1 0 0 1 -1 1zm-29.787-2h28.787v-21.686h-28.787z"/><path d="m81.818 59.471a1 1 0 0 1 -1-1v-6.115a1 1 0 0 1 2 0v6.115a1 1 0 0 1 -1 1z"/><path d="m68.181 59.471a1 1 0 0 1 -1-1v-6.115a1 1 0 0 1 2 0v6.115a1 1 0 0 1 -1 1z"/><path d="m86.829 88h-23.66a1 1 0 1 1 0-2h23.66a1 1 0 1 1 0 2z"/><path d="m86.829 102.5h-23.66a1 1 0 1 1 0-2h23.66a1 1 0 1 1 0 2z"/><path d="m86.829 117h-23.66a1 1 0 1 1 0-2h23.66a1 1 0 1 1 0 2z"/></svg>