<svg id="Layer_1" height="512" viewBox="0 0 150 150" width="512" xmlns="http://www.w3.org/2000/svg" data-name="Layer 1"><path d="m133.337 131.415h-116.675a6.713 6.713 0 0 1 -6.662-6.749v-89.914a6.713 6.713 0 0 1 6.662-6.752h116.675a6.714 6.714 0 0 1 6.663 6.752v89.914a6.714 6.714 0 0 1 -6.663 6.749zm-116.675-101.415a4.712 4.712 0 0 0 -4.662 4.752v89.914a4.712 4.712 0 0 0 4.662 4.749h116.675a4.712 4.712 0 0 0 4.663-4.749v-89.914a4.712 4.712 0 0 0 -4.663-4.752z"/><path d="m120.369 140h-10.669a1 1 0 0 1 -1-1v-8.585a1 1 0 0 1 1-1h10.672a1 1 0 0 1 1 1v8.585a1 1 0 0 1 -1.003 1zm-9.672-2h8.672v-6.585h-8.669z"/><path d="m40.3 140h-10.669a1 1 0 0 1 -1-1v-8.585a1 1 0 0 1 1-1h10.669a1 1 0 0 1 1 1v8.585a1 1 0 0 1 -1 1zm-9.672-2h8.672v-6.585h-8.669z"/><path d="m105.33 121h-84.25a1 1 0 0 1 -1-1v-80.75a1 1 0 0 1 1-1h84.25a1 1 0 0 1 1 1v80.75a1 1 0 0 1 -1 1zm-83.25-2h82.25v-78.75h-82.25z"/><path d="m116.5 48.72a1 1 0 0 1 -1-1v-4.1a1 1 0 1 1 2 0v4.1a1 1 0 0 1 -1 1z"/><path d="m124.676 48.72a1 1 0 0 1 -1-1v-4.1a1 1 0 1 1 2 0v4.1a1 1 0 0 1 -1 1z"/><path d="m132.854 48.72a1 1 0 0 1 -1-1v-4.1a1 1 0 0 1 2 0v4.1a1 1 0 0 1 -1 1z"/><path d="m116.5 63.337a1 1 0 0 1 -1-1v-4.1a1 1 0 0 1 2 0v4.1a1 1 0 0 1 -1 1z"/><path d="m124.676 63.337a1 1 0 0 1 -1-1v-4.1a1 1 0 0 1 2 0v4.1a1 1 0 0 1 -1 1z"/><path d="m132.854 63.337a1 1 0 0 1 -1-1v-4.1a1 1 0 1 1 2 0v4.1a1 1 0 0 1 -1 1z"/><path d="m116.5 77.6a1 1 0 0 1 -1-1v-4.1a1 1 0 0 1 2 0v4.1a1 1 0 0 1 -1 1z"/><path d="m124.676 77.6a1 1 0 0 1 -1-1v-4.1a1 1 0 0 1 2 0v4.1a1 1 0 0 1 -1 1z"/><path d="m132.854 77.6a1 1 0 0 1 -1-1v-4.1a1 1 0 1 1 2 0v4.1a1 1 0 0 1 -1 1z"/><path d="m124.676 112.527a9.022 9.022 0 1 1 8.9-9.022 8.973 8.973 0 0 1 -8.9 9.022zm0-16.043a7.023 7.023 0 1 0 6.9 7.021 6.97 6.97 0 0 0 -6.9-7.021z"/><path d="m124.676 99.6a1 1 0 0 1 -1-1v-3.12a1 1 0 0 1 2 0v3.12a1 1 0 0 1 -1 1z"/><path d="m56.83 30a.944.944 0 0 1 -.2-.02 1 1 0 0 1 -.7-.53l-6.5-12.928a1 1 0 1 1 1.787-.9l5.927 11.79 20.17-17.178a1 1 0 1 1 1.3 1.522l-21.139 18a1 1 0 0 1 -.645.244z"/><path d="m29.631 59.237a1 1 0 0 1 -.713-1.7l11.282-11.452a1 1 0 0 1 1.426 1.4l-11.282 11.454a1 1 0 0 1 -.713.298z"/><path d="m32.591 69.062a1 1 0 0 1 -.713-1.7l11.279-11.453a1 1 0 0 1 1.426 1.4l-11.283 11.454a1 1 0 0 1 -.709.299z"/></svg>