<svg id="_x31__px" height="512" viewBox="0 0 24 24" width="512" xmlns="http://www.w3.org/2000/svg"><path d="m17.5 24c-3.584 0-6.5-2.916-6.5-6.5s2.916-6.5 6.5-6.5 6.5 2.916 6.5 6.5-2.916 6.5-6.5 6.5zm0-12c-3.032 0-5.5 2.467-5.5 5.5s2.468 5.5 5.5 5.5 5.5-2.467 5.5-5.5-2.468-5.5-5.5-5.5z"/><path d="m17.5 21c-.276 0-.5-.224-.5-.5v-4c0-.276.224-.5.5-.5s.5.224.5.5v4c0 .276-.224.5-.5.5z"/><circle cx="17.5" cy="14.5" r=".5"/><path d="m9.499 24h-6.999c-1.379 0-2.5-1.122-2.5-2.5v-9c0-.827.673-1.5 1.5-1.5.275 0 .5-.224.5-.5v-2c0-.276-.225-.5-.5-.5-.827 0-1.5-.673-1.5-1.5v-4c0-1.378 1.121-2.5 2.5-2.5h10.171c.668 0 1.295.26 1.768.732l3.829 3.828c.472.473.732 1.101.732 1.769v2.171c0 .276-.224.5-.5.5s-.5-.224-.5-.5v-2.171c0-.401-.156-.777-.439-1.061l-3.829-3.828c-.284-.284-.661-.44-1.061-.44h-10.171c-.827 0-1.5.673-1.5 1.5v4c0 .276.225.5.5.5.827 0 1.5.673 1.5 1.5v2c0 .827-.673 1.5-1.5 1.5-.275 0-.5.224-.5.5v9c0 .827.673 1.5 1.5 1.5h6.999c.276 0 .5.224.5.5s-.224.5-.5.5z"/><path d="m4.5 5c-.276 0-.5-.224-.5-.5v-4c0-.276.224-.5.5-.5s.5.224.5.5v4c0 .276-.224.5-.5.5z"/><path d="m8.5 5c-.276 0-.5-.224-.5-.5v-4c0-.276.224-.5.5-.5s.5.224.5.5v4c0 .276-.224.5-.5.5z"/><path d="m12.5 5c-.276 0-.5-.224-.5-.5v-4c0-.276.224-.5.5-.5s.5.224.5.5v4c0 .276-.224.5-.5.5z"/><path d="m9.5 21h-5c-.827 0-1.5-.673-1.5-1.5v-5c0-.827.673-1.5 1.5-1.5h5c.276 0 .5.224.5.5s-.224.5-.5.5h-5c-.275 0-.5.224-.5.5v5c0 .276.225.5.5.5h5c.276 0 .5.224.5.5s-.224.5-.5.5z"/></svg>