<svg id="_x31__px" height="512" viewBox="0 0 24 24" width="512" xmlns="http://www.w3.org/2000/svg"><path d="m17.5 24c-.105 0-.21-.033-.299-.099-.253-.189-6.201-4.67-6.201-8.271 0-2.002 1.628-3.63 3.63-3.63 1.141 0 2.193.531 2.87 1.404.676-.873 1.729-1.404 2.87-1.404 2.002 0 3.63 1.628 3.63 3.63 0 3.601-5.948 8.082-6.201 8.271-.089.066-.194.099-.299.099zm-2.87-11c-1.45 0-2.63 1.18-2.63 2.63 0 2.43 3.723 5.849 5.5 7.24 1.776-1.392 5.5-4.813 5.5-7.24 0-1.45-1.18-2.63-2.63-2.63-1.049 0-1.995.619-2.411 1.578-.158.365-.759.365-.917 0-.417-.959-1.363-1.578-2.412-1.578z"/><path d="m12.5 24h-10c-1.378 0-2.5-1.122-2.5-2.5v-9c0-.827.673-1.5 1.5-1.5.276 0 .5-.224.5-.5v-2c0-.276-.224-.5-.5-.5-.827 0-1.5-.673-1.5-1.5v-4c0-1.378 1.122-2.5 2.5-2.5h10.171c.667 0 1.295.26 1.768.732l3.829 3.828c.472.473.732 1.101.732 1.769v3.171c0 .276-.224.5-.5.5s-.5-.224-.5-.5v-3.171c0-.401-.156-.777-.439-1.061l-3.829-3.828c-.279-.28-.666-.44-1.061-.44h-10.171c-.827 0-1.5.673-1.5 1.5v4c0 .276.224.5.5.5.827 0 1.5.673 1.5 1.5v2c0 .827-.673 1.5-1.5 1.5-.276 0-.5.224-.5.5v9c0 .827.673 1.5 1.5 1.5h10c.276 0 .5.224.5.5s-.224.5-.5.5z"/><path d="m4.5 5c-.276 0-.5-.224-.5-.5v-4c0-.276.224-.5.5-.5s.5.224.5.5v4c0 .276-.224.5-.5.5z"/><path d="m8.5 5c-.276 0-.5-.224-.5-.5v-4c0-.276.224-.5.5-.5s.5.224.5.5v4c0 .276-.224.5-.5.5z"/><path d="m12.5 5c-.276 0-.5-.224-.5-.5v-4c0-.276.224-.5.5-.5s.5.224.5.5v4c0 .276-.224.5-.5.5z"/><path d="m9.5 21h-5c-.827 0-1.5-.673-1.5-1.5v-5c0-.827.673-1.5 1.5-1.5h4c.276 0 .5.224.5.5s-.224.5-.5.5h-4c-.276 0-.5.224-.5.5v5c0 .276.224.5.5.5h5c.276 0 .5.224.5.5s-.224.5-.5.5z"/></svg>