<svg id="_x31__px" height="512" viewBox="0 0 24 24" width="512" xmlns="http://www.w3.org/2000/svg"><path d="m19 19c-1.654 0-3-1.346-3-3v-3c0-1.654 1.346-3 3-3s3 1.346 3 3v3c0 1.654-1.346 3-3 3zm0-8c-1.103 0-2 .897-2 2v3c0 1.103.897 2 2 2s2-.897 2-2v-3c0-1.103-.897-2-2-2z"/><path d="m19 21c-2.757 0-5-2.243-5-5 0-.276.224-.5.5-.5s.5.224.5.5c0 2.206 1.794 4 4 4s4-1.794 4-4c0-.276.224-.5.5-.5s.5.224.5.5c0 2.757-2.243 5-5 5z"/><path d="m19 24c-.276 0-.5-.224-.5-.5v-2.75c0-.276.224-.5.5-.5s.5.224.5.5v2.75c0 .276-.224.5-.5.5z"/><path d="m15.499 24h-12.999c-1.379 0-2.5-1.122-2.5-2.5v-9c0-.827.673-1.5 1.5-1.5.275 0 .5-.224.5-.5v-2c0-.276-.225-.5-.5-.5-.827 0-1.5-.673-1.5-1.5v-4c0-1.378 1.121-2.5 2.5-2.5h10.171c.668 0 1.295.26 1.768.732l3.829 3.828c.472.473.732 1.101.732 1.769v1.171c0 .276-.224.5-.5.5s-.5-.224-.5-.5v-1.171c0-.401-.156-.777-.439-1.061l-3.829-3.828c-.284-.284-.661-.44-1.061-.44h-10.171c-.827 0-1.5.673-1.5 1.5v4c0 .276.225.5.5.5.827 0 1.5.673 1.5 1.5v2c0 .827-.673 1.5-1.5 1.5-.275 0-.5.224-.5.5v9c0 .827.673 1.5 1.5 1.5h12.999c.276 0 .5.224.5.5s-.224.5-.5.5z"/><path d="m4.5 5c-.276 0-.5-.224-.5-.5v-4c0-.276.224-.5.5-.5s.5.224.5.5v4c0 .276-.224.5-.5.5z"/><path d="m8.5 5c-.276 0-.5-.224-.5-.5v-4c0-.276.224-.5.5-.5s.5.224.5.5v4c0 .276-.224.5-.5.5z"/><path d="m12.5 5c-.276 0-.5-.224-.5-.5v-4c0-.276.224-.5.5-.5s.5.224.5.5v4c0 .276-.224.5-.5.5z"/><path d="m12.5 21h-8c-.827 0-1.5-.673-1.5-1.5v-5c0-.827.673-1.5 1.5-1.5h8c.276 0 .5.224.5.5s-.224.5-.5.5h-8c-.275 0-.5.224-.5.5v5c0 .276.225.5.5.5h8c.276 0 .5.224.5.5s-.224.5-.5.5z"/></svg>