<svg id="_x31__px" height="512" viewBox="0 0 24 24" width="512" xmlns="http://www.w3.org/2000/svg"><path d="m14.199 24.002c-1.035 0-1.907-.521-2.141-1.364-.119-.425-.052-.889.188-1.306.337-.583.969-1.031 1.734-1.229 1.363-.35 2.666.2 2.96 1.258.119.425.052.889-.188 1.306-.337.583-.969 1.031-1.734 1.229-.278.072-.553.106-.819.106zm.595-3.002c-.182 0-.372.023-.563.073-.5.128-.918.413-1.118.759-.074.129-.15.327-.092.539.143.51.942.766 1.747.558.5-.128.918-.413 1.118-.759.074-.129.15-.327.092-.539-.108-.39-.599-.631-1.184-.631z"/><path d="m21.199 23.002c-1.035 0-1.907-.521-2.141-1.364-.119-.425-.052-.889.188-1.306.337-.583.969-1.031 1.734-1.229 1.362-.35 2.667.2 2.96 1.258.119.425.052.889-.188 1.306-.337.583-.969 1.031-1.734 1.229-.278.072-.553.106-.819.106zm.595-3.002c-.182 0-.372.023-.563.073-.5.128-.918.413-1.118.759-.074.129-.15.327-.092.539.143.51.943.765 1.747.558.5-.128.918-.413 1.118-.759.074-.129.15-.327.092-.539-.108-.39-.599-.631-1.184-.631z"/><path d="m16.5 22.246c-.276 0-.5-.224-.5-.5v-7.246c0-.249.183-.46.43-.495l7-1c.144-.021.289.023.397.117.111.095.173.233.173.378v7.25c0 .276-.224.5-.5.5s-.5-.224-.5-.5v-6.673l-6 .857v6.812c0 .276-.224.5-.5.5z"/><path d="m9.499 24h-6.999c-1.379 0-2.5-1.122-2.5-2.5v-9c0-.827.673-1.5 1.5-1.5.275 0 .5-.224.5-.5v-2c0-.276-.225-.5-.5-.5-.827 0-1.5-.673-1.5-1.5v-4c0-1.378 1.121-2.5 2.5-2.5h10.171c.668 0 1.295.26 1.768.732l3.829 3.828c.472.473.732 1.101.732 1.769v4.171c0 .276-.224.5-.5.5s-.5-.224-.5-.5v-4.171c0-.401-.156-.777-.439-1.061l-3.829-3.828c-.284-.284-.661-.44-1.061-.44h-10.171c-.827 0-1.5.673-1.5 1.5v4c0 .276.225.5.5.5.827 0 1.5.673 1.5 1.5v2c0 .827-.673 1.5-1.5 1.5-.275 0-.5.224-.5.5v9c0 .827.673 1.5 1.5 1.5h6.999c.276 0 .5.224.5.5s-.224.5-.5.5z"/><path d="m4.5 5c-.276 0-.5-.224-.5-.5v-4c0-.276.224-.5.5-.5s.5.224.5.5v4c0 .276-.224.5-.5.5z"/><path d="m8.5 5c-.276 0-.5-.224-.5-.5v-4c0-.276.224-.5.5-.5s.5.224.5.5v4c0 .276-.224.5-.5.5z"/><path d="m12.5 5c-.276 0-.5-.224-.5-.5v-4c0-.276.224-.5.5-.5s.5.224.5.5v4c0 .276-.224.5-.5.5z"/><path d="m9.5 21h-5c-.827 0-1.5-.673-1.5-1.5v-5c0-.827.673-1.5 1.5-1.5h9c.276 0 .5.224.5.5s-.224.5-.5.5h-9c-.275 0-.5.224-.5.5v5c0 .276.225.5.5.5h5c.276 0 .5.224.5.5s-.224.5-.5.5z"/></svg>