<svg id="_x31__px" height="512" viewBox="0 0 24 24" width="512" xmlns="http://www.w3.org/2000/svg"><path d="m23.5 24c-.115 0-.229-.04-.32-.116l-2.18-1.817v.433c0 .827-.673 1.5-1.5 1.5h-6c-.827 0-1.5-.673-1.5-1.5v-5c0-.827.673-1.5 1.5-1.5h6c.827 0 1.5.673 1.5 1.5v.433l2.18-1.817c.149-.124.358-.15.532-.068.176.081.288.258.288.452v7c0 .194-.112.371-.288.453-.067.031-.14.047-.212.047zm-10-7c-.276 0-.5.224-.5.5v5c0 .276.224.5.5.5h6c.276 0 .5-.224.5-.5v-1.5c0-.194.112-.371.288-.453.175-.083.383-.056.532.068l2.18 1.818v-4.865l-2.18 1.817c-.149.125-.358.151-.532.068-.176-.082-.288-.259-.288-.453v-1.5c0-.276-.224-.5-.5-.5z"/><path d="m9.5 24h-7c-1.378 0-2.5-1.122-2.5-2.5v-9c0-.827.673-1.5 1.5-1.5.276 0 .5-.224.5-.5v-2c0-.276-.224-.5-.5-.5-.827 0-1.5-.673-1.5-1.5v-4c0-1.378 1.122-2.5 2.5-2.5h10.171c.667 0 1.295.26 1.768.732l3.829 3.828c.472.473.732 1.101.732 1.769v7.171c0 .276-.224.5-.5.5s-.5-.224-.5-.5v-7.171c0-.401-.156-.777-.439-1.061l-3.829-3.828c-.279-.28-.666-.44-1.061-.44h-10.171c-.827 0-1.5.673-1.5 1.5v4c0 .276.224.5.5.5.827 0 1.5.673 1.5 1.5v2c0 .827-.673 1.5-1.5 1.5-.276 0-.5.224-.5.5v9c0 .827.673 1.5 1.5 1.5h7c.276 0 .5.224.5.5s-.224.5-.5.5z"/><path d="m4.5 5c-.276 0-.5-.224-.5-.5v-4c0-.276.224-.5.5-.5s.5.224.5.5v4c0 .276-.224.5-.5.5z"/><path d="m8.5 5c-.276 0-.5-.224-.5-.5v-4c0-.276.224-.5.5-.5s.5.224.5.5v4c0 .276-.224.5-.5.5z"/><path d="m12.5 5c-.276 0-.5-.224-.5-.5v-4c0-.276.224-.5.5-.5s.5.224.5.5v4c0 .276-.224.5-.5.5z"/><path d="m9.5 21h-5c-.827 0-1.5-.673-1.5-1.5v-5c0-.827.673-1.5 1.5-1.5h11c.276 0 .5.224.5.5s-.224.5-.5.5h-11c-.276 0-.5.224-.5.5v5c0 .276.224.5.5.5h5c.276 0 .5.224.5.5s-.224.5-.5.5z"/></svg>