<svg id="_x31__px" height="512" viewBox="0 0 24 24" width="512" xmlns="http://www.w3.org/2000/svg"><path d="m23.5 18h-2c-.276 0-.5-.224-.5-.5s.224-.5.5-.5h1.5v-1.5c0-.276.224-.5.5-.5s.5.224.5.5v2c0 .276-.224.5-.5.5z"/><path d="m14.501 18.99c-.019 0-.036-.001-.055-.003-.274-.029-.473-.276-.443-.55.271-2.53 2.393-4.437 4.937-4.437 1.138 0 2.237.384 3.095 1.083.655.511 1.17 1.199 1.479 1.984.102.257-.024.547-.281.648-.256.103-.547-.024-.648-.281-.244-.619-.65-1.162-1.173-1.569-.687-.56-1.562-.865-2.472-.865-2.031 0-3.727 1.523-3.943 3.543-.027.257-.244.447-.496.447z"/><path d="m19.06 24c-1.138 0-2.237-.384-3.095-1.083-.655-.511-1.17-1.199-1.479-1.984-.102-.257.024-.547.281-.648s.548.024.648.281c.244.619.65 1.162 1.173 1.569.687.56 1.562.865 2.472.865 2.031 0 3.727-1.523 3.943-3.543.029-.275.284-.47.551-.444.274.029.473.276.443.55-.271 2.53-2.393 4.437-4.937 4.437z"/><path d="m14.5 23c-.276 0-.5-.224-.5-.5v-2c0-.276.224-.5.5-.5h2c.276 0 .5.224.5.5s-.224.5-.5.5h-1.5v1.5c0 .276-.224.5-.5.5z"/><path d="m11.499 24h-8.999c-1.379 0-2.5-1.122-2.5-2.5v-9c0-.827.673-1.5 1.5-1.5.275 0 .5-.224.5-.5v-2c0-.276-.225-.5-.5-.5-.827 0-1.5-.673-1.5-1.5v-4c0-1.378 1.121-2.5 2.5-2.5h10.171c.668 0 1.295.26 1.768.732l3.829 3.828c.472.473.732 1.101.732 1.769v5.171c0 .276-.224.5-.5.5s-.5-.224-.5-.5v-5.171c0-.401-.156-.777-.439-1.061l-3.829-3.828c-.284-.284-.661-.44-1.061-.44h-10.171c-.827 0-1.5.673-1.5 1.5v4c0 .276.225.5.5.5.827 0 1.5.673 1.5 1.5v2c0 .827-.673 1.5-1.5 1.5-.275 0-.5.224-.5.5v9c0 .827.673 1.5 1.5 1.5h8.999c.276 0 .5.224.5.5s-.224.5-.5.5z"/><path d="m4.5 5c-.276 0-.5-.224-.5-.5v-4c0-.276.224-.5.5-.5s.5.224.5.5v4c0 .276-.224.5-.5.5z"/><path d="m8.5 5c-.276 0-.5-.224-.5-.5v-4c0-.276.224-.5.5-.5s.5.224.5.5v4c0 .276-.224.5-.5.5z"/><path d="m12.5 5c-.276 0-.5-.224-.5-.5v-4c0-.276.224-.5.5-.5s.5.224.5.5v4c0 .276-.224.5-.5.5z"/><path d="m11.5 21h-7c-.827 0-1.5-.673-1.5-1.5v-5c0-.827.673-1.5 1.5-1.5h8c.276 0 .5.224.5.5s-.224.5-.5.5h-8c-.275 0-.5.224-.5.5v5c0 .276.225.5.5.5h7c.276 0 .5.224.5.5s-.224.5-.5.5z"/></svg>