<svg id="_x31__px" height="512" viewBox="0 0 24 24" width="512" xmlns="http://www.w3.org/2000/svg"><path d="m22 16c-1.103 0-2-.897-2-2s.897-2 2-2 2 .897 2 2-.897 2-2 2zm0-3c-.551 0-1 .449-1 1s.449 1 1 1 1-.449 1-1-.449-1-1-1z"/><path d="m22 24c-1.103 0-2-.897-2-2s.897-2 2-2 2 .897 2 2-.897 2-2 2zm0-3c-.551 0-1 .449-1 1s.449 1 1 1 1-.449 1-1-.449-1-1-1z"/><path d="m15 20c-1.103 0-2-.897-2-2s.897-2 2-2 2 .897 2 2-.897 2-2 2zm0-3c-.551 0-1 .449-1 1s.449 1 1 1 1-.449 1-1-.449-1-1-1z"/><path d="m18 17.456h1v5.088h-1z" transform="matrix(.495 -.869 .869 .495 -8.037 26.168)"/><path d="m15.956 15.5h5.088v1h-5.088z" transform="matrix(.869 -.495 .495 .869 -5.494 11.255)"/><path d="m16.5 24h-14c-1.378 0-2.5-1.122-2.5-2.5v-9c0-.827.673-1.5 1.5-1.5.276 0 .5-.224.5-.5v-2c0-.276-.224-.5-.5-.5-.827 0-1.5-.673-1.5-1.5v-4c0-1.378 1.122-2.5 2.5-2.5h10.171c.667 0 1.295.26 1.768.732l3.829 3.828c.472.473.732 1.101.732 1.769v4.171c0 .276-.224.5-.5.5s-.5-.224-.5-.5v-4.171c0-.401-.156-.777-.439-1.061l-3.829-3.828c-.279-.28-.666-.44-1.061-.44h-10.171c-.827 0-1.5.673-1.5 1.5v4c0 .276.224.5.5.5.827 0 1.5.673 1.5 1.5v2c0 .827-.673 1.5-1.5 1.5-.276 0-.5.224-.5.5v9c0 .827.673 1.5 1.5 1.5h14c.276 0 .5.224.5.5s-.224.5-.5.5z"/><path d="m4.5 5c-.276 0-.5-.224-.5-.5v-4c0-.276.224-.5.5-.5s.5.224.5.5v4c0 .276-.224.5-.5.5z"/><path d="m8.5 5c-.276 0-.5-.224-.5-.5v-4c0-.276.224-.5.5-.5s.5.224.5.5v4c0 .276-.224.5-.5.5z"/><path d="m12.5 5c-.276 0-.5-.224-.5-.5v-4c0-.276.224-.5.5-.5s.5.224.5.5v4c0 .276-.224.5-.5.5z"/><path d="m10.5 21h-6c-.827 0-1.5-.673-1.5-1.5v-5c0-.827.673-1.5 1.5-1.5h9c.276 0 .5.224.5.5s-.224.5-.5.5h-9c-.276 0-.5.224-.5.5v5c0 .276.224.5.5.5h6c.276 0 .5.224.5.5s-.224.5-.5.5z"/></svg>