<svg id="_x31__px" height="512" viewBox="0 0 24 24" width="512" xmlns="http://www.w3.org/2000/svg"><path d="m21.208 24c-.098 0-.196-.029-.281-.086l-3.427-2.332-3.427 2.332c-.172.118-.397.115-.568-.004-.17-.119-.249-.331-.198-.532l1.061-4.188-3.192-2.726c-.155-.133-.214-.347-.149-.54s.241-.328.445-.339l4.083-.231 1.477-4.025c.145-.394.794-.394.938 0l1.477 4.025 4.083.231c.204.011.38.146.445.339s.006.407-.149.54l-3.192 2.726 1.061 4.188c.051.201-.028.413-.198.532-.088.06-.188.09-.289.09zm-3.708-3.523c.098 0 .196.029.281.086l2.619 1.782-.813-3.211c-.046-.184.016-.379.16-.503l2.481-2.119-3.167-.18c-.199-.011-.373-.14-.441-.327l-1.12-3.054-1.12 3.054c-.068.187-.242.315-.441.327l-3.167.18 2.481 2.119c.145.124.207.319.16.503l-.813 3.211 2.619-1.782c.085-.058.183-.086.281-.086z"/><path d="m10.5 24h-8c-1.378 0-2.5-1.122-2.5-2.5v-9c0-.827.673-1.5 1.5-1.5.276 0 .5-.224.5-.5v-2c0-.276-.224-.5-.5-.5-.827 0-1.5-.673-1.5-1.5v-4c0-1.378 1.122-2.5 2.5-2.5h10.171c.667 0 1.295.26 1.768.732l3.829 3.828c.472.473.732 1.101.732 1.769v2.171c0 .276-.224.5-.5.5s-.5-.224-.5-.5v-2.171c0-.401-.156-.777-.439-1.061l-3.829-3.828c-.279-.28-.666-.44-1.061-.44h-10.171c-.827 0-1.5.673-1.5 1.5v4c0 .276.224.5.5.5.827 0 1.5.673 1.5 1.5v2c0 .827-.673 1.5-1.5 1.5-.276 0-.5.224-.5.5v9c0 .827.673 1.5 1.5 1.5h8c.276 0 .5.224.5.5s-.224.5-.5.5z"/><path d="m4.5 5c-.276 0-.5-.224-.5-.5v-4c0-.276.224-.5.5-.5s.5.224.5.5v4c0 .276-.224.5-.5.5z"/><path d="m8.5 5c-.276 0-.5-.224-.5-.5v-4c0-.276.224-.5.5-.5s.5.224.5.5v4c0 .276-.224.5-.5.5z"/><path d="m12.5 5c-.276 0-.5-.224-.5-.5v-4c0-.276.224-.5.5-.5s.5.224.5.5v4c0 .276-.224.5-.5.5z"/><path d="m10.5 21h-6c-.827 0-1.5-.673-1.5-1.5v-5c0-.827.673-1.5 1.5-1.5h5c.276 0 .5.224.5.5s-.224.5-.5.5h-5c-.276 0-.5.224-.5.5v5c0 .276.224.5.5.5h6c.276 0 .5.224.5.5s-.224.5-.5.5z"/></svg>