<svg id="_x31__px" height="512" viewBox="0 0 24 24" width="512" xmlns="http://www.w3.org/2000/svg"><path d="m22.5 24h-11c-.827 0-1.5-.673-1.5-1.5 0-.293.081-.569.235-.799l5.488-8.982c.258-.44.75-.719 1.277-.719s1.019.279 1.281.727l5.495 8.992c.143.212.224.488.224.781 0 .827-.673 1.5-1.5 1.5zm-5.5-11c-.174 0-.334.089-.418.233l-5.505 9.008c-.055.082-.077.165-.077.259 0 .276.225.5.5.5h11c.275 0 .5-.224.5-.5 0-.094-.022-.177-.065-.241l-5.512-9.018c-.089-.152-.249-.241-.423-.241z"/><path d="m17 20c-.276 0-.5-.224-.5-.5v-4c0-.276.224-.5.5-.5s.5.224.5.5v4c0 .276-.224.5-.5.5z"/><circle cx="17" cy="21.5" r=".5"/><path d="m7.499 24h-4.999c-1.379 0-2.5-1.122-2.5-2.5v-9c0-.827.673-1.5 1.5-1.5.275 0 .5-.224.5-.5v-2c0-.276-.225-.5-.5-.5-.827 0-1.5-.673-1.5-1.5v-4c0-1.378 1.121-2.5 2.5-2.5h10.171c.668 0 1.295.26 1.768.732l3.829 3.828c.472.473.732 1.101.732 1.769v3.171c0 .276-.224.5-.5.5s-.5-.224-.5-.5v-3.171c0-.401-.156-.777-.439-1.061l-3.829-3.828c-.284-.284-.661-.44-1.061-.44h-10.171c-.827 0-1.5.673-1.5 1.5v4c0 .276.225.5.5.5.827 0 1.5.673 1.5 1.5v2c0 .827-.673 1.5-1.5 1.5-.275 0-.5.224-.5.5v9c0 .827.673 1.5 1.5 1.5h4.999c.276 0 .5.224.5.5s-.224.5-.5.5z"/><path d="m4.5 5c-.276 0-.5-.224-.5-.5v-4c0-.276.224-.5.5-.5s.5.224.5.5v4c0 .276-.224.5-.5.5z"/><path d="m8.5 5c-.276 0-.5-.224-.5-.5v-4c0-.276.224-.5.5-.5s.5.224.5.5v4c0 .276-.224.5-.5.5z"/><path d="m12.5 5c-.276 0-.5-.224-.5-.5v-4c0-.276.224-.5.5-.5s.5.224.5.5v4c0 .276-.224.5-.5.5z"/><path d="m7.5 21h-3c-.827 0-1.5-.673-1.5-1.5v-5c0-.827.673-1.5 1.5-1.5h8c.276 0 .5.224.5.5s-.224.5-.5.5h-8c-.275 0-.5.224-.5.5v5c0 .276.225.5.5.5h3c.276 0 .5.224.5.5s-.224.5-.5.5z"/></svg>