<svg id="_x31__px" height="512" viewBox="0 0 24 24" width="512" xmlns="http://www.w3.org/2000/svg"><path d="m17.5 24h-15c-1.378 0-2.5-1.121-2.5-2.5v-9c0-.827.673-1.5 1.5-1.5.276 0 .5-.225.5-.5v-2c0-.275-.224-.5-.5-.5-.827 0-1.5-.673-1.5-1.5v-4c0-1.379 1.122-2.5 2.5-2.5h10.171c.667 0 1.295.26 1.768.732l3.829 3.828c.472.473.732 1.1.732 1.768v9.172c0 .276-.224.5-.5.5s-.5-.224-.5-.5v-9.172c0-.395-.16-.781-.439-1.061l-3.829-3.828c-.279-.279-.666-.439-1.061-.439h-10.171c-.827 0-1.5.673-1.5 1.5v4c0 .275.224.5.5.5.827 0 1.5.673 1.5 1.5v2c0 .827-.673 1.5-1.5 1.5-.276 0-.5.225-.5.5v9c0 .827.673 1.5 1.5 1.5h15c.276 0 .5.224.5.5s-.224.5-.5.5z"/><path d="m4.5 5c-.276 0-.5-.224-.5-.5v-4c0-.276.224-.5.5-.5s.5.224.5.5v4c0 .276-.224.5-.5.5z"/><path d="m8.5 5c-.276 0-.5-.224-.5-.5v-4c0-.276.224-.5.5-.5s.5.224.5.5v4c0 .276-.224.5-.5.5z"/><path d="m12.5 5c-.276 0-.5-.224-.5-.5v-4c0-.276.224-.5.5-.5s.5.224.5.5v4c0 .276-.224.5-.5.5z"/><path d="m14.5 21h-10c-.827 0-1.5-.673-1.5-1.5v-5c0-.827.673-1.5 1.5-1.5h10c.827 0 1.5.673 1.5 1.5v5c0 .827-.673 1.5-1.5 1.5zm-10-7c-.276 0-.5.225-.5.5v5c0 .275.224.5.5.5h10c.276 0 .5-.225.5-.5v-5c0-.275-.224-.5-.5-.5z"/><path d="m22.5 21h-1c-.827 0-1.5-.673-1.5-1.5v-1c0-.827.673-1.5 1.5-1.5h1c.827 0 1.5.673 1.5 1.5v1c0 .827-.673 1.5-1.5 1.5zm-1-3c-.276 0-.5.225-.5.5v1c0 .275.224.5.5.5h1c.276 0 .5-.225.5-.5v-1c0-.275-.224-.5-.5-.5z"/><path d="m22.5 24h-1c-.827 0-1.5-.673-1.5-1.5v-1c0-.827.673-1.5 1.5-1.5h1c.827 0 1.5.673 1.5 1.5v1c0 .827-.673 1.5-1.5 1.5zm-1-3c-.276 0-.5.225-.5.5v1c0 .275.224.5.5.5h1c.276 0 .5-.225.5-.5v-1c0-.275-.224-.5-.5-.5z"/></svg>