<svg id="_x31__px" height="512" viewBox="0 0 24 24" width="512" xmlns="http://www.w3.org/2000/svg"><path d="m22.5 24h-21c-.827 0-1.5-.673-1.5-1.5v-3c0-1.378 1.122-2.5 2.5-2.5h3c.276 0 .5.224.5.5s-.224.5-.5.5h-3c-.827 0-1.5.673-1.5 1.5v3c0 .276.224.5.5.5h21c.276 0 .5-.224.5-.5v-3c0-.827-.673-1.5-1.5-1.5h-3c-.276 0-.5-.224-.5-.5s.224-.5.5-.5h3c1.378 0 2.5 1.122 2.5 2.5v3c0 .827-.673 1.5-1.5 1.5z"/><path d="m16.5 21h-9c-1.378 0-2.5-1.122-2.5-2.5v-16c0-1.378 1.122-2.5 2.5-2.5h9c1.378 0 2.5 1.122 2.5 2.5v16c0 1.378-1.122 2.5-2.5 2.5zm-9-20c-.827 0-1.5.673-1.5 1.5v16c0 .827.673 1.5 1.5 1.5h9c.827 0 1.5-.673 1.5-1.5v-16c0-.827-.673-1.5-1.5-1.5z"/><path d="m20.5 21h-17c-.276 0-.5-.224-.5-.5s.224-.5.5-.5h17c.276 0 .5.224.5.5s-.224.5-.5.5z"/><path d="m13.5 3h-3c-.827 0-1.5-.673-1.5-1.5 0-.276-.224-.5-.5-.5s-.5-.224-.5-.5.224-.5.5-.5c.827 0 1.5.673 1.5 1.5 0 .276.224.5.5.5h3c.276 0 .5-.224.5-.5 0-.827.673-1.5 1.5-1.5.276 0 .5.224.5.5s-.224.5-.5.5-.5.224-.5.5c0 .827-.673 1.5-1.5 1.5z"/><path d="m11.5 16c-.095 0-.191-.027-.277-.084-.23-.153-.292-.463-.139-.693l1.637-2.456-2.379-.793c-.148-.049-.264-.165-.315-.312-.05-.147-.029-.31.057-.439l2-3c.152-.23.462-.292.693-.139.23.153.292.463.139.693l-1.637 2.456 2.379.793c.148.049.264.165.315.312.05.147.029.31-.057.439l-2 3c-.096.145-.255.223-.416.223z"/></svg>