<svg id="_x31__px" height="512" viewBox="0 0 24 24" width="512" xmlns="http://www.w3.org/2000/svg"><path d="m19.184 12.644-.707-.707c2.632-2.632 3.753-3.753 4.297-4.163l-.066-.066c.188-.19.292-.441.292-.708s-.104-.518-.293-.707l-5-5c-.378-.378-1.036-.378-1.413 0l-4.23 4.23c-.195.195-.512.195-.707 0s-.195-.512 0-.707l4.23-4.23c.752-.756 2.071-.756 2.828 0l5 5c.377.378.585.88.585 1.414s-.208 1.036-.586 1.414c-.081.08-4.23 4.23-4.23 4.23z"/><path d="m13.75 7.75c-.128 0-.256-.049-.354-.146-.195-.195-.195-.512 0-.707l5.25-5.25c.195-.195.512-.195.707 0s.195.512 0 .707l-5.25 5.25c-.097.097-.225.146-.353.146z"/><path d="m16.75 10.75c-.128 0-.256-.049-.354-.146-.195-.195-.195-.512 0-.707l5.25-5.25c.195-.195.512-.195.707 0s.195.512 0 .707l-5.25 5.25c-.097.097-.225.146-.353.146z"/><path d="m11 22c-1.335 0-2.591-.52-3.536-1.464l-4-4c-.944-.945-1.464-2.201-1.464-3.536 0-1.374.546-2.655 1.538-3.607l5.079-4.837c.756-.727 2.053-.714 2.797.03l8 8c.378.378.586.88.586 1.414 0 .519-.198 1.011-.557 1.385l-4.834 5.076c-.954.993-2.235 1.539-3.609 1.539zm-2.829-2.171c.756.755 1.761 1.171 2.829 1.171 1.099 0 2.124-.437 2.885-1.23l4.834-5.076c.182-.189.281-.435.281-.694 0-.267-.104-.518-.293-.707l-8-8c-.372-.373-1.02-.379-1.399-.014l-5.079 4.837c-.792.76-1.229 1.785-1.229 2.884 0 1.068.416 2.073 1.171 2.829z"/><path d="m14 20.5c-.128 0-.256-.049-.354-.146l-10-10c-.195-.195-.195-.512 0-.707s.512-.195.707 0l10 10c.195.195.195.512 0 .707-.097.097-.225.146-.353.146z"/><path d="m.5 21c-.128 0-.256-.049-.354-.146-.195-.195-.195-.512 0-.707l3.75-3.75c.195-.195.512-.195.707 0s.195.512 0 .707l-3.75 3.75c-.097.097-.225.146-.353.146z"/><path d="m3.5 24c-.128 0-.256-.049-.354-.146-.195-.195-.195-.512 0-.707l3.75-3.75c.195-.195.512-.195.707 0s.195.512 0 .707l-3.75 3.75c-.097.097-.225.146-.353.146z"/></svg>