<svg id="_x31__px" height="512" viewBox="0 0 24 24" width="512" xmlns="http://www.w3.org/2000/svg"><path d="m4.5 23c-.276 0-.5-.224-.5-.5v-19c0-.827-.673-1.5-1.5-1.5h-2c-.276 0-.5-.224-.5-.5s.224-.5.5-.5h2c1.379 0 2.5 1.121 2.5 2.5v19c0 .276-.224.5-.5.5z"/><path d="m21.5 19h-4.382c-.571 0-1.085-.317-1.342-.828l-.447-.896c-.085-.171-.256-.276-.447-.276h-2.764c-.191 0-.362.105-.447.275l-.447.896c-.255.511-.77.829-1.342.829h-5.382c-.276 0-.5-.224-.5-.5s.224-.5.5-.5h5.382c.191 0 .362-.105.447-.275l.447-.896c.255-.511.77-.829 1.342-.829h2.764c.572 0 1.087.318 1.342.83l.447.894c.085.17.257.276.447.276h4.382c.827 0 1.5-.673 1.5-1.5v-9c0-.827-.673-1.5-1.5-1.5h-17c-.276 0-.5-.224-.5-.5s.224-.5.5-.5h17c1.379 0 2.5 1.121 2.5 2.5v9c0 1.379-1.121 2.5-2.5 2.5z"/><path d="m6.5 16h-2c-.276 0-.5-.224-.5-.5s.224-.5.5-.5h2c.275 0 .5-.225.5-.5v-5c0-.275-.225-.5-.5-.5h-2c-.276 0-.5-.224-.5-.5s.224-.5.5-.5h2c.827 0 1.5.673 1.5 1.5v5c0 .827-.673 1.5-1.5 1.5z"/><path d="m19.5 11c-.827 0-1.5-.673-1.5-1.5s.673-1.5 1.5-1.5 1.5.673 1.5 1.5-.673 1.5-1.5 1.5zm0-2c-.275 0-.5.225-.5.5s.225.5.5.5.5-.225.5-.5-.225-.5-.5-.5z"/><path d="m14.5 11c-.827 0-1.5-.673-1.5-1.5s.673-1.5 1.5-1.5 1.5.673 1.5 1.5-.673 1.5-1.5 1.5zm0-2c-.275 0-.5.225-.5.5s.225.5.5.5.5-.225.5-.5-.225-.5-.5-.5z"/><path d="m18.5 10h-3c-.276 0-.5-.224-.5-.5s.224-.5.5-.5h3c.276 0 .5.224.5.5s-.224.5-.5.5z"/></svg>