<svg id="_x31__px" height="512" viewBox="0 0 24 24" width="512" xmlns="http://www.w3.org/2000/svg"><path d="m12 20c-5.514 0-10-4.486-10-10s4.486-10 10-10 10 4.486 10 10-4.486 10-10 10zm0-19c-4.962 0-9 4.038-9 9s4.038 9 9 9 9-4.038 9-9-4.038-9-9-9z"/><path d="m12 17c-2.757 0-5-2.243-5-5s2.243-5 5-5 5 2.243 5 5-2.243 5-5 5zm0-9c-2.206 0-4 1.794-4 4s1.794 4 4 4 4-1.794 4-4-1.794-4-4-4z"/><path d="m12 14c-1.103 0-2-.897-2-2s.897-2 2-2 2 .897 2 2-.897 2-2 2zm0-3c-.551 0-1 .449-1 1s.449 1 1 1 1-.449 1-1-.449-1-1-1z"/><path d="m13.813 5h-3.625c-.917 0-1.757-.5-2.195-1.303l-.932-1.708c-.132-.242-.043-.546.2-.678.241-.132.546-.043.678.2l.932 1.708c.262.482.767.781 1.317.781h3.625c.549 0 1.054-.299 1.317-.782l.932-1.708c.132-.243.438-.332.678-.2.243.132.332.436.2.678l-.932 1.708c-.439.804-1.279 1.304-2.195 1.304z"/><path d="m6 24c-.158 0-.313-.074-.41-.213-.158-.226-.103-.538.123-.696l.247-.173c1.277-.895 2.04-2.359 2.04-3.918 0-.276.224-.5.5-.5s.5.224.5.5c0 1.885-.922 3.656-2.466 4.737l-.247.173c-.088.061-.187.09-.287.09z"/><path d="m18 24c-.099 0-.199-.029-.286-.09l-.247-.173c-1.545-1.081-2.467-2.852-2.467-4.737 0-.276.224-.5.5-.5s.5.224.5.5c0 1.559.763 3.023 2.04 3.917l.247.173c.226.158.281.47.123.696-.097.14-.253.214-.41.214z"/><path d="m19.5 24h-15c-.276 0-.5-.224-.5-.5s.224-.5.5-.5h15c.276 0 .5.224.5.5s-.224.5-.5.5z"/></svg>