<svg id="_x31__px" height="512" viewBox="0 0 24 24" width="512" xmlns="http://www.w3.org/2000/svg"><path d="m12 20c-5.514 0-10-4.486-10-10s4.486-10 10-10 10 4.486 10 10-4.486 10-10 10zm0-19c-4.962 0-9 4.038-9 9s4.038 9 9 9 9-4.038 9-9-4.038-9-9-9z"/><path d="m12 10c-1.654 0-3-1.346-3-3s1.346-3 3-3 3 1.346 3 3-1.346 3-3 3zm0-5c-1.103 0-2 .897-2 2s.897 2 2 2 2-.897 2-2-.897-2-2-2z"/><path d="m12 15c-4.411 0-8-3.589-8-8 0-1.595.465-3.13 1.345-4.439.154-.228.465-.29.694-.136s.29.465.136.694c-.769 1.143-1.175 2.485-1.175 3.881 0 3.86 3.14 7 7 7s7-3.14 7-7c0-1.396-.406-2.738-1.175-3.881-.154-.229-.093-.54.136-.694.228-.155.54-.093.694.136.88 1.309 1.345 2.844 1.345 4.439 0 4.411-3.589 8-8 8z"/><path d="m21.5 24h-19c-.827 0-1.5-.673-1.5-1.5v-1.892c0-.868.439-1.66 1.175-2.12l3.06-1.913c.234-.147.543-.075.689.159s.075.543-.159.689l-3.06 1.913c-.441.276-.705.752-.705 1.272v1.892c0 .276.224.5.5.5h19c.276 0 .5-.224.5-.5v-1.892c0-.521-.264-.996-.705-1.272l-3.06-1.913c-.234-.146-.305-.455-.159-.689s.454-.306.689-.159l3.06 1.913c.736.46 1.175 1.253 1.175 2.12v1.892c0 .827-.673 1.5-1.5 1.5z"/></svg>