<svg id="_x31__px" height="512" viewBox="0 0 24 24" width="512" xmlns="http://www.w3.org/2000/svg"><path d="m4.5 24c-2.481 0-4.5-2.019-4.5-4.5s2.019-4.5 4.5-4.5c.827 0 1.5.673 1.5 1.5v6c0 .827-.673 1.5-1.5 1.5zm0-8c-1.93 0-3.5 1.57-3.5 3.5s1.57 3.5 3.5 3.5c.275 0 .5-.225.5-.5v-6c0-.275-.225-.5-.5-.5z"/><path d="m17.5 24c-.827 0-1.5-.673-1.5-1.5v-6c0-.827.673-1.5 1.5-1.5 2.481 0 4.5 2.019 4.5 4.5s-2.019 4.5-4.5 4.5zm0-8c-.275 0-.5.225-.5.5v6c0 .275.225.5.5.5 1.93 0 3.5-1.57 3.5-3.5s-1.57-3.5-3.5-3.5z"/><path d="m19.5 16.25c-.276 0-.5-.224-.5-.5v-3.75c0-.385-.028-.771-.084-1.146-.041-.273.147-.528.42-.568.279-.041.527.147.568.42.064.425.096.859.096 1.294v3.75c0 .276-.224.5-.5.5z"/><path d="m2.5 16.25c-.276 0-.5-.224-.5-.5v-3.75c0-4.963 4.037-9 9-9 .76 0 1.461.087 2.146.267.267.069.427.343.356.61-.069.267-.342.431-.61.356-.6-.157-1.219-.233-1.892-.233-4.411 0-8 3.589-8 8v3.75c0 .276-.224.5-.5.5z"/><path d="m6.138 8.808c-.641 0-1.284-.247-1.771-.734l-.64-.64c-.195-.195-.195-.512 0-.707s.512-.195.707 0l.64.64c.553.552 1.429.593 1.999.097 1.665-1.439 4.079-1.856 6.143-1.038.257.102.382.393.28.649-.103.257-.393.379-.649.28-1.72-.682-3.733-.335-5.119.863-.454.395-1.021.59-1.59.59z"/><path d="m23.5 8.5c-.276 0-.5-.224-.5-.5 0-3.859-3.141-7-7-7-.276 0-.5-.224-.5-.5s.224-.5.5-.5c4.411 0 8 3.589 8 8 0 .276-.224.5-.5.5z"/><path d="m20.5 8.5c-.276 0-.5-.224-.5-.5 0-2.206-1.794-4-4-4-.276 0-.5-.224-.5-.5s.224-.5.5-.5c2.757 0 5 2.243 5 5 0 .276-.224.5-.5.5z"/><path d="m17.5 8.5c-.276 0-.5-.224-.5-.5 0-.552-.448-1-1-1-.276 0-.5-.224-.5-.5s.224-.5.5-.5c1.103 0 2 .897 2 2 0 .276-.224.5-.5.5z"/></svg>