<svg id="_x31__px" height="512" viewBox="0 0 24 24" width="512" xmlns="http://www.w3.org/2000/svg"><path d="m21.5 24h-19c-1.379 0-2.5-1.121-2.5-2.5v-5c0-1.379 1.121-2.5 2.5-2.5h5c.156 0 .306-.075.399-.2l.602-.8c.469-.626 1.217-1 1.999-1h3c.783 0 1.531.374 2.001 1l.6.8c.094.125.243.2.399.2h5c1.379 0 2.5 1.121 2.5 2.5v5c0 1.379-1.121 2.5-2.5 2.5zm-19-9c-.827 0-1.5.673-1.5 1.5v5c0 .827.673 1.5 1.5 1.5h19c.827 0 1.5-.673 1.5-1.5v-5c0-.827-.673-1.5-1.5-1.5h-5c-.469 0-.917-.225-1.199-.6l-.601-.8c-.281-.375-.73-.6-1.2-.6h-3c-.47 0-.918.225-1.199.6l-.602.8c-.28.375-.729.6-1.199.6z"/><path d="m16.5 21h-9c-.276 0-.5-.224-.5-.5s.224-.5.5-.5h9c.276 0 .5.224.5.5s-.224.5-.5.5z"/><path d="m13.5 18h-3c-.276 0-.5-.224-.5-.5s.224-.5.5-.5h3c.276 0 .5.224.5.5s-.224.5-.5.5z"/><path d="m6.5 18h-3c-.276 0-.5-.224-.5-.5s.224-.5.5-.5h3c.276 0 .5.224.5.5s-.224.5-.5.5z"/><path d="m20.5 18h-3c-.276 0-.5-.224-.5-.5s.224-.5.5-.5h3c.276 0 .5.224.5.5s-.224.5-.5.5z"/><path d="m23.5 8.5c-.276 0-.5-.224-.5-.5 0-3.859-3.141-7-7-7-.276 0-.5-.224-.5-.5s.224-.5.5-.5c4.411 0 8 3.589 8 8 0 .276-.224.5-.5.5z"/><path d="m20.5 8.5c-.276 0-.5-.224-.5-.5 0-2.206-1.794-4-4-4-.276 0-.5-.224-.5-.5s.224-.5.5-.5c2.757 0 5 2.243 5 5 0 .276-.224.5-.5.5z"/><path d="m17.5 8.5c-.276 0-.5-.224-.5-.5 0-.552-.448-1-1-1-.276 0-.5-.224-.5-.5s.224-.5.5-.5c1.103 0 2 .897 2 2 0 .276-.224.5-.5.5z"/></svg>