<svg id="_x31__px" height="512" viewBox="0 0 24 24" width="512" xmlns="http://www.w3.org/2000/svg"><path d="m8.5 24h-3c-3.032 0-5.5-2.467-5.5-5.5v-8c0-3.033 2.468-5.5 5.5-5.5h3c3.032 0 5.5 2.467 5.5 5.5v8c0 3.033-2.468 5.5-5.5 5.5zm-3-18c-2.481 0-4.5 2.019-4.5 4.5v8c0 2.481 2.019 4.5 4.5 4.5h3c2.481 0 4.5-2.019 4.5-4.5v-8c0-2.481-2.019-4.5-4.5-4.5z"/><path d="m7 11c-.276 0-.5-.224-.5-.5v-5c0-.276.224-.5.5-.5s.5.224.5.5v5c0 .276-.224.5-.5.5z"/><path d="m7 16c-1.103 0-2-.897-2-2v-2c0-1.103.897-2 2-2s2 .897 2 2v2c0 1.103-.897 2-2 2zm0-5c-.552 0-1 .449-1 1v2c0 .551.448 1 1 1s1-.449 1-1v-2c0-.551-.448-1-1-1z"/><path d="m23.5 8.5c-.276 0-.5-.224-.5-.5 0-3.86-3.141-7-7-7-.276 0-.5-.224-.5-.5s.224-.5.5-.5c4.411 0 8 3.589 8 8 0 .276-.224.5-.5.5z"/><path d="m20.5 8.5c-.276 0-.5-.224-.5-.5 0-2.206-1.794-4-4-4-.276 0-.5-.224-.5-.5s.224-.5.5-.5c2.757 0 5 2.243 5 5 0 .276-.224.5-.5.5z"/><path d="m17.5 8.5c-.276 0-.5-.224-.5-.5 0-.551-.448-1-1-1-.276 0-.5-.224-.5-.5s.224-.5.5-.5c1.103 0 2 .897 2 2 0 .276-.224.5-.5.5z"/></svg>